<svg width="196" height="50" viewBox="0 0 196 50" fill="none" xmlns="http://www.w3.org/2000/svg">
<mask id="mask0_20103_42" style="mask-type:luminance" maskUnits="userSpaceOnUse" x="0" y="0" width="196" height="50">
<path d="M195.306 0H0V50H195.306V0Z" fill="white"/>
</mask>
<g mask="url(#mask0_20103_42)">
<path d="M46.7135 12.6014L45.6296 10.7082C45.5449 10.56 45.4272 10.4333 45.2855 10.338C45.1439 10.2427 44.9822 10.1814 44.813 10.1587C44.6438 10.1361 44.4717 10.1528 44.31 10.2075C44.1483 10.2622 44.0014 10.3534 43.8807 10.4741L41.405 12.9498C41.2227 13.1322 41.1093 13.3721 41.0839 13.6287C41.0586 13.8854 41.1229 14.1428 41.266 14.3574C42.1706 15.7387 42.8949 17.2299 43.4214 18.7949C44.405 21.719 44.6788 24.8351 44.2203 27.8859C43.7618 30.9367 42.5842 33.8346 40.7846 36.3405C38.9851 38.8463 36.6153 40.8882 33.8709 42.2974C31.1265 43.7066 28.0862 44.4427 25.0011 44.445C21.8229 44.454 18.6918 43.6766 15.8869 42.1823L20.0833 37.9876C22.1851 38.7832 24.4487 39.0568 26.6796 38.7849C28.9105 38.513 31.042 37.7036 32.8912 36.4264C34.7403 35.1491 36.2518 33.4422 37.2959 31.452C38.34 29.4619 38.8855 27.248 38.8854 25.0007C38.8845 24.5204 38.8581 24.0406 38.8062 23.5631C38.6416 21.9603 38.1986 20.3985 37.4972 18.9479C37.4188 18.7904 37.3042 18.6536 37.1628 18.5489C37.0214 18.4442 36.8572 18.3745 36.6836 18.3455C36.51 18.3164 36.3321 18.329 36.1643 18.382C35.9965 18.435 35.8437 18.5271 35.7183 18.6506L33.2057 21.1632C33.0719 21.2966 32.9744 21.462 32.9223 21.6436C32.8703 21.8253 32.8655 22.0172 32.9084 22.2013L33.1195 23.1039C33.4908 24.6829 33.393 26.3359 32.838 27.86C32.2831 29.3842 31.2953 30.7132 29.9958 31.6838C28.6962 32.6545 27.1416 33.2246 25.5226 33.3243C23.9037 33.4239 22.2908 33.0486 20.8821 32.2446L19.7771 31.6111C19.5657 31.4892 19.3199 31.4403 19.0778 31.4721C18.8358 31.5039 18.611 31.6146 18.4382 31.7871L8.18725 42.0257C8.07543 42.1374 7.98877 42.2718 7.93305 42.4197C7.87734 42.5676 7.85386 42.7258 7.86419 42.8835C7.87452 43.0413 7.91841 43.195 7.99294 43.3344C8.06747 43.4738 8.17091 43.5957 8.29634 43.6919L9.806 44.8497C14.1593 48.2049 19.505 50.0167 25.0011 49.9998C38.7851 49.9998 50.0003 38.7847 50.0003 25.0007C50.0014 20.6521 48.8685 16.3784 46.7135 12.6014Z" fill="url(#paint0_linear_20103_42)"/>
<path d="M40.1942 5.1502C35.8415 1.79528 30.4965 -0.0165238 25.0009 0.000113567C11.2151 0.000113567 3.80013e-07 11.2152 3.80013e-07 25.001C-0.000757491 29.3495 1.13208 33.6231 3.28676 37.4003L4.37062 39.2935C4.45518 39.4434 4.57343 39.5716 4.71605 39.668C4.85867 39.7644 5.02175 39.8263 5.1924 39.8488C5.36305 39.8713 5.53661 39.8539 5.69935 39.7978C5.86209 39.7417 6.00957 39.6486 6.13013 39.5257L8.604 37.0519C8.7863 36.8695 8.89978 36.6296 8.92512 36.3729C8.95046 36.1163 8.88611 35.8588 8.743 35.6443C7.83912 34.2626 7.11483 32.7714 6.58761 31.2068C5.60393 28.2832 5.32976 25.1675 5.78771 22.117C6.24567 19.0665 7.42262 16.1687 9.2214 13.6628C11.0202 11.1568 13.3892 9.1147 16.1329 7.70494C18.8766 6.29517 21.9162 5.5582 25.0009 5.55489C28.1785 5.54613 31.309 6.32345 34.1134 7.81762L29.9117 12.014C27.8099 11.2179 25.5463 10.9439 23.3154 11.2156C21.0844 11.4874 18.9527 12.2967 17.1035 13.5741C15.2544 14.8514 13.743 16.5587 12.6992 18.5491C11.6555 20.5395 11.1106 22.7535 11.1113 25.001C11.1113 25.2315 11.1729 26.2837 11.1922 26.4649C11.3621 28.0577 11.8049 29.6094 12.5013 31.0519C12.5786 31.2119 12.6929 31.3511 12.8349 31.4579C12.9769 31.5646 13.1424 31.6359 13.3175 31.6657C13.4927 31.6955 13.6724 31.6829 13.8417 31.6291C14.011 31.5753 14.1649 31.4818 14.2907 31.3563L16.8033 28.8455C16.9377 28.711 17.0354 28.5444 17.0872 28.3614C17.1389 28.1785 17.1429 27.9853 17.0989 27.8004L16.8913 26.9048C16.7454 26.2807 16.671 25.6419 16.6696 25.001C16.6696 23.5427 17.0526 22.11 17.7802 20.8463C18.5079 19.5826 19.5547 18.5321 20.8159 17.8C22.0771 17.068 23.5084 16.68 24.9667 16.6749C26.4249 16.6699 27.8589 17.0479 29.1252 17.7712L30.2319 18.4046C30.4432 18.5261 30.6886 18.5747 30.9303 18.5429C31.172 18.5111 31.3965 18.4007 31.5691 18.2286L41.813 7.98477C41.9248 7.87287 42.0115 7.73838 42.0673 7.5903C42.123 7.44221 42.1465 7.28394 42.1362 7.12606C42.1258 6.96818 42.0819 6.81431 42.0074 6.67475C41.9328 6.53519 41.8294 6.41314 41.7039 6.31675L40.1942 5.1502Z" fill="url(#paint1_linear_20103_42)"/>
<path d="M82.3049 31.8952C82.1179 31.7435 81.883 31.6632 81.6422 31.6686C81.4015 31.6741 81.1705 31.765 80.9906 31.9251C79.3841 33.1726 77.5208 34.3268 74.7971 34.3268C69.8124 34.3268 65.7567 30.1269 65.7567 24.9627C65.7567 19.7985 69.7948 15.5634 74.7601 15.5634C76.9226 15.5634 79.2451 16.4695 80.9589 17.9722C81.0546 18.0849 81.1742 18.175 81.309 18.2359C81.4438 18.2967 81.5905 18.3269 81.7384 18.3241C81.8651 18.3133 81.988 18.2751 82.0986 18.2122C82.2091 18.1494 82.3047 18.0633 82.3788 17.9599L84.0011 16.2901C84.1038 16.1894 84.1849 16.0688 84.2394 15.9357C84.2939 15.8026 84.3205 15.6597 84.3178 15.5159C84.3121 15.3698 84.2762 15.2266 84.2123 15.0951C84.1484 14.9637 84.0579 14.8469 83.9465 14.7523C81.1313 12.289 78.2792 11.1875 74.7232 11.1875C67.1327 11.1875 60.9568 17.4021 60.9568 25.0401C60.9596 28.6913 62.4105 32.1923 64.9913 34.7751C67.5721 37.3579 71.072 38.8115 74.7232 38.8171C78.295 38.8171 81.5026 37.5291 84.0011 35.0869C84.1085 34.9775 84.1929 34.8476 84.2491 34.7049C84.3053 34.5623 84.3323 34.4097 84.3284 34.2564C84.327 34.1329 84.3004 34.011 84.2501 33.8981C84.1999 33.7852 84.1271 33.6838 84.0363 33.6001L82.3049 31.8952Z" fill="black"/>
<path d="M94.1053 11.5605H91.642C91.3657 11.5682 91.1031 11.6824 90.909 11.8791C90.7149 12.0758 90.6043 12.3399 90.6003 12.6163V37.3954C90.6066 37.6702 90.7181 37.9321 90.912 38.127C91.1059 38.3218 91.3672 38.4347 91.642 38.4423H94.1053C94.3802 38.4348 94.6417 38.3219 94.8359 38.1271C95.0301 37.9323 95.142 37.6704 95.1487 37.3954V12.6075C95.1424 12.3324 95.0306 12.0702 94.8364 11.8753C94.6421 11.6804 94.3804 11.5677 94.1053 11.5605Z" fill="black"/>
<path d="M123.166 19.9077C123.166 15.3083 119.376 11.5605 114.72 11.5605H104.598C104.32 11.5642 104.055 11.6771 103.86 11.8747C103.665 12.0723 103.556 12.3387 103.556 12.6163V37.3954C103.558 37.6715 103.669 37.9356 103.863 38.1313C104.058 38.327 104.322 38.4387 104.598 38.4423H107.017C107.292 38.4343 107.553 38.3213 107.747 38.1265C107.94 37.9318 108.052 37.6701 108.059 37.3954V28.1826H113.137L117.993 37.9198C118.081 38.0798 118.21 38.2132 118.368 38.3061C118.525 38.3989 118.704 38.4478 118.887 38.4476H121.79C121.973 38.4539 122.155 38.4114 122.317 38.3246C122.478 38.2377 122.614 38.1096 122.71 37.9532C122.804 37.7875 122.853 37.6006 122.853 37.4104C122.853 37.2202 122.804 37.0332 122.71 36.8676L117.784 27.6794C121.116 26.1926 123.166 23.2472 123.166 19.9077ZM118.626 19.9833C118.626 22.3182 116.701 24.2906 114.423 24.2906H108.133V15.8626H114.421C116.7 15.8626 118.626 17.7505 118.626 19.9833Z" fill="black"/>
<path d="M149.61 31.8952C149.423 31.7435 149.188 31.6632 148.947 31.6686C148.706 31.6741 148.475 31.765 148.295 31.9251C146.689 33.1726 144.826 34.3268 142.102 34.3268C137.117 34.3268 133.061 30.1269 133.061 24.9627C133.061 19.7985 137.108 15.5634 142.065 15.5634C144.226 15.5634 146.55 16.4695 148.264 17.9722C148.359 18.085 148.479 18.1752 148.614 18.2361C148.748 18.2969 148.895 18.327 149.043 18.3241C149.17 18.3133 149.293 18.2751 149.403 18.2122C149.514 18.1494 149.609 18.0633 149.684 17.9599L151.306 16.2901C151.408 16.1893 151.489 16.0686 151.543 15.9355C151.597 15.8024 151.624 15.6596 151.621 15.5159C151.615 15.37 151.58 15.2268 151.516 15.0953C151.453 14.9639 151.362 14.8471 151.251 14.7523C148.436 12.289 145.584 11.1875 142.028 11.1875C134.436 11.1857 128.269 17.4003 128.269 25.0384C128.271 28.6899 129.723 32.1911 132.304 34.774C134.885 37.3568 138.385 38.8102 142.037 38.8153C145.607 38.8153 148.814 37.5274 151.315 35.0852C151.422 34.9754 151.506 34.8452 151.563 34.7022C151.619 34.5593 151.646 34.4065 151.642 34.2529C151.64 34.1297 151.613 34.0082 151.563 33.8957C151.513 33.7832 151.44 33.6821 151.35 33.5984L149.61 31.8952Z" fill="black"/>
<path d="M172.2 34.2877H162.452V12.607C162.448 12.3306 162.338 12.0665 162.143 11.8698C161.949 11.6731 161.687 11.559 161.41 11.5513H158.947C158.67 11.555 158.405 11.6678 158.21 11.8654C158.015 12.063 157.905 12.3294 157.906 12.607V37.395C157.908 37.671 158.018 37.9352 158.213 38.1309C158.408 38.3265 158.671 38.4382 158.947 38.4419H172.193C172.469 38.4386 172.733 38.3272 172.928 38.1315C173.123 37.9357 173.234 37.6713 173.236 37.395V35.3346C173.234 35.0594 173.124 34.796 172.931 34.6005C172.737 34.4049 172.475 34.2927 172.2 34.2877Z" fill="black"/>
<path d="M194.264 15.7495C194.541 15.7458 194.806 15.6329 195.001 15.4353C195.196 15.2377 195.305 14.9713 195.305 14.6938V12.607C195.305 12.3294 195.196 12.063 195.001 11.8654C194.806 11.6678 194.541 11.555 194.264 11.5513H179.38C179.102 11.555 178.838 11.6678 178.643 11.8654C178.448 12.063 178.338 12.3294 178.338 12.607V37.395C178.341 37.671 178.451 37.9352 178.646 38.1309C178.84 38.3265 179.104 38.4382 179.38 38.4419H194.264C194.54 38.4382 194.803 38.3265 194.998 38.1309C195.193 37.9352 195.303 37.671 195.305 37.395V35.3346C195.303 35.0585 195.193 34.7944 194.998 34.5987C194.803 34.403 194.54 34.2913 194.264 34.2877H182.841V26.9083H192.439C192.717 26.905 192.982 26.7924 193.178 26.5947C193.373 26.3971 193.483 26.1304 193.482 25.8526V23.7658C193.476 23.4907 193.364 23.2285 193.17 23.0336C192.976 22.8387 192.714 22.726 192.439 22.7189H182.841V15.7495H194.264Z" fill="black"/>
</g>
<defs>
<linearGradient id="paint0_linear_20103_42" x1="16.1842" y1="51.5921" x2="51.378" y2="16.3984" gradientUnits="userSpaceOnUse">
<stop stop-color="#B090F5"/>
<stop offset="1" stop-color="#5FBFFF"/>
</linearGradient>
<linearGradient id="paint1_linear_20103_42" x1="3.80013e-07" y1="19.9266" x2="42.1385" y2="19.9266" gradientUnits="userSpaceOnUse">
<stop stop-color="#68D7FA"/>
<stop offset="1" stop-color="#7EF1B3"/>
</linearGradient>
</defs>
</svg>
