<svg version="1.1" viewBox="0.0 0.0 960.0 540.0" fill="none" stroke="none" stroke-linecap="square" stroke-miterlimit="10" xmlns:xlink="http://www.w3.org/1999/xlink" xmlns="http://www.w3.org/2000/svg"><clipPath id="g247c79cae23_1_47.0"><path d="m0 0l960.0 0l0 540.0l-960.0 0l0 -540.0z" clip-rule="nonzero"/></clipPath><g clip-path="url(#g247c79cae23_1_47.0)"><path fill="#ffffff" d="m0 0l960.0 0l0 540.0l-960.0 0z" fill-rule="evenodd"/><path fill="#000000" fill-opacity="0.0" d="m16.0 0l926.86615 0l0 91.685036l-926.86615 0z" fill-rule="evenodd"/><path fill="#29233b" d="m38.875 44.820023q0 1.34375 -0.640625 2.515625q-0.640625 1.171875 -2.0 1.890625q-1.34375 0.71875 -3.40625 0.71875l-2.8125 0l0 6.4375l-3.359375 0l0 -16.75l6.171875 0q1.9375 0 3.296875 0.671875q1.375 0.671875 2.0625 1.84375q0.6875 1.171875 0.6875 2.671875zm-6.1875 2.421875q1.390625 0 2.0625 -0.640625q0.671875 -0.640625 0.671875 -1.78125q0 -2.453125 -2.734375 -2.453125l-2.671875 0l0 4.875l2.671875 0zm11.92009 -2.09375q0.640625 -1.046875 1.6875 -1.640625q1.046875 -0.609375 2.390625 -0.609375l0 3.53125l-0.890625 0q-1.578125 0 -2.390625 0.75q-0.796875 0.734375 -0.796875 2.578125l0 6.625l-3.359375 0l0 -13.296875l3.359375 0l0 2.0625zm12.242844 11.453125q-1.921875 0 -3.46875 -0.84375q-1.53125 -0.859375 -2.40625 -2.421875q-0.875 -1.5625 -0.875 -3.59375q0 -2.046875 0.890625 -3.609375q0.90625 -1.5625 2.46875 -2.40625q1.5625 -0.859375 3.484375 -0.859375q1.921875 0 3.484375 0.859375q1.5625 0.84375 2.453125 2.40625q0.90625 1.5625 0.90625 3.609375q0 2.03125 -0.9375 3.59375q-0.921875 1.5625 -2.5 2.421875q-1.5625 0.84375 -3.5 0.84375zm0 -2.9375q0.90625 0 1.703125 -0.4375q0.8125 -0.4375 1.296875 -1.328125q0.484375 -0.890625 0.484375 -2.15625q0 -1.90625 -1.0 -2.921875q-1.0 -1.015625 -2.4375 -1.015625q-1.4375 0 -2.421875 1.015625q-0.96875 1.015625 -0.96875 2.921875q0 1.890625 0.953125 2.90625q0.953125 1.015625 2.390625 1.015625zm14.608826 -10.796875q1.5 0 2.625 0.59375q1.125 0.578125 1.765625 1.515625l0 -1.890625l3.390625 0l0 13.390625q0 1.84375 -0.75 3.296875q-0.734375 1.453125 -2.234375 2.296875q-1.484375 0.859375 -3.59375 0.859375q-2.828125 0 -4.640625 -1.328125q-1.8125 -1.3125 -2.046875 -3.59375l3.328125 0q0.265625 0.921875 1.140625 1.453125q0.875 0.546875 2.125 0.546875q1.46875 0 2.375 -0.875q0.90625 -0.875 0.90625 -2.65625l0 -2.0625q-0.640625 0.9375 -1.78125 1.5625q-1.140625 0.625 -2.609375 0.625q-1.671875 0 -3.0625 -0.859375q-1.390625 -0.875 -2.203125 -2.4375q-0.796875 -1.578125 -0.796875 -3.625q0 -2.015625 0.796875 -3.5625q0.8125 -1.5625 2.1875 -2.40625q1.375 -0.84375 3.078125 -0.84375zm4.390625 6.875q0 -1.234375 -0.484375 -2.109375q-0.46875 -0.875 -1.296875 -1.34375q-0.8125 -0.46875 -1.734375 -0.46875q-0.9375 0 -1.734375 0.46875q-0.796875 0.453125 -1.296875 1.328125q-0.484375 0.875 -0.484375 2.0625q0 1.203125 0.484375 2.109375q0.5 0.890625 1.296875 1.375q0.8125 0.484375 1.734375 0.484375q0.921875 0 1.734375 -0.46875q0.828125 -0.46875 1.296875 -1.34375q0.484375 -0.875 0.484375 -2.09375zm10.037582 -4.59375q0.640625 -1.046875 1.6875 -1.640625q1.046875 -0.609375 2.390625 -0.609375l0 3.53125l-0.890625 0q-1.578125 0 -2.390625 0.75q-0.796875 0.734375 -0.796875 2.578125l0 6.625l-3.359375 0l0 -13.296875l3.359375 0l0 2.0625zm5.4772186 4.53125q0 -2.015625 0.796875 -3.5625q0.8125 -1.5625 2.1875 -2.40625q1.375 -0.84375 3.078125 -0.84375q1.5 0 2.609375 0.609375q1.109375 0.59375 1.78125 1.5l0 -1.890625l3.390625 0l0 13.296875l-3.390625 0l0 -1.9375q-0.640625 0.921875 -1.78125 1.546875q-1.140625 0.609375 -2.625 0.609375q-1.6875 0 -3.0625 -0.859375q-1.375 -0.875 -2.1875 -2.4375q-0.796875 -1.578125 -0.796875 -3.625zm10.453125 0.0625q0 -1.234375 -0.484375 -2.109375q-0.46875 -0.875 -1.296875 -1.34375q-0.8125 -0.46875 -1.734375 -0.46875q-0.9375 0 -1.734375 0.46875q-0.796875 0.453125 -1.296875 1.328125q-0.484375 0.875 -0.484375 2.0625q0 1.203125 0.484375 2.109375q0.5 0.890625 1.296875 1.375q0.8125 0.484375 1.734375 0.484375q0.921875 0 1.734375 -0.46875q0.828125 -0.46875 1.296875 -1.34375q0.484375 -0.875 0.484375 -2.09375zm23.193832 -6.84375q2.4375 0 3.9375 1.5q1.5 1.5 1.5 4.1875l0 7.796875l-3.359375 0l0 -7.34375q0 -1.5625 -0.796875 -2.390625q-0.78125 -0.828125 -2.15625 -0.828125q-1.359375 0 -2.171875 0.828125q-0.796875 0.828125 -0.796875 2.390625l0 7.34375l-3.359375 0l0 -7.34375q0 -1.5625 -0.796875 -2.390625q-0.78125 -0.828125 -2.15625 -0.828125q-1.390625 0 -2.203125 0.828125q-0.796875 0.828125 -0.796875 2.390625l0 7.34375l-3.359375 0l0 -13.296875l3.359375 0l0 1.609375q0.640625 -0.84375 1.65625 -1.3125q1.03125 -0.484375 2.25 -0.484375q1.5625 0 2.78125 0.65625q1.234375 0.65625 1.90625 1.890625q0.640625 -1.15625 1.875 -1.84375q1.25 -0.703125 2.6875 -0.703125zm25.151932 0q2.4375 0 3.9375 1.5q1.5 1.5 1.5 4.1875l0 7.796875l-3.359375 0l0 -7.34375q0 -1.5625 -0.796875 -2.390625q-0.78125 -0.828125 -2.15625 -0.828125q-1.359375 0 -2.171875 0.828125q-0.796875 0.828125 -0.796875 2.390625l0 7.34375l-3.359375 0l0 -7.34375q0 -1.5625 -0.796875 -2.390625q-0.78125 -0.828125 -2.15625 -0.828125q-1.390625 0 -2.203125 0.828125q-0.796875 0.828125 -0.796875 2.390625l0 7.34375l-3.359375 0l0 -13.296875l3.359375 0l0 1.609375q0.640625 -0.84375 1.65625 -1.3125q1.03125 -0.484375 2.25 -0.484375q1.5625 0 2.78125 0.65625q1.234375 0.65625 1.90625 1.890625q0.640625 -1.15625 1.875 -1.84375q1.25 -0.703125 2.6875 -0.703125zm7.776932 6.78125q0 -2.015625 0.796875 -3.5625q0.8125 -1.5625 2.1875 -2.40625q1.375 -0.84375 3.078125 -0.84375q1.5 0 2.609375 0.609375q1.109375 0.59375 1.78125 1.5l0 -1.890625l3.390625 0l0 13.296875l-3.390625 0l0 -1.9375q-0.640625 0.921875 -1.78125 1.546875q-1.140625 0.609375 -2.625 0.609375q-1.6875 0 -3.0625 -0.859375q-1.375 -0.875 -2.1875 -2.4375q-0.796875 -1.578125 -0.796875 -3.625zm10.453125 0.0625q0 -1.234375 -0.484375 -2.109375q-0.46875 -0.875 -1.296875 -1.34375q-0.8125 -0.46875 -1.734375 -0.46875q-0.9375 0 -1.734375 0.46875q-0.796875 0.453125 -1.296875 1.328125q-0.484375 0.875 -0.484375 2.0625q0 1.203125 0.484375 2.109375q0.5 0.890625 1.296875 1.375q0.8125 0.484375 1.734375 0.484375q0.921875 0 1.734375 -0.46875q0.828125 -0.46875 1.296875 -1.34375q0.484375 -0.875 0.484375 -2.09375zm10.037582 -4.71875q0.640625 -0.953125 1.78125 -1.546875q1.140625 -0.609375 2.609375 -0.609375q1.703125 0 3.078125 0.84375q1.390625 0.84375 2.1875 2.390625q0.8125 1.546875 0.8125 3.578125q0 2.046875 -0.8125 3.625q-0.796875 1.5625 -2.1875 2.4375q-1.375 0.859375 -3.078125 0.859375q-1.484375 0 -2.609375 -0.578125q-1.109375 -0.59375 -1.78125 -1.53125l0 1.890625l-3.359375 0l0 -17.765625l3.359375 0l0 6.40625zm7.03125 4.65625q0 -1.1875 -0.5 -2.0625q-0.484375 -0.875 -1.296875 -1.328125q-0.796875 -0.46875 -1.734375 -0.46875q-0.90625 0 -1.71875 0.46875q-0.796875 0.46875 -1.296875 1.359375q-0.484375 0.890625 -0.484375 2.09375q0 1.1875 0.484375 2.078125q0.5 0.890625 1.296875 1.359375q0.8125 0.46875 1.71875 0.46875q0.9375 0 1.734375 -0.484375q0.8125 -0.484375 1.296875 -1.359375q0.5 -0.890625 0.5 -2.125zm9.240707 -11.0625l0 17.765625l-3.359375 0l0 -17.765625l3.359375 0zm15.671982 10.828125q0 0.71875 -0.09375 1.296875l-9.71875 0q0.109375 1.4375 1.0 2.265625q0.890625 0.8125 2.1875 0.8125q1.875 0 2.671875 -1.609375l3.625 0q-0.578125 1.921875 -2.21875 3.15625q-1.625 1.234375 -4.0 1.234375q-1.921875 0 -3.453125 -0.84375q-1.515625 -0.859375 -2.375 -2.421875q-0.84375 -1.5625 -0.84375 -3.59375q0 -2.078125 0.828125 -3.625q0.84375 -1.5625 2.359375 -2.40625q1.515625 -0.84375 3.484375 -0.84375q1.890625 0 3.390625 0.828125q1.5 0.8125 2.328125 2.3125q0.828125 1.5 0.828125 3.4375zm-3.484375 -0.953125q-0.015625 -1.296875 -0.9375 -2.078125q-0.90625 -0.78125 -2.21875 -0.78125q-1.25 0 -2.109375 0.765625q-0.84375 0.75 -1.046875 2.09375l6.3125 0zm34.03557 -8.859375l-4.671875 16.75l-3.96875 0l-3.140625 -11.921875l-3.296875 11.921875l-3.921875 0.03125l-4.515625 -16.78125l3.59375 0l2.953125 13.0l3.40625 -13.0l3.75 0l3.21875 12.9375l2.96875 -12.9375l3.625 0zm1.3259277 10.046875q0 -2.015625 0.796875 -3.5625q0.8125 -1.5625 2.1875 -2.40625q1.375 -0.84375 3.078125 -0.84375q1.5 0 2.609375 0.609375q1.109375 0.59375 1.78125 1.5l0 -1.890625l3.3906097 0l0 13.296875l-3.3906097 0l0 -1.9375q-0.640625 0.921875 -1.78125 1.546875q-1.140625 0.609375 -2.625 0.609375q-1.6875 0 -3.0625 -0.859375q-1.375 -0.875 -2.1875 -2.4375q-0.796875 -1.578125 -0.796875 -3.625zm10.453125 0.0625q0 -1.234375 -0.484375 -2.109375q-0.46875 -0.875 -1.296875 -1.34375q-0.8125 -0.46875 -1.734375 -0.46875q-0.9375 0 -1.734375 0.46875q-0.796875 0.453125 -1.296875 1.328125q-0.484375 0.875 -0.484375 2.0625q0 1.203125 0.484375 2.109375q0.5 0.890625 1.296875 1.375q0.8125 0.484375 1.734375 0.484375q0.921875 0 1.734375 -0.46875q0.828125 -0.46875 1.296875 -1.34375q0.484375 -0.875 0.484375 -2.09375zm10.037582 -11.125l0 17.765625l-3.359375 0l0 -17.765625l3.359375 0zm6.671997 0l0 17.765625l-3.359375 0l0 -17.765625l3.359375 0zm15.671967 10.828125q0 0.71875 -0.09375 1.296875l-9.71875 0q0.109375 1.4375 1.0 2.265625q0.890625 0.8125 2.1875 0.8125q1.875 0 2.671875 -1.609375l3.625 0q-0.578125 1.921875 -2.21875 3.15625q-1.625 1.234375 -4.0 1.234375q-1.921875 0 -3.453125 -0.84375q-1.515625 -0.859375 -2.375 -2.421875q-0.84375 -1.5625 -0.84375 -3.59375q0 -2.078125 0.828125 -3.625q0.84375 -1.5625 2.359375 -2.40625q1.515625 -0.84375 3.484375 -0.84375q1.890625 0 3.390625 0.828125q1.5 0.8125 2.328125 2.3125q0.828125 1.5 0.828125 3.4375zm-3.484375 -0.953125q-0.015625 -1.296875 -0.9375 -2.078125q-0.90625 -0.78125 -2.21875 -0.78125q-1.25 0 -2.109375 0.765625q-0.84375 0.75 -1.046875 2.09375l6.3125 0zm9.839203 -2.640625l0 6.421875q0 0.671875 0.328125 0.984375q0.328125 0.296875 1.09375 0.296875l1.5625 0l0 2.828125l-2.109375 0q-4.25 0 -4.25 -4.125l0 -6.40625l-1.59375 0l0 -2.765625l1.59375 0l0 -3.28125l3.375 0l0 3.28125l2.984375 0l0 2.765625l-2.984375 0zm10.499451 10.75q-1.640625 0 -2.9375 -0.578125q-1.296875 -0.59375 -2.046875 -1.59375q-0.75 -1.015625 -0.828125 -2.25l3.375 0q0.109375 0.765625 0.765625 1.28125q0.65625 0.5 1.640625 0.5q0.96875 0 1.5 -0.375q0.546875 -0.390625 0.546875 -1.0q0 -0.640625 -0.671875 -0.96875q-0.65625 -0.328125 -2.09375 -0.703125q-1.484375 -0.359375 -2.4375 -0.734375q-0.953125 -0.390625 -1.640625 -1.1875q-0.671875 -0.796875 -0.671875 -2.140625q0 -1.09375 0.625 -2.0q0.640625 -0.921875 1.828125 -1.453125q1.1875 -0.53125 2.796875 -0.53125q2.375 0 3.796875 1.1875q1.421875 1.1875 1.5625 3.203125l-3.21875 0q-0.078125 -0.78125 -0.671875 -1.25q-0.578125 -0.46875 -1.5625 -0.46875q-0.90625 0 -1.40625 0.34375q-0.484375 0.328125 -0.484375 0.921875q0 0.671875 0.671875 1.03125q0.671875 0.34375 2.078125 0.703125q1.453125 0.359375 2.375 0.75q0.9375 0.375 1.625 1.1875q0.6875 0.796875 0.703125 2.109375q0 1.15625 -0.640625 2.078125q-0.625 0.90625 -1.8125 1.421875q-1.1875 0.515625 -2.765625 0.515625zm19.479431 -0.046875q-1.75 0 -3.15625 -0.59375q-1.40625 -0.609375 -2.21875 -1.734375q-0.8125 -1.125 -0.84375 -2.671875l3.609375 0q0.0625 1.03125 0.71875 1.640625q0.671875 0.59375 1.828125 0.59375q1.171875 0 1.84375 -0.5625q0.671875 -0.5625 0.671875 -1.46875q0 -0.75 -0.46875 -1.234375q-0.453125 -0.484375 -1.140625 -0.75q-0.671875 -0.28125 -1.875 -0.609375q-1.625 -0.484375 -2.65625 -0.953125q-1.015625 -0.46875 -1.75 -1.40625q-0.734375 -0.953125 -0.734375 -2.546875q0 -1.484375 0.75 -2.578125q0.75 -1.109375 2.09375 -1.6875q1.34375 -0.59375 3.0625 -0.59375q2.59375 0 4.21875 1.265625q1.625 1.25 1.78125 3.5l-3.6875 0q-0.046875 -0.859375 -0.734375 -1.421875q-0.6875 -0.5625 -1.8125 -0.5625q-0.984375 0 -1.578125 0.5q-0.578125 0.5 -0.578125 1.46875q0 0.671875 0.4375 1.109375q0.4375 0.4375 1.09375 0.71875q0.671875 0.28125 1.875 0.640625q1.625 0.484375 2.65625 0.96875q1.03125 0.46875 1.78125 1.4375q0.75 0.953125 0.75 2.515625q0 1.34375 -0.703125 2.5q-0.703125 1.140625 -2.046875 1.828125q-1.34375 0.6875 -3.1875 0.6875zm12.740967 -10.703125l0 6.421875q0 0.671875 0.328125 0.984375q0.328125 0.296875 1.09375 0.296875l1.5625 0l0 2.828125l-2.109375 0q-4.25 0 -4.25 -4.125l0 -6.40625l-1.59375 0l0 -2.765625l1.59375 0l0 -3.28125l3.375 0l0 3.28125l2.984375 0l0 2.765625l-2.984375 0zm4.5463257 3.828125q0 -2.015625 0.796875 -3.5625q0.8125 -1.5625 2.1875 -2.40625q1.375 -0.84375 3.078125 -0.84375q1.5 0 2.609375 0.609375q1.109375 0.59375 1.78125 1.5l0 -1.890625l3.390625 0l0 13.296875l-3.390625 0l0 -1.9375q-0.640625 0.921875 -1.78125 1.546875q-1.140625 0.609375 -2.625 0.609375q-1.6875 0 -3.0625 -0.859375q-1.375 -0.875 -2.1875 -2.4375q-0.796875 -1.578125 -0.796875 -3.625zm10.453125 0.0625q0 -1.234375 -0.484375 -2.109375q-0.46875 -0.875 -1.296875 -1.34375q-0.8125 -0.46875 -1.734375 -0.46875q-0.9375 0 -1.734375 0.46875q-0.796875 0.453125 -1.296875 1.328125q-0.484375 0.875 -0.484375 2.0625q0 1.203125 0.484375 2.109375q0.5 0.890625 1.296875 1.375q0.8125 0.484375 1.734375 0.484375q0.921875 0 1.734375 -0.46875q0.828125 -0.46875 1.296875 -1.34375q0.484375 -0.875 0.484375 -2.09375zm10.584473 -3.890625l0 6.421875q0 0.671875 0.328125 0.984375q0.328125 0.296875 1.09375 0.296875l1.5625 0l0 2.828125l-2.109375 0q-4.25 0 -4.25 -4.125l0 -6.40625l-1.59375 0l0 -2.765625l1.59375 0l0 -3.28125l3.375 0l0 3.28125l2.984375 0l0 2.765625l-2.984375 0zm17.765076 3.59375q0 0.71875 -0.09375 1.296875l-9.71875 0q0.109375 1.4375 1.0 2.265625q0.890625 0.8125 2.1875 0.8125q1.875 0 2.671875 -1.609375l3.625 0q-0.578125 1.921875 -2.21875 3.15625q-1.625 1.234375 -4.0 1.234375q-1.921875 0 -3.453125 -0.84375q-1.515625 -0.859375 -2.375 -2.421875q-0.84375 -1.5625 -0.84375 -3.59375q0 -2.078125 0.828125 -3.625q0.84375 -1.5625 2.359375 -2.40625q1.515625 -0.84375 3.484375 -0.84375q1.890625 0 3.390625 0.828125q1.5 0.8125 2.328125 2.3125q0.828125 1.5 0.828125 3.4375zm-3.484375 -0.953125q-0.015625 -1.296875 -0.9375 -2.078125q-0.90625 -0.78125 -2.21875 -0.78125q-1.25 0 -2.109375 0.765625q-0.84375 0.75 -1.046875 2.09375l6.3125 0zm17.504333 -8.859375q2.640625 0 4.640625 1.03125q2.0 1.03125 3.09375 2.9375q1.09375 1.90625 1.09375 4.421875q0 2.53125 -1.09375 4.421875q-1.09375 1.875 -3.09375 2.90625q-2.0 1.03125 -4.640625 1.03125l-5.859375 0l0 -16.75l5.859375 0zm-0.125 13.890625q2.640625 0 4.078125 -1.4375q1.4375 -1.4375 1.4375 -4.0625q0 -2.609375 -1.4375 -4.078125q-1.4375 -1.484375 -4.078125 -1.484375l-2.375 0l0 11.0625l2.375 0zm13.176697 -12.015625q-0.890625 0 -1.484375 -0.5625q-0.578125 -0.578125 -0.578125 -1.40625q0 -0.84375 0.578125 -1.40625q0.59375 -0.5625 1.484375 -0.5625q0.890625 0 1.46875 0.5625q0.59375 0.5625 0.59375 1.40625q0 0.828125 -0.59375 1.40625q-0.578125 0.5625 -1.46875 0.5625zm1.65625 1.578125l0 13.296875l-3.359375 0l0 -13.296875l3.359375 0zm2.453247 6.59375q0 -2.015625 0.796875 -3.5625q0.8125 -1.5625 2.1875 -2.40625q1.375 -0.84375 3.078125 -0.84375q1.5 0 2.609375 0.609375q1.109375 0.59375 1.78125 1.5l0 -1.890625l3.390625 0l0 13.296875l-3.390625 0l0 -1.9375q-0.640625 0.921875 -1.78125 1.546875q-1.140625 0.609375 -2.625 0.609375q-1.6875 0 -3.0625 -0.859375q-1.375 -0.875 -2.1875 -2.4375q-0.796875 -1.578125 -0.796875 -3.625zm10.453125 0.0625q0 -1.234375 -0.484375 -2.109375q-0.46875 -0.875 -1.296875 -1.34375q-0.8125 -0.46875 -1.734375 -0.46875q-0.9375 0 -1.734375 0.46875q-0.796875 0.453125 -1.296875 1.328125q-0.484375 0.875 -0.484375 2.0625q0 1.203125 0.484375 2.109375q0.5 0.890625 1.296875 1.375q0.8125 0.484375 1.734375 0.484375q0.921875 0 1.734375 -0.46875q0.828125 -0.46875 1.296875 -1.34375q0.484375 -0.875 0.484375 -2.09375zm11.881348 -6.875q1.5 0 2.625 0.59375q1.125 0.578125 1.765625 1.515625l0 -1.890625l3.390625 0l0 13.390625q0 1.84375 -0.75 3.296875q-0.734375 1.453125 -2.234375 2.296875q-1.484375 0.859375 -3.59375 0.859375q-2.828125 0 -4.640625 -1.328125q-1.8125 -1.3125 -2.046875 -3.59375l3.328125 0q0.265625 0.921875 1.140625 1.453125q0.875 0.546875 2.125 0.546875q1.46875 0 2.375 -0.875q0.90625 -0.875 0.90625 -2.65625l0 -2.0625q-0.640625 0.9375 -1.78125 1.5625q-1.140625 0.625 -2.609375 0.625q-1.671875 0 -3.0625 -0.859375q-1.390625 -0.875 -2.203125 -2.4375q-0.796875 -1.578125 -0.796875 -3.625q0 -2.015625 0.796875 -3.5625q0.8125 -1.5625 2.1875 -2.40625q1.375 -0.84375 3.078125 -0.84375zm4.390625 6.875q0 -1.234375 -0.484375 -2.109375q-0.46875 -0.875 -1.296875 -1.34375q-0.8125 -0.46875 -1.734375 -0.46875q-0.9375 0 -1.734375 0.46875q-0.796875 0.453125 -1.296875 1.328125q-0.484375 0.875 -0.484375 2.0625q0 1.203125 0.484375 2.109375q0.5 0.890625 1.296875 1.375q0.8125 0.484375 1.734375 0.484375q0.921875 0 1.734375 -0.46875q0.828125 -0.46875 1.296875 -1.34375q0.484375 -0.875 0.484375 -2.09375zm10.037598 -4.59375q0.640625 -1.046875 1.6875 -1.640625q1.046875 -0.609375 2.390625 -0.609375l0 3.53125l-0.890625 0q-1.578125 0 -2.390625 0.75q-0.796875 0.734375 -0.796875 2.578125l0 6.625l-3.359375 0l0 -13.296875l3.359375 0l0 2.0625zm5.477234 4.53125q0 -2.015625 0.796875 -3.5625q0.8125 -1.5625 2.1875 -2.40625q1.375 -0.84375 3.078125 -0.84375q1.5 0 2.609375 0.609375q1.109375 0.59375 1.78125 1.5l0 -1.890625l3.390625 0l0 13.296875l-3.390625 0l0 -1.9375q-0.640625 0.921875 -1.78125 1.546875q-1.140625 0.609375 -2.625 0.609375q-1.6875 0 -3.0625 -0.859375q-1.375 -0.875 -2.1875 -2.4375q-0.796875 -1.578125 -0.796875 -3.625zm10.453125 0.0625q0 -1.234375 -0.484375 -2.109375q-0.46875 -0.875 -1.296875 -1.34375q-0.8125 -0.46875 -1.734375 -0.46875q-0.9375 0 -1.734375 0.46875q-0.796875 0.453125 -1.296875 1.328125q-0.484375 0.875 -0.484375 2.0625q0 1.203125 0.484375 2.109375q0.5 0.890625 1.296875 1.375q0.8125 0.484375 1.734375 0.484375q0.921875 0 1.734375 -0.46875q0.828125 -0.46875 1.296875 -1.34375q0.484375 -0.875 0.484375 -2.09375zm23.193848 -6.84375q2.4375 0 3.9375 1.5q1.5 1.5 1.5 4.1875l0 7.796875l-3.359375 0l0 -7.34375q0 -1.5625 -0.796875 -2.390625q-0.78125 -0.828125 -2.15625 -0.828125q-1.359375 0 -2.171875 0.828125q-0.796875 0.828125 -0.796875 2.390625l0 7.34375l-3.359375 0l0 -7.34375q0 -1.5625 -0.796875 -2.390625q-0.78125 -0.828125 -2.15625 -0.828125q-1.390625 0 -2.203125 0.828125q-0.796875 0.828125 -0.796875 2.390625l0 7.34375l-3.359375 0l0 -13.296875l3.359375 0l0 1.609375q0.640625 -0.84375 1.65625 -1.3125q1.03125 -0.484375 2.25 -0.484375q1.5625 0 2.78125 0.65625q1.234375 0.65625 1.90625 1.890625q0.640625 -1.15625 1.875 -1.84375q1.25 -0.703125 2.6875 -0.703125z" fill-rule="nonzero"/><path fill="#000000" fill-opacity="0.0" d="m146.51181 189.7454l0 0c0 -15.574142 12.625336 -28.199478 28.199478 -28.199478l451.28607 0c7.478943 0 14.651611 2.9710083 19.940063 8.259445c5.288391 5.2884216 8.259399 12.46106 8.259399 19.940033l0 112.7979c0 15.574158 -12.625305 28.199463 -28.199463 28.199463l-451.28607 0c-15.574142 0 -28.199478 -12.625305 -28.199478 -28.199463z" fill-rule="evenodd"/><path stroke="#29233b" stroke-width="1.0" stroke-linejoin="round" stroke-linecap="butt" stroke-dasharray="4.0,3.0" d="m146.51181 189.7454l0 0c0 -15.574142 12.625336 -28.199478 28.199478 -28.199478l451.28607 0c7.478943 0 14.651611 2.9710083 19.940063 8.259445c5.288391 5.2884216 8.259399 12.46106 8.259399 19.940033l0 112.7979c0 15.574158 -12.625305 28.199463 -28.199463 28.199463l-451.28607 0c-15.574142 0 -28.199478 -12.625305 -28.199478 -28.199463z" fill-rule="evenodd"/><path fill="#000000" fill-opacity="0.0" d="m524.5092 250.58267l0 0c0 -11.068878 8.9730835 -20.041992 20.041992 -20.041992l80.16797 0l0 0c5.3154297 0 10.413208 2.111557 14.171814 5.870163c3.758606 3.758606 5.870178 8.856369 5.870178 14.171829l0 155.00262c0 11.068878 -8.973145 20.041992 -20.041992 20.041992l-80.16797 0c-11.068909 0 -20.041992 -8.973114 -20.041992 -20.041992z" fill-rule="evenodd"/><path stroke="#29233b" stroke-width="1.0" stroke-linejoin="round" stroke-linecap="butt" stroke-dasharray="4.0,3.0" d="m524.5092 250.58267l0 0c0 -11.068878 8.9730835 -20.041992 20.041992 -20.041992l80.16797 0l0 0c5.3154297 0 10.413208 2.111557 14.171814 5.870163c3.758606 3.758606 5.870178 8.856369 5.870178 14.171829l0 155.00262c0 11.068878 -8.973145 20.041992 -20.041992 20.041992l-80.16797 0c-11.068909 0 -20.041992 -8.973114 -20.041992 -20.041992z" fill-rule="evenodd"/><path fill="#000000" fill-opacity="0.0" d="m780.7297 159.29134l0 0c0 -4.148651 3.3631592 -7.5118103 7.51178 -7.5118103l77.03937 0c1.9922485 0 3.902954 0.7914276 5.3116455 2.2001648c1.4087524 1.4087372 2.2001953 3.319397 2.2001953 5.3116455l0 30.047241c0 4.1486664 -3.3631592 7.5118103 -7.511841 7.5118103l-77.03937 0l0 0c-4.1486206 0 -7.51178 -3.363144 -7.51178 -7.5118103z" fill-rule="evenodd"/><path stroke="#29233b" stroke-width="1.0" stroke-linejoin="round" stroke-linecap="butt" d="m780.7297 159.29134l0 0c0 -4.148651 3.3631592 -7.5118103 7.51178 -7.5118103l77.03937 0c1.9922485 0 3.902954 0.7914276 5.3116455 2.2001648c1.4087524 1.4087372 2.2001953 3.319397 2.2001953 5.3116455l0 30.047241c0 4.1486664 -3.3631592 7.5118103 -7.511841 7.5118103l-77.03937 0l0 0c-4.1486206 0 -7.51178 -3.363144 -7.51178 -7.5118103z" fill-rule="evenodd"/><path fill="#000000" d="m806.893 178.17996q-1.640625 0 -2.71875 -1.046875q-1.0625 -1.046875 -1.0625 -2.625q0 -1.046875 0.5 -1.890625q0.5 -0.859375 1.359375 -1.3125q0.875 -0.46875 1.921875 -0.46875q1.96875 0 2.984375 1.734375l-1.3125 0.640625q-0.21875 -0.4375 -0.671875 -0.734375q-0.4375 -0.296875 -1.0 -0.296875q-0.96875 0 -1.59375 0.671875q-0.625 0.65625 -0.625 1.65625q0 1.03125 0.640625 1.6875q0.640625 0.640625 1.578125 0.640625q0.5625 0 1.0 -0.28125q0.453125 -0.296875 0.671875 -0.75l1.3125 0.625q-1.015625 1.75 -2.984375 1.75zm6.945923 -0.125l0 -0.53125q-0.5625 0.65625 -1.640625 0.65625q-0.734375 0 -1.265625 -0.46875q-0.515625 -0.484375 -0.515625 -1.234375q0 -0.75 0.484375 -1.203125q0.5 -0.453125 1.296875 -0.453125q1.109375 0 1.640625 0.625l0 -0.6875q0 -0.40625 -0.3125 -0.640625q-0.3125 -0.234375 -0.828125 -0.234375q-0.84375 0 -1.5 0.609375l-0.5 -0.90625q0.9375 -0.8125 2.234375 -0.8125q1.09375 0 1.671875 0.515625q0.578125 0.5 0.578125 1.4375l0 3.328125l-1.34375 0zm-1.09375 -0.78125q0.75 0 1.09375 -0.453125l0 -0.640625q-0.34375 -0.453125 -1.09375 -0.453125q-0.40625 0 -0.6875 0.203125q-0.28125 0.203125 -0.28125 0.578125q0 0.359375 0.28125 0.5625q0.28125 0.203125 0.6875 0.203125zm7.255127 0.78125l0 -3.109375q0 -0.96875 -0.9375 -0.96875q-0.734375 0 -1.171875 0.609375l0 3.46875l-1.359375 0l0 -5.140625l1.359375 0l0 0.671875q0.234375 -0.3125 0.6875 -0.5625q0.46875 -0.25 1.109375 -0.25q0.84375 0 1.25 0.453125q0.421875 0.4375 0.421875 1.1875l0 3.640625l-1.359375 0zm5.091919 0.125q-1.203125 0 -1.96875 -0.765625q-0.75 -0.765625 -0.75 -1.9375q0 -1.15625 0.75 -1.921875q0.765625 -0.78125 1.96875 -0.78125q0.796875 0 1.28125 0.296875q0.5 0.28125 0.765625 0.640625l-0.890625 0.828125q-0.375 -0.5625 -1.078125 -0.5625q-0.625 0 -1.015625 0.421875q-0.390625 0.40625 -0.390625 1.078125q0 0.671875 0.390625 1.09375q0.390625 0.40625 1.015625 0.40625q0.6875 0 1.078125 -0.546875l0.890625 0.8125q-0.265625 0.359375 -0.765625 0.65625q-0.484375 0.28125 -1.28125 0.28125zm5.348755 0q-1.21875 0 -1.984375 -0.75q-0.765625 -0.75 -0.765625 -1.953125q0 -1.15625 0.75 -1.921875q0.765625 -0.78125 1.90625 -0.78125q1.140625 0 1.859375 0.796875q0.71875 0.78125 0.71875 2.046875l0 0.296875l-3.8125 0q0.0625 0.484375 0.4375 0.84375q0.375 0.34375 1.03125 0.34375q0.328125 0 0.71875 -0.125q0.390625 -0.140625 0.65625 -0.375l0.609375 0.859375q-0.390625 0.359375 -0.953125 0.546875q-0.5625 0.171875 -1.171875 0.171875zm1.171875 -3.1875q-0.03125 -0.5 -0.390625 -0.8125q-0.34375 -0.328125 -0.875 -0.328125q-0.53125 0 -0.875 0.328125q-0.328125 0.328125 -0.390625 0.8125l2.53125 0zm2.2992554 3.0625l0 -7.109375l1.359375 0l0 7.109375l-1.359375 0zm2.696045 0l0 -7.109375l1.359375 0l0 7.109375l-1.359375 0zm5.11792 0.125q-1.21875 0 -1.984375 -0.75q-0.765625 -0.75 -0.765625 -1.953125q0 -1.15625 0.75 -1.921875q0.765625 -0.78125 1.90625 -0.78125q1.140625 0 1.859375 0.796875q0.71875 0.78125 0.71875 2.046875l0 0.296875l-3.8125 0q0.0625 0.484375 0.4375 0.84375q0.375 0.34375 1.03125 0.34375q0.328125 0 0.71875 -0.125q0.390625 -0.140625 0.65625 -0.375l0.609375 0.859375q-0.390625 0.359375 -0.953125 0.546875q-0.5625 0.171875 -1.171875 0.171875zm1.171875 -3.1875q-0.03125 -0.5 -0.390625 -0.8125q-0.34375 -0.328125 -0.875 -0.328125q-0.53125 0 -0.875 0.328125q-0.328125 0.328125 -0.390625 0.8125l2.53125 0zm5.8304443 3.0625l0 -0.65625q-0.640625 0.78125 -1.578125 0.78125q-1.03125 0 -1.65625 -0.734375q-0.625 -0.734375 -0.625 -1.953125q0 -1.21875 0.625 -1.96875q0.625 -0.75 1.65625 -0.75q0.96875 0 1.578125 0.796875l0 -2.625l1.375 0l0 7.109375l-1.375 0zm-1.171875 -1.078125q0.34375 0 0.671875 -0.15625q0.328125 -0.171875 0.5 -0.421875l0 -1.828125q-0.171875 -0.25 -0.5 -0.421875q-0.328125 -0.171875 -0.671875 -0.171875q-0.5625 0 -0.9375 0.421875q-0.359375 0.421875 -0.359375 1.09375q0 0.640625 0.34375 1.0625q0.359375 0.421875 0.953125 0.421875z" fill-rule="nonzero"/><path fill="#000000" fill-opacity="0.0" d="m780.7297 265.25854l0 0c0 -4.1486816 3.3631592 -7.511841 7.51178 -7.511841l77.03937 0c1.9922485 0 3.902954 0.7914429 5.3116455 2.2001648c1.4087524 1.4087524 2.2001953 3.319397 2.2001953 5.311676l0 30.047241c0 4.148651 -3.3631592 7.5118103 -7.511841 7.5118103l-77.03937 0l0 0c-4.1486206 0 -7.51178 -3.3631592 -7.51178 -7.5118103z" fill-rule="evenodd"/><path stroke="#29233b" stroke-width="1.0" stroke-linejoin="round" stroke-linecap="butt" d="m780.7297 265.25854l0 0c0 -4.1486816 3.3631592 -7.511841 7.51178 -7.511841l77.03937 0c1.9922485 0 3.902954 0.7914429 5.3116455 2.2001648c1.4087524 1.4087524 2.2001953 3.319397 2.2001953 5.311676l0 30.047241c0 4.148651 -3.3631592 7.5118103 -7.511841 7.5118103l-77.03937 0l0 0c-4.1486206 0 -7.51178 -3.3631592 -7.51178 -7.5118103z" fill-rule="evenodd"/><path fill="#000000" d="m812.76385 284.02216l0 -7.109375l5.03125 0l0 1.328125l-3.515625 0l0 1.515625l3.4375 0l0 1.328125l-3.4375 0l0 2.9375l-1.515625 0zm9.147278 0l0 -0.53125q-0.5625 0.65625 -1.640625 0.65625q-0.734375 0 -1.265625 -0.46875q-0.515625 -0.484375 -0.515625 -1.234375q0 -0.75 0.484375 -1.203125q0.5 -0.453125 1.296875 -0.453125q1.109375 0 1.640625 0.625l0 -0.6875q0 -0.40625 -0.3125 -0.640625q-0.3125 -0.234375 -0.828125 -0.234375q-0.84375 0 -1.5 0.609375l-0.5 -0.90625q0.9375 -0.8125 2.234375 -0.8125q1.09375 0 1.671875 0.515625q0.578125 0.5 0.578125 1.4375l0 3.328125l-1.34375 0zm-1.09375 -0.78125q0.75 0 1.09375 -0.453125l0 -0.640625q-0.34375 -0.453125 -1.09375 -0.453125q-0.40625 0 -0.6875 0.203125q-0.28125 0.203125 -0.28125 0.578125q0 0.359375 0.28125 0.5625q0.28125 0.203125 0.6875 0.203125zm4.458252 -4.921875q-0.328125 0 -0.578125 -0.234375q-0.234375 -0.234375 -0.234375 -0.578125q0 -0.34375 0.234375 -0.5625q0.25 -0.234375 0.578125 -0.234375q0.34375 0 0.578125 0.234375q0.234375 0.21875 0.234375 0.5625q0 0.34375 -0.234375 0.578125q-0.234375 0.234375 -0.578125 0.234375zm-0.671875 5.703125l0 -5.140625l1.359375 0l0 5.140625l-1.359375 0zm2.696045 0l0 -7.109375l1.359375 0l0 7.109375l-1.359375 0zm5.117981 0.125q-1.21875 0 -1.984375 -0.75q-0.765625 -0.75 -0.765625 -1.953125q0 -1.15625 0.75 -1.921875q0.765625 -0.78125 1.90625 -0.78125q1.140625 0 1.859375 0.796875q0.71875 0.78125 0.71875 2.046875l0 0.296875l-3.8125 0q0.0625 0.484375 0.4375 0.84375q0.375 0.34375 1.03125 0.34375q0.328125 0 0.71875 -0.125q0.390625 -0.140625 0.65625 -0.375l0.609375 0.859375q-0.390625 0.359375 -0.953125 0.546875q-0.5625 0.171875 -1.171875 0.171875zm1.171875 -3.1875q-0.03125 -0.5 -0.390625 -0.8125q-0.34375 -0.328125 -0.875 -0.328125q-0.53125 0 -0.875 0.328125q-0.328125 0.328125 -0.390625 0.8125l2.53125 0zm5.8304443 3.0625l0 -0.65625q-0.640625 0.78125 -1.578125 0.78125q-1.03125 0 -1.65625 -0.734375q-0.625 -0.734375 -0.625 -1.953125q0 -1.21875 0.625 -1.96875q0.625 -0.75 1.65625 -0.75q0.96875 0 1.578125 0.796875l0 -2.625l1.375 0l0 7.109375l-1.375 0zm-1.171875 -1.078125q0.34375 0 0.671875 -0.15625q0.328125 -0.171875 0.5 -0.421875l0 -1.828125q-0.171875 -0.25 -0.5 -0.421875q-0.328125 -0.171875 -0.671875 -0.171875q-0.5625 0 -0.9375 0.421875q-0.359375 0.421875 -0.359375 1.09375q0 0.640625 0.34375 1.0625q0.359375 0.421875 0.953125 0.421875z" fill-rule="nonzero"/><path fill="#000000" fill-opacity="0.0" d="m780.7297 371.2281l0 0c0 -4.1486816 3.3631592 -7.5118103 7.51178 -7.5118103l77.03937 0c1.9922485 0 3.902954 0.79141235 5.3116455 2.2001343c1.4087524 1.4087524 2.2001953 3.319397 2.2001953 5.311676l0 30.047241c0 4.148651 -3.3631592 7.5118103 -7.511841 7.5118103l-77.03937 0l0 0c-4.1486206 0 -7.51178 -3.3631592 -7.51178 -7.5118103z" fill-rule="evenodd"/><path stroke="#29233b" stroke-width="1.0" stroke-linejoin="round" stroke-linecap="butt" d="m780.7297 371.2281l0 0c0 -4.1486816 3.3631592 -7.5118103 7.51178 -7.5118103l77.03937 0c1.9922485 0 3.902954 0.79141235 5.3116455 2.2001343c1.4087524 1.4087524 2.2001953 3.319397 2.2001953 5.311676l0 30.047241c0 4.148651 -3.3631592 7.5118103 -7.511841 7.5118103l-77.03937 0l0 0c-4.1486206 0 -7.51178 -3.3631592 -7.51178 -7.5118103z" fill-rule="evenodd"/><path fill="#000000" d="m804.37274 390.1167q-1.640625 0 -2.71875 -1.046875q-1.0625 -1.046875 -1.0625 -2.625q0 -1.046875 0.5 -1.890625q0.5 -0.859375 1.359375 -1.3125q0.875 -0.46875 1.921875 -0.46875q1.96875 0 2.984375 1.734375l-1.3125 0.640625q-0.21875 -0.4375 -0.671875 -0.734375q-0.4375 -0.296875 -1.0 -0.296875q-0.96875 0 -1.59375 0.671875q-0.625 0.65625 -0.625 1.65625q0 1.03125 0.640625 1.6875q0.640625 0.640625 1.578125 0.640625q0.5625 0 1.0 -0.28125q0.453125 -0.296875 0.671875 -0.75l1.3125 0.625q-1.015625 1.75 -2.984375 1.75zm6.242798 0q-1.203125 0 -1.96875 -0.765625q-0.75 -0.765625 -0.75 -1.9375q0 -1.171875 0.75 -1.9375q0.765625 -0.765625 1.96875 -0.765625q1.1875 0 1.953125 0.765625q0.765625 0.765625 0.765625 1.9375q0 1.1875 -0.765625 1.953125q-0.765625 0.75 -1.953125 0.75zm0 -1.203125q0.578125 0 0.9375 -0.421875q0.375 -0.421875 0.375 -1.078125q0 -0.640625 -0.375 -1.0625q-0.359375 -0.4375 -0.9375 -0.4375q-0.5625 0 -0.9375 0.421875q-0.375 0.40625 -0.375 1.078125q0 0.6875 0.375 1.09375q0.375 0.40625 0.9375 0.40625zm10.101135 1.078125l0 -3.25q0 -0.828125 -0.765625 -0.828125q-0.359375 0 -0.640625 0.203125q-0.265625 0.1875 -0.421875 0.40625l0 3.46875l-1.359375 0l0 -3.25q0 -0.828125 -0.765625 -0.828125q-0.359375 0 -0.640625 0.203125q-0.28125 0.203125 -0.421875 0.40625l0 3.46875l-1.359375 0l0 -5.140625l1.359375 0l0 0.671875q0.171875 -0.296875 0.671875 -0.546875q0.5 -0.265625 1.0 -0.265625q1.125 0 1.4375 0.9375q0.234375 -0.390625 0.71875 -0.65625q0.5 -0.28125 1.046875 -0.28125q1.515625 0 1.515625 1.5625l0 3.71875l-1.375 0zm5.6417236 0.125q-0.984375 0 -1.578125 -0.78125l0 2.609375l-1.359375 0l0 -7.09375l1.359375 0l0 0.640625q0.609375 -0.78125 1.578125 -0.78125q1.03125 0 1.65625 0.71875q0.625 0.71875 0.625 1.984375q0 1.234375 -0.625 1.96875q-0.625 0.734375 -1.65625 0.734375zm-0.421875 -1.203125q0.578125 0 0.9375 -0.40625q0.359375 -0.421875 0.359375 -1.09375q0 -0.671875 -0.359375 -1.078125q-0.359375 -0.421875 -0.9375 -0.421875q-0.328125 0 -0.671875 0.171875q-0.328125 0.171875 -0.484375 0.421875l0 1.828125q0.15625 0.234375 0.484375 0.40625q0.34375 0.171875 0.671875 0.171875zm3.6970215 1.078125l0 -7.109375l1.359375 0l0 7.109375l-1.359375 0zm5.117981 0.125q-1.21875 0 -1.984375 -0.75q-0.765625 -0.75 -0.765625 -1.953125q0 -1.15625 0.75 -1.921875q0.765625 -0.78125 1.90625 -0.78125q1.140625 0 1.859375 0.796875q0.71875 0.78125 0.71875 2.046875l0 0.296875l-3.8125 0q0.0625 0.484375 0.4375 0.84375q0.375 0.34375 1.03125 0.34375q0.328125 0 0.71875 -0.125q0.390625 -0.140625 0.65625 -0.375l0.609375 0.859375q-0.390625 0.359375 -0.953125 0.546875q-0.5625 0.171875 -1.171875 0.171875zm1.171875 -3.1875q-0.03125 -0.5 -0.390625 -0.8125q-0.34375 -0.328125 -0.875 -0.328125q-0.53125 0 -0.875 0.328125q-0.328125 0.328125 -0.390625 0.8125l2.53125 0zm4.0179443 3.1875q-1.453125 0 -1.453125 -1.40625l0 -2.6875l-0.859375 0l0 -1.171875l0.859375 0l0 -1.40625l1.359375 0l0 1.40625l1.046875 0l0 1.171875l-1.046875 0l0 2.328125q0 0.25 0.125 0.40625q0.125 0.15625 0.34375 0.15625q0.328125 0 0.46875 -0.140625l0.296875 1.015625q-0.359375 0.328125 -1.140625 0.328125zm4.3049927 0q-1.21875 0 -1.984375 -0.75q-0.765625 -0.75 -0.765625 -1.953125q0 -1.15625 0.75 -1.921875q0.765625 -0.78125 1.90625 -0.78125q1.140625 0 1.859375 0.796875q0.71875 0.78125 0.71875 2.046875l0 0.296875l-3.8125 0q0.0625 0.484375 0.4375 0.84375q0.375 0.34375 1.03125 0.34375q0.328125 0 0.71875 -0.125q0.390625 -0.140625 0.65625 -0.375l0.609375 0.859375q-0.390625 0.359375 -0.953125 0.546875q-0.5625 0.171875 -1.171875 0.171875zm1.171875 -3.1875q-0.03125 -0.5 -0.390625 -0.8125q-0.34375 -0.328125 -0.875 -0.328125q-0.53125 0 -0.875 0.328125q-0.328125 0.328125 -0.390625 0.8125l2.53125 0zm5.8304443 3.0625l0 -0.65625q-0.640625 0.78125 -1.578125 0.78125q-1.03125 0 -1.65625 -0.734375q-0.625 -0.734375 -0.625 -1.953125q0 -1.21875 0.625 -1.96875q0.625 -0.75 1.65625 -0.75q0.96875 0 1.578125 0.796875l0 -2.625l1.375 0l0 7.109375l-1.375 0zm-1.171875 -1.078125q0.34375 0 0.671875 -0.15625q0.328125 -0.171875 0.5 -0.421875l0 -1.828125q-0.171875 -0.25 -0.5 -0.421875q-0.328125 -0.171875 -0.671875 -0.171875q-0.5625 0 -0.9375 0.421875q-0.359375 0.421875 -0.359375 1.09375q0 0.640625 0.34375 1.0625q0.359375 0.421875 0.953125 0.421875z" fill-rule="nonzero"/><path fill="#ffffff" d="m167.55643 280.28348l0 0c0 -9.149689 7.417267 -16.566956 16.566925 -16.566956l58.92914 0l0 0c4.3938293 0 8.607697 1.7454529 11.714584 4.852356c3.1069183 3.106903 4.8523407 7.3207703 4.8523407 11.7146l0 0l0 0c0 9.149658 -7.417267 16.566925 -16.566925 16.566925l-58.92914 0c-9.149658 0 -16.566925 -7.417267 -16.566925 -16.566925z" fill-rule="evenodd"/><path stroke="#29233b" stroke-width="1.0" stroke-linejoin="round" stroke-linecap="butt" d="m167.55643 280.28348l0 0c0 -9.149689 7.417267 -16.566956 16.566925 -16.566956l58.92914 0l0 0c4.3938293 0 8.607697 1.7454529 11.714584 4.852356c3.1069183 3.106903 4.8523407 7.3207703 4.8523407 11.7146l0 0l0 0c0 9.149658 -7.417267 16.566925 -16.566925 16.566925l-58.92914 0c-9.149658 0 -16.566925 -7.417267 -16.566925 -16.566925z" fill-rule="evenodd"/><path fill="#29233b" d="m194.16118 284.02347l0 -7.109375l1.515625 0l0 7.109375l-1.515625 0zm6.3573456 0l0 -3.109375q0 -0.96875 -0.9375 -0.96875q-0.734375 0 -1.171875 0.609375l0 3.46875l-1.359375 0l0 -5.140625l1.359375 0l0 0.671875q0.234375 -0.3125 0.6875 -0.5625q0.46875 -0.25 1.109375 -0.25q0.84375 0 1.25 0.453125q0.421875 0.4375 0.421875 1.1875l0 3.640625l-1.359375 0zm3.3731537 -5.703125q-0.328125 0 -0.578125 -0.234375q-0.234375 -0.234375 -0.234375 -0.578125q0 -0.34375 0.234375 -0.5625q0.25 -0.234375 0.578125 -0.234375q0.34375 0 0.578125 0.234375q0.234375 0.21875 0.234375 0.5625q0 0.34375 -0.234375 0.578125q-0.234375 0.234375 -0.578125 0.234375zm-0.671875 5.703125l0 -5.140625l1.359375 0l0 5.140625l-1.359375 0zm4.41481 0.125q-1.453125 0 -1.453125 -1.40625l0 -2.6875l-0.859375 0l0 -1.171875l0.859375 0l0 -1.40625l1.359375 0l0 1.40625l1.046875 0l0 1.171875l-1.046875 0l0 2.328125q0 0.25 0.125 0.40625q0.125 0.15625 0.34375 0.15625q0.328125 0 0.46875 -0.140625l0.296875 1.015625q-0.359375 0.328125 -1.140625 0.328125zm2.5549774 -5.828125q-0.328125 0 -0.578125 -0.234375q-0.234375 -0.234375 -0.234375 -0.578125q0 -0.34375 0.234375 -0.5625q0.25 -0.234375 0.578125 -0.234375q0.34375 0 0.578125 0.234375q0.234375 0.21875 0.234375 0.5625q0 0.34375 -0.234375 0.578125q-0.234375 0.234375 -0.578125 0.234375zm-0.671875 5.703125l0 -5.140625l1.359375 0l0 5.140625l-1.359375 0zm5.78981 0l0 -0.53125q-0.5625 0.65625 -1.640625 0.65625q-0.734375 0 -1.265625 -0.46875q-0.515625 -0.484375 -0.515625 -1.234375q0 -0.75 0.484375 -1.203125q0.5 -0.453125 1.296875 -0.453125q1.109375 0 1.640625 0.625l0 -0.6875q0 -0.40625 -0.3125 -0.640625q-0.3125 -0.234375 -0.828125 -0.234375q-0.84375 0 -1.5 0.609375l-0.5 -0.90625q0.9375 -0.8125 2.234375 -0.8125q1.09375 0 1.671875 0.515625q0.578125 0.5 0.578125 1.4375l0 3.328125l-1.34375 0zm-1.09375 -0.78125q0.75 0 1.09375 -0.453125l0 -0.640625q-0.34375 -0.453125 -1.09375 -0.453125q-0.40625 0 -0.6875 0.203125q-0.28125 0.203125 -0.28125 0.578125q0 0.359375 0.28125 0.5625q0.28125 0.203125 0.6875 0.203125zm3.7864075 0.78125l0 -7.109375l1.359375 0l0 7.109375l-1.359375 0zm3.3679352 -5.703125q-0.328125 0 -0.578125 -0.234375q-0.234375 -0.234375 -0.234375 -0.578125q0 -0.34375 0.234375 -0.5625q0.25 -0.234375 0.578125 -0.234375q0.34375 0 0.578125 0.234375q0.234375 0.21875 0.234375 0.5625q0 0.34375 -0.234375 0.578125q-0.234375 0.234375 -0.578125 0.234375zm-0.671875 5.703125l0 -5.140625l1.359375 0l0 5.140625l-1.359375 0zm2.4773102 0l0 -1.015625l2.3125 -2.953125l-2.3125 0l0 -1.171875l4.15625 0l0 0.96875l-2.359375 2.984375l2.390625 0l0 1.1875l-4.1875 0zm7.7450256 0.125q-1.21875 0 -1.984375 -0.75q-0.765625 -0.75 -0.765625 -1.953125q0 -1.15625 0.75 -1.921875q0.765625 -0.78125 1.90625 -0.78125q1.140625 0 1.859375 0.796875q0.71875 0.78125 0.71875 2.046875l0 0.296875l-3.8125 0q0.0625 0.484375 0.4375 0.84375q0.375 0.34375 1.03125 0.34375q0.328125 0 0.71875 -0.125q0.390625 -0.140625 0.65625 -0.375l0.609375 0.859375q-0.390625 0.359375 -0.953125 0.546875q-0.5625 0.171875 -1.171875 0.171875zm1.171875 -3.1875q-0.03125 -0.5 -0.390625 -0.8125q-0.34375 -0.328125 -0.875 -0.328125q-0.53125 0 -0.875 0.328125q-0.328125 0.328125 -0.390625 0.8125l2.53125 0z" fill-rule="nonzero"/><path fill="#ffffff" d="m408.5092 280.28348l0 0c0 -9.149689 7.417267 -16.566956 16.566925 -16.566956l58.92914 0l0 0c4.3938293 0 8.607697 1.7454529 11.7146 4.852356c3.106903 3.106903 4.8523254 7.3207703 4.8523254 11.7146l0 0l0 0c0 9.149658 -7.417267 16.566925 -16.566925 16.566925l-58.92914 0c-9.149658 0 -16.566925 -7.417267 -16.566925 -16.566925z" fill-rule="evenodd"/><path stroke="#29233b" stroke-width="1.0" stroke-linejoin="round" stroke-linecap="butt" d="m408.5092 280.28348l0 0c0 -9.149689 7.417267 -16.566956 16.566925 -16.566956l58.92914 0l0 0c4.3938293 0 8.607697 1.7454529 11.7146 4.852356c3.106903 3.106903 4.8523254 7.3207703 4.8523254 11.7146l0 0l0 0c0 9.149658 -7.417267 16.566925 -16.566925 16.566925l-58.92914 0c-9.149658 0 -16.566925 -7.417267 -16.566925 -16.566925z" fill-rule="evenodd"/><path fill="#29233b" d="m439.35745 284.14847q-1.625 0 -2.671875 -1.03125q-1.046875 -1.03125 -1.046875 -2.640625q0 -1.59375 1.046875 -2.625q1.046875 -1.046875 2.671875 -1.046875q1.625 0 2.671875 1.046875q1.046875 1.03125 1.046875 2.625q0 1.515625 -0.9375 2.515625l0.53125 0.609375l-1.0625 0.859375l-0.578125 -0.65625q-0.765625 0.34375 -1.671875 0.34375zm0 -1.34375q0.359375 0 0.734375 -0.109375l-0.78125 -0.921875l1.046875 -0.859375l0.796875 0.921875q0.359375 -0.59375 0.359375 -1.359375q0 -1.015625 -0.59375 -1.671875q-0.59375 -0.65625 -1.5625 -0.65625q-0.984375 0 -1.578125 0.65625q-0.578125 0.65625 -0.578125 1.671875q0 1.015625 0.59375 1.671875q0.59375 0.65625 1.5625 0.65625zm8.2146 1.21875l0 -0.65625q-0.6875 0.78125 -1.8125 0.78125q-0.84375 0 -1.25 -0.421875q-0.40625 -0.4375 -0.40625 -1.1875l0 -3.65625l1.359375 0l0 3.109375q0 0.953125 0.9375 0.953125q0.703125 0 1.171875 -0.578125l0 -3.484375l1.359375 0l0 5.140625l-1.359375 0zm5.123169 0.125q-1.21875 0 -1.984375 -0.75q-0.765625 -0.75 -0.765625 -1.953125q0 -1.15625 0.75 -1.921875q0.765625 -0.78125 1.90625 -0.78125q1.140625 0 1.859375 0.796875q0.71875 0.78125 0.71875 2.046875l0 0.296875l-3.8125 0q0.0625 0.484375 0.4375 0.84375q0.375 0.34375 1.03125 0.34375q0.328125 0 0.71875 -0.125q0.390625 -0.140625 0.65625 -0.375l0.609375 0.859375q-0.390625 0.359375 -0.953125 0.546875q-0.5625 0.171875 -1.171875 0.171875zm1.171875 -3.1875q-0.03125 -0.5 -0.390625 -0.8125q-0.34375 -0.328125 -0.875 -0.328125q-0.53125 0 -0.875 0.328125q-0.328125 0.328125 -0.390625 0.8125l2.53125 0zm5.7679443 3.0625l0 -0.65625q-0.6875 0.78125 -1.8125 0.78125q-0.84375 0 -1.25 -0.421875q-0.40625 -0.4375 -0.40625 -1.1875l0 -3.65625l1.359375 0l0 3.109375q0 0.953125 0.9375 0.953125q0.703125 0 1.171875 -0.578125l0 -3.484375l1.359375 0l0 5.140625l-1.359375 0zm5.123169 0.125q-1.21875 0 -1.984375 -0.75q-0.765625 -0.75 -0.765625 -1.953125q0 -1.15625 0.75 -1.921875q0.765625 -0.78125 1.90625 -0.78125q1.140625 0 1.859375 0.796875q0.71875 0.78125 0.71875 2.046875l0 0.296875l-3.8125 0q0.0625 0.484375 0.4375 0.84375q0.375 0.34375 1.03125 0.34375q0.328125 0 0.71875 -0.125q0.390625 -0.140625 0.65625 -0.375l0.609375 0.859375q-0.390625 0.359375 -0.953125 0.546875q-0.5625 0.171875 -1.171875 0.171875zm1.171875 -3.1875q-0.03125 -0.5 -0.390625 -0.8125q-0.34375 -0.328125 -0.875 -0.328125q-0.53125 0 -0.875 0.328125q-0.328125 0.328125 -0.390625 0.8125l2.53125 0zm5.8304443 3.0625l0 -0.65625q-0.640625 0.78125 -1.578125 0.78125q-1.03125 0 -1.65625 -0.734375q-0.625 -0.734375 -0.625 -1.953125q0 -1.21875 0.625 -1.96875q0.625 -0.75 1.65625 -0.75q0.96875 0 1.578125 0.796875l0 -2.625l1.375 0l0 7.109375l-1.375 0zm-1.171875 -1.078125q0.34375 0 0.671875 -0.15625q0.328125 -0.171875 0.5 -0.421875l0 -1.828125q-0.171875 -0.25 -0.5 -0.421875q-0.328125 -0.171875 -0.671875 -0.171875q-0.5625 0 -0.9375 0.421875q-0.359375 0.421875 -0.359375 1.09375q0 0.640625 0.34375 1.0625q0.359375 0.421875 0.953125 0.421875z" fill-rule="nonzero"/><path fill="#ffffff" d="m537.8898 280.28217l0 0c0 -9.149689 7.4172363 -16.566956 16.566895 -16.566956l58.92914 0l0 0c4.39386 0 8.607727 1.7454529 11.7146 4.852356c3.1069336 3.106903 4.852356 7.3207703 4.852356 11.7146l0 0l0 0c0 9.149658 -7.4172974 16.566925 -16.566956 16.566925l-58.92914 0c-9.149658 0 -16.566895 -7.417267 -16.566895 -16.566925z" fill-rule="evenodd"/><path stroke="#29233b" stroke-width="1.0" stroke-linejoin="round" stroke-linecap="butt" d="m537.8898 280.28217l0 0c0 -9.149689 7.4172363 -16.566956 16.566895 -16.566956l58.92914 0l0 0c4.39386 0 8.607727 1.7454529 11.7146 4.852356c3.1069336 3.106903 4.852356 7.3207703 4.852356 11.7146l0 0l0 0c0 9.149658 -7.4172974 16.566925 -16.566956 16.566925l-58.92914 0c-9.149658 0 -16.566895 -7.417267 -16.566895 -16.566925z" fill-rule="evenodd"/><path fill="#29233b" d="m576.1263 277.64716q-1.90625 0 -3.015625 -1.125l0.828125 -1.15625q0.375 0.390625 0.9375 0.6875q0.578125 0.28125 1.3125 0.28125q0.640625 0 0.9375 -0.234375q0.3125 -0.25 0.3125 -0.5625q0 -0.3125 -0.359375 -0.5q-0.34375 -0.1875 -1.6875 -0.5q-2.046875 -0.484375 -2.046875 -2.0625q0 -0.921875 0.734375 -1.546875q0.734375 -0.625 1.953125 -0.625q1.703125 0 2.78125 1.0l-0.84375 1.109375q-0.84375 -0.78125 -2.078125 -0.78125q-0.484375 0 -0.75 0.203125q-0.25 0.1875 -0.25 0.515625q0 0.265625 0.296875 0.421875q0.296875 0.15625 0.765625 0.265625l0.96875 0.25q2.046875 0.515625 2.046875 2.078125q0 1.0625 -0.765625 1.671875q-0.75 0.609375 -2.078125 0.609375zm6.253235 0q-1.21875 0 -1.984375 -0.75q-0.765625 -0.75 -0.765625 -1.953125q0 -1.15625 0.75 -1.921875q0.765625 -0.78125 1.90625 -0.78125q1.140625 0 1.859375 0.796875q0.71875 0.78125 0.71875 2.046875l0 0.296875l-3.8125 0q0.0625 0.484375 0.4375 0.84375q0.375 0.34375 1.03125 0.34375q0.328125 0 0.71875 -0.125q0.390625 -0.140625 0.65625 -0.375l0.609375 0.859375q-0.390625 0.359375 -0.953125 0.546875q-0.5625 0.171875 -1.171875 0.171875zm1.171875 -3.1875q-0.03125 -0.5 -0.390625 -0.8125q-0.34375 -0.328125 -0.875 -0.328125q-0.53125 0 -0.875 0.328125q-0.328125 0.328125 -0.390625 0.8125l2.53125 0zm5.7679443 3.0625l0 -3.109375q0 -0.96875 -0.9375 -0.96875q-0.734375 0 -1.171875 0.609375l0 3.46875l-1.359375 0l0 -5.140625l1.359375 0l0 0.671875q0.234375 -0.3125 0.6875 -0.5625q0.46875 -0.25 1.109375 -0.25q0.84375 0 1.25 0.453125q0.421875 0.4375 0.421875 1.1875l0 3.640625l-1.359375 0zm4.420044 0.125q-1.453125 0 -1.453125 -1.40625l0 -2.6875l-0.859375 0l0 -1.171875l0.859375 0l0 -1.40625l1.359375 0l0 1.40625l1.046875 0l0 1.171875l-1.046875 0l0 2.328125q0 0.25 0.125 0.40625q0.125 0.15625 0.34375 0.15625q0.328125 0 0.46875 -0.140625l0.296875 1.015625q-0.359375 0.328125 -1.140625 0.328125z" fill-rule="nonzero"/><path fill="#29233b" d="m560.28455 292.64716q-0.796875 -0.90625 -1.25 -2.171875q-0.4375 -1.265625 -0.4375 -2.546875q0 -1.28125 0.4375 -2.546875q0.453125 -1.265625 1.25 -2.15625l0.84375 0.640625q-0.609375 1.109375 -0.84375 2.0625q-0.234375 0.953125 -0.234375 2.0q0 1.09375 0.25 2.0625q0.25 0.953125 0.828125 1.984375l-0.84375 0.671875zm8.086792 -2.125l0 -3.25q0 -0.828125 -0.765625 -0.828125q-0.359375 0 -0.640625 0.203125q-0.265625 0.1875 -0.421875 0.40625l0 3.46875l-1.359375 0l0 -3.25q0 -0.828125 -0.765625 -0.828125q-0.359375 0 -0.640625 0.203125q-0.28125 0.203125 -0.421875 0.40625l0 3.46875l-1.359375 0l0 -5.140625l1.359375 0l0 0.671875q0.171875 -0.296875 0.671875 -0.546875q0.5 -0.265625 1.0 -0.265625q1.125 0 1.4375 0.9375q0.234375 -0.390625 0.71875 -0.65625q0.5 -0.28125 1.046875 -0.28125q1.515625 0 1.515625 1.5625l0 3.71875l-1.375 0zm5.1260986 0.125q-1.21875 0 -1.984375 -0.75q-0.765625 -0.75 -0.765625 -1.953125q0 -1.15625 0.75 -1.921875q0.765625 -0.78125 1.90625 -0.78125q1.140625 0 1.859375 0.796875q0.71875 0.78125 0.71875 2.046875l0 0.296875l-3.8125 0q0.0625 0.484375 0.4375 0.84375q0.375 0.34375 1.03125 0.34375q0.328125 0 0.71875 -0.125q0.390625 -0.140625 0.65625 -0.375l0.609375 0.859375q-0.390625 0.359375 -0.953125 0.546875q-0.5625 0.171875 -1.171875 0.171875zm1.171875 -3.1875q-0.03125 -0.5 -0.390625 -0.8125q-0.34375 -0.328125 -0.875 -0.328125q-0.53125 0 -0.875 0.328125q-0.328125 0.328125 -0.390625 0.8125l2.53125 0zm8.674194 3.0625l0 -3.25q0 -0.828125 -0.765625 -0.828125q-0.359375 0 -0.640625 0.203125q-0.265625 0.1875 -0.421875 0.40625l0 3.46875l-1.359375 0l0 -3.25q0 -0.828125 -0.765625 -0.828125q-0.359375 0 -0.640625 0.203125q-0.28125 0.203125 -0.421875 0.40625l0 3.46875l-1.359375 0l0 -5.140625l1.359375 0l0 0.671875q0.171875 -0.296875 0.671875 -0.546875q0.5 -0.265625 1.0 -0.265625q1.125 0 1.4375 0.9375q0.234375 -0.390625 0.71875 -0.65625q0.5 -0.28125 1.046875 -0.28125q1.515625 0 1.515625 1.5625l0 3.71875l-1.375 0zm5.6417236 0.125q-0.984375 0 -1.578125 -0.78125l0 2.609375l-1.359375 0l0 -7.09375l1.359375 0l0 0.640625q0.609375 -0.78125 1.578125 -0.78125q1.03125 0 1.65625 0.71875q0.625 0.71875 0.625 1.984375q0 1.234375 -0.625 1.96875q-0.625 0.734375 -1.65625 0.734375zm-0.421875 -1.203125q0.578125 0 0.9375 -0.40625q0.359375 -0.421875 0.359375 -1.09375q0 -0.671875 -0.359375 -1.078125q-0.359375 -0.421875 -0.9375 -0.421875q-0.328125 0 -0.671875 0.171875q-0.328125 0.171875 -0.484375 0.421875l0 1.828125q0.15625 0.234375 0.484375 0.40625q0.34375 0.171875 0.671875 0.171875zm6.0876465 1.203125q-1.203125 0 -1.96875 -0.765625q-0.75 -0.765625 -0.75 -1.9375q0 -1.171875 0.75 -1.9375q0.765625 -0.765625 1.96875 -0.765625q1.1875 0 1.953125 0.765625q0.765625 0.765625 0.765625 1.9375q0 1.1875 -0.765625 1.953125q-0.765625 0.75 -1.953125 0.75zm0 -1.203125q0.578125 0 0.9375 -0.421875q0.375 -0.421875 0.375 -1.078125q0 -0.640625 -0.375 -1.0625q-0.359375 -0.4375 -0.9375 -0.4375q-0.5625 0 -0.9375 0.421875q-0.375 0.40625 -0.375 1.078125q0 0.6875 0.375 1.09375q0.375 0.40625 0.9375 0.40625zm6.1167603 1.203125q-1.203125 0 -1.96875 -0.765625q-0.75 -0.765625 -0.75 -1.9375q0 -1.171875 0.75 -1.9375q0.765625 -0.765625 1.96875 -0.765625q1.1875 0 1.953125 0.765625q0.765625 0.765625 0.765625 1.9375q0 1.1875 -0.765625 1.953125q-0.765625 0.75 -1.953125 0.75zm0 -1.203125q0.578125 0 0.9375 -0.421875q0.375 -0.421875 0.375 -1.078125q0 -0.640625 -0.375 -1.0625q-0.359375 -0.4375 -0.9375 -0.4375q-0.5625 0 -0.9375 0.421875q-0.375 0.40625 -0.375 1.078125q0 0.6875 0.375 1.09375q0.375 0.40625 0.9375 0.40625zm3.7261353 1.078125l0 -7.109375l1.359375 0l0 7.109375l-1.359375 0zm2.21167 1.453125q0.53125 -0.9375 0.796875 -1.875q0.28125 -0.9375 0.28125 -2.171875q0 -1.171875 -0.265625 -2.109375q-0.25 -0.9375 -0.8125 -1.953125l0.84375 -0.640625q0.765625 0.84375 1.234375 2.109375q0.46875 1.265625 0.46875 2.59375q0 1.328125 -0.46875 2.59375q-0.46875 1.265625 -1.234375 2.125l-0.84375 -0.671875z" fill-rule="nonzero"/><path fill="#ffffff" d="m669.3478 280.28217l0 0c0 -9.149689 7.4172363 -16.566956 16.566895 -16.566956l58.92914 0l0 0c4.39386 0 8.607727 1.7454529 11.7146 4.852356c3.1069336 3.106903 4.852356 7.3207703 4.852356 11.7146l0 0l0 0c0 9.149658 -7.4172974 16.566925 -16.566956 16.566925l-58.92914 0c-9.149658 0 -16.566895 -7.417267 -16.566895 -16.566925z" fill-rule="evenodd"/><path stroke="#29233b" stroke-width="1.0" stroke-linejoin="round" stroke-linecap="butt" d="m669.3478 280.28217l0 0c0 -9.149689 7.4172363 -16.566956 16.566895 -16.566956l58.92914 0l0 0c4.39386 0 8.607727 1.7454529 11.7146 4.852356c3.1069336 3.106903 4.852356 7.3207703 4.852356 11.7146l0 0l0 0c0 9.149658 -7.4172974 16.566925 -16.566956 16.566925l-58.92914 0c-9.149658 0 -16.566895 -7.417267 -16.566895 -16.566925z" fill-rule="evenodd"/><path fill="#29233b" d="m694.0991 284.14716q-1.640625 0 -2.71875 -1.046875q-1.0625 -1.046875 -1.0625 -2.625q0 -1.046875 0.5 -1.890625q0.5 -0.859375 1.359375 -1.3125q0.875 -0.46875 1.921875 -0.46875q1.96875 0 2.984375 1.734375l-1.3125 0.640625q-0.21875 -0.4375 -0.671875 -0.734375q-0.4375 -0.296875 -1.0 -0.296875q-0.96875 0 -1.59375 0.671875q-0.625 0.65625 -0.625 1.65625q0 1.03125 0.640625 1.6875q0.640625 0.640625 1.578125 0.640625q0.5625 0 1.0 -0.28125q0.453125 -0.296875 0.671875 -0.75l1.3125 0.625q-1.015625 1.75 -2.984375 1.75zm6.242798 0q-1.203125 0 -1.96875 -0.765625q-0.75 -0.765625 -0.75 -1.9375q0 -1.171875 0.75 -1.9375q0.765625 -0.765625 1.96875 -0.765625q1.1875 0 1.953125 0.765625q0.765625 0.765625 0.765625 1.9375q0 1.1875 -0.765625 1.953125q-0.765625 0.75 -1.953125 0.75zm0 -1.203125q0.578125 0 0.9375 -0.421875q0.375 -0.421875 0.375 -1.078125q0 -0.640625 -0.375 -1.0625q-0.359375 -0.4375 -0.9375 -0.4375q-0.5625 0 -0.9375 0.421875q-0.375 0.40625 -0.375 1.078125q0 0.6875 0.375 1.09375q0.375 0.40625 0.9375 0.40625zm7.1948853 1.078125l0 -3.109375q0 -0.96875 -0.9375 -0.96875q-0.734375 0 -1.171875 0.609375l0 3.46875l-1.359375 0l0 -5.140625l1.359375 0l0 0.671875q0.234375 -0.3125 0.6875 -0.5625q0.46875 -0.25 1.109375 -0.25q0.84375 0 1.25 0.453125q0.421875 0.4375 0.421875 1.1875l0 3.640625l-1.359375 0zm2.998169 0l0 -3.96875l-0.84375 0l0 -1.171875l0.84375 0l0 -0.28125q0 -0.828125 0.484375 -1.3125q0.484375 -0.484375 1.25 -0.484375q0.578125 0 0.984375 0.21875l-0.28125 0.984375q-0.171875 -0.140625 -0.4375 -0.140625q-0.28125 0 -0.46875 0.1875q-0.171875 0.1875 -0.171875 0.546875l0 0.28125l1.046875 0l0 1.171875l-1.046875 0l0 3.96875l-1.359375 0zm3.859375 -5.703125q-0.328125 0 -0.578125 -0.234375q-0.234375 -0.234375 -0.234375 -0.578125q0 -0.34375 0.234375 -0.5625q0.25 -0.234375 0.578125 -0.234375q0.34375 0 0.578125 0.234375q0.234375 0.21875 0.234375 0.5625q0 0.34375 -0.234375 0.578125q-0.234375 0.234375 -0.578125 0.234375zm-0.671875 5.703125l0 -5.140625l1.359375 0l0 5.140625l-1.359375 0zm2.696289 0l0 -5.140625l1.359375 0l0 0.703125q0.265625 -0.34375 0.703125 -0.59375q0.453125 -0.25 0.9375 -0.25l0 1.328125l-0.375 -0.03125q-0.359375 0 -0.734375 0.171875q-0.375 0.171875 -0.53125 0.40625l0 3.40625l-1.359375 0zm10.211304 0l0 -3.25q0 -0.828125 -0.765625 -0.828125q-0.359375 0 -0.640625 0.203125q-0.265625 0.1875 -0.421875 0.40625l0 3.46875l-1.359375 0l0 -3.25q0 -0.828125 -0.765625 -0.828125q-0.359375 0 -0.640625 0.203125q-0.28125 0.203125 -0.421875 0.40625l0 3.46875l-1.359375 0l0 -5.140625l1.359375 0l0 0.671875q0.171875 -0.296875 0.671875 -0.546875q0.5 -0.265625 1.0 -0.265625q1.125 0 1.4375 0.9375q0.234375 -0.390625 0.71875 -0.65625q0.5 -0.28125 1.046875 -0.28125q1.515625 0 1.515625 1.5625l0 3.71875l-1.375 0zm5.1260986 0.125q-1.21875 0 -1.984375 -0.75q-0.765625 -0.75 -0.765625 -1.953125q0 -1.15625 0.75 -1.921875q0.765625 -0.78125 1.90625 -0.78125q1.140625 0 1.859375 0.796875q0.71875 0.78125 0.71875 2.046875l0 0.296875l-3.8125 0q0.0625 0.484375 0.4375 0.84375q0.375 0.34375 1.03125 0.34375q0.328125 0 0.71875 -0.125q0.390625 -0.140625 0.65625 -0.375l0.609375 0.859375q-0.390625 0.359375 -0.953125 0.546875q-0.5625 0.171875 -1.171875 0.171875zm1.171875 -3.1875q-0.03125 -0.5 -0.390625 -0.8125q-0.34375 -0.328125 -0.875 -0.328125q-0.53125 0 -0.875 0.328125q-0.328125 0.328125 -0.390625 0.8125l2.53125 0zm5.8304443 3.0625l0 -0.65625q-0.640625 0.78125 -1.578125 0.78125q-1.03125 0 -1.65625 -0.734375q-0.625 -0.734375 -0.625 -1.953125q0 -1.21875 0.625 -1.96875q0.625 -0.75 1.65625 -0.75q0.96875 0 1.578125 0.796875l0 -2.625l1.375 0l0 7.109375l-1.375 0zm-1.171875 -1.078125q0.34375 0 0.671875 -0.15625q0.328125 -0.171875 0.5 -0.421875l0 -1.828125q-0.171875 -0.25 -0.5 -0.421875q-0.328125 -0.171875 -0.671875 -0.171875q-0.5625 0 -0.9375 0.421875q-0.359375 0.421875 -0.359375 1.09375q0 0.640625 0.34375 1.0625q0.359375 0.421875 0.953125 0.421875z" fill-rule="nonzero"/><path fill="#29233b" d="m14.060368 266.6824l0 0c0 -3.754364 3.0435238 -6.797882 6.7978992 -6.797882l78.46719 0c1.8029099 0 3.5319824 0.7161865 4.806839 1.9910583c1.2748566 1.2748413 1.9910583 3.0039062 1.9910583 4.8068237l0 27.19162c0 3.754364 -3.0435257 6.797882 -6.7978973 6.797882l-78.46719 0c-3.7543755 0 -6.7978992 -3.043518 -6.7978992 -6.797882z" fill-rule="evenodd"/><path stroke="#29233b" stroke-width="1.0" stroke-linejoin="round" stroke-linecap="butt" d="m14.060368 266.6824l0 0c0 -3.754364 3.0435238 -6.797882 6.7978992 -6.797882l78.46719 0c1.8029099 0 3.5319824 0.7161865 4.806839 1.9910583c1.2748566 1.2748413 1.9910583 3.0039062 1.9910583 4.8068237l0 27.19162c0 3.754364 -3.0435257 6.797882 -6.7978973 6.797882l-78.46719 0c-3.7543755 0 -6.7978992 -3.043518 -6.7978992 -6.797882z" fill-rule="evenodd"/><path fill="#ffffff" d="m47.825405 284.01822l-3.390625 -4.640625l0 4.640625l-1.515625 0l0 -7.109375l1.5625 0l3.28125 4.46875l0 -4.46875l1.515625 0l0 7.109375l-1.453125 0zm5.2528534 0.125q-1.21875 0 -1.984375 -0.75q-0.765625 -0.75 -0.765625 -1.953125q0 -1.15625 0.75 -1.921875q0.765625 -0.78125 1.90625 -0.78125q1.140625 0 1.859375 0.796875q0.71875 0.78125 0.71875 2.046875l0 0.296875l-3.8125 0q0.0625 0.484375 0.4375 0.84375q0.375 0.34375 1.03125 0.34375q0.328125 0 0.71875 -0.125q0.390625 -0.140625 0.65625 -0.375l0.609375 0.859375q-0.390625 0.359375 -0.953125 0.546875q-0.5625 0.171875 -1.171875 0.171875zm1.171875 -3.1875q-0.03125 -0.5 -0.390625 -0.8125q-0.34375 -0.328125 -0.875 -0.328125q-0.53125 0 -0.875 0.328125q-0.328125 0.328125 -0.390625 0.8125l2.53125 0zm6.8148346 3.0625l-1.078125 -3.5l-1.09375 3.5l-1.453125 0l-1.5625 -5.140625l1.40625 0l0.953125 3.453125l1.140625 -3.453125l1.203125 0l1.125 3.453125l0.953125 -3.453125l1.4062538 0l-1.5625038 5.140625l-1.4375 0zm8.079014 0l0 -5.78125l-2.078125 0l0 -1.328125l5.671875 0l0 1.328125l-2.0625 0l0 5.78125l-1.53125 0zm7.3122864 0l-1.171875 -1.734375l-1.1875 1.734375l-1.5 0l1.828125 -2.640625l-1.71875 -2.5l1.515625 0l1.0625 1.578125l1.046875 -1.578125l1.515625 0l-1.71875 2.5l1.84375 2.640625l-1.515625 0z" fill-rule="nonzero"/><path fill="#000000" fill-opacity="0.0" d="m106.12336 280.27823l61.448814 0" fill-rule="evenodd"/><path stroke="#29233b" stroke-width="1.0" stroke-linejoin="round" stroke-linecap="butt" d="m106.12336 280.27823l58.021736 0" fill-rule="evenodd"/><path fill="#29233b" stroke="#29233b" stroke-width="1.0" stroke-linecap="butt" d="m164.1451 280.27823l-1.124588 1.1245728l3.0897675 -1.1245728l-3.0897675 -1.1246033z" fill-rule="evenodd"/><path fill="#000000" fill-opacity="0.0" d="m259.61942 280.28348l28.881897 0" fill-rule="evenodd"/><path stroke="#29233b" stroke-width="1.0" stroke-linejoin="round" stroke-linecap="butt" d="m259.61942 280.28348l25.454803 0" fill-rule="evenodd"/><path fill="#29233b" stroke="#29233b" stroke-width="1.0" stroke-linecap="butt" d="m285.07422 280.28348l-1.1245728 1.1245728l3.0897522 -1.1245728l-3.0897522 -1.1246033z" fill-rule="evenodd"/><path fill="#000000" fill-opacity="0.0" d="m500.57217 280.28348l37.322845 0" fill-rule="evenodd"/><path stroke="#29233b" stroke-width="1.0" stroke-linejoin="round" stroke-linecap="butt" d="m500.57217 280.28348l33.895782 0" fill-rule="evenodd"/><path fill="#29233b" stroke="#29233b" stroke-width="1.0" stroke-linecap="butt" d="m534.46796 280.28348l-1.1246338 1.1245728l3.0897827 -1.1245728l-3.0897827 -1.1246033z" fill-rule="evenodd"/><path fill="#000000" fill-opacity="0.0" d="m629.95276 280.28217l39.40155 0" fill-rule="evenodd"/><path stroke="#29233b" stroke-width="1.0" stroke-linejoin="round" stroke-linecap="butt" d="m629.95276 280.28217l35.974487 0" fill-rule="evenodd"/><path fill="#29233b" stroke="#29233b" stroke-width="1.0" stroke-linecap="butt" d="m665.92725 280.28217l-1.1245728 1.1245728l3.0897827 -1.1245728l-3.0897827 -1.1246033z" fill-rule="evenodd"/><path fill="#000000" fill-opacity="0.0" d="m761.41077 280.28217l19.307068 0" fill-rule="evenodd"/><path stroke="#29233b" stroke-width="1.0" stroke-linejoin="round" stroke-linecap="butt" d="m761.41077 280.28217l15.880005 0" fill-rule="evenodd"/><path fill="#29233b" stroke="#29233b" stroke-width="1.0" stroke-linecap="butt" d="m777.2908 280.28217l-1.1245728 1.1245728l3.0897217 -1.1245728l-3.0897217 -1.1246033z" fill-rule="evenodd"/><path fill="#000000" fill-opacity="0.0" d="m761.41077 280.28217l9.659546 0l0 -105.952774l9.647522 0" fill-rule="evenodd"/><path stroke="#29233b" stroke-width="1.0" stroke-linejoin="round" stroke-linecap="butt" d="m761.41077 280.28217l9.659546 0l0 -105.952774l6.220459 0" fill-rule="evenodd"/><path fill="#29233b" stroke="#29233b" stroke-width="1.0" stroke-linecap="butt" d="m777.2908 174.32939l-1.1245728 1.124588l3.0897217 -1.124588l-3.0897217 -1.1245728z" fill-rule="evenodd"/><path fill="#000000" fill-opacity="0.0" d="m761.41077 280.28217l9.659546 0l0 105.98425l9.647522 0" fill-rule="evenodd"/><path stroke="#29233b" stroke-width="1.0" stroke-linejoin="round" stroke-linecap="butt" d="m761.41077 280.28217l9.659546 0l0 105.98425l6.220459 0" fill-rule="evenodd"/><path fill="#29233b" stroke="#29233b" stroke-width="1.0" stroke-linecap="butt" d="m777.2908 386.26642l-1.1245728 1.1245728l3.0897217 -1.1245728l-3.0897217 -1.1246033z" fill-rule="evenodd"/><path fill="#ffffff" d="m288.5092 280.28348l0 0c0 -9.149689 7.417267 -16.566956 16.566925 -16.566956l58.92914 0l0 0c4.3938293 0 8.607697 1.7454529 11.7146 4.852356c3.106903 3.106903 4.8523254 7.3207703 4.8523254 11.7146l0 0l0 0c0 9.149658 -7.417267 16.566925 -16.566925 16.566925l-58.92914 0c-9.149658 0 -16.566925 -7.417267 -16.566925 -16.566925z" fill-rule="evenodd"/><path stroke="#29233b" stroke-width="1.0" stroke-linejoin="round" stroke-linecap="butt" d="m288.5092 280.28348l0 0c0 -9.149689 7.417267 -16.566956 16.566925 -16.566956l58.92914 0l0 0c4.3938293 0 8.607697 1.7454529 11.7146 4.852356c3.106903 3.106903 4.8523254 7.3207703 4.8523254 11.7146l0 0l0 0c0 9.149658 -7.417267 16.566925 -16.566925 16.566925l-58.92914 0c-9.149658 0 -16.566925 -7.417267 -16.566925 -16.566925z" fill-rule="evenodd"/><path fill="#29233b" d="m303.77567 277.52347l0 -7.109375l3.328125 0q1.078125 0 1.734375 0.640625q0.65625 0.625 0.65625 1.65625q0 1.015625 -0.671875 1.65625q-0.671875 0.625 -1.71875 0.625l-1.8125 0l0 2.53125l-1.515625 0zm3.125 -3.859375q0.4375 0 0.734375 -0.25q0.3125 -0.265625 0.3125 -0.703125q0 -0.453125 -0.3125 -0.703125q-0.296875 -0.265625 -0.734375 -0.265625l-1.609375 0l0 1.921875l1.609375 0zm5.733856 3.984375q-1.21875 0 -1.984375 -0.75q-0.765625 -0.75 -0.765625 -1.953125q0 -1.15625 0.75 -1.921875q0.765625 -0.78125 1.90625 -0.78125q1.140625 0 1.859375 0.796875q0.71875 0.78125 0.71875 2.046875l0 0.296875l-3.8125 0q0.0625 0.484375 0.4375 0.84375q0.375 0.34375 1.03125 0.34375q0.328125 0 0.71875 -0.125q0.390625 -0.140625 0.65625 -0.375l0.609375 0.859375q-0.390625 0.359375 -0.953125 0.546875q-0.5625 0.171875 -1.171875 0.171875zm1.171875 -3.1875q-0.03125 -0.5 -0.390625 -0.8125q-0.34375 -0.328125 -0.875 -0.328125q-0.53125 0 -0.875 0.328125q-0.328125 0.328125 -0.390625 0.8125l2.53125 0zm5.767975 3.0625l0 -3.109375q0 -0.96875 -0.9375 -0.96875q-0.734375 0 -1.171875 0.609375l0 3.46875l-1.359375 0l0 -5.140625l1.359375 0l0 0.671875q0.234375 -0.3125 0.6875 -0.5625q0.46875 -0.25 1.109375 -0.25q0.84375 0 1.25 0.453125q0.421875 0.4375 0.421875 1.1875l0 3.640625l-1.359375 0zm6.2325134 0l0 -0.65625q-0.640625 0.78125 -1.578125 0.78125q-1.03125 0 -1.65625 -0.734375q-0.625 -0.734375 -0.625 -1.953125q0 -1.21875 0.625 -1.96875q0.625 -0.75 1.65625 -0.75q0.96875 0 1.578125 0.796875l0 -2.625l1.375 0l0 7.109375l-1.375 0zm-1.171875 -1.078125q0.34375 0 0.671875 -0.15625q0.328125 -0.171875 0.5 -0.421875l0 -1.828125q-0.171875 -0.25 -0.5 -0.421875q-0.328125 -0.171875 -0.671875 -0.171875q-0.5625 0 -0.9375 0.421875q-0.359375 0.421875 -0.359375 1.09375q0 0.640625 0.34375 1.0625q0.359375 0.421875 0.953125 0.421875zm4.557129 -4.625q-0.328125 0 -0.578125 -0.234375q-0.234375 -0.234375 -0.234375 -0.578125q0 -0.34375 0.234375 -0.5625q0.25 -0.234375 0.578125 -0.234375q0.34375 0 0.578125 0.234375q0.234375 0.21875 0.234375 0.5625q0 0.34375 -0.234375 0.578125q-0.234375 0.234375 -0.578125 0.234375zm-0.671875 5.703125l0 -5.140625l1.359375 0l0 5.140625l-1.359375 0zm6.1648254 0l0 -3.109375q0 -0.96875 -0.9375 -0.96875q-0.734375 0 -1.171875 0.609375l0 3.46875l-1.359375 0l0 -5.140625l1.359375 0l0 0.671875q0.234375 -0.3125 0.6875 -0.5625q0.46875 -0.25 1.109375 -0.25q0.84375 0 1.25 0.453125q0.421875 0.4375 0.421875 1.1875l0 3.640625l-1.359375 0zm4.8106384 2.09375q-0.671875 0 -1.203125 -0.171875q-0.515625 -0.171875 -1.015625 -0.59375l0.609375 -0.984375q0.578125 0.640625 1.609375 0.640625q0.671875 0 1.046875 -0.34375q0.375 -0.34375 0.375 -0.953125l0 -0.53125q-0.65625 0.8125 -1.59375 0.8125q-1.03125 0 -1.65625 -0.703125q-0.609375 -0.71875 -0.609375 -1.921875q0 -1.1875 0.609375 -1.90625q0.609375 -0.71875 1.65625 -0.71875q0.96875 0 1.59375 0.796875l0 -0.65625l1.359375 0l0 4.78125q0 1.1875 -0.734375 1.8125q-0.71875 0.640625 -2.046875 0.640625zm0.25 -3.328125q0.34375 0 0.671875 -0.171875q0.328125 -0.171875 0.5 -0.421875l0 -1.65625q-0.171875 -0.25 -0.5 -0.421875q-0.328125 -0.171875 -0.671875 -0.171875q-0.5625 0 -0.9375 0.375q-0.359375 0.375 -0.359375 1.046875q0 0.671875 0.359375 1.046875q0.375 0.375 0.9375 0.375zm10.649506 1.234375l-1.390625 -2.53125l-1.109375 0l0 2.53125l-1.515625 0l0 -7.109375l3.328125 0q1.078125 0 1.734375 0.65625q0.65625 0.640625 0.65625 1.640625q0 0.828125 -0.453125 1.390625q-0.4375 0.5625 -1.109375 0.71875l1.59375 2.703125l-1.734375 0zm-0.921875 -3.859375q0.46875 0 0.765625 -0.25q0.3125 -0.265625 0.3125 -0.703125q0 -0.453125 -0.3125 -0.703125q-0.296875 -0.265625 -0.765625 -0.265625l-1.578125 0l0 1.921875l1.578125 0zm4.3988953 -1.84375q-0.328125 0 -0.578125 -0.234375q-0.234375 -0.234375 -0.234375 -0.578125q0 -0.34375 0.234375 -0.5625q0.25 -0.234375 0.578125 -0.234375q0.34375 0 0.578125 0.234375q0.234375 0.21875 0.234375 0.5625q0 0.34375 -0.234375 0.578125q-0.234375 0.234375 -0.578125 0.234375zm-0.671875 5.703125l0 -5.140625l1.359375 0l0 5.140625l-1.359375 0zm4.5554504 0.125q-0.671875 0 -1.296875 -0.203125q-0.609375 -0.21875 -1.015625 -0.59375l0.59375 -0.953125q0.3125 0.296875 0.8125 0.5q0.515625 0.203125 0.96875 0.203125q0.859375 0 0.859375 -0.546875q0 -0.21875 -0.234375 -0.3125q-0.21875 -0.109375 -0.546875 -0.1875l-0.75 -0.15625q-1.53125 -0.328125 -1.53125 -1.53125q0 -0.71875 0.59375 -1.171875q0.59375 -0.453125 1.515625 -0.453125q1.203125 0 2.078125 0.703125l-0.546875 0.9375q-0.234375 -0.25 -0.640625 -0.421875q-0.390625 -0.171875 -0.875 -0.171875q-0.375 0 -0.59375 0.15625q-0.21875 0.140625 -0.21875 0.34375q0 0.203125 0.21875 0.296875q0.234375 0.09375 0.5625 0.171875q0.34375 0.0625 0.734375 0.15625q0.40625 0.078125 0.75 0.265625q0.34375 0.171875 0.5625 0.484375q0.21875 0.3125 0.21875 0.828125q0 0.75 -0.609375 1.203125q-0.609375 0.453125 -1.609375 0.453125zm6.551819 -0.125l-1.359375 -1.984375l-0.609375 0.65625l0 1.328125l-1.359375 0l0 -7.109375l1.359375 0l0 4.25l1.9375 -2.28125l1.671875 0l-2.03125 2.328125l2.09375 2.8125l-1.703125 0z" fill-rule="nonzero"/><path fill="#29233b" d="m313.47324 290.64847q-1.90625 0 -3.015625 -1.125l0.828125 -1.15625q0.375 0.390625 0.9375 0.6875q0.578125 0.28125 1.3125 0.28125q0.640625 0 0.9375 -0.234375q0.3125 -0.25 0.3125 -0.5625q0 -0.3125 -0.359375 -0.5q-0.34375 -0.1875 -1.6875 -0.5q-2.046875 -0.484375 -2.046875 -2.0625q0 -0.921875 0.734375 -1.546875q0.734375 -0.625 1.953125 -0.625q1.703125 0 2.78125 1.0l-0.84375 1.109375q-0.84375 -0.78125 -2.078125 -0.78125q-0.484375 0 -0.75 0.203125q-0.25 0.1875 -0.25 0.515625q0 0.265625 0.296875 0.421875q0.296875 0.15625 0.765625 0.265625l0.96875 0.25q2.046875 0.515625 2.046875 2.078125q0 1.0625 -0.765625 1.671875q-0.75 0.609375 -2.078125 0.609375zm6.2219543 0q-1.203125 0 -1.96875 -0.765625q-0.75 -0.765625 -0.75 -1.9375q0 -1.15625 0.75 -1.921875q0.765625 -0.78125 1.96875 -0.78125q0.796875 0 1.28125 0.296875q0.5 0.28125 0.765625 0.640625l-0.890625 0.828125q-0.375 -0.5625 -1.078125 -0.5625q-0.625 0 -1.015625 0.421875q-0.390625 0.40625 -0.390625 1.078125q0 0.671875 0.390625 1.09375q0.390625 0.40625 1.015625 0.40625q0.6875 0 1.078125 -0.546875l0.890625 0.8125q-0.265625 0.359375 -0.765625 0.65625q-0.484375 0.28125 -1.28125 0.28125zm2.92688 -0.125l0 -5.140625l1.359375 0l0 0.703125q0.265625 -0.34375 0.703125 -0.59375q0.453125 -0.25 0.9375 -0.25l0 1.328125l-0.375 -0.03125q-0.359375 0 -0.734375 0.171875q-0.375 0.171875 -0.53125 0.40625l0 3.40625l-1.359375 0zm6.2581787 0.125q-1.21875 0 -1.984375 -0.75q-0.765625 -0.75 -0.765625 -1.953125q0 -1.15625 0.75 -1.921875q0.765625 -0.78125 1.90625 -0.78125q1.140625 0 1.859375 0.796875q0.71875 0.78125 0.71875 2.046875l0 0.296875l-3.8125 0q0.0625 0.484375 0.4375 0.84375q0.375 0.34375 1.03125 0.34375q0.328125 0 0.71875 -0.125q0.390625 -0.140625 0.65625 -0.375l0.609375 0.859375q-0.390625 0.359375 -0.953125 0.546875q-0.5625 0.171875 -1.171875 0.171875zm1.171875 -3.1875q-0.03125 -0.5 -0.390625 -0.8125q-0.34375 -0.328125 -0.875 -0.328125q-0.53125 0 -0.875 0.328125q-0.328125 0.328125 -0.390625 0.8125l2.53125 0zm4.7210693 3.1875q-1.21875 0 -1.984375 -0.75q-0.765625 -0.75 -0.765625 -1.953125q0 -1.15625 0.75 -1.921875q0.765625 -0.78125 1.90625 -0.78125q1.140625 0 1.859375 0.796875q0.71875 0.78125 0.71875 2.046875l0 0.296875l-3.8125 0q0.0625 0.484375 0.4375 0.84375q0.375 0.34375 1.03125 0.34375q0.328125 0 0.71875 -0.125q0.390625 -0.140625 0.65625 -0.375l0.609375 0.859375q-0.390625 0.359375 -0.953125 0.546875q-0.5625 0.171875 -1.171875 0.171875zm1.171875 -3.1875q-0.03125 -0.5 -0.390625 -0.8125q-0.34375 -0.328125 -0.875 -0.328125q-0.53125 0 -0.875 0.328125q-0.328125 0.328125 -0.390625 0.8125l2.53125 0zm5.767975 3.0625l0 -3.109375q0 -0.96875 -0.9375 -0.96875q-0.734375 0 -1.171875 0.609375l0 3.46875l-1.359375 0l0 -5.140625l1.359375 0l0 0.671875q0.234375 -0.3125 0.6875 -0.5625q0.46875 -0.25 1.109375 -0.25q0.84375 0 1.25 0.453125q0.421875 0.4375 0.421875 1.1875l0 3.640625l-1.359375 0zm3.3731384 -5.703125q-0.328125 0 -0.578125 -0.234375q-0.234375 -0.234375 -0.234375 -0.578125q0 -0.34375 0.234375 -0.5625q0.25 -0.234375 0.578125 -0.234375q0.34375 0 0.578125 0.234375q0.234375 0.21875 0.234375 0.5625q0 0.34375 -0.234375 0.578125q-0.234375 0.234375 -0.578125 0.234375zm-0.671875 5.703125l0 -5.140625l1.359375 0l0 5.140625l-1.359375 0zm6.1648254 0l0 -3.109375q0 -0.96875 -0.9375 -0.96875q-0.734375 0 -1.171875 0.609375l0 3.46875l-1.359375 0l0 -5.140625l1.359375 0l0 0.671875q0.234375 -0.3125 0.6875 -0.5625q0.46875 -0.25 1.109375 -0.25q0.84375 0 1.25 0.453125q0.421875 0.4375 0.421875 1.1875l0 3.640625l-1.359375 0zm4.8106384 2.09375q-0.671875 0 -1.203125 -0.171875q-0.515625 -0.171875 -1.015625 -0.59375l0.609375 -0.984375q0.578125 0.640625 1.609375 0.640625q0.671875 0 1.046875 -0.34375q0.375 -0.34375 0.375 -0.953125l0 -0.53125q-0.65625 0.8125 -1.59375 0.8125q-1.03125 0 -1.65625 -0.703125q-0.609375 -0.71875 -0.609375 -1.921875q0 -1.1875 0.609375 -1.90625q0.609375 -0.71875 1.65625 -0.71875q0.96875 0 1.59375 0.796875l0 -0.65625l1.359375 0l0 4.78125q0 1.1875 -0.734375 1.8125q-0.71875 0.640625 -2.046875 0.640625zm0.25 -3.328125q0.34375 0 0.671875 -0.171875q0.328125 -0.171875 0.5 -0.421875l0 -1.65625q-0.171875 -0.25 -0.5 -0.421875q-0.328125 -0.171875 -0.671875 -0.171875q-0.5625 0 -0.9375 0.375q-0.359375 0.375 -0.359375 1.046875q0 0.671875 0.359375 1.046875q0.375 0.375 0.9375 0.375z" fill-rule="nonzero"/><path fill="#000000" fill-opacity="0.0" d="m380.57217 280.28348l27.937012 0" fill-rule="evenodd"/><path stroke="#29233b" stroke-width="1.0" stroke-linejoin="round" stroke-linecap="butt" d="m380.57217 280.28348l24.509918 0" fill-rule="evenodd"/><path fill="#29233b" stroke="#29233b" stroke-width="1.0" stroke-linecap="butt" d="m405.0821 280.28348l-1.1245728 1.1245728l3.0897522 -1.1245728l-3.0897522 -1.1246033z" fill-rule="evenodd"/><path fill="#ffffff" d="m288.5092 120.28346l0 0c0 -9.149658 7.417267 -16.566925 16.566925 -16.566925l58.92914 0l0 0c4.3938293 0 8.607697 1.7454376 11.7146 4.8523407c3.106903 3.106903 4.8523254 7.3207626 4.8523254 11.714584l0 0l0 0c0 9.149658 -7.417267 16.566925 -16.566925 16.566925l-58.92914 0c-9.149658 0 -16.566925 -7.417267 -16.566925 -16.566925z" fill-rule="evenodd"/><path stroke="#29233b" stroke-width="1.0" stroke-linejoin="round" stroke-linecap="butt" d="m288.5092 120.28346l0 0c0 -9.149658 7.417267 -16.566925 16.566925 -16.566925l58.92914 0l0 0c4.3938293 0 8.607697 1.7454376 11.7146 4.8523407c3.106903 3.106903 4.8523254 7.3207626 4.8523254 11.714584l0 0l0 0c0 9.149658 -7.417267 16.566925 -16.566925 16.566925l-58.92914 0c-9.149658 0 -16.566925 -7.417267 -16.566925 -16.566925z" fill-rule="evenodd"/><path fill="#29233b" d="m317.96985 124.02347l0 -7.109375l2.796875 0q1.6875 0 2.734375 0.984375q1.046875 0.984375 1.046875 2.578125q0 1.59375 -1.046875 2.578125q-1.046875 0.96875 -2.734375 0.96875l-2.796875 0zm2.796875 -1.328125q1.0 0 1.609375 -0.625q0.625 -0.625 0.625 -1.59375q0 -1.015625 -0.59375 -1.625q-0.59375 -0.609375 -1.640625 -0.609375l-1.28125 0l0 4.453125l1.28125 0zm7.2450256 1.453125q-1.21875 0 -1.984375 -0.75q-0.765625 -0.75 -0.765625 -1.953125q0 -1.15625 0.75 -1.921875q0.765625 -0.78125 1.90625 -0.78125q1.140625 0 1.859375 0.796875q0.71875 0.78125 0.71875 2.046875l0 0.296875l-3.8125 0q0.0625 0.484375 0.4375 0.84375q0.375 0.34375 1.03125 0.34375q0.328125 0 0.71875 -0.125q0.390625 -0.140625 0.65625 -0.375l0.609375 0.859375q-0.390625 0.359375 -0.953125 0.546875q-0.5625 0.171875 -1.171875 0.171875zm1.171875 -3.1875q-0.03125 -0.5 -0.390625 -0.8125q-0.34375 -0.328125 -0.875 -0.328125q-0.53125 0 -0.875 0.328125q-0.328125 0.328125 -0.390625 0.8125l2.53125 0zm5.7679443 3.0625l0 -3.109375q0 -0.96875 -0.9375 -0.96875q-0.734375 0 -1.171875 0.609375l0 3.46875l-1.359375 0l0 -5.140625l1.359375 0l0 0.671875q0.234375 -0.3125 0.6875 -0.5625q0.46875 -0.25 1.109375 -0.25q0.84375 0 1.25 0.453125q0.421875 0.4375 0.421875 1.1875l0 3.640625l-1.359375 0zm3.373169 -5.703125q-0.328125 0 -0.578125 -0.234375q-0.234375 -0.234375 -0.234375 -0.578125q0 -0.34375 0.234375 -0.5625q0.25 -0.234375 0.578125 -0.234375q0.34375 0 0.578125 0.234375q0.234375 0.21875 0.234375 0.5625q0 0.34375 -0.234375 0.578125q-0.234375 0.234375 -0.578125 0.234375zm-0.671875 5.703125l0 -5.140625l1.359375 0l0 5.140625l-1.359375 0zm5.11792 0.125q-1.21875 0 -1.984375 -0.75q-0.765625 -0.75 -0.765625 -1.953125q0 -1.15625 0.75 -1.921875q0.765625 -0.78125 1.90625 -0.78125q1.140625 0 1.859375 0.796875q0.71875 0.78125 0.71875 2.046875l0 0.296875l-3.8125 0q0.0625 0.484375 0.4375 0.84375q0.375 0.34375 1.03125 0.34375q0.328125 0 0.71875 -0.125q0.390625 -0.140625 0.65625 -0.375l0.609375 0.859375q-0.390625 0.359375 -0.953125 0.546875q-0.5625 0.171875 -1.171875 0.171875zm1.171875 -3.1875q-0.03125 -0.5 -0.390625 -0.8125q-0.34375 -0.328125 -0.875 -0.328125q-0.53125 0 -0.875 0.328125q-0.328125 0.328125 -0.390625 0.8125l2.53125 0zm5.830475 3.0625l0 -0.65625q-0.640625 0.78125 -1.578125 0.78125q-1.03125 0 -1.65625 -0.734375q-0.625 -0.734375 -0.625 -1.953125q0 -1.21875 0.625 -1.96875q0.625 -0.75 1.65625 -0.75q0.96875 0 1.578125 0.796875l0 -2.625l1.375 0l0 7.109375l-1.375 0zm-1.171875 -1.078125q0.34375 0 0.671875 -0.15625q0.328125 -0.171875 0.5 -0.421875l0 -1.828125q-0.171875 -0.25 -0.5 -0.421875q-0.328125 -0.171875 -0.671875 -0.171875q-0.5625 0 -0.9375 0.421875q-0.359375 0.421875 -0.359375 1.09375q0 0.640625 0.34375 1.0625q0.359375 0.421875 0.953125 0.421875z" fill-rule="nonzero"/><path fill="#000000" fill-opacity="0.0" d="m334.54068 263.71652l0 -126.866135" fill-rule="evenodd"/><path stroke="#29233b" stroke-width="1.0" stroke-linejoin="round" stroke-linecap="butt" d="m334.54068 263.71652l0 -123.43904" fill-rule="evenodd"/><path fill="#29233b" stroke="#29233b" stroke-width="1.0" stroke-linecap="butt" d="m334.54068 140.27748l1.1245728 1.124588l-1.1245728 -3.0897675l-1.1245728 3.0897675z" fill-rule="evenodd"/><path fill="#29233b" d="m366.53018 194.97113l0 0c0 -3.7543793 3.043518 -6.7978973 6.7979126 -6.7978973l78.46719 0c1.8029175 0 3.5319824 0.7162018 4.8068237 1.9910583c1.2748718 1.2748566 1.9910583 3.0039215 1.9910583 4.806839l0 27.191605c0 3.754364 -3.043518 6.7978973 -6.797882 6.7978973l-78.46719 0c-3.7543945 0 -6.7979126 -3.0435333 -6.7979126 -6.7978973z" fill-rule="evenodd"/><path stroke="#29233b" stroke-width="1.0" stroke-linejoin="round" stroke-linecap="butt" d="m366.53018 194.97113l0 0c0 -3.7543793 3.043518 -6.7978973 6.7979126 -6.7978973l78.46719 0c1.8029175 0 3.5319824 0.7162018 4.8068237 1.9910583c1.2748718 1.2748566 1.9910583 3.0039215 1.9910583 4.806839l0 27.191605c0 3.754364 -3.043518 6.7978973 -6.797882 6.7978973l-78.46719 0c-3.7543945 0 -6.7979126 -3.0435333 -6.7979126 -6.7978973z" fill-rule="evenodd"/><path fill="#ffffff" d="m400.11035 212.43193q-1.640625 0 -2.71875 -1.046875q-1.0625 -1.046875 -1.0625 -2.625q0 -1.046875 0.5 -1.890625q0.5 -0.859375 1.359375 -1.3125q0.875 -0.46875 1.921875 -0.46875q1.96875 0 2.984375 1.734375l-1.3125 0.640625q-0.21875 -0.4375 -0.671875 -0.734375q-0.4375 -0.296875 -1.0 -0.296875q-0.96875 0 -1.59375 0.671875q-0.625 0.65625 -0.625 1.65625q0 1.03125 0.640625 1.6875q0.640625 0.640625 1.578125 0.640625q0.5625 0 1.0 -0.28125q0.453125 -0.296875 0.671875 -0.75l1.3125 0.625q-1.015625 1.75 -2.984375 1.75zm6.945923 -0.125l0 -0.53125q-0.5625 0.65625 -1.640625 0.65625q-0.734375 0 -1.265625 -0.46875q-0.515625 -0.484375 -0.515625 -1.234375q0 -0.75 0.484375 -1.203125q0.5 -0.453125 1.296875 -0.453125q1.109375 0 1.640625 0.625l0 -0.6875q0 -0.40625 -0.3125 -0.640625q-0.3125 -0.234375 -0.828125 -0.234375q-0.84375 0 -1.5 0.609375l-0.5 -0.90625q0.9375 -0.8125 2.234375 -0.8125q1.09375 0 1.671875 0.515625q0.578125 0.5 0.578125 1.4375l0 3.328125l-1.34375 0zm-1.09375 -0.78125q0.75 0 1.09375 -0.453125l0 -0.640625q-0.34375 -0.453125 -1.09375 -0.453125q-0.40625 0 -0.6875 0.203125q-0.28125 0.203125 -0.28125 0.578125q0 0.359375 0.28125 0.5625q0.28125 0.203125 0.6875 0.203125zm7.2551575 0.78125l0 -3.109375q0 -0.96875 -0.9375 -0.96875q-0.734375 0 -1.171875 0.609375l0 3.46875l-1.359375 0l0 -5.140625l1.359375 0l0 0.671875q0.234375 -0.3125 0.6875 -0.5625q0.46875 -0.25 1.109375 -0.25q0.84375 0 1.25 0.453125q0.421875 0.4375 0.421875 1.1875l0 3.640625l-1.359375 0zm5.091919 0.125q-1.203125 0 -1.96875 -0.765625q-0.75 -0.765625 -0.75 -1.9375q0 -1.15625 0.75 -1.921875q0.765625 -0.78125 1.96875 -0.78125q0.796875 0 1.28125 0.296875q0.5 0.28125 0.765625 0.640625l-0.890625 0.828125q-0.375 -0.5625 -1.078125 -0.5625q-0.625 0 -1.015625 0.421875q-0.390625 0.40625 -0.390625 1.078125q0 0.671875 0.390625 1.09375q0.390625 0.40625 1.015625 0.40625q0.6875 0 1.078125 -0.546875l0.890625 0.8125q-0.265625 0.359375 -0.765625 0.65625q-0.484375 0.28125 -1.28125 0.28125zm5.348755 0q-1.21875 0 -1.984375 -0.75q-0.765625 -0.75 -0.765625 -1.953125q0 -1.15625 0.75 -1.921875q0.765625 -0.78125 1.90625 -0.78125q1.140625 0 1.859375 0.796875q0.71875 0.78125 0.71875 2.046875l0 0.296875l-3.8125 0q0.0625 0.484375 0.4375 0.84375q0.375 0.34375 1.03125 0.34375q0.328125 0 0.71875 -0.125q0.390625 -0.140625 0.65625 -0.375l0.609375 0.859375q-0.390625 0.359375 -0.953125 0.546875q-0.5625 0.171875 -1.171875 0.171875zm1.171875 -3.1875q-0.03125 -0.5 -0.390625 -0.8125q-0.34375 -0.328125 -0.875 -0.328125q-0.53125 0 -0.875 0.328125q-0.328125 0.328125 -0.390625 0.8125l2.53125 0zm2.2992249 3.0625l0 -7.109375l1.359375 0l0 7.109375l-1.359375 0z" fill-rule="nonzero"/><path fill="#29233b" d="m537.8898 362.7743l0 0c0 -3.7543945 3.043518 -6.7979126 6.7979126 -6.7979126l78.46716 0c1.8029175 0 3.5319824 0.71621704 4.8068237 1.9910583c1.2749023 1.2748413 1.9910889 3.0039368 1.9910889 4.8068542l0 27.19159c0 3.754364 -3.043518 6.7979126 -6.7979126 6.7979126l-78.46716 0c-3.7543945 0 -6.7979126 -3.0435486 -6.7979126 -6.7979126z" fill-rule="evenodd"/><path stroke="#29233b" stroke-width="1.0" stroke-linejoin="round" stroke-linecap="butt" d="m537.8898 362.7743l0 0c0 -3.7543945 3.043518 -6.7979126 6.7979126 -6.7979126l78.46716 0c1.8029175 0 3.5319824 0.71621704 4.8068237 1.9910583c1.2749023 1.2748413 1.9910889 3.0039368 1.9910889 4.8068542l0 27.19159c0 3.754364 -3.043518 6.7979126 -6.7979126 6.7979126l-78.46716 0c-3.7543945 0 -6.7979126 -3.0435486 -6.7979126 -6.7979126z" fill-rule="evenodd"/><path fill="#ffffff" d="m563.7689 380.11008l-0.4375 -1.203125l-3.046875 0l-0.453125 1.203125l-1.71875 0l2.75 -7.109375l1.890625 0l2.734375 7.109375l-1.71875 0zm-1.96875 -5.59375l-1.109375 3.0625l2.21875 0l-1.109375 -3.0625zm6.7108154 5.71875q-1.203125 0 -1.96875 -0.765625q-0.75 -0.765625 -0.75 -1.9375q0 -1.15625 0.75 -1.921875q0.765625 -0.78125 1.96875 -0.78125q0.796875 0 1.28125 0.296875q0.5 0.28125 0.765625 0.640625l-0.890625 0.828125q-0.375 -0.5625 -1.078125 -0.5625q-0.625 0 -1.015625 0.421875q-0.390625 0.40625 -0.390625 1.078125q0 0.671875 0.390625 1.09375q0.390625 0.40625 1.015625 0.40625q0.6875 0 1.078125 -0.546875l0.890625 0.8125q-0.265625 0.359375 -0.765625 0.65625q-0.484375 0.28125 -1.28125 0.28125zm5.317505 0q-1.203125 0 -1.96875 -0.765625q-0.75 -0.765625 -0.75 -1.9375q0 -1.15625 0.75 -1.921875q0.765625 -0.78125 1.96875 -0.78125q0.796875 0 1.28125 0.296875q0.5 0.28125 0.765625 0.640625l-0.890625 0.828125q-0.375 -0.5625 -1.078125 -0.5625q-0.625 0 -1.015625 0.421875q-0.390625 0.40625 -0.390625 1.078125q0 0.671875 0.390625 1.09375q0.390625 0.40625 1.015625 0.40625q0.6875 0 1.078125 -0.546875l0.890625 0.8125q-0.265625 0.359375 -0.765625 0.65625q-0.484375 0.28125 -1.28125 0.28125zm5.348755 0q-1.21875 0 -1.984375 -0.75q-0.765625 -0.75 -0.765625 -1.953125q0 -1.15625 0.75 -1.921875q0.765625 -0.78125 1.90625 -0.78125q1.140625 0 1.859375 0.796875q0.71875 0.78125 0.71875 2.046875l0 0.296875l-3.8125 0q0.0625 0.484375 0.4375 0.84375q0.375 0.34375 1.03125 0.34375q0.328125 0 0.71875 -0.125q0.390625 -0.140625 0.65625 -0.375l0.609375 0.859375q-0.390625 0.359375 -0.953125 0.546875q-0.5625 0.171875 -1.171875 0.171875zm1.171875 -3.1875q-0.03125 -0.5 -0.390625 -0.8125q-0.34375 -0.328125 -0.875 -0.328125q-0.53125 0 -0.875 0.328125q-0.328125 0.328125 -0.390625 0.8125l2.53125 0zm2.2992554 3.0625l0 -7.109375l1.359375 0l0 7.109375l-1.359375 0zm5.11792 0.125q-1.21875 0 -1.984375 -0.75q-0.765625 -0.75 -0.765625 -1.953125q0 -1.15625 0.75 -1.921875q0.765625 -0.78125 1.90625 -0.78125q1.140625 0 1.859375 0.796875q0.71875 0.78125 0.71875 2.046875l0 0.296875l-3.8125 0q0.0625 0.484375 0.4375 0.84375q0.375 0.34375 1.03125 0.34375q0.328125 0 0.71875 -0.125q0.390625 -0.140625 0.65625 -0.375l0.609375 0.859375q-0.390625 0.359375 -0.953125 0.546875q-0.5625 0.171875 -1.171875 0.171875zm1.171875 -3.1875q-0.03125 -0.5 -0.390625 -0.8125q-0.34375 -0.328125 -0.875 -0.328125q-0.53125 0 -0.875 0.328125q-0.328125 0.328125 -0.390625 0.8125l2.53125 0zm2.2991943 3.0625l0 -5.140625l1.359375 0l0 0.703125q0.265625 -0.34375 0.703125 -0.59375q0.453125 -0.25 0.9375 -0.25l0 1.328125l-0.375 -0.03125q-0.359375 0 -0.734375 0.171875q-0.375 0.171875 -0.53125 0.40625l0 3.40625l-1.359375 0zm6.9300537 0l0 -0.53125q-0.5625 0.65625 -1.640625 0.65625q-0.734375 0 -1.265625 -0.46875q-0.515625 -0.484375 -0.515625 -1.234375q0 -0.75 0.484375 -1.203125q0.5 -0.453125 1.296875 -0.453125q1.109375 0 1.640625 0.625l0 -0.6875q0 -0.40625 -0.3125 -0.640625q-0.3125 -0.234375 -0.828125 -0.234375q-0.84375 0 -1.5 0.609375l-0.5 -0.90625q0.9375 -0.8125 2.234375 -0.8125q1.09375 0 1.671875 0.515625q0.578125 0.5 0.578125 1.4375l0 3.328125l-1.34375 0zm-1.09375 -0.78125q0.75 0 1.09375 -0.453125l0 -0.640625q-0.34375 -0.453125 -1.09375 -0.453125q-0.40625 0 -0.6875 0.203125q-0.28125 0.203125 -0.28125 0.578125q0 0.359375 0.28125 0.5625q0.28125 0.203125 0.6875 0.203125zm5.505127 0.90625q-1.453125 0 -1.453125 -1.40625l0 -2.6875l-0.859375 0l0 -1.171875l0.859375 0l0 -1.40625l1.359375 0l0 1.40625l1.046875 0l0 1.171875l-1.046875 0l0 2.328125q0 0.25 0.125 0.40625q0.125 0.15625 0.34375 0.15625q0.328125 0 0.46875 -0.140625l0.296875 1.015625q-0.359375 0.328125 -1.140625 0.328125zm4.3049927 0q-1.21875 0 -1.984375 -0.75q-0.765625 -0.75 -0.765625 -1.953125q0 -1.15625 0.75 -1.921875q0.765625 -0.78125 1.90625 -0.78125q1.140625 0 1.859375 0.796875q0.71875 0.78125 0.71875 2.046875l0 0.296875l-3.8125 0q0.0625 0.484375 0.4375 0.84375q0.375 0.34375 1.03125 0.34375q0.328125 0 0.71875 -0.125q0.390625 -0.140625 0.65625 -0.375l0.609375 0.859375q-0.390625 0.359375 -0.953125 0.546875q-0.5625 0.171875 -1.171875 0.171875zm1.171875 -3.1875q-0.03125 -0.5 -0.390625 -0.8125q-0.34375 -0.328125 -0.875 -0.328125q-0.53125 0 -0.875 0.328125q-0.328125 0.328125 -0.390625 0.8125l2.53125 0z" fill-rule="nonzero"/></g></svg>