<svg width="480" height="640" viewBox="0 0 480 640" fill="none" xmlns="http://www.w3.org/2000/svg"><rect width="480" height="72" fill="white"/><path fill-rule="evenodd" clip-rule="evenodd" d="M37.1515 29.1515C37.6201 28.6829 38.3799 28.6829 38.8485 29.1515L44 34.303L49.1515 29.1515C49.6201 28.6829 50.3799 28.6829 50.8485 29.1515C51.3171 29.6201 51.3171 30.3799 50.8485 30.8486L45.697 36L50.8485 41.1515C51.3171 41.6202 51.3171 42.3799 50.8485 42.8486C50.3799 43.3172 49.6201 43.3172 49.1515 42.8486L44 37.6971L38.8485 42.8486C38.3799 43.3172 37.6201 43.3172 37.1515 42.8486C36.6828 42.3799 36.6828 41.6202 37.1515 41.1515L42.3029 36L37.1515 30.8486C36.6828 30.3799 36.6828 29.6201 37.1515 29.1515Z" fill="#6B6580"/><rect x="72" y="24" width="376" height="24" fill="white"/><circle cx="240" cy="107" r="35" fill="#A78EE9"/><path d="M226.875 120V90.9091H234.773V102.67H235.17L243.92 90.9091H253.125L243.295 103.864L253.352 120H243.92L237.386 109.091L234.773 112.5V120H226.875Z" fill="white"/><path d="M126.935 177.95L122.675 179.15C122.525 178.16 121.715 176.48 119.135 176.48C117.365 176.48 116.225 177.59 116.225 178.76C116.225 179.78 116.855 180.53 118.325 180.8L121.175 181.34C125.225 182.09 127.325 184.7 127.325 187.73C127.325 191.06 124.535 194.45 119.465 194.45C113.585 194.45 111.065 190.64 110.765 187.64L115.115 186.59C115.295 188.54 116.615 190.25 119.525 190.25C121.385 190.25 122.525 189.35 122.525 188.03C122.525 186.95 121.655 186.17 120.245 185.9L117.335 185.36C113.735 184.67 111.545 182.27 111.545 179.12C111.545 175.1 115.085 172.28 119.165 172.28C124.475 172.28 126.485 175.46 126.935 177.95ZM134.976 194H130.416V179.09H134.976V194ZM130.026 174.53C130.026 173.06 131.226 171.86 132.666 171.86C134.166 171.86 135.366 173.06 135.366 174.53C135.366 176 134.166 177.2 132.666 177.2C131.226 177.2 130.026 176 130.026 174.53ZM137.984 194.84L142.004 193.7C142.304 195.14 143.504 196.19 145.214 196.19C147.494 196.19 148.904 195.08 148.904 192.38V191.69C148.364 192.5 147.074 193.37 144.914 193.37C140.954 193.37 137.984 190.25 137.984 186.11C137.984 182.18 140.834 178.82 144.914 178.82C147.344 178.82 148.634 179.9 149.054 180.68V179.09H153.404V192.14C153.404 196.43 151.004 200.15 145.424 200.15C141.134 200.15 138.404 197.51 137.984 194.84ZM145.754 189.41C147.614 189.41 148.934 188.15 148.934 186.11C148.934 184.07 147.464 182.81 145.754 182.81C144.044 182.81 142.544 184.07 142.544 186.11C142.544 188.15 143.924 189.41 145.754 189.41ZM161.812 185.45V194H157.252V179.09H161.662V180.8C162.472 179.39 164.302 178.7 165.832 178.7C169.582 178.7 171.262 181.37 171.262 184.64V194H166.702V185.42C166.702 183.95 165.922 182.84 164.272 182.84C162.772 182.84 161.812 183.95 161.812 185.45ZM174.167 189.89C174.167 187.25 176.117 185.75 178.577 185.39L182.087 184.85C182.897 184.73 183.167 184.34 183.167 183.83C183.167 182.96 182.417 182.21 180.977 182.21C179.387 182.21 178.517 183.29 178.427 184.4L174.467 183.59C174.647 181.46 176.627 178.64 181.007 178.64C185.837 178.64 187.607 181.34 187.607 184.4V191.69C187.607 192.86 187.757 193.85 187.787 194H183.677C183.647 193.88 183.527 193.34 183.527 192.32C182.747 193.58 181.307 194.42 179.327 194.42C176.057 194.42 174.167 192.26 174.167 189.89ZM180.437 191.12C181.787 191.12 183.167 190.46 183.167 188.15V187.49L180.347 187.94C179.387 188.09 178.667 188.54 178.667 189.59C178.667 190.37 179.177 191.12 180.437 191.12ZM197.144 174.74V179.09H200.054V183.08H197.144V188.66C197.144 189.89 197.804 190.22 198.794 190.22C199.274 190.22 199.724 190.13 199.994 190.07V193.85C199.814 193.94 199.064 194.27 197.624 194.27C194.534 194.27 192.644 192.44 192.644 189.47V183.08H190.004V179.09H190.754C192.314 179.09 193.064 178.04 193.064 176.66V174.74H197.144ZM212.761 194C212.701 193.73 212.641 192.89 212.641 192.5C211.861 193.79 210.151 194.33 208.651 194.33C205.021 194.33 202.981 191.69 202.981 188.51V179.09H207.541V187.55C207.541 188.99 208.321 190.13 209.941 190.13C211.471 190.13 212.431 189.08 212.431 187.58V179.09H216.991V191.33C216.991 192.68 217.111 193.76 217.141 194H212.761ZM230.336 179.09V183.59C229.826 183.47 229.346 183.44 228.896 183.44C227.066 183.44 225.416 184.52 225.416 187.49V194H220.856V179.09H225.266V181.1C226.046 179.42 227.936 178.94 229.136 178.94C229.586 178.94 230.036 179 230.336 179.09ZM236.44 184.76H242.41C242.35 183.62 241.57 182.24 239.41 182.24C237.49 182.24 236.53 183.65 236.44 184.76ZM242.74 188.63L246.55 189.71C245.83 192.29 243.46 194.45 239.68 194.45C235.57 194.45 231.91 191.51 231.91 186.5C231.91 181.7 235.48 178.64 239.35 178.64C243.97 178.64 246.82 181.49 246.82 186.29C246.82 186.92 246.76 187.61 246.73 187.7H236.35C236.44 189.38 237.97 190.58 239.74 190.58C241.39 190.58 242.32 189.8 242.74 188.63ZM267.542 194L263.732 186.08H262.052V194H257.312V172.73H265.742C269.942 172.73 272.642 175.61 272.642 179.39C272.642 182.27 271.052 184.46 268.442 185.39L272.762 194H267.542ZM262.052 182H264.842C266.792 182 267.842 180.92 267.842 179.42C267.842 177.83 266.792 176.84 264.842 176.84H262.052V182ZM278.862 184.76H284.832C284.772 183.62 283.992 182.24 281.832 182.24C279.912 182.24 278.952 183.65 278.862 184.76ZM285.162 188.63L288.972 189.71C288.252 192.29 285.882 194.45 282.102 194.45C277.992 194.45 274.332 191.51 274.332 186.5C274.332 181.7 277.902 178.64 281.772 178.64C286.392 178.64 289.242 181.49 289.242 186.29C289.242 186.92 289.182 187.61 289.152 187.7H278.772C278.862 189.38 280.392 190.58 282.162 190.58C283.812 190.58 284.742 189.8 285.162 188.63ZM307.221 199.7H302.751V192.8C302.091 193.73 300.711 194.33 298.851 194.33C294.591 194.33 291.471 191.06 291.471 186.5C291.471 182.06 294.411 178.73 298.671 178.73C301.311 178.73 302.541 179.93 302.871 180.56V179.09H307.221V199.7ZM296.091 186.53C296.091 188.99 297.681 190.25 299.451 190.25C301.221 190.25 302.811 189.02 302.811 186.53C302.811 184.04 301.221 182.84 299.451 182.84C297.681 182.84 296.091 184.04 296.091 186.53ZM320.691 194C320.631 193.73 320.571 192.89 320.571 192.5C319.791 193.79 318.081 194.33 316.581 194.33C312.951 194.33 310.911 191.69 310.911 188.51V179.09H315.471V187.55C315.471 188.99 316.251 190.13 317.871 190.13C319.401 190.13 320.361 189.08 320.361 187.58V179.09H324.921V191.33C324.921 192.68 325.041 193.76 325.071 194H320.691ZM332.475 184.76H338.445C338.385 183.62 337.605 182.24 335.445 182.24C333.525 182.24 332.565 183.65 332.475 184.76ZM338.775 188.63L342.585 189.71C341.865 192.29 339.495 194.45 335.715 194.45C331.605 194.45 327.945 191.51 327.945 186.5C327.945 181.7 331.515 178.64 335.385 178.64C340.005 178.64 342.855 181.49 342.855 186.29C342.855 186.92 342.795 187.61 342.765 187.7H332.385C332.475 189.38 334.005 190.58 335.775 190.58C337.425 190.58 338.355 189.8 338.775 188.63ZM344.995 189.77L348.865 189.08C348.925 190.1 349.645 191.09 351.205 191.09C352.375 191.09 352.945 190.46 352.945 189.8C352.945 189.26 352.585 188.81 351.475 188.57L349.765 188.18C346.585 187.49 345.325 185.69 345.325 183.59C345.325 180.86 347.725 178.64 351.055 178.64C355.375 178.64 356.875 181.34 357.025 183.08L353.245 183.77C353.125 182.78 352.495 181.94 351.115 181.94C350.245 181.94 349.495 182.45 349.495 183.23C349.495 183.86 350.005 184.22 350.665 184.34L352.645 184.73C355.735 185.36 357.235 187.22 357.235 189.41C357.235 191.96 355.285 194.45 351.295 194.45C346.615 194.45 345.115 191.42 344.995 189.77ZM366.129 174.74V179.09H369.039V183.08H366.129V188.66C366.129 189.89 366.789 190.22 367.779 190.22C368.259 190.22 368.709 190.13 368.979 190.07V193.85C368.799 193.94 368.049 194.27 366.609 194.27C363.519 194.27 361.629 192.44 361.629 189.47V183.08H358.989V179.09H359.739C361.299 179.09 362.049 178.04 362.049 176.66V174.74H366.129Z" fill="#29233B"/><path d="M212.009 227.128L208.857 230.44L212.073 235H209.465L207.385 231.992L206.505 232.92V235H204.377V223.416H206.505V230.056L209.225 227.128H212.009ZM216.494 233.304C217.534 233.304 218.494 232.552 218.494 231.064C218.494 229.576 217.534 228.824 216.494 228.824C215.454 228.824 214.494 229.576 214.494 231.064C214.494 232.536 215.454 233.304 216.494 233.304ZM216.494 226.888C218.846 226.888 220.622 228.632 220.622 231.064C220.622 233.48 218.846 235.24 216.494 235.24C214.142 235.24 212.366 233.48 212.366 231.064C212.366 228.632 214.142 226.888 216.494 226.888ZM221.851 232.856C221.851 231.448 222.891 230.664 224.203 230.472L226.139 230.184C226.587 230.12 226.731 229.896 226.731 229.624C226.731 229.064 226.299 228.6 225.403 228.6C224.475 228.6 223.963 229.192 223.899 229.88L222.011 229.48C222.139 228.248 223.275 226.888 225.387 226.888C227.883 226.888 228.811 228.296 228.811 229.88V233.752C228.811 234.168 228.859 234.728 228.907 235H226.955C226.907 234.792 226.875 234.36 226.875 234.056C226.475 234.68 225.723 235.224 224.555 235.224C222.875 235.224 221.851 234.088 221.851 232.856ZM225.003 233.64C225.899 233.64 226.731 233.208 226.731 231.816V231.464L224.955 231.736C224.411 231.816 223.979 232.12 223.979 232.728C223.979 233.192 224.315 233.64 225.003 233.64ZM233.052 235H230.924V223.416H233.052V235ZM237.349 235H235.221V223.416H237.349V235ZM239.054 232.856C239.054 231.448 240.094 230.664 241.406 230.472L243.342 230.184C243.79 230.12 243.934 229.896 243.934 229.624C243.934 229.064 243.502 228.6 242.606 228.6C241.678 228.6 241.166 229.192 241.102 229.88L239.214 229.48C239.342 228.248 240.478 226.888 242.59 226.888C245.086 226.888 246.014 228.296 246.014 229.88V233.752C246.014 234.168 246.062 234.728 246.11 235H244.158C244.11 234.792 244.078 234.36 244.078 234.056C243.678 234.68 242.926 235.224 241.758 235.224C240.078 235.224 239.054 234.088 239.054 232.856ZM242.206 233.64C243.102 233.64 243.934 233.208 243.934 231.816V231.464L242.158 231.736C241.614 231.816 241.182 232.12 241.182 232.728C241.182 233.192 241.518 233.64 242.206 233.64ZM247.775 233.656C247.775 232.856 248.431 232.2 249.231 232.2C250.047 232.2 250.703 232.856 250.703 233.656C250.703 234.456 250.047 235.112 249.231 235.112C248.431 235.112 247.775 234.456 247.775 233.656ZM256.181 233.304C257.221 233.304 258.181 232.552 258.181 231.064C258.181 229.576 257.221 228.824 256.181 228.824C255.141 228.824 254.181 229.576 254.181 231.064C254.181 232.536 255.141 233.304 256.181 233.304ZM256.181 226.888C258.533 226.888 260.309 228.632 260.309 231.064C260.309 233.48 258.533 235.24 256.181 235.24C253.829 235.24 252.053 233.48 252.053 231.064C252.053 228.632 253.829 226.888 256.181 226.888ZM266.802 227.096V229.24C266.562 229.192 266.354 229.176 266.162 229.176C265.074 229.176 264.13 229.704 264.13 231.4V235H262.002V227.128H264.066V228.296C264.546 227.256 265.634 227.064 266.306 227.064C266.482 227.064 266.642 227.08 266.802 227.096ZM267.679 235.432L269.599 234.92C269.743 235.784 270.431 236.408 271.439 236.408C272.783 236.408 273.535 235.736 273.535 234.216V233.64C273.215 234.152 272.479 234.648 271.343 234.648C269.247 234.648 267.679 233.032 267.679 230.824C267.679 228.744 269.183 226.984 271.343 226.984C272.591 226.984 273.311 227.528 273.583 228.056V227.128H275.631V234.152C275.631 236.312 274.463 238.28 271.503 238.28C269.343 238.28 267.903 236.936 267.679 235.432ZM271.711 232.824C272.799 232.824 273.567 232.04 273.567 230.824C273.567 229.608 272.735 228.84 271.711 228.84C270.655 228.84 269.823 229.608 269.823 230.824C269.823 232.056 270.607 232.824 271.711 232.824Z" fill="black"/><path d="M189.309 252.996V257H188.189V246.878H189.309V251.19C189.743 250.49 190.513 250.098 191.381 250.098C192.991 250.098 193.775 251.246 193.775 252.702V257H192.655V252.87C192.655 251.89 192.207 251.106 190.989 251.106C189.925 251.106 189.309 251.96 189.309 252.996ZM197.428 248.166V250.294H199.01V251.302H197.428V255.012C197.428 255.712 197.736 256.062 198.45 256.062C198.646 256.062 198.898 256.02 199.01 255.992V256.944C198.884 256.986 198.562 257.07 198.128 257.07C197.022 257.07 196.308 256.384 196.308 255.166V251.302H194.964V250.294H195.398C196.084 250.294 196.378 249.902 196.378 249.272V248.166H197.428ZM202.172 248.166V250.294H203.754V251.302H202.172V255.012C202.172 255.712 202.48 256.062 203.194 256.062C203.39 256.062 203.642 256.02 203.754 255.992V256.944C203.628 256.986 203.306 257.07 202.872 257.07C201.766 257.07 201.052 256.384 201.052 255.166V251.302H199.708V250.294H200.142C200.828 250.294 201.122 249.902 201.122 249.272V248.166H202.172ZM206.412 259.66H205.292V250.294H206.384V251.414C206.734 250.728 207.518 250.098 208.708 250.098C210.682 250.098 211.76 251.638 211.76 253.64C211.76 255.642 210.612 257.196 208.68 257.196C207.532 257.196 206.762 256.594 206.412 255.964V259.66ZM208.512 256.188C209.8 256.188 210.64 255.124 210.64 253.64C210.64 252.156 209.814 251.106 208.512 251.106C207.21 251.106 206.384 252.156 206.384 253.64C206.384 255.124 207.224 256.188 208.512 256.188ZM212.949 255.236L213.957 254.886C214.055 255.656 214.629 256.244 215.637 256.244C216.435 256.244 216.939 255.796 216.939 255.222C216.939 254.718 216.533 254.382 215.917 254.242L214.825 253.99C213.803 253.752 213.159 253.094 213.159 252.128C213.159 251.008 214.223 250.098 215.497 250.098C217.233 250.098 217.835 251.204 217.989 251.89L216.995 252.254C216.911 251.792 216.561 251.05 215.497 251.05C214.797 251.05 214.251 251.498 214.251 252.058C214.251 252.534 214.545 252.828 215.133 252.968L216.225 253.22C217.401 253.486 218.045 254.172 218.045 255.166C218.045 256.132 217.219 257.196 215.623 257.196C213.859 257.196 213.061 256.076 212.949 255.236ZM219.645 256.202C219.645 255.712 220.037 255.334 220.513 255.334C220.989 255.334 221.381 255.712 221.381 256.202C221.381 256.692 220.989 257.07 220.513 257.07C220.037 257.07 219.645 256.692 219.645 256.202ZM219.645 251.092C219.645 250.602 220.037 250.224 220.513 250.224C220.989 250.224 221.381 250.602 221.381 251.092C221.381 251.582 220.989 251.96 220.513 251.96C220.037 251.96 219.645 251.582 219.645 251.092ZM228.643 247.074L223.841 257H222.749L227.551 247.074H228.643ZM232.717 247.074L227.915 257H226.823L231.625 247.074H232.717ZM239.991 250.294L237.135 253.136L240.061 257H238.647L236.351 253.906L235.315 254.97V257H234.195V246.878H235.315V253.486L238.451 250.294H239.991ZM243.901 250.098C245.833 250.098 247.261 251.582 247.261 253.64C247.261 255.712 245.833 257.196 243.901 257.196C241.969 257.196 240.541 255.712 240.541 253.64C240.541 251.582 241.969 250.098 243.901 250.098ZM243.901 251.106C242.697 251.106 241.661 252.016 241.661 253.64C241.661 255.278 242.697 256.188 243.901 256.188C245.105 256.188 246.141 255.278 246.141 253.64C246.141 252.016 245.105 251.106 243.901 251.106ZM248.512 255.222C248.512 254.046 249.338 253.388 250.514 253.22L252.32 252.954C252.81 252.884 252.922 252.674 252.922 252.38C252.922 251.624 252.418 251.05 251.368 251.05C250.388 251.05 249.8 251.638 249.702 252.492L248.638 252.24C248.778 250.966 249.898 250.098 251.34 250.098C253.244 250.098 254.042 251.19 254.042 252.492V255.88C254.042 256.44 254.084 256.79 254.126 257H253.034C253.006 256.846 252.95 256.51 252.95 255.992C252.656 256.538 251.928 257.196 250.724 257.196C249.338 257.196 248.512 256.244 248.512 255.222ZM250.864 256.244C252.026 256.244 252.922 255.6 252.922 254.172V253.724L250.738 254.046C250.094 254.144 249.632 254.508 249.632 255.166C249.632 255.712 250.094 256.244 250.864 256.244ZM257.272 257H256.152V246.878H257.272V257ZM260.58 257H259.46V246.878H260.58V257ZM262.293 255.222C262.293 254.046 263.119 253.388 264.295 253.22L266.101 252.954C266.591 252.884 266.703 252.674 266.703 252.38C266.703 251.624 266.199 251.05 265.149 251.05C264.169 251.05 263.581 251.638 263.483 252.492L262.419 252.24C262.559 250.966 263.679 250.098 265.121 250.098C267.025 250.098 267.823 251.19 267.823 252.492V255.88C267.823 256.44 267.865 256.79 267.907 257H266.815C266.787 256.846 266.731 256.51 266.731 255.992C266.437 256.538 265.709 257.196 264.505 257.196C263.119 257.196 262.293 256.244 262.293 255.222ZM264.645 256.244C265.807 256.244 266.703 255.6 266.703 254.172V253.724L264.519 254.046C263.875 254.144 263.413 254.508 263.413 255.166C263.413 255.712 263.875 256.244 264.645 256.244ZM269.667 256.202C269.667 255.712 270.059 255.334 270.535 255.334C271.011 255.334 271.403 255.712 271.403 256.202C271.403 256.692 271.011 257.07 270.535 257.07C270.059 257.07 269.667 256.692 269.667 256.202ZM276.071 250.098C278.003 250.098 279.431 251.582 279.431 253.64C279.431 255.712 278.003 257.196 276.071 257.196C274.139 257.196 272.711 255.712 272.711 253.64C272.711 251.582 274.139 250.098 276.071 250.098ZM276.071 251.106C274.867 251.106 273.831 252.016 273.831 253.64C273.831 255.278 274.867 256.188 276.071 256.188C277.275 256.188 278.311 255.278 278.311 253.64C278.311 252.016 277.275 251.106 276.071 251.106ZM284.755 250.252V251.442C284.573 251.386 284.363 251.372 284.167 251.372C283.047 251.372 282.277 252.016 282.277 253.528V257H281.157V250.294H282.249V251.498C282.683 250.518 283.537 250.196 284.279 250.196C284.461 250.196 284.657 250.224 284.755 250.252ZM285.522 257.378L286.6 257.112C286.712 258.092 287.454 258.848 288.546 258.848C290.114 258.848 290.688 257.924 290.688 256.538V255.46C290.38 256.104 289.652 256.706 288.56 256.706C286.782 256.706 285.536 255.292 285.536 253.416C285.536 251.54 286.768 250.098 288.588 250.098C289.638 250.098 290.366 250.588 290.702 251.246V250.294H291.808V256.496C291.808 258.148 291.052 259.856 288.546 259.856C286.894 259.856 285.69 258.792 285.522 257.378ZM290.744 253.402C290.744 252.016 289.918 251.106 288.7 251.106C287.482 251.106 286.656 252.016 286.656 253.402C286.656 254.788 287.482 255.698 288.7 255.698C289.918 255.698 290.744 254.788 290.744 253.402Z" fill="#8E8E93"/><line x1="32" y1="285.5" x2="448" y2="285.5" stroke="#111827" stroke-opacity="0.1"/><path d="M38.384 327.224C35.504 327.224 32.8 325.112 32.8 321.32C32.8 317.528 35.584 315.432 38.384 315.432C40.96 315.432 42.784 316.856 43.344 319.032L42.096 319.464C41.664 317.688 40.32 316.664 38.384 316.664C36.224 316.664 34.144 318.248 34.144 321.32C34.144 324.408 36.224 325.992 38.384 325.992C40.4 325.992 41.712 324.776 42.176 323.144L43.36 323.576C42.784 325.704 40.976 327.224 38.384 327.224ZM46.4655 327H45.1855V315.432H46.4655V327ZM50.2468 327H48.9668V319.336H50.2468V327ZM48.6468 316.312C48.6468 315.784 49.0788 315.352 49.6068 315.352C50.1348 315.352 50.5668 315.784 50.5668 316.312C50.5668 316.84 50.1348 317.272 49.6068 317.272C49.0788 317.272 48.6468 316.84 48.6468 316.312ZM56.012 320.264C54.668 320.264 53.5 321.304 53.5 323.16C53.5 325 54.668 326.072 56.028 326.072C57.484 326.072 58.092 325.048 58.316 324.344L59.436 324.84C59.068 325.976 57.996 327.224 56.028 327.224C53.82 327.224 52.22 325.496 52.22 323.16C52.22 320.776 53.852 319.112 56.012 319.112C57.98 319.112 59.052 320.312 59.372 321.528L58.22 322.024C58.012 321.208 57.388 320.264 56.012 320.264ZM67.8876 319.336L64.6236 322.584L67.9676 327H66.3516L63.7276 323.464L62.5436 324.68V327H61.2636V315.432H62.5436V322.984L66.1276 319.336H67.8876ZM76.8413 319.112C79.0493 319.112 80.6813 320.808 80.6813 323.16C80.6813 325.528 79.0493 327.224 76.8413 327.224C74.6332 327.224 73.0013 325.528 73.0013 323.16C73.0013 320.808 74.6332 319.112 76.8413 319.112ZM76.8413 320.264C75.4653 320.264 74.2812 321.304 74.2812 323.16C74.2812 325.032 75.4653 326.072 76.8413 326.072C78.2173 326.072 79.4013 325.032 79.4013 323.16C79.4013 321.304 78.2173 320.264 76.8413 320.264ZM83.9343 322.488V327H82.6543V319.336H83.9023V320.488C84.3983 319.592 85.2943 319.112 86.3023 319.112C88.1423 319.112 89.0383 320.424 89.0383 322.088V327H87.7583V322.28C87.7583 321.16 87.2463 320.264 85.8543 320.264C84.6223 320.264 83.9343 321.288 83.9343 322.488ZM94.8896 324.984L96.0416 324.584C96.1536 325.464 96.8096 326.136 97.9616 326.136C98.8736 326.136 99.4496 325.624 99.4496 324.968C99.4496 324.392 98.9856 324.008 98.2816 323.848L97.0336 323.56C95.8656 323.288 95.1296 322.536 95.1296 321.432C95.1296 320.152 96.3456 319.112 97.8016 319.112C99.7856 319.112 100.474 320.376 100.65 321.16L99.5136 321.576C99.4176 321.048 99.0176 320.2 97.8016 320.2C97.0016 320.2 96.3776 320.712 96.3776 321.352C96.3776 321.896 96.7136 322.232 97.3856 322.392L98.6336 322.68C99.9776 322.984 100.714 323.768 100.714 324.904C100.714 326.008 99.7696 327.224 97.9456 327.224C95.9296 327.224 95.0176 325.944 94.8896 324.984ZM103.966 327H102.686V319.336H103.966V327ZM102.366 316.312C102.366 315.784 102.798 315.352 103.326 315.352C103.854 315.352 104.286 315.784 104.286 316.312C104.286 316.84 103.854 317.272 103.326 317.272C102.798 317.272 102.366 316.84 102.366 316.312ZM105.939 327.432L107.171 327.128C107.299 328.248 108.147 329.112 109.395 329.112C111.187 329.112 111.843 328.056 111.843 326.472V325.24C111.491 325.976 110.659 326.664 109.411 326.664C107.379 326.664 105.955 325.048 105.955 322.904C105.955 320.76 107.363 319.112 109.443 319.112C110.643 319.112 111.475 319.672 111.859 320.424V319.336H113.123V326.424C113.123 328.312 112.259 330.264 109.395 330.264C107.507 330.264 106.131 329.048 105.939 327.432ZM111.907 322.888C111.907 321.304 110.963 320.264 109.571 320.264C108.179 320.264 107.235 321.304 107.235 322.888C107.235 324.472 108.179 325.512 109.571 325.512C110.963 325.512 111.907 324.472 111.907 322.888ZM116.903 322.488V327H115.623V319.336H116.871V320.488C117.367 319.592 118.263 319.112 119.271 319.112C121.111 319.112 122.007 320.424 122.007 322.088V327H120.727V322.28C120.727 321.16 120.215 320.264 118.823 320.264C117.591 320.264 116.903 321.288 116.903 322.488ZM129.73 327H128.482V315.432H129.762V320.584C130.114 319.864 131.01 319.112 132.386 319.112C134.658 319.112 135.874 320.92 135.874 323.16C135.874 325.448 134.578 327.224 132.354 327.224C131.074 327.224 130.178 326.568 129.73 325.736V327ZM132.162 326.072C133.634 326.072 134.594 324.856 134.594 323.16C134.594 321.464 133.65 320.264 132.162 320.264C130.674 320.264 129.73 321.464 129.73 323.16C129.73 324.856 130.69 326.072 132.162 326.072ZM142.945 325.96C142.577 326.744 141.649 327.224 140.641 327.224C138.785 327.224 137.761 325.848 137.761 324.152V319.336H139.041V323.944C139.041 325.064 139.569 326.072 140.929 326.072C142.193 326.072 142.881 325.176 142.881 323.96V319.336H144.161V325.56C144.161 326.152 144.209 326.696 144.257 327H143.025C142.977 326.824 142.945 326.408 142.945 326.024V325.96ZM148.51 316.904V319.336H150.318V320.488H148.51V324.728C148.51 325.528 148.862 325.928 149.678 325.928C149.902 325.928 150.19 325.88 150.318 325.848V326.936C150.174 326.984 149.806 327.08 149.31 327.08C148.046 327.08 147.23 326.296 147.23 324.904V320.488H145.694V319.336H146.19C146.974 319.336 147.31 318.888 147.31 318.168V316.904H148.51ZM153.932 316.904V319.336H155.74V320.488H153.932V324.728C153.932 325.528 154.284 325.928 155.1 325.928C155.324 325.928 155.612 325.88 155.74 325.848V326.936C155.596 326.984 155.228 327.08 154.732 327.08C153.468 327.08 152.652 326.296 152.652 324.904V320.488H151.116V319.336H151.612C152.396 319.336 152.732 318.888 152.732 318.168V316.904H153.932ZM160.81 319.112C163.018 319.112 164.65 320.808 164.65 323.16C164.65 325.528 163.018 327.224 160.81 327.224C158.602 327.224 156.97 325.528 156.97 323.16C156.97 320.808 158.602 319.112 160.81 319.112ZM160.81 320.264C159.434 320.264 158.25 321.304 158.25 323.16C158.25 325.032 159.434 326.072 160.81 326.072C162.186 326.072 163.37 325.032 163.37 323.16C163.37 321.304 162.186 320.264 160.81 320.264ZM167.903 322.488V327H166.623V319.336H167.871V320.488C168.367 319.592 169.263 319.112 170.271 319.112C172.111 319.112 173.007 320.424 173.007 322.088V327H171.727V322.28C171.727 321.16 171.215 320.264 169.823 320.264C168.591 320.264 167.903 321.288 167.903 322.488ZM181.026 316.904V319.336H182.834V320.488H181.026V324.728C181.026 325.528 181.378 325.928 182.194 325.928C182.418 325.928 182.706 325.88 182.834 325.848V326.936C182.69 326.984 182.322 327.08 181.826 327.08C180.562 327.08 179.746 326.296 179.746 324.904V320.488H178.21V319.336H178.706C179.49 319.336 179.826 318.888 179.826 318.168V316.904H181.026ZM187.904 319.112C190.112 319.112 191.744 320.808 191.744 323.16C191.744 325.528 190.112 327.224 187.904 327.224C185.696 327.224 184.064 325.528 184.064 323.16C184.064 320.808 185.696 319.112 187.904 319.112ZM187.904 320.264C186.528 320.264 185.344 321.304 185.344 323.16C185.344 325.032 186.528 326.072 187.904 326.072C189.28 326.072 190.464 325.032 190.464 323.16C190.464 321.304 189.28 320.264 187.904 320.264ZM199.075 330.04H197.795V319.336H199.043V320.616C199.443 319.832 200.339 319.112 201.699 319.112C203.955 319.112 205.187 320.872 205.187 323.16C205.187 325.448 203.875 327.224 201.667 327.224C200.355 327.224 199.475 326.536 199.075 325.816V330.04ZM201.475 326.072C202.947 326.072 203.907 324.856 203.907 323.16C203.907 321.464 202.963 320.264 201.475 320.264C199.987 320.264 199.043 321.464 199.043 323.16C199.043 324.856 200.003 326.072 201.475 326.072ZM211.282 319.288V320.648C211.074 320.584 210.834 320.568 210.61 320.568C209.33 320.568 208.45 321.304 208.45 323.032V327H207.17V319.336H208.418V320.712C208.914 319.592 209.89 319.224 210.738 319.224C210.946 319.224 211.17 319.256 211.282 319.288ZM215.935 319.112C218.143 319.112 219.775 320.808 219.775 323.16C219.775 325.528 218.143 327.224 215.935 327.224C213.727 327.224 212.095 325.528 212.095 323.16C212.095 320.808 213.727 319.112 215.935 319.112ZM215.935 320.264C214.559 320.264 213.375 321.304 213.375 323.16C213.375 325.032 214.559 326.072 215.935 326.072C217.311 326.072 218.495 325.032 218.495 323.16C218.495 321.304 217.311 320.264 215.935 320.264ZM228.058 319.336L225.002 327H223.706L220.618 319.336H222.058L224.362 325.512L226.682 319.336H228.058ZM230.981 327H229.701V319.336H230.981V327ZM229.381 316.312C229.381 315.784 229.813 315.352 230.341 315.352C230.869 315.352 231.301 315.784 231.301 316.312C231.301 316.84 230.869 317.272 230.341 317.272C229.813 317.272 229.381 316.84 229.381 316.312ZM239.034 325.896V325.688C238.682 326.44 237.85 327.224 236.522 327.224C234.314 327.224 232.97 325.432 232.97 323.16C232.97 320.936 234.378 319.112 236.522 319.112C237.994 319.112 238.746 319.928 239.002 320.568V315.432H240.282V325.56C240.282 326.328 240.33 326.84 240.362 327H239.114C239.082 326.824 239.034 326.392 239.034 325.896ZM236.634 326.072C238.074 326.072 239.034 324.856 239.034 323.16C239.034 321.464 238.09 320.264 236.634 320.264C235.178 320.264 234.25 321.464 234.25 323.16C234.25 324.856 235.194 326.072 236.634 326.072ZM243.595 322.424H248.171C248.139 321.208 247.355 320.248 245.899 320.248C244.571 320.248 243.675 321.288 243.595 322.424ZM248.347 324.424L249.451 324.824C249.019 326.152 247.819 327.224 246.043 327.224C243.995 327.224 242.251 325.72 242.251 323.144C242.251 320.728 243.947 319.112 245.883 319.112C248.203 319.112 249.499 320.728 249.499 323.064C249.499 323.224 249.483 323.4 249.467 323.512H243.563V323.576C243.563 325.032 244.667 326.072 246.043 326.072C247.339 326.072 248.043 325.336 248.347 324.424ZM254.97 324.968C254.97 323.624 255.914 322.872 257.258 322.68L259.322 322.376C259.882 322.296 260.01 322.056 260.01 321.72C260.01 320.856 259.434 320.2 258.234 320.2C257.114 320.2 256.442 320.872 256.33 321.848L255.114 321.56C255.274 320.104 256.554 319.112 258.202 319.112C260.378 319.112 261.29 320.36 261.29 321.848V325.72C261.29 326.36 261.338 326.76 261.386 327H260.138C260.106 326.824 260.042 326.44 260.042 325.848C259.706 326.472 258.874 327.224 257.498 327.224C255.914 327.224 254.97 326.136 254.97 324.968ZM257.658 326.136C258.986 326.136 260.01 325.4 260.01 323.768V323.256L257.514 323.624C256.778 323.736 256.25 324.152 256.25 324.904C256.25 325.528 256.778 326.136 257.658 326.136ZM267.155 324.984L268.307 324.584C268.419 325.464 269.075 326.136 270.227 326.136C271.139 326.136 271.715 325.624 271.715 324.968C271.715 324.392 271.251 324.008 270.547 323.848L269.299 323.56C268.131 323.288 267.395 322.536 267.395 321.432C267.395 320.152 268.611 319.112 270.067 319.112C272.051 319.112 272.739 320.376 272.915 321.16L271.779 321.576C271.683 321.048 271.283 320.2 270.067 320.2C269.267 320.2 268.643 320.712 268.643 321.352C268.643 321.896 268.979 322.232 269.651 322.392L270.899 322.68C272.243 322.984 272.979 323.768 272.979 324.904C272.979 326.008 272.035 327.224 270.211 327.224C268.195 327.224 267.283 325.944 267.155 324.984ZM276.231 327H274.951V319.336H276.231V327ZM274.631 316.312C274.631 315.784 275.063 315.352 275.591 315.352C276.119 315.352 276.551 315.784 276.551 316.312C276.551 316.84 276.119 317.272 275.591 317.272C275.063 317.272 274.631 316.84 274.631 316.312ZM278.204 327.432L279.436 327.128C279.564 328.248 280.412 329.112 281.66 329.112C283.452 329.112 284.108 328.056 284.108 326.472V325.24C283.756 325.976 282.924 326.664 281.676 326.664C279.644 326.664 278.22 325.048 278.22 322.904C278.22 320.76 279.628 319.112 281.708 319.112C282.908 319.112 283.74 319.672 284.124 320.424V319.336H285.388V326.424C285.388 328.312 284.524 330.264 281.66 330.264C279.772 330.264 278.396 329.048 278.204 327.432ZM284.172 322.888C284.172 321.304 283.228 320.264 281.836 320.264C280.444 320.264 279.5 321.304 279.5 322.888C279.5 324.472 280.444 325.512 281.836 325.512C283.228 325.512 284.172 324.472 284.172 322.888ZM289.169 322.488V327H287.889V319.336H289.137V320.488C289.633 319.592 290.529 319.112 291.537 319.112C293.377 319.112 294.273 320.424 294.273 322.088V327H292.993V322.28C292.993 321.16 292.481 320.264 291.089 320.264C289.857 320.264 289.169 321.288 289.169 322.488ZM296.126 324.968C296.126 323.624 297.07 322.872 298.414 322.68L300.478 322.376C301.038 322.296 301.166 322.056 301.166 321.72C301.166 320.856 300.59 320.2 299.39 320.2C298.27 320.2 297.598 320.872 297.486 321.848L296.27 321.56C296.43 320.104 297.71 319.112 299.358 319.112C301.534 319.112 302.446 320.36 302.446 321.848V325.72C302.446 326.36 302.494 326.76 302.542 327H301.294C301.262 326.824 301.198 326.44 301.198 325.848C300.862 326.472 300.03 327.224 298.654 327.224C297.07 327.224 296.126 326.136 296.126 324.968ZM298.814 326.136C300.142 326.136 301.166 325.4 301.166 323.768V323.256L298.67 323.624C297.934 323.736 297.406 324.152 297.406 324.904C297.406 325.528 297.934 326.136 298.814 326.136ZM306.651 316.904V319.336H308.459V320.488H306.651V324.728C306.651 325.528 307.003 325.928 307.819 325.928C308.043 325.928 308.331 325.88 308.459 325.848V326.936C308.315 326.984 307.947 327.08 307.451 327.08C306.187 327.08 305.371 326.296 305.371 324.904V320.488H303.835V319.336H304.331C305.115 319.336 305.451 318.888 305.451 318.168V316.904H306.651ZM315.305 325.96C314.937 326.744 314.009 327.224 313.001 327.224C311.145 327.224 310.121 325.848 310.121 324.152V319.336H311.401V323.944C311.401 325.064 311.929 326.072 313.289 326.072C314.553 326.072 315.241 325.176 315.241 323.96V319.336H316.521V325.56C316.521 326.152 316.569 326.696 316.617 327H315.385C315.337 326.824 315.305 326.408 315.305 326.024V325.96ZM323.126 319.288V320.648C322.918 320.584 322.678 320.568 322.454 320.568C321.174 320.568 320.294 321.304 320.294 323.032V327H319.014V319.336H320.262V320.712C320.758 319.592 321.734 319.224 322.582 319.224C322.79 319.224 323.014 319.256 323.126 319.288ZM325.283 322.424H329.859C329.827 321.208 329.043 320.248 327.587 320.248C326.259 320.248 325.363 321.288 325.283 322.424ZM330.035 324.424L331.139 324.824C330.707 326.152 329.507 327.224 327.731 327.224C325.683 327.224 323.939 325.72 323.939 323.144C323.939 320.728 325.635 319.112 327.571 319.112C329.891 319.112 331.187 320.728 331.187 323.064C331.187 323.224 331.171 323.4 331.155 323.512H325.251V323.576C325.251 325.032 326.355 326.072 327.731 326.072C329.027 326.072 329.731 325.336 330.035 324.424ZM340.807 320.488H338.823V327H337.543V320.488H336.039V319.336H337.543V317.912C337.543 316.232 338.599 315.352 339.959 315.352C340.423 315.352 340.727 315.448 340.839 315.512V316.616C340.727 316.568 340.519 316.504 340.151 316.504C339.527 316.504 338.823 316.84 338.823 317.944V319.336H340.807V320.488ZM345.498 319.112C347.706 319.112 349.338 320.808 349.338 323.16C349.338 325.528 347.706 327.224 345.498 327.224C343.289 327.224 341.658 325.528 341.658 323.16C341.658 320.808 343.289 319.112 345.498 319.112ZM345.498 320.264C344.122 320.264 342.938 321.304 342.938 323.16C342.938 325.032 344.122 326.072 345.498 326.072C346.874 326.072 348.058 325.032 348.058 323.16C348.058 321.304 346.874 320.264 345.498 320.264ZM355.423 319.288V320.648C355.215 320.584 354.975 320.568 354.751 320.568C353.471 320.568 352.591 321.304 352.591 323.032V327H351.311V319.336H352.559V320.712C353.055 319.592 354.031 319.224 354.879 319.224C355.087 319.224 355.311 319.256 355.423 319.288ZM366.824 319.336L363.768 327H362.472L359.384 319.336H360.824L363.128 325.512L365.448 319.336H366.824ZM369.017 322.424H373.593C373.561 321.208 372.777 320.248 371.321 320.248C369.993 320.248 369.097 321.288 369.017 322.424ZM373.769 324.424L374.873 324.824C374.441 326.152 373.241 327.224 371.465 327.224C369.417 327.224 367.673 325.72 367.673 323.144C367.673 320.728 369.369 319.112 371.305 319.112C373.625 319.112 374.921 320.728 374.921 323.064C374.921 323.224 374.905 323.4 374.889 323.512H368.985V323.576C368.985 325.032 370.089 326.072 371.465 326.072C372.761 326.072 373.465 325.336 373.769 324.424ZM380.969 319.288V320.648C380.761 320.584 380.521 320.568 380.297 320.568C379.017 320.568 378.137 321.304 378.137 323.032V327H376.857V319.336H378.105V320.712C378.601 319.592 379.577 319.224 380.425 319.224C380.633 319.224 380.857 319.256 380.969 319.288ZM383.762 327H382.482V319.336H383.762V327ZM382.162 316.312C382.162 315.784 382.594 315.352 383.122 315.352C383.65 315.352 384.082 315.784 384.082 316.312C384.082 316.84 383.65 317.272 383.122 317.272C382.594 317.272 382.162 316.84 382.162 316.312ZM393.112 327H391.832V320.488H388.12V327H386.84V320.488H385.336V319.336H386.84V317.912C386.84 316.232 387.896 315.352 389.256 315.352C389.72 315.352 390.024 315.448 390.136 315.512V316.616C390.024 316.568 389.816 316.504 389.448 316.504C388.824 316.504 388.12 316.84 388.12 317.944V319.336H393.112V327ZM391.512 316.312C391.512 315.784 391.944 315.352 392.472 315.352C393 315.352 393.432 315.784 393.432 316.312C393.432 316.84 393 317.272 392.472 317.272C391.944 317.272 391.512 316.84 391.512 316.312ZM398.871 320.264C397.527 320.264 396.359 321.304 396.359 323.16C396.359 325 397.527 326.072 398.887 326.072C400.343 326.072 400.951 325.048 401.175 324.344L402.295 324.84C401.927 325.976 400.855 327.224 398.887 327.224C396.679 327.224 395.079 325.496 395.079 323.16C395.079 320.776 396.711 319.112 398.871 319.112C400.839 319.112 401.911 320.312 402.231 321.528L401.079 322.024C400.871 321.208 400.247 320.264 398.871 320.264ZM403.579 324.968C403.579 323.624 404.523 322.872 405.867 322.68L407.931 322.376C408.491 322.296 408.619 322.056 408.619 321.72C408.619 320.856 408.043 320.2 406.843 320.2C405.723 320.2 405.051 320.872 404.939 321.848L403.723 321.56C403.883 320.104 405.163 319.112 406.811 319.112C408.987 319.112 409.899 320.36 409.899 321.848V325.72C409.899 326.36 409.947 326.76 409.995 327H408.747C408.715 326.824 408.651 326.44 408.651 325.848C408.315 326.472 407.483 327.224 406.107 327.224C404.523 327.224 403.579 326.136 403.579 324.968ZM406.267 326.136C407.595 326.136 408.619 325.4 408.619 323.768V323.256L406.123 323.624C405.387 323.736 404.859 324.152 404.859 324.904C404.859 325.528 405.387 326.136 406.267 326.136ZM414.104 316.904V319.336H415.912V320.488H414.104V324.728C414.104 325.528 414.456 325.928 415.272 325.928C415.496 325.928 415.784 325.88 415.912 325.848V326.936C415.768 326.984 415.4 327.08 414.904 327.08C413.64 327.08 412.824 326.296 412.824 324.904V320.488H411.288V319.336H411.784C412.568 319.336 412.904 318.888 412.904 318.168V316.904H414.104ZM418.95 327H417.67V319.336H418.95V327ZM417.35 316.312C417.35 315.784 417.782 315.352 418.31 315.352C418.838 315.352 419.27 315.784 419.27 316.312C419.27 316.84 418.838 317.272 418.31 317.272C417.782 317.272 417.35 316.84 417.35 316.312ZM424.763 319.112C426.971 319.112 428.603 320.808 428.603 323.16C428.603 325.528 426.971 327.224 424.763 327.224C422.555 327.224 420.923 325.528 420.923 323.16C420.923 320.808 422.555 319.112 424.763 319.112ZM424.763 320.264C423.387 320.264 422.203 321.304 422.203 323.16C422.203 325.032 423.387 326.072 424.763 326.072C426.139 326.072 427.323 325.032 427.323 323.16C427.323 321.304 426.139 320.264 424.763 320.264ZM431.856 322.488V327H430.576V319.336H431.824V320.488C432.32 319.592 433.216 319.112 434.224 319.112C436.064 319.112 436.96 320.424 436.96 322.088V327H435.68V322.28C435.68 321.16 435.168 320.264 433.776 320.264C432.544 320.264 431.856 321.288 431.856 322.488ZM439.053 326.088C439.053 325.528 439.501 325.096 440.045 325.096C440.589 325.096 441.037 325.528 441.037 326.088C441.037 326.648 440.589 327.08 440.045 327.08C439.501 327.08 439.053 326.648 439.053 326.088ZM36.384 370.152L32.4 363.656H33.968L37.056 368.92L40.144 363.656H41.712L37.728 370.152V375H36.384V370.152ZM44.8569 367.112C47.0649 367.112 48.6969 368.808 48.6969 371.16C48.6969 373.528 47.0649 375.224 44.8569 375.224C42.6489 375.224 41.0169 373.528 41.0169 371.16C41.0169 368.808 42.6489 367.112 44.8569 367.112ZM44.8569 368.264C43.4809 368.264 42.2969 369.304 42.2969 371.16C42.2969 373.032 43.4809 374.072 44.8569 374.072C46.2329 374.072 47.4169 373.032 47.4169 371.16C47.4169 369.304 46.2329 368.264 44.8569 368.264ZM55.7579 373.96C55.3899 374.744 54.4619 375.224 53.4539 375.224C51.5979 375.224 50.5739 373.848 50.5739 372.152V367.336H51.8539V371.944C51.8539 373.064 52.3819 374.072 53.7419 374.072C55.0059 374.072 55.6939 373.176 55.6939 371.96V367.336H56.9739V373.56C56.9739 374.152 57.0219 374.696 57.0699 375H55.8379C55.7899 374.824 55.7579 374.408 55.7579 374.024V373.96ZM63.0009 372.968C63.0009 371.624 63.9449 370.872 65.2889 370.68L67.3529 370.376C67.9129 370.296 68.0409 370.056 68.0409 369.72C68.0409 368.856 67.4649 368.2 66.2649 368.2C65.1449 368.2 64.4729 368.872 64.3609 369.848L63.1449 369.56C63.3049 368.104 64.5849 367.112 66.2329 367.112C68.4089 367.112 69.3209 368.36 69.3209 369.848V373.72C69.3209 374.36 69.3689 374.76 69.4169 375H68.1689C68.1369 374.824 68.0729 374.44 68.0729 373.848C67.7369 374.472 66.9049 375.224 65.5289 375.224C63.9449 375.224 63.0009 374.136 63.0009 372.968ZM65.6889 374.136C67.0169 374.136 68.0409 373.4 68.0409 371.768V371.256L65.5449 371.624C64.8089 371.736 64.2809 372.152 64.2809 372.904C64.2809 373.528 64.8089 374.136 65.6889 374.136ZM75.8444 367.288V368.648C75.6364 368.584 75.3964 368.568 75.1724 368.568C73.8924 368.568 73.0124 369.304 73.0124 371.032V375H71.7324V367.336H72.9804V368.712C73.4764 367.592 74.4524 367.224 75.3004 367.224C75.5084 367.224 75.7324 367.256 75.8444 367.288ZM78.0015 370.424H82.5775C82.5455 369.208 81.7615 368.248 80.3055 368.248C78.9775 368.248 78.0815 369.288 78.0015 370.424ZM82.7535 372.424L83.8575 372.824C83.4255 374.152 82.2255 375.224 80.4495 375.224C78.4015 375.224 76.6575 373.72 76.6575 371.144C76.6575 368.728 78.3535 367.112 80.2895 367.112C82.6095 367.112 83.9055 368.728 83.9055 371.064C83.9055 371.224 83.8895 371.4 83.8735 371.512H77.9695V371.576C77.9695 373.032 79.0735 374.072 80.4495 374.072C81.7455 374.072 82.4495 373.336 82.7535 372.424ZM89.2959 372.984L90.4479 372.584C90.5599 373.464 91.2159 374.136 92.3679 374.136C93.2799 374.136 93.8559 373.624 93.8559 372.968C93.8559 372.392 93.3919 372.008 92.6879 371.848L91.4399 371.56C90.2719 371.288 89.5359 370.536 89.5359 369.432C89.5359 368.152 90.7519 367.112 92.2079 367.112C94.1919 367.112 94.8799 368.376 95.0559 369.16L93.9199 369.576C93.8239 369.048 93.4239 368.2 92.2079 368.2C91.4079 368.2 90.7839 368.712 90.7839 369.352C90.7839 369.896 91.1199 370.232 91.7919 370.392L93.0399 370.68C94.3839 370.984 95.1199 371.768 95.1199 372.904C95.1199 374.008 94.1759 375.224 92.3519 375.224C90.3359 375.224 89.4239 373.944 89.2959 372.984ZM98.3718 375H97.0918V367.336H98.3718V375ZM96.7718 364.312C96.7718 363.784 97.2038 363.352 97.7318 363.352C98.2598 363.352 98.6918 363.784 98.6918 364.312C98.6918 364.84 98.2598 365.272 97.7318 365.272C97.2038 365.272 96.7718 364.84 96.7718 364.312ZM100.345 375.432L101.577 375.128C101.705 376.248 102.553 377.112 103.801 377.112C105.593 377.112 106.249 376.056 106.249 374.472V373.24C105.897 373.976 105.065 374.664 103.817 374.664C101.785 374.664 100.361 373.048 100.361 370.904C100.361 368.76 101.769 367.112 103.849 367.112C105.049 367.112 105.881 367.672 106.265 368.424V367.336H107.529V374.424C107.529 376.312 106.665 378.264 103.801 378.264C101.913 378.264 100.537 377.048 100.345 375.432ZM106.313 370.888C106.313 369.304 105.369 368.264 103.977 368.264C102.585 368.264 101.641 369.304 101.641 370.888C101.641 372.472 102.585 373.512 103.977 373.512C105.369 373.512 106.313 372.472 106.313 370.888ZM111.309 370.488V375H110.029V367.336H111.277V368.488C111.773 367.592 112.669 367.112 113.677 367.112C115.517 367.112 116.413 368.424 116.413 370.088V375H115.133V370.28C115.133 369.16 114.621 368.264 113.229 368.264C111.997 368.264 111.309 369.288 111.309 370.488ZM120.091 375H118.811V367.336H120.091V375ZM118.491 364.312C118.491 363.784 118.923 363.352 119.451 363.352C119.979 363.352 120.411 363.784 120.411 364.312C120.411 364.84 119.979 365.272 119.451 365.272C118.923 365.272 118.491 364.84 118.491 364.312ZM123.872 370.488V375H122.592V367.336H123.84V368.488C124.336 367.592 125.232 367.112 126.24 367.112C128.08 367.112 128.976 368.424 128.976 370.088V375H127.696V370.28C127.696 369.16 127.184 368.264 125.792 368.264C124.56 368.264 123.872 369.288 123.872 370.488ZM130.845 375.432L132.077 375.128C132.205 376.248 133.053 377.112 134.301 377.112C136.093 377.112 136.749 376.056 136.749 374.472V373.24C136.397 373.976 135.565 374.664 134.317 374.664C132.285 374.664 130.861 373.048 130.861 370.904C130.861 368.76 132.269 367.112 134.349 367.112C135.549 367.112 136.381 367.672 136.765 368.424V367.336H138.029V374.424C138.029 376.312 137.165 378.264 134.301 378.264C132.413 378.264 131.037 377.048 130.845 375.432ZM136.813 370.888C136.813 369.304 135.869 368.264 134.477 368.264C133.085 368.264 132.141 369.304 132.141 370.888C132.141 372.472 133.085 373.512 134.477 373.512C135.869 373.512 136.813 372.472 136.813 370.888ZM140.385 374.088C140.385 373.528 140.833 373.096 141.377 373.096C141.921 373.096 142.369 373.528 142.369 374.088C142.369 374.648 141.921 375.08 141.377 375.08C140.833 375.08 140.385 374.648 140.385 374.088ZM140.385 368.248C140.385 367.688 140.833 367.256 141.377 367.256C141.921 367.256 142.369 367.688 142.369 368.248C142.369 368.808 141.921 369.24 141.377 369.24C140.833 369.24 140.385 368.808 140.385 368.248ZM34.912 399H33.568V387.656H34.912V399ZM45.1225 391.112C47.3305 391.112 48.9625 392.808 48.9625 395.16C48.9625 397.528 47.3305 399.224 45.1225 399.224C42.9145 399.224 41.2825 397.528 41.2825 395.16C41.2825 392.808 42.9145 391.112 45.1225 391.112ZM45.1225 392.264C43.7465 392.264 42.5625 393.304 42.5625 395.16C42.5625 397.032 43.7465 398.072 45.1225 398.072C46.4985 398.072 47.6825 397.032 47.6825 395.16C47.6825 393.304 46.4985 392.264 45.1225 392.264ZM55.3236 391.336H56.6516L58.7796 397.4L60.6036 391.336H61.9636L59.4676 399H58.1236L55.9796 392.888L53.8676 399H52.5076L49.9636 391.336H51.3396L53.2116 397.4L55.3236 391.336ZM64.9499 394.488V399H63.6699V391.336H64.9179V392.488C65.4139 391.592 66.3099 391.112 67.3179 391.112C69.1579 391.112 70.0539 392.424 70.0539 394.088V399H68.7739V394.28C68.7739 393.16 68.2619 392.264 66.8699 392.264C65.6379 392.264 64.9499 393.288 64.9499 394.488ZM75.9853 396.968C75.9853 395.624 76.9293 394.872 78.2733 394.68L80.3373 394.376C80.8973 394.296 81.0253 394.056 81.0253 393.72C81.0253 392.856 80.4493 392.2 79.2493 392.2C78.1293 392.2 77.4573 392.872 77.3453 393.848L76.1293 393.56C76.2893 392.104 77.5693 391.112 79.2173 391.112C81.3933 391.112 82.3053 392.36 82.3053 393.848V397.72C82.3053 398.36 82.3533 398.76 82.4013 399H81.1533C81.1213 398.824 81.0573 398.44 81.0573 397.848C80.7213 398.472 79.8893 399.224 78.5133 399.224C76.9293 399.224 75.9853 398.136 75.9853 396.968ZM78.6733 398.136C80.0013 398.136 81.0253 397.4 81.0253 395.768V395.256L78.5293 395.624C77.7933 395.736 77.2653 396.152 77.2653 396.904C77.2653 397.528 77.7933 398.136 78.6733 398.136ZM96.2029 399L92.2189 393.672L90.4589 395.544V399H89.1149V387.656H90.4589V393.768L96.0429 387.656H97.8189L93.0989 392.696L97.8829 399H96.2029ZM99.5659 393.32C99.5659 396.408 101.646 397.992 103.838 397.992C106.046 397.992 108.11 396.408 108.11 393.32C108.11 390.248 106.046 388.664 103.838 388.664C101.646 388.664 99.5659 390.248 99.5659 393.32ZM98.2219 393.32C98.2219 389.528 101.022 387.432 103.838 387.432C106.67 387.432 109.454 389.528 109.454 393.32C109.454 397.112 106.67 399.224 103.838 399.224C101.022 399.224 98.2219 397.112 98.2219 393.32ZM119.364 399L118.068 395.688H112.868L111.604 399H110.148L114.692 387.656H116.26L120.82 399H119.364ZM115.46 389.032L113.348 394.456H117.588L115.46 389.032ZM129.541 399H122.693V387.656H124.037V397.768H129.541V399ZM138.275 399H131.427V387.656H132.771V397.768H138.275V399ZM148.13 399L146.834 395.688H141.634L140.37 399H138.914L143.458 387.656H145.026L149.586 399H148.13ZM144.226 389.032L142.114 394.456H146.354L144.226 389.032ZM167.18 399H165.836V389.768L161.724 399H160.492L156.412 389.768V399H155.068V387.656H156.908L161.116 397.208L165.356 387.656H167.18V399ZM170.642 394.424H175.218C175.186 393.208 174.402 392.248 172.946 392.248C171.618 392.248 170.722 393.288 170.642 394.424ZM175.394 396.424L176.498 396.824C176.066 398.152 174.866 399.224 173.09 399.224C171.042 399.224 169.298 397.72 169.298 395.144C169.298 392.728 170.994 391.112 172.93 391.112C175.25 391.112 176.546 392.728 176.546 395.064C176.546 395.224 176.53 395.4 176.514 395.512H170.61V395.576C170.61 397.032 171.714 398.072 173.09 398.072C174.386 398.072 175.09 397.336 175.394 396.424ZM179.73 391.336V392.424C180.162 391.624 181.09 391.112 182.082 391.112C183.138 391.112 184.05 391.672 184.434 392.68C184.978 391.592 185.938 391.112 187.026 391.112C188.418 391.112 189.666 392.072 189.666 393.992V399H188.386V394.136C188.386 393.08 187.826 392.264 186.626 392.264C185.49 392.264 184.722 393.192 184.722 394.344V399H183.442V394.136C183.442 393.08 182.882 392.264 181.666 392.264C180.514 392.264 179.762 393.16 179.762 394.36V399H178.482V391.336H179.73ZM193.309 399H192.061V387.432H193.341V392.584C193.693 391.864 194.589 391.112 195.965 391.112C198.237 391.112 199.453 392.92 199.453 395.16C199.453 397.448 198.157 399.224 195.933 399.224C194.653 399.224 193.757 398.568 193.309 397.736V399ZM195.741 398.072C197.213 398.072 198.173 396.856 198.173 395.16C198.173 393.464 197.229 392.264 195.741 392.264C194.253 392.264 193.309 393.464 193.309 395.16C193.309 396.856 194.269 398.072 195.741 398.072ZM202.252 394.424H206.828C206.796 393.208 206.012 392.248 204.556 392.248C203.228 392.248 202.332 393.288 202.252 394.424ZM207.004 396.424L208.108 396.824C207.676 398.152 206.476 399.224 204.7 399.224C202.652 399.224 200.908 397.72 200.908 395.144C200.908 392.728 202.604 391.112 204.54 391.112C206.86 391.112 208.156 392.728 208.156 395.064C208.156 395.224 208.14 395.4 208.124 395.512H202.22V395.576C202.22 397.032 203.324 398.072 204.7 398.072C205.996 398.072 206.7 397.336 207.004 396.424ZM214.204 391.288V392.648C213.996 392.584 213.756 392.568 213.532 392.568C212.252 392.568 211.372 393.304 211.372 395.032V399H210.092V391.336H211.34V392.712C211.836 391.592 212.812 391.224 213.66 391.224C213.868 391.224 214.092 391.256 214.204 391.288ZM215.093 396.984L216.245 396.584C216.357 397.464 217.013 398.136 218.165 398.136C219.077 398.136 219.653 397.624 219.653 396.968C219.653 396.392 219.189 396.008 218.485 395.848L217.237 395.56C216.069 395.288 215.333 394.536 215.333 393.432C215.333 392.152 216.549 391.112 218.005 391.112C219.989 391.112 220.677 392.376 220.853 393.16L219.717 393.576C219.621 393.048 219.221 392.2 218.005 392.2C217.205 392.2 216.581 392.712 216.581 393.352C216.581 393.896 216.917 394.232 217.589 394.392L218.837 394.68C220.181 394.984 220.917 395.768 220.917 396.904C220.917 398.008 219.973 399.224 218.149 399.224C216.133 399.224 215.221 397.944 215.093 396.984ZM224.169 394.424V399H222.889V387.432H224.169V392.36C224.665 391.56 225.545 391.112 226.537 391.112C228.377 391.112 229.273 392.424 229.273 394.088V399H227.993V394.28C227.993 393.16 227.481 392.264 226.089 392.264C224.873 392.264 224.169 393.24 224.169 394.424ZM232.95 399H231.67V391.336H232.95V399ZM231.35 388.312C231.35 387.784 231.782 387.352 232.31 387.352C232.838 387.352 233.27 387.784 233.27 388.312C233.27 388.84 232.838 389.272 232.31 389.272C231.782 389.272 231.35 388.84 231.35 388.312ZM236.731 402.04H235.451V391.336H236.699V392.616C237.099 391.832 237.995 391.112 239.355 391.112C241.611 391.112 242.843 392.872 242.843 395.16C242.843 397.448 241.531 399.224 239.323 399.224C238.011 399.224 237.131 398.536 236.731 397.816V402.04ZM239.131 398.072C240.603 398.072 241.563 396.856 241.563 395.16C241.563 393.464 240.619 392.264 239.131 392.264C237.643 392.264 236.699 393.464 236.699 395.16C236.699 396.856 237.659 398.072 239.131 398.072ZM258.408 399H257L250.568 389.4V399H249.224V387.656H250.984L257.064 396.744V387.656H258.408V399ZM262.881 399H261.537V387.656H268.353V388.888H262.881V392.872H267.857V394.104H262.881V399ZM278.517 388.888H274.629V399H273.301V388.888H269.413V387.656H278.517V388.888ZM285.229 388.904V391.336H287.037V392.488H285.229V396.728C285.229 397.528 285.581 397.928 286.397 397.928C286.621 397.928 286.909 397.88 287.037 397.848V398.936C286.893 398.984 286.525 399.08 286.029 399.08C284.765 399.08 283.949 398.296 283.949 396.904V392.488H282.413V391.336H282.909C283.693 391.336 284.029 390.888 284.029 390.168V388.904H285.229ZM292.107 391.112C294.315 391.112 295.947 392.808 295.947 395.16C295.947 397.528 294.315 399.224 292.107 399.224C289.899 399.224 288.267 397.528 288.267 395.16C288.267 392.808 289.899 391.112 292.107 391.112ZM292.107 392.264C290.731 392.264 289.547 393.304 289.547 395.16C289.547 397.032 290.731 398.072 292.107 398.072C293.483 398.072 294.667 397.032 294.667 395.16C294.667 393.304 293.483 392.264 292.107 392.264ZM305.262 392.264C303.918 392.264 302.75 393.304 302.75 395.16C302.75 397 303.918 398.072 305.278 398.072C306.734 398.072 307.342 397.048 307.566 396.344L308.686 396.84C308.318 397.976 307.246 399.224 305.278 399.224C303.07 399.224 301.47 397.496 301.47 395.16C301.47 392.776 303.102 391.112 305.262 391.112C307.23 391.112 308.302 392.312 308.622 393.528L307.47 394.024C307.262 393.208 306.638 392.264 305.262 392.264ZM311.794 399H310.514V387.432H311.794V399ZM313.751 396.968C313.751 395.624 314.695 394.872 316.039 394.68L318.103 394.376C318.663 394.296 318.791 394.056 318.791 393.72C318.791 392.856 318.215 392.2 317.015 392.2C315.895 392.2 315.223 392.872 315.111 393.848L313.895 393.56C314.055 392.104 315.335 391.112 316.983 391.112C319.159 391.112 320.071 392.36 320.071 393.848V397.72C320.071 398.36 320.119 398.76 320.167 399H318.919C318.887 398.824 318.823 398.44 318.823 397.848C318.487 398.472 317.655 399.224 316.279 399.224C314.695 399.224 313.751 398.136 313.751 396.968ZM316.439 398.136C317.767 398.136 318.791 397.4 318.791 395.768V395.256L316.295 395.624C315.559 395.736 315.031 396.152 315.031 396.904C315.031 397.528 315.559 398.136 316.439 398.136ZM323.762 399H322.482V391.336H323.762V399ZM322.162 388.312C322.162 387.784 322.594 387.352 323.122 387.352C323.65 387.352 324.082 387.784 324.082 388.312C324.082 388.84 323.65 389.272 323.122 389.272C322.594 389.272 322.162 388.84 322.162 388.312ZM327.512 391.336V392.424C327.944 391.624 328.872 391.112 329.864 391.112C330.92 391.112 331.832 391.672 332.216 392.68C332.76 391.592 333.72 391.112 334.808 391.112C336.2 391.112 337.448 392.072 337.448 393.992V399H336.168V394.136C336.168 393.08 335.608 392.264 334.408 392.264C333.272 392.264 332.504 393.192 332.504 394.344V399H331.224V394.136C331.224 393.08 330.664 392.264 329.448 392.264C328.296 392.264 327.544 393.16 327.544 394.36V399H326.264V391.336H327.512ZM345.463 388.904V391.336H347.271V392.488H345.463V396.728C345.463 397.528 345.815 397.928 346.631 397.928C346.855 397.928 347.143 397.88 347.271 397.848V398.936C347.127 398.984 346.759 399.08 346.263 399.08C344.999 399.08 344.183 398.296 344.183 396.904V392.488H342.647V391.336H343.143C343.927 391.336 344.263 390.888 344.263 390.168V388.904H345.463ZM350.309 394.424V399H349.029V387.432H350.309V392.36C350.805 391.56 351.685 391.112 352.677 391.112C354.517 391.112 355.413 392.424 355.413 394.088V399H354.133V394.28C354.133 393.16 353.621 392.264 352.229 392.264C351.013 392.264 350.309 393.24 350.309 394.424ZM359.091 399H357.811V391.336H359.091V399ZM357.491 388.312C357.491 387.784 357.923 387.352 358.451 387.352C358.979 387.352 359.411 387.784 359.411 388.312C359.411 388.84 358.979 389.272 358.451 389.272C357.923 389.272 357.491 388.84 357.491 388.312ZM360.968 396.984L362.12 396.584C362.232 397.464 362.888 398.136 364.04 398.136C364.952 398.136 365.528 397.624 365.528 396.968C365.528 396.392 365.064 396.008 364.36 395.848L363.112 395.56C361.944 395.288 361.208 394.536 361.208 393.432C361.208 392.152 362.424 391.112 363.88 391.112C365.864 391.112 366.552 392.376 366.728 393.16L365.592 393.576C365.496 393.048 365.096 392.2 363.88 392.2C363.08 392.2 362.456 392.712 362.456 393.352C362.456 393.896 362.792 394.232 363.464 394.392L364.712 394.68C366.056 394.984 366.792 395.768 366.792 396.904C366.792 398.008 365.848 399.224 364.024 399.224C362.008 399.224 361.096 397.944 360.968 396.984ZM374.122 402.04H372.842V391.336H374.09V392.616C374.49 391.832 375.386 391.112 376.746 391.112C379.002 391.112 380.234 392.872 380.234 395.16C380.234 397.448 378.922 399.224 376.714 399.224C375.402 399.224 374.522 398.536 374.122 397.816V402.04ZM376.522 398.072C377.994 398.072 378.954 396.856 378.954 395.16C378.954 393.464 378.01 392.264 376.522 392.264C375.034 392.264 374.09 393.464 374.09 395.16C374.09 396.856 375.05 398.072 376.522 398.072ZM386.329 391.288V392.648C386.121 392.584 385.881 392.568 385.657 392.568C384.377 392.568 383.497 393.304 383.497 395.032V399H382.217V391.336H383.465V392.712C383.961 391.592 384.937 391.224 385.785 391.224C385.993 391.224 386.217 391.256 386.329 391.288ZM390.982 391.112C393.19 391.112 394.822 392.808 394.822 395.16C394.822 397.528 393.19 399.224 390.982 399.224C388.774 399.224 387.142 397.528 387.142 395.16C387.142 392.808 388.774 391.112 390.982 391.112ZM390.982 392.264C389.606 392.264 388.422 393.304 388.422 395.16C388.422 397.032 389.606 398.072 390.982 398.072C392.358 398.072 393.542 397.032 393.542 395.16C393.542 393.304 392.358 392.264 390.982 392.264ZM398.043 391.336V392.424C398.475 391.624 399.403 391.112 400.395 391.112C401.451 391.112 402.363 391.672 402.747 392.68C403.291 391.592 404.251 391.112 405.339 391.112C406.731 391.112 407.979 392.072 407.979 393.992V399H406.699V394.136C406.699 393.08 406.139 392.264 404.939 392.264C403.803 392.264 403.035 393.192 403.035 394.344V399H401.755V394.136C401.755 393.08 401.195 392.264 399.979 392.264C398.827 392.264 398.075 393.16 398.075 394.36V399H396.795V391.336H398.043ZM413.685 391.112C415.893 391.112 417.525 392.808 417.525 395.16C417.525 397.528 415.893 399.224 413.685 399.224C411.477 399.224 409.845 397.528 409.845 395.16C409.845 392.808 411.477 391.112 413.685 391.112ZM413.685 392.264C412.309 392.264 411.125 393.304 411.125 395.16C411.125 397.032 412.309 398.072 413.685 398.072C415.061 398.072 416.245 397.032 416.245 395.16C416.245 393.304 415.061 392.264 413.685 392.264ZM421.229 388.904V391.336H423.037V392.488H421.229V396.728C421.229 397.528 421.581 397.928 422.397 397.928C422.621 397.928 422.909 397.88 423.037 397.848V398.936C422.893 398.984 422.525 399.08 422.029 399.08C420.765 399.08 419.949 398.296 419.949 396.904V392.488H418.413V391.336H418.909C419.693 391.336 420.029 390.888 420.029 390.168V388.904H421.229ZM426.075 399H424.795V391.336H426.075V399ZM424.475 388.312C424.475 387.784 424.907 387.352 425.435 387.352C425.963 387.352 426.395 387.784 426.395 388.312C426.395 388.84 425.963 389.272 425.435 389.272C424.907 389.272 424.475 388.84 424.475 388.312ZM431.888 391.112C434.096 391.112 435.728 392.808 435.728 395.16C435.728 397.528 434.096 399.224 431.888 399.224C429.68 399.224 428.048 397.528 428.048 395.16C428.048 392.808 429.68 391.112 431.888 391.112ZM431.888 392.264C430.512 392.264 429.328 393.304 429.328 395.16C429.328 397.032 430.512 398.072 431.888 398.072C433.264 398.072 434.448 397.032 434.448 395.16C434.448 393.304 433.264 392.264 431.888 392.264ZM438.981 394.488V399H437.701V391.336H438.949V392.488C439.445 391.592 440.341 391.112 441.349 391.112C443.189 391.112 444.085 392.424 444.085 394.088V399H442.805V394.28C442.805 393.16 442.293 392.264 440.901 392.264C439.669 392.264 438.981 393.288 438.981 394.488Z" fill="#4E4763"/><rect width="480" height="88" transform="translate(0 552)" fill="white"/><rect x="32" y="576" width="416" height="40" rx="6" fill="#0073C3"/><path d="M229.354 593.44L227.618 593.972C227.52 593.426 227.072 592.572 225.812 592.572C224.874 592.572 224.258 593.174 224.258 593.832C224.258 594.378 224.608 594.812 225.336 594.952L226.722 595.218C228.528 595.568 229.494 596.744 229.494 598.144C229.494 599.67 228.22 601.21 225.91 601.21C223.278 601.21 222.116 599.516 221.962 598.102L223.754 597.626C223.838 598.606 224.524 599.488 225.924 599.488C226.96 599.488 227.534 598.97 227.534 598.27C227.534 597.696 227.1 597.248 226.33 597.094L224.944 596.814C223.362 596.492 222.34 595.47 222.34 593.972C222.34 592.208 223.922 590.864 225.798 590.864C228.206 590.864 229.13 592.32 229.354 593.44ZM233.881 601H231.921V591.074H233.881V601ZM245.888 601H244.32L244.194 599.866C243.746 600.538 242.766 601.21 241.268 601.21C238.594 601.21 236.312 599.25 236.312 596.044C236.312 592.838 238.706 590.864 241.394 590.864C243.998 590.864 245.44 592.39 245.93 593.916L244.082 594.574C243.83 593.692 243.004 592.67 241.394 592.67C239.896 592.67 238.272 593.692 238.272 596.044C238.272 598.284 239.742 599.446 241.408 599.446C243.242 599.446 243.956 598.214 244.068 597.514H240.932V595.834H245.888V601ZM257.007 601H254.977L250.469 593.958V601H248.537V591.074H250.945L255.075 597.64V591.074H257.007V601Z" fill="white"/></svg>