<svg width="480" height="500" viewBox="0 0 480 500" fill="none" xmlns="http://www.w3.org/2000/svg"><path d="M0 12C0 5.37258 5.37258 0 12 0H468C474.627 0 480 5.37258 480 12V72H0V12Z" fill="white"/><path fill-rule="evenodd" clip-rule="evenodd" d="M37.1513 29.1515C37.6199 28.6829 38.3797 28.6829 38.8483 29.1515L43.9998 34.303L49.1513 29.1515C49.6199 28.6829 50.3797 28.6829 50.8483 29.1515C51.317 29.6201 51.317 30.3799 50.8483 30.8486L45.6969 36L50.8483 41.1515C51.317 41.6202 51.317 42.3799 50.8483 42.8486C50.3797 43.3172 49.6199 43.3172 49.1513 42.8486L43.9998 37.6971L38.8483 42.8486C38.3797 43.3172 37.6199 43.3172 37.1513 42.8486C36.6826 42.3799 36.6826 41.6202 37.1513 41.1515L42.3027 36L37.1513 30.8486C36.6826 30.3799 36.6826 29.6201 37.1513 29.1515Z" fill="#6B6580"/><rect x="72" y="24" width="376" height="24" fill="white"/><path d="M0 72H480V488C480 494.627 474.627 500 468 500H12C5.37257 500 0 494.627 0 488V72Z" fill="white"/><path d="M123.434 100H109.934V78.73H123.404V83.2H114.674V87.25H122.594V91.42H114.674V95.5H123.434V100ZM125.386 100L130.516 92.56L125.296 85.09H130.666L133.336 89.17L135.946 85.09H141.046L135.886 92.38C137.566 94.78 139.516 97.6 141.226 100H135.886L133.126 95.8C132.316 97 131.206 98.77 130.396 100H125.386ZM146.308 90.76H152.278C152.218 89.62 151.438 88.24 149.278 88.24C147.358 88.24 146.398 89.65 146.308 90.76ZM152.608 94.63L156.418 95.71C155.698 98.29 153.328 100.45 149.548 100.45C145.438 100.45 141.778 97.51 141.778 92.5C141.778 87.7 145.348 84.64 149.218 84.64C153.838 84.64 156.688 87.49 156.688 92.29C156.688 92.92 156.628 93.61 156.598 93.7H146.218C146.308 95.38 147.838 96.58 149.608 96.58C151.258 96.58 152.188 95.8 152.608 94.63ZM166.838 88.84C164.948 88.84 163.418 90.16 163.418 92.56C163.418 94.93 165.008 96.25 166.898 96.25C168.668 96.25 169.658 95.14 169.988 94.03L174.008 95.26C173.348 97.87 170.888 100.45 166.898 100.45C162.458 100.45 158.888 97.18 158.888 92.56C158.888 87.91 162.368 84.64 166.748 84.64C170.858 84.64 173.258 87.16 173.918 89.83L169.838 91.06C169.508 89.92 168.608 88.84 166.838 88.84ZM186.379 100C186.319 99.73 186.259 98.89 186.259 98.5C185.479 99.79 183.769 100.33 182.269 100.33C178.639 100.33 176.599 97.69 176.599 94.51V85.09H181.159V93.55C181.159 94.99 181.939 96.13 183.559 96.13C185.089 96.13 186.049 95.08 186.049 93.58V85.09H190.609V97.33C190.609 98.68 190.729 99.76 190.759 100H186.379ZM200.294 80.74V85.09H203.204V89.08H200.294V94.66C200.294 95.89 200.954 96.22 201.944 96.22C202.424 96.22 202.874 96.13 203.144 96.07V99.85C202.964 99.94 202.214 100.27 200.774 100.27C197.684 100.27 195.794 98.44 195.794 95.47V89.08H193.154V85.09H193.904C195.464 85.09 196.214 84.04 196.214 82.66V80.74H200.294ZM209.824 90.76H215.794C215.734 89.62 214.954 88.24 212.794 88.24C210.874 88.24 209.914 89.65 209.824 90.76ZM216.124 94.63L219.934 95.71C219.214 98.29 216.844 100.45 213.064 100.45C208.954 100.45 205.294 97.51 205.294 92.5C205.294 87.7 208.864 84.64 212.734 84.64C217.354 84.64 220.204 87.49 220.204 92.29C220.204 92.92 220.144 93.61 220.114 93.7H209.734C209.824 95.38 211.354 96.58 213.124 96.58C214.774 96.58 215.704 95.8 216.124 94.63ZM240.506 100.45C234.386 100.45 229.466 96.04 229.466 89.41C229.466 82.78 234.506 78.28 240.446 78.28C246.836 78.28 249.656 82.39 250.346 85.45L245.876 86.86C245.546 85.39 244.196 82.9 240.446 82.9C237.596 82.9 234.386 84.94 234.386 89.41C234.386 93.4 237.326 95.71 240.506 95.71C244.196 95.71 245.666 93.25 246.086 91.72L250.616 93.01C249.926 95.95 247.106 100.45 240.506 100.45ZM257.715 91.24V100H253.155V78.28H257.715V86.05C258.645 85.12 260.205 84.7 261.525 84.7C265.425 84.7 267.165 87.37 267.165 90.64V100H262.605V91.42C262.605 89.95 261.825 88.84 260.175 88.84C258.735 88.84 257.805 89.86 257.715 91.24ZM270.041 95.89C270.041 93.25 271.991 91.75 274.451 91.39L277.961 90.85C278.771 90.73 279.041 90.34 279.041 89.83C279.041 88.96 278.291 88.21 276.851 88.21C275.261 88.21 274.391 89.29 274.301 90.4L270.341 89.59C270.521 87.46 272.501 84.64 276.881 84.64C281.711 84.64 283.481 87.34 283.481 90.4V97.69C283.481 98.86 283.631 99.85 283.661 100H279.551C279.521 99.88 279.401 99.34 279.401 98.32C278.621 99.58 277.181 100.42 275.201 100.42C271.931 100.42 270.041 98.26 270.041 95.89ZM276.311 97.12C277.661 97.12 279.041 96.46 279.041 94.15V93.49L276.221 93.94C275.261 94.09 274.541 94.54 274.541 95.59C274.541 96.37 275.051 97.12 276.311 97.12ZM291.758 100H287.198V78.28H291.758V100ZM300.167 100H295.607V78.28H300.167V100ZM307.705 90.76H313.675C313.615 89.62 312.835 88.24 310.675 88.24C308.755 88.24 307.795 89.65 307.705 90.76ZM314.005 94.63L317.815 95.71C317.095 98.29 314.725 100.45 310.945 100.45C306.835 100.45 303.175 97.51 303.175 92.5C303.175 87.7 306.745 84.64 310.615 84.64C315.235 84.64 318.085 87.49 318.085 92.29C318.085 92.92 318.025 93.61 317.995 93.7H307.615C307.705 95.38 309.235 96.58 311.005 96.58C312.655 96.58 313.585 95.8 314.005 94.63ZM325.684 91.45V100H321.124V85.09H325.534V86.8C326.344 85.39 328.174 84.7 329.704 84.7C333.454 84.7 335.134 87.37 335.134 90.64V100H330.574V91.42C330.574 89.95 329.794 88.84 328.144 88.84C326.644 88.84 325.684 89.95 325.684 91.45ZM338.009 100.84L342.029 99.7C342.329 101.14 343.529 102.19 345.239 102.19C347.519 102.19 348.929 101.08 348.929 98.38V97.69C348.389 98.5 347.099 99.37 344.939 99.37C340.979 99.37 338.009 96.25 338.009 92.11C338.009 88.18 340.859 84.82 344.939 84.82C347.369 84.82 348.659 85.9 349.079 86.68V85.09H353.429V98.14C353.429 102.43 351.029 106.15 345.449 106.15C341.159 106.15 338.429 103.51 338.009 100.84ZM345.779 95.41C347.639 95.41 348.959 94.15 348.959 92.11C348.959 90.07 347.489 88.81 345.779 88.81C344.069 88.81 342.569 90.07 342.569 92.11C342.569 94.15 343.949 95.41 345.779 95.41ZM360.966 90.76H366.936C366.876 89.62 366.096 88.24 363.936 88.24C362.016 88.24 361.056 89.65 360.966 90.76ZM367.266 94.63L371.076 95.71C370.356 98.29 367.986 100.45 364.206 100.45C360.096 100.45 356.436 97.51 356.436 92.5C356.436 87.7 360.006 84.64 363.876 84.64C368.496 84.64 371.346 87.49 371.346 92.29C371.346 92.92 371.286 93.61 371.256 93.7H360.876C360.966 95.38 362.496 96.58 364.266 96.58C365.916 96.58 366.846 95.8 367.266 94.63Z" fill="#29233B"/><path d="M39.378 147H33.162V137.074H39.378V138.894H35.094V141.162H38.972V142.884H35.094V145.18H39.378V147ZM42.8394 143.038V147H40.9774V140.112H42.7834V140.966C43.2034 140.252 44.0294 139.93 44.7714 139.93C46.4794 139.93 47.2634 141.148 47.2634 142.66V147H45.4014V142.982C45.4014 142.212 45.0234 141.61 44.1274 141.61C43.3154 141.61 42.8394 142.24 42.8394 143.038ZM52.2905 141.624C51.3385 141.624 50.5405 142.31 50.5405 143.556C50.5405 144.802 51.3525 145.502 52.3045 145.502C53.2565 145.502 53.7325 144.872 53.8865 144.34L55.5245 144.886C55.2165 146.034 54.1385 147.21 52.3045 147.21C50.2745 147.21 48.6785 145.67 48.6785 143.556C48.6785 141.428 50.2465 139.902 52.2485 139.902C54.1245 139.902 55.1885 141.064 55.4825 142.226L53.8165 142.786C53.6485 142.212 53.2145 141.624 52.2905 141.624ZM61.0778 140.084V141.96C60.8678 141.918 60.6858 141.904 60.5178 141.904C59.5658 141.904 58.7398 142.366 58.7398 143.85V147H56.8778V140.112H58.6838V141.134C59.1038 140.224 60.0558 140.056 60.6438 140.056C60.7978 140.056 60.9378 140.07 61.0778 140.084ZM64.7975 149.716H62.8235L64.4475 146.132L61.5215 140.112H63.6075L65.4415 144.144L67.1355 140.112H69.1235L64.7975 149.716ZM72.0562 149.66H70.1942V140.112H72.0002V140.952C72.3082 140.42 73.0782 139.958 74.1142 139.958C76.1302 139.958 77.2922 141.498 77.2922 143.542C77.2922 145.628 75.9902 147.168 74.0442 147.168C73.0922 147.168 72.3922 146.79 72.0562 146.328V149.66ZM75.4582 143.556C75.4582 142.338 74.7022 141.624 73.7502 141.624C72.7982 141.624 72.0282 142.338 72.0282 143.556C72.0282 144.774 72.7982 145.502 73.7502 145.502C74.7022 145.502 75.4582 144.788 75.4582 143.556ZM81.1201 138.054V140.112H82.5061V141.764H81.1201V144.648C81.1201 145.25 81.4001 145.446 81.9321 145.446C82.1561 145.446 82.4081 145.418 82.5061 145.39V146.93C82.3381 147 82.0021 147.098 81.4561 147.098C80.1121 147.098 79.2721 146.3 79.2721 144.97V141.764H78.0261V140.112H78.3761C79.1041 140.112 79.4401 139.636 79.4401 139.02V138.054H81.1201ZM85.8648 147H84.0028V140.112H85.8648V147ZM83.7788 137.858C83.7788 137.214 84.2968 136.696 84.9268 136.696C85.5708 136.696 86.0748 137.214 86.0748 137.858C86.0748 138.474 85.5708 138.992 84.9268 138.992C84.2968 138.992 83.7788 138.474 83.7788 137.858ZM90.9545 145.516C91.8645 145.516 92.7045 144.858 92.7045 143.556C92.7045 142.254 91.8645 141.596 90.9545 141.596C90.0445 141.596 89.2045 142.254 89.2045 143.556C89.2045 144.844 90.0445 145.516 90.9545 145.516ZM90.9545 139.902C93.0125 139.902 94.5665 141.428 94.5665 143.556C94.5665 145.67 93.0125 147.21 90.9545 147.21C88.8965 147.21 87.3425 145.67 87.3425 143.556C87.3425 141.428 88.8965 139.902 90.9545 139.902ZM97.9097 143.038V147H96.0477V140.112H97.8537V140.966C98.2737 140.252 99.0997 139.93 99.8417 139.93C101.55 139.93 102.334 141.148 102.334 142.66V147H100.472V142.982C100.472 142.212 100.094 141.61 99.1977 141.61C98.3857 141.61 97.9097 142.24 97.9097 143.038ZM113.749 147L110.865 142.884L109.633 144.242V147H107.701V137.074H109.633V141.568L113.609 137.074H116.143L112.209 141.4L116.171 147H113.749ZM117.985 142.772H121.065C121.037 142.086 120.589 141.414 119.525 141.414C118.559 141.414 118.027 142.142 117.985 142.772ZM121.247 144.564L122.801 145.026C122.451 146.216 121.359 147.21 119.665 147.21C117.775 147.21 116.109 145.852 116.109 143.528C116.109 141.33 117.733 139.902 119.497 139.902C121.625 139.902 122.899 141.26 122.899 143.472C122.899 143.738 122.871 144.018 122.871 144.046H117.943C117.985 144.956 118.755 145.614 119.678 145.614C120.547 145.614 121.023 145.18 121.247 144.564ZM126.635 149.716H124.661L126.285 146.132L123.359 140.112H125.445L127.279 144.144L128.973 140.112H130.961L126.635 149.716Z" fill="#4E4763"/><path d="M38.8 179.896V179.688C38.448 180.44 37.616 181.224 36.288 181.224C34.08 181.224 32.736 179.432 32.736 177.16C32.736 174.936 34.144 173.112 36.288 173.112C37.76 173.112 38.512 173.928 38.768 174.568V169.432H40.048V179.56C40.048 180.328 40.096 180.84 40.128 181H38.88C38.848 180.824 38.8 180.392 38.8 179.896ZM36.4 180.072C37.84 180.072 38.8 178.856 38.8 177.16C38.8 175.464 37.856 174.264 36.4 174.264C34.944 174.264 34.016 175.464 34.016 177.16C34.016 178.856 34.96 180.072 36.4 180.072ZM43.8249 176.424V181H42.5449V169.432H43.8249V174.36C44.3209 173.56 45.2009 173.112 46.1929 173.112C48.0329 173.112 48.9289 174.424 48.9289 176.088V181H47.6489V176.28C47.6489 175.16 47.1369 174.264 45.7449 174.264C44.5289 174.264 43.8249 175.24 43.8249 176.424ZM52.3181 174.344L51.0061 174.184C50.9741 174.04 50.9581 173.864 50.9581 173.72C50.9581 171.944 52.2541 170.408 54.4781 170.408C56.6221 170.408 57.9021 171.832 57.9021 173.544C57.9021 174.904 57.1341 175.976 55.9501 176.728L53.8221 178.088C53.1981 178.488 52.6221 179.032 52.4941 179.784H57.9981V181H50.8621C50.8941 179.4 51.5341 178.12 53.1981 177.048L55.0541 175.848C56.0621 175.208 56.5581 174.472 56.5581 173.56C56.5581 172.536 55.8221 171.592 54.4461 171.592C53.0381 171.592 52.2701 172.568 52.2701 173.848C52.2701 174.024 52.2861 174.216 52.3181 174.344ZM65.1798 179.96C64.8118 180.744 63.8838 181.224 62.8758 181.224C61.0198 181.224 59.9958 179.848 59.9958 178.152V173.336H61.2758V177.944C61.2758 179.064 61.8038 180.072 63.1638 180.072C64.4278 180.072 65.1158 179.176 65.1158 177.96V173.336H66.3958V179.56C66.3958 180.152 66.4438 180.696 66.4918 181H65.2598C65.2118 180.824 65.1798 180.408 65.1798 180.024V179.96ZM71.3526 176.008L70.6966 174.904L73.9126 171.848H68.6966V170.632H75.6726V171.832L72.5206 174.808C72.6006 174.792 72.7286 174.776 72.8246 174.776C74.3126 174.776 75.9126 175.864 75.9126 177.912C75.9126 179.672 74.5366 181.224 72.2006 181.224C69.8966 181.224 68.4726 179.72 68.3766 177.992L69.6886 177.688C69.7526 179.144 70.8566 180.04 72.1846 180.04C73.6566 180.04 74.5686 179.112 74.5686 177.928C74.5686 176.52 73.4486 175.864 72.2966 175.864C71.9606 175.864 71.6406 175.912 71.3526 176.008ZM79.2936 176.424V181H78.0136V169.432H79.2936V174.36C79.7896 173.56 80.6696 173.112 81.6616 173.112C83.5016 173.112 84.3976 174.424 84.3976 176.088V181H83.1176V176.28C83.1176 175.16 82.6056 174.264 81.2136 174.264C79.9976 174.264 79.2936 175.24 79.2936 176.424ZM89.2589 176.008L88.6029 174.904L91.8189 171.848H86.6029V170.632H93.5789V171.832L90.4269 174.808C90.5069 174.792 90.6349 174.776 90.7309 174.776C92.2189 174.776 93.8189 175.864 93.8189 177.912C93.8189 179.672 92.4429 181.224 90.1069 181.224C87.8029 181.224 86.3789 179.72 86.2829 177.992L87.5949 177.688C87.6589 179.144 88.7629 180.04 90.0909 180.04C91.5629 180.04 92.4749 179.112 92.4749 177.928C92.4749 176.52 91.3549 175.864 90.2029 175.864C89.8669 175.864 89.5469 175.912 89.2589 176.008ZM96.9119 174.344L95.5999 174.184C95.5679 174.04 95.5519 173.864 95.5519 173.72C95.5519 171.944 96.8479 170.408 99.0719 170.408C101.216 170.408 102.496 171.832 102.496 173.544C102.496 174.904 101.728 175.976 100.544 176.728L98.4159 178.088C97.7919 178.488 97.2159 179.032 97.0879 179.784H102.592V181H95.4559C95.4879 179.4 96.1279 178.12 97.7919 177.048L99.6479 175.848C100.656 175.208 101.152 174.472 101.152 173.56C101.152 172.536 100.416 171.592 99.0399 171.592C97.6319 171.592 96.8639 172.568 96.8639 173.848C96.8639 174.024 96.8799 174.216 96.9119 174.344ZM105.934 173.336V174.424C106.366 173.624 107.294 173.112 108.286 173.112C109.342 173.112 110.254 173.672 110.638 174.68C111.182 173.592 112.142 173.112 113.23 173.112C114.622 173.112 115.87 174.072 115.87 175.992V181H114.59V176.136C114.59 175.08 114.03 174.264 112.83 174.264C111.694 174.264 110.926 175.192 110.926 176.344V181H109.646V176.136C109.646 175.08 109.086 174.264 107.87 174.264C106.718 174.264 105.966 175.16 105.966 176.36V181H104.686V173.336H105.934ZM117.72 178.968C117.72 177.624 118.664 176.872 120.008 176.68L122.072 176.376C122.632 176.296 122.76 176.056 122.76 175.72C122.76 174.856 122.184 174.2 120.984 174.2C119.864 174.2 119.192 174.872 119.08 175.848L117.864 175.56C118.024 174.104 119.304 173.112 120.952 173.112C123.128 173.112 124.04 174.36 124.04 175.848V179.72C124.04 180.36 124.088 180.76 124.136 181H122.888C122.856 180.824 122.792 180.44 122.792 179.848C122.456 180.472 121.624 181.224 120.248 181.224C118.664 181.224 117.72 180.136 117.72 178.968ZM120.408 180.136C121.736 180.136 122.76 179.4 122.76 177.768V177.256L120.264 177.624C119.528 177.736 119 178.152 119 178.904C119 179.528 119.528 180.136 120.408 180.136ZM130.563 173.288V174.648C130.355 174.584 130.115 174.568 129.891 174.568C128.611 174.568 127.731 175.304 127.731 177.032V181H126.451V173.336H127.699V174.712C128.195 173.592 129.171 173.224 130.019 173.224C130.227 173.224 130.451 173.256 130.563 173.288ZM137.164 179.96C136.796 180.744 135.868 181.224 134.86 181.224C133.004 181.224 131.98 179.848 131.98 178.152V173.336H133.26V177.944C133.26 179.064 133.788 180.072 135.148 180.072C136.412 180.072 137.1 179.176 137.1 177.96V173.336H138.38V179.56C138.38 180.152 138.428 180.696 138.476 181H137.244C137.196 180.824 137.164 180.408 137.164 180.024V179.96ZM140.345 181.432L141.577 181.128C141.705 182.248 142.553 183.112 143.801 183.112C145.593 183.112 146.249 182.056 146.249 180.472V179.24C145.897 179.976 145.065 180.664 143.817 180.664C141.785 180.664 140.361 179.048 140.361 176.904C140.361 174.76 141.769 173.112 143.849 173.112C145.049 173.112 145.881 173.672 146.265 174.424V173.336H147.529V180.424C147.529 182.312 146.665 184.264 143.801 184.264C141.913 184.264 140.537 183.048 140.345 181.432ZM146.313 176.888C146.313 175.304 145.369 174.264 143.977 174.264C142.585 174.264 141.641 175.304 141.641 176.888C141.641 178.472 142.585 179.512 143.977 179.512C145.369 179.512 146.313 178.472 146.313 176.888ZM149.277 178.584V177.048L153.853 170.632H155.693V177.368H157.501V178.584H155.693V181H154.381V178.584H149.277ZM154.381 177.368V171.928L150.509 177.368H154.381ZM161.216 184.04H159.792L161.648 180.088L158.352 173.336H159.824L162.352 178.76L164.736 173.336H166.128L161.216 184.04ZM168.631 174.344L167.319 174.184C167.287 174.04 167.271 173.864 167.271 173.72C167.271 171.944 168.567 170.408 170.791 170.408C172.935 170.408 174.215 171.832 174.215 173.544C174.215 174.904 173.447 175.976 172.263 176.728L170.135 178.088C169.511 178.488 168.935 179.032 168.807 179.784H174.311V181H167.175C167.207 179.4 167.847 178.12 169.511 177.048L171.367 175.848C172.375 175.208 172.871 174.472 172.871 173.56C172.871 172.536 172.135 171.592 170.759 171.592C169.351 171.592 168.583 172.568 168.583 173.848C168.583 174.024 168.599 174.216 168.631 174.344ZM180.516 173.288V174.648C180.308 174.584 180.068 174.568 179.844 174.568C178.564 174.568 177.684 175.304 177.684 177.032V181H176.404V173.336H177.652V174.712C178.148 173.592 179.124 173.224 179.972 173.224C180.18 173.224 180.404 173.256 180.516 173.288ZM184.493 176.008L183.837 174.904L187.053 171.848H181.837V170.632H188.813V171.832L185.661 174.808C185.741 174.792 185.869 174.776 185.965 174.776C187.453 174.776 189.053 175.864 189.053 177.912C189.053 179.672 187.677 181.224 185.341 181.224C183.037 181.224 181.613 179.72 181.517 177.992L182.829 177.688C182.893 179.144 183.997 180.04 185.325 180.04C186.797 180.04 187.709 179.112 187.709 177.928C187.709 176.52 186.589 175.864 185.437 175.864C185.101 175.864 184.781 175.912 184.493 176.008ZM192.434 176.424V181H191.154V169.432H192.434V174.36C192.93 173.56 193.81 173.112 194.802 173.112C196.642 173.112 197.538 174.424 197.538 176.088V181H196.258V176.28C196.258 175.16 195.746 174.264 194.354 174.264C193.138 174.264 192.434 175.24 192.434 176.424ZM199.392 178.968C199.392 177.624 200.336 176.872 201.68 176.68L203.744 176.376C204.304 176.296 204.432 176.056 204.432 175.72C204.432 174.856 203.856 174.2 202.656 174.2C201.536 174.2 200.864 174.872 200.752 175.848L199.536 175.56C199.696 174.104 200.976 173.112 202.624 173.112C204.8 173.112 205.712 174.36 205.712 175.848V179.72C205.712 180.36 205.76 180.76 205.808 181H204.56C204.528 180.824 204.464 180.44 204.464 179.848C204.128 180.472 203.296 181.224 201.92 181.224C200.336 181.224 199.392 180.136 199.392 178.968ZM202.08 180.136C203.408 180.136 204.432 179.4 204.432 177.768V177.256L201.936 177.624C201.2 177.736 200.672 178.152 200.672 178.904C200.672 179.528 201.2 180.136 202.08 180.136ZM213.211 179.96C212.843 180.744 211.915 181.224 210.907 181.224C209.051 181.224 208.027 179.848 208.027 178.152V173.336H209.307V177.944C209.307 179.064 209.835 180.072 211.195 180.072C212.459 180.072 213.147 179.176 213.147 177.96V173.336H214.427V179.56C214.427 180.152 214.475 180.696 214.523 181H213.291C213.243 180.824 213.211 180.408 213.211 180.024V179.96ZM216.168 178.584V177.048L220.744 170.632H222.584V177.368H224.392V178.584H222.584V181H221.272V178.584H216.168ZM221.272 177.368V171.928L217.4 177.368H221.272ZM227.146 174.344L225.834 174.184C225.802 174.04 225.786 173.864 225.786 173.72C225.786 171.944 227.082 170.408 229.306 170.408C231.45 170.408 232.73 171.832 232.73 173.544C232.73 174.904 231.962 175.976 230.778 176.728L228.65 178.088C228.026 178.488 227.45 179.032 227.322 179.784H232.826V181H225.69C225.722 179.4 226.362 178.12 228.026 177.048L229.882 175.848C230.89 175.208 231.386 174.472 231.386 173.56C231.386 172.536 230.65 171.592 229.274 171.592C227.866 171.592 227.098 172.568 227.098 173.848C227.098 174.024 227.114 174.216 227.146 174.344ZM234.392 181.432L235.624 181.128C235.752 182.248 236.6 183.112 237.848 183.112C239.64 183.112 240.296 182.056 240.296 180.472V179.24C239.944 179.976 239.112 180.664 237.864 180.664C235.832 180.664 234.408 179.048 234.408 176.904C234.408 174.76 235.816 173.112 237.896 173.112C239.096 173.112 239.928 173.672 240.312 174.424V173.336H241.576V180.424C241.576 182.312 240.712 184.264 237.848 184.264C235.96 184.264 234.584 183.048 234.392 181.432ZM240.36 176.888C240.36 175.304 239.416 174.264 238.024 174.264C236.632 174.264 235.688 175.304 235.688 176.888C235.688 178.472 236.632 179.512 238.024 179.512C239.416 179.512 240.36 178.472 240.36 176.888ZM248.188 173.288V174.648C247.98 174.584 247.74 174.568 247.516 174.568C246.236 174.568 245.356 175.304 245.356 177.032V181H244.076V173.336H245.324V174.712C245.82 173.592 246.796 173.224 247.644 173.224C247.852 173.224 248.076 173.256 248.188 173.288ZM254.789 179.96C254.421 180.744 253.493 181.224 252.485 181.224C250.629 181.224 249.605 179.848 249.605 178.152V173.336H250.885V177.944C250.885 179.064 251.413 180.072 252.773 180.072C254.037 180.072 254.725 179.176 254.725 177.96V173.336H256.005V179.56C256.005 180.152 256.053 180.696 256.101 181H254.869C254.821 180.824 254.789 180.408 254.789 180.024V179.96ZM257.746 178.584V177.048L262.322 170.632H264.162V177.368H265.97V178.584H264.162V181H262.85V178.584H257.746ZM262.85 177.368V171.928L258.978 177.368H262.85ZM271.844 173.288V174.648C271.636 174.584 271.396 174.568 271.172 174.568C269.892 174.568 269.012 175.304 269.012 177.032V181H267.732V173.336H268.98V174.712C269.476 173.592 270.452 173.224 271.3 173.224C271.508 173.224 271.732 173.256 271.844 173.288ZM276.381 181H275.069V173.432H272.525V172.664C273.965 172.6 274.941 171.752 275.197 170.632H276.381V181Z" fill="#4E4763"/><path d="M36.886 223.224C34.772 223.224 33.078 221.922 33.078 219.486V213.074H35.01V219.346C35.01 220.648 35.738 221.334 36.886 221.334C38.062 221.334 38.776 220.648 38.776 219.346V213.074H40.708V219.486C40.708 221.922 39.014 223.224 36.886 223.224ZM42.1287 221.082L43.7247 220.732C43.7667 221.278 44.1727 221.782 44.9847 221.782C45.6007 221.782 45.8947 221.46 45.8947 221.096C45.8947 220.788 45.6847 220.536 45.1527 220.424L44.2427 220.214C42.9127 219.92 42.3107 219.122 42.3107 218.156C42.3107 216.924 43.4027 215.902 44.8867 215.902C46.8467 215.902 47.5047 217.148 47.5887 217.89L46.0347 218.24C45.9787 217.834 45.6847 217.316 44.9007 217.316C44.4107 217.316 44.0187 217.61 44.0187 218.002C44.0187 218.338 44.2707 218.548 44.6487 218.618L45.6287 218.828C46.9867 219.108 47.6727 219.934 47.6727 220.942C47.6727 222.062 46.8047 223.21 44.9987 223.21C42.9267 223.21 42.2127 221.866 42.1287 221.082ZM50.6505 218.772H53.7305C53.7025 218.086 53.2545 217.414 52.1905 217.414C51.2245 217.414 50.6925 218.142 50.6505 218.772ZM53.9125 220.564L55.4665 221.026C55.1165 222.216 54.0245 223.21 52.3305 223.21C50.4405 223.21 48.7745 221.852 48.7745 219.528C48.7745 217.33 50.3985 215.902 52.1625 215.902C54.2905 215.902 55.5645 217.26 55.5645 219.472C55.5645 219.738 55.5365 220.018 55.5365 220.046H50.6085C50.6505 220.956 51.4205 221.614 52.3445 221.614C53.2125 221.614 53.6885 221.18 53.9125 220.564ZM61.2692 216.084V217.96C61.0592 217.918 60.8772 217.904 60.7092 217.904C59.7572 217.904 58.9312 218.366 58.9312 219.85V223H57.0692V216.112H58.8752V217.134C59.2952 216.224 60.2472 216.056 60.8352 216.056C60.9892 216.056 61.1292 216.07 61.2692 216.084ZM72.6529 214.908H69.5169V223H67.5709V214.908H64.4349V213.074H72.6529V214.908ZM75.437 221.516C76.347 221.516 77.187 220.858 77.187 219.556C77.187 218.254 76.347 217.596 75.437 217.596C74.527 217.596 73.687 218.254 73.687 219.556C73.687 220.844 74.527 221.516 75.437 221.516ZM75.437 215.902C77.495 215.902 79.049 217.428 79.049 219.556C79.049 221.67 77.495 223.21 75.437 223.21C73.379 223.21 71.825 221.67 71.825 219.556C71.825 217.428 73.379 215.902 75.437 215.902ZM87.2081 216.112L84.4501 219.01L87.2641 223H84.9821L83.1621 220.368L82.3921 221.18V223H80.5301V212.864H82.3921V218.674L84.7721 216.112H87.2081ZM89.4103 218.772H92.4903C92.4623 218.086 92.0143 217.414 90.9503 217.414C89.9843 217.414 89.4523 218.142 89.4103 218.772ZM92.6723 220.564L94.2263 221.026C93.8763 222.216 92.7843 223.21 91.0903 223.21C89.2003 223.21 87.5343 221.852 87.5343 219.528C87.5343 217.33 89.1583 215.902 90.9223 215.902C93.0503 215.902 94.3243 217.26 94.3243 219.472C94.3243 219.738 94.2963 220.018 94.2963 220.046H89.3683C89.4103 220.956 90.1803 221.614 91.1043 221.614C91.9723 221.614 92.4483 221.18 92.6723 220.564ZM97.691 219.038V223H95.829V216.112H97.635V216.966C98.055 216.252 98.881 215.93 99.623 215.93C101.331 215.93 102.115 217.148 102.115 218.66V223H100.253V218.982C100.253 218.212 99.875 217.61 98.979 217.61C98.167 217.61 97.691 218.24 97.691 219.038Z" fill="#4E4763"/><path d="M37.088 250.488H35.104V257H33.824V250.488H32.32V249.336H33.824V247.912C33.824 246.232 34.88 245.352 36.24 245.352C36.704 245.352 37.008 245.448 37.12 245.512V246.616C37.008 246.568 36.8 246.504 36.432 246.504C35.808 246.504 35.104 246.84 35.104 247.944V249.336H37.088V250.488ZM39.2828 252.424H43.8588C43.8268 251.208 43.0428 250.248 41.5868 250.248C40.2588 250.248 39.3628 251.288 39.2828 252.424ZM44.0348 254.424L45.1388 254.824C44.7068 256.152 43.5068 257.224 41.7308 257.224C39.6828 257.224 37.9388 255.72 37.9388 253.144C37.9388 250.728 39.6348 249.112 41.5708 249.112C43.8908 249.112 45.1868 250.728 45.1868 253.064C45.1868 253.224 45.1708 253.4 45.1548 253.512H39.2508V253.576C39.2508 255.032 40.3548 256.072 41.7308 256.072C43.0268 256.072 43.7308 255.336 44.0348 254.424ZM50.9005 250.488H48.9165V257H47.6365V250.488H46.1325V249.336H47.6365V247.912C47.6365 246.232 48.6925 245.352 50.0525 245.352C50.5165 245.352 50.8205 245.448 50.9325 245.512V246.616C50.8205 246.568 50.6125 246.504 50.2445 246.504C49.6205 246.504 48.9165 246.84 48.9165 247.944V249.336H50.9005V250.488ZM57.5548 255.96C57.1868 256.744 56.2588 257.224 55.2508 257.224C53.3948 257.224 52.3708 255.848 52.3708 254.152V249.336H53.6508V253.944C53.6508 255.064 54.1788 256.072 55.5388 256.072C56.8028 256.072 57.4908 255.176 57.4908 253.96V249.336H58.7708V255.56C58.7708 256.152 58.8188 256.696 58.8668 257H57.6348C57.5868 256.824 57.5548 256.408 57.5548 256.024V255.96ZM62.0796 252.424H66.6556C66.6236 251.208 65.8396 250.248 64.3836 250.248C63.0556 250.248 62.1596 251.288 62.0796 252.424ZM66.8316 254.424L67.9356 254.824C67.5036 256.152 66.3036 257.224 64.5276 257.224C62.4796 257.224 60.7356 255.72 60.7356 253.144C60.7356 250.728 62.4316 249.112 64.3676 249.112C66.6876 249.112 67.9836 250.728 67.9836 253.064C67.9836 253.224 67.9676 253.4 67.9516 253.512H62.0476V253.576C62.0476 255.032 63.1516 256.072 64.5276 256.072C65.8236 256.072 66.5276 255.336 66.8316 254.424ZM69.9199 257.896V249.336H71.1999V257.944C71.1999 259.336 70.3999 260.264 69.1039 260.264C68.6399 260.264 68.3999 260.2 68.2399 260.136V259.016C68.3679 259.08 68.5599 259.112 68.7839 259.112C69.5999 259.112 69.9199 258.696 69.9199 257.896ZM69.5999 246.312C69.5999 245.784 70.0319 245.352 70.5599 245.352C71.0879 245.352 71.5199 245.784 71.5199 246.312C71.5199 246.84 71.0879 247.272 70.5599 247.272C70.0319 247.272 69.5999 246.84 69.5999 246.312ZM77.5411 250.488H75.5571V257H74.2771V250.488H72.7731V249.336H74.2771V247.912C74.2771 246.232 75.3331 245.352 76.6931 245.352C77.1571 245.352 77.4611 245.448 77.5731 245.512V246.616C77.4611 246.568 77.2531 246.504 76.8851 246.504C76.2611 246.504 75.5571 246.84 75.5571 247.944V249.336H77.5411V250.488ZM80.3874 252.424V257H79.1074V245.432H80.3874V250.36C80.8834 249.56 81.7634 249.112 82.7554 249.112C84.5954 249.112 85.4914 250.424 85.4914 252.088V257H84.2114V252.28C84.2114 251.16 83.6994 250.264 82.3074 250.264C81.0914 250.264 80.3874 251.24 80.3874 252.424ZM91.2006 249.112C93.4086 249.112 95.0406 250.808 95.0406 253.16C95.0406 255.528 93.4086 257.224 91.2006 257.224C88.9926 257.224 87.3606 255.528 87.3606 253.16C87.3606 250.808 88.9926 249.112 91.2006 249.112ZM91.2006 250.264C89.8246 250.264 88.6406 251.304 88.6406 253.16C88.6406 255.032 89.8246 256.072 91.2006 256.072C92.5766 256.072 93.7606 255.032 93.7606 253.16C93.7606 251.304 92.5766 250.264 91.2006 250.264ZM98.2616 249.336V250.424C98.6936 249.624 99.6216 249.112 100.614 249.112C101.67 249.112 102.582 249.672 102.966 250.68C103.51 249.592 104.47 249.112 105.558 249.112C106.95 249.112 108.198 250.072 108.198 251.992V257H106.918V252.136C106.918 251.08 106.358 250.264 105.158 250.264C104.022 250.264 103.254 251.192 103.254 252.344V257H101.974V252.136C101.974 251.08 101.414 250.264 100.198 250.264C99.0456 250.264 98.2936 251.16 98.2936 252.36V257H97.0136V249.336H98.2616ZM109.968 254.984L111.12 254.584C111.232 255.464 111.888 256.136 113.04 256.136C113.952 256.136 114.528 255.624 114.528 254.968C114.528 254.392 114.064 254.008 113.36 253.848L112.112 253.56C110.944 253.288 110.208 252.536 110.208 251.432C110.208 250.152 111.424 249.112 112.88 249.112C114.864 249.112 115.552 250.376 115.728 251.16L114.592 251.576C114.496 251.048 114.096 250.2 112.88 250.2C112.08 250.2 111.456 250.712 111.456 251.352C111.456 251.896 111.792 252.232 112.464 252.392L113.712 252.68C115.056 252.984 115.792 253.768 115.792 254.904C115.792 256.008 114.848 257.224 113.024 257.224C111.008 257.224 110.096 255.944 109.968 254.984ZM119.012 249.336V250.424C119.444 249.624 120.372 249.112 121.364 249.112C122.42 249.112 123.332 249.672 123.716 250.68C124.26 249.592 125.22 249.112 126.308 249.112C127.7 249.112 128.948 250.072 128.948 251.992V257H127.668V252.136C127.668 251.08 127.108 250.264 125.908 250.264C124.772 250.264 124.004 251.192 124.004 252.344V257H122.724V252.136C122.724 251.08 122.164 250.264 120.948 250.264C119.796 250.264 119.044 251.16 119.044 252.36V257H117.764V249.336H119.012ZM130.59 254.584V253.048L135.166 246.632H137.006V253.368H138.814V254.584H137.006V257H135.694V254.584H130.59ZM135.694 253.368V247.928L131.822 253.368H135.694ZM145.664 255.96C145.296 256.744 144.368 257.224 143.36 257.224C141.504 257.224 140.48 255.848 140.48 254.152V249.336H141.76V253.944C141.76 255.064 142.288 256.072 143.648 256.072C144.912 256.072 145.6 255.176 145.6 253.96V249.336H146.88V255.56C146.88 256.152 146.928 256.696 146.976 257H145.744C145.696 256.824 145.664 256.408 145.664 256.024V255.96ZM150.365 250.344L149.053 250.184C149.021 250.04 149.005 249.864 149.005 249.72C149.005 247.944 150.301 246.408 152.525 246.408C154.669 246.408 155.949 247.832 155.949 249.544C155.949 250.904 155.181 251.976 153.997 252.728L151.869 254.088C151.245 254.488 150.669 255.032 150.541 255.784H156.045V257H148.909C148.941 255.4 149.581 254.12 151.245 253.048L153.101 251.848C154.109 251.208 154.605 250.472 154.605 249.56C154.605 248.536 153.869 247.592 152.493 247.592C151.085 247.592 150.317 248.568 150.317 249.848C150.317 250.024 150.333 250.216 150.365 250.344ZM159.419 252.424V257H158.139V245.432H159.419V250.36C159.915 249.56 160.795 249.112 161.787 249.112C163.627 249.112 164.523 250.424 164.523 252.088V257H163.243V252.28C163.243 251.16 162.731 250.264 161.339 250.264C160.123 250.264 159.419 251.24 159.419 252.424ZM171.032 249.288V250.648C170.824 250.584 170.584 250.568 170.36 250.568C169.08 250.568 168.2 251.304 168.2 253.032V257H166.92V249.336H168.168V250.712C168.664 249.592 169.64 249.224 170.488 249.224C170.696 249.224 170.92 249.256 171.032 249.288ZM174.401 246.904V249.336H176.209V250.488H174.401V254.728C174.401 255.528 174.753 255.928 175.569 255.928C175.793 255.928 176.081 255.88 176.209 255.848V256.936C176.065 256.984 175.697 257.08 175.201 257.08C173.937 257.08 173.121 256.296 173.121 254.904V250.488H171.585V249.336H172.081C172.865 249.336 173.201 248.888 173.201 248.168V246.904H174.401ZM179.247 252.488V257H177.967V249.336H179.215V250.488C179.711 249.592 180.607 249.112 181.615 249.112C183.455 249.112 184.351 250.424 184.351 252.088V257H183.071V252.28C183.071 251.16 182.559 250.264 181.167 250.264C179.935 250.264 179.247 251.288 179.247 252.488ZM186.492 256.6L186.94 255.48C187.42 255.784 188.22 256.04 188.924 256.04C191.452 256.04 192.588 254.36 192.652 251.832C192.268 252.712 191.244 253.432 189.804 253.432C188.012 253.432 186.252 252.184 186.252 249.944C186.252 247.848 188.012 246.408 189.996 246.408C192.124 246.408 193.98 247.976 193.98 251.176C193.98 254.84 192.396 257.224 188.924 257.224C188.092 257.224 187.036 256.968 186.492 256.6ZM192.412 249.928C192.412 248.472 191.244 247.56 189.996 247.56C188.748 247.56 187.596 248.472 187.596 249.928C187.596 251.4 188.732 252.28 189.996 252.28C191.26 252.28 192.412 251.384 192.412 249.928ZM195.324 254.584V253.048L199.9 246.632H201.74V253.368H203.548V254.584H201.74V257H200.428V254.584H195.324ZM200.428 253.368V247.928L196.556 253.368H200.428ZM211.875 246.632V247.912C210.515 249.112 207.875 251.768 207.363 257H205.987C206.483 251.304 209.779 248.392 210.371 247.848H204.371V246.632H211.875ZM212.46 257L215.388 253.08L212.588 249.336H214.14L216.14 252.152L218.156 249.336H219.66L216.86 253.08L219.788 257H218.252L216.124 254.04L213.996 257H212.46ZM223.79 252.008L223.134 250.904L226.35 247.848H221.134V246.632H228.11V247.832L224.958 250.808C225.038 250.792 225.166 250.776 225.262 250.776C226.75 250.776 228.35 251.864 228.35 253.912C228.35 255.672 226.974 257.224 224.638 257.224C222.334 257.224 220.91 255.72 220.814 253.992L222.126 253.688C222.19 255.144 223.294 256.04 224.622 256.04C226.094 256.04 227.006 255.112 227.006 253.928C227.006 252.52 225.886 251.864 224.734 251.864C224.398 251.864 224.078 251.912 223.79 252.008ZM235.539 255.96C235.171 256.744 234.243 257.224 233.235 257.224C231.379 257.224 230.355 255.848 230.355 254.152V249.336H231.635V253.944C231.635 255.064 232.163 256.072 233.523 256.072C234.787 256.072 235.475 255.176 235.475 253.96V249.336H236.755V255.56C236.755 256.152 236.803 256.696 236.851 257H235.619C235.571 256.824 235.539 256.408 235.539 256.024V255.96ZM243.36 249.288V250.648C243.152 250.584 242.912 250.568 242.688 250.568C241.408 250.568 240.528 251.304 240.528 253.032V257H239.248V249.336H240.496V250.712C240.992 249.592 241.968 249.224 242.816 249.224C243.024 249.224 243.248 249.256 243.36 249.288ZM246.121 249.336V250.424C246.553 249.624 247.481 249.112 248.473 249.112C249.529 249.112 250.441 249.672 250.825 250.68C251.369 249.592 252.329 249.112 253.417 249.112C254.809 249.112 256.057 250.072 256.057 251.992V257H254.777V252.136C254.777 251.08 254.217 250.264 253.017 250.264C251.881 250.264 251.113 251.192 251.113 252.344V257H249.833V252.136C249.833 251.08 249.273 250.264 248.057 250.264C246.905 250.264 246.153 251.16 246.153 252.36V257H244.873V249.336H246.121ZM262.291 250.488H260.307V257H259.027V250.488H257.523V249.336H259.027V247.912C259.027 246.232 260.083 245.352 261.443 245.352C261.907 245.352 262.211 245.448 262.323 245.512V246.616C262.211 246.568 262.003 246.504 261.635 246.504C261.011 246.504 260.307 246.84 260.307 247.944V249.336H262.291V250.488ZM265.713 246.904V249.336H267.521V250.488H265.713V254.728C265.713 255.528 266.065 255.928 266.881 255.928C267.105 255.928 267.393 255.88 267.521 255.848V256.936C267.377 256.984 267.009 257.08 266.513 257.08C265.249 257.08 264.433 256.296 264.433 254.904V250.488H262.897V249.336H263.393C264.177 249.336 264.513 248.888 264.513 248.168V246.904H265.713ZM270.559 252.488V257H269.279V249.336H270.527V250.488C271.023 249.592 271.919 249.112 272.927 249.112C274.767 249.112 275.663 250.424 275.663 252.088V257H274.383V252.28C274.383 251.16 273.871 250.264 272.479 250.264C271.247 250.264 270.559 251.288 270.559 252.488ZM279.794 260.04H278.37L280.226 256.088L276.93 249.336H278.402L280.93 254.76L283.314 249.336H284.706L279.794 260.04ZM285.465 254.584V253.048L290.041 246.632H291.881V253.368H293.689V254.584H291.881V257H290.569V254.584H285.465ZM290.569 253.368V247.928L286.697 253.368H290.569ZM294.491 257L297.419 253.08L294.619 249.336H296.171L298.171 252.152L300.187 249.336H301.691L298.891 253.08L301.819 257H300.283L298.155 254.04L296.027 257H294.491ZM304.637 252.488V257H303.357V249.336H304.605V250.488C305.101 249.592 305.997 249.112 307.005 249.112C308.845 249.112 309.741 250.424 309.741 252.088V257H308.461V252.28C308.461 251.16 307.949 250.264 306.557 250.264C305.325 250.264 304.637 251.288 304.637 252.488ZM313.872 260.04H312.448L314.304 256.088L311.008 249.336H312.48L315.008 254.76L317.392 249.336H318.784L313.872 260.04ZM324.407 249.288V250.648C324.199 250.584 323.959 250.568 323.735 250.568C322.455 250.568 321.575 251.304 321.575 253.032V257H320.295V249.336H321.543V250.712C322.039 249.592 323.015 249.224 323.863 249.224C324.071 249.224 324.295 249.256 324.407 249.288ZM325.283 257.432L326.515 257.128C326.643 258.248 327.491 259.112 328.739 259.112C330.531 259.112 331.187 258.056 331.187 256.472V255.24C330.835 255.976 330.003 256.664 328.755 256.664C326.723 256.664 325.299 255.048 325.299 252.904C325.299 250.76 326.707 249.112 328.786 249.112C329.987 249.112 330.819 249.672 331.203 250.424V249.336H332.467V256.424C332.467 258.312 331.603 260.264 328.739 260.264C326.851 260.264 325.475 259.048 325.283 257.432ZM331.251 252.888C331.251 251.304 330.307 250.264 328.915 250.264C327.523 250.264 326.579 251.304 326.579 252.888C326.579 254.472 327.523 255.512 328.915 255.512C330.307 255.512 331.251 254.472 331.251 252.888ZM340.055 255.96C339.687 256.744 338.759 257.224 337.751 257.224C335.895 257.224 334.871 255.848 334.871 254.152V249.336H336.151V253.944C336.151 255.064 336.679 256.072 338.039 256.072C339.303 256.072 339.991 255.176 339.991 253.96V249.336H341.271V255.56C341.271 256.152 341.319 256.696 341.367 257H340.135C340.087 256.824 340.055 256.408 340.055 256.024V255.96ZM343.012 254.584V253.048L347.588 246.632H349.428V253.368H351.236V254.584H349.428V257H348.116V254.584H343.012ZM348.116 253.368V247.928L344.244 253.368H348.116ZM354.95 260.04H353.526L355.382 256.088L352.086 249.336H353.558L356.086 254.76L358.47 249.336H359.862L354.95 260.04ZM363.229 246.904V249.336H365.037V250.488H363.229V254.728C363.229 255.528 363.581 255.928 364.397 255.928C364.621 255.928 364.909 255.88 365.037 255.848V256.936C364.893 256.984 364.525 257.08 364.029 257.08C362.765 257.08 361.949 256.296 361.949 254.904V250.488H360.413V249.336H360.909C361.693 249.336 362.029 248.888 362.029 248.168V246.904H363.229ZM368.075 252.488V257H366.795V249.336H368.043V250.488C368.539 249.592 369.435 249.112 370.443 249.112C372.283 249.112 373.179 250.424 373.179 252.088V257H371.899V252.28C371.899 251.16 371.387 250.264 369.995 250.264C368.763 250.264 368.075 251.288 368.075 252.488ZM379.224 256.04C379.992 256.04 380.552 255.752 380.968 255.304C381.656 254.584 381.944 253.384 381.944 251.816C381.944 250.248 381.656 249.048 380.968 248.328C380.552 247.88 379.992 247.592 379.224 247.592C378.456 247.592 377.896 247.88 377.48 248.328C376.792 249.048 376.504 250.248 376.504 251.816C376.504 253.384 376.792 254.584 377.48 255.304C377.896 255.752 378.456 256.04 379.224 256.04ZM379.224 257.224C377.816 257.224 376.808 256.6 376.152 255.64C375.432 254.6 375.192 253.224 375.192 251.816C375.192 250.408 375.432 249.032 376.152 247.992C376.808 247.032 377.816 246.408 379.224 246.408C380.632 246.408 381.64 247.032 382.296 247.992C383.016 249.032 383.256 250.408 383.256 251.816C383.256 253.224 383.016 254.6 382.296 255.64C381.64 256.6 380.632 257.224 379.224 257.224ZM384.413 257L387.341 253.08L384.541 249.336H386.093L388.093 252.152L390.109 249.336H391.613L388.813 253.08L391.741 257H390.205L388.077 254.04L385.949 257H384.413ZM397.391 249.288V250.648C397.183 250.584 396.943 250.568 396.719 250.568C395.439 250.568 394.559 251.304 394.559 253.032V257H393.279V249.336H394.527V250.712C395.023 249.592 395.999 249.224 396.847 249.224C397.055 249.224 397.279 249.256 397.391 249.288ZM400.152 249.336V250.424C400.584 249.624 401.512 249.112 402.504 249.112C403.56 249.112 404.472 249.672 404.856 250.68C405.4 249.592 406.36 249.112 407.448 249.112C408.84 249.112 410.088 250.072 410.088 251.992V257H408.808V252.136C408.808 251.08 408.248 250.264 407.048 250.264C405.912 250.264 405.144 251.192 405.144 252.344V257H403.864V252.136C403.864 251.08 403.304 250.264 402.088 250.264C400.936 250.264 400.184 251.16 400.184 252.36V257H398.904V249.336H400.152ZM414.216 260.04H412.792L414.648 256.088L411.352 249.336H412.824L415.352 254.76L417.736 249.336H419.128L414.216 260.04ZM35.104 270.904V273.336H36.912V274.488H35.104V278.728C35.104 279.528 35.456 279.928 36.272 279.928C36.496 279.928 36.784 279.88 36.912 279.848V280.936C36.768 280.984 36.4 281.08 35.904 281.08C34.64 281.08 33.824 280.296 33.824 278.904V274.488H32.288V273.336H32.784C33.568 273.336 33.904 272.888 33.904 272.168V270.904H35.104ZM45.4219 270.632V271.912C44.0619 273.112 41.4219 275.768 40.9099 281H39.5339C40.0299 275.304 43.3259 272.392 43.9179 271.848H37.9179V270.632H45.4219ZM45.4023 278.584V277.048L49.9783 270.632H51.8183V277.368H53.6263V278.584H51.8183V281H50.5063V278.584H45.4023ZM50.5063 277.368V271.928L46.6343 277.368H50.5063ZM56.6686 281H55.3886V273.336H56.6686V281ZM55.0686 270.312C55.0686 269.784 55.5006 269.352 56.0286 269.352C56.5566 269.352 56.9886 269.784 56.9886 270.312C56.9886 270.84 56.5566 271.272 56.0286 271.272C55.5006 271.272 55.0686 270.84 55.0686 270.312ZM61.6339 276.008L60.9779 274.904L64.1939 271.848H58.9779V270.632H65.9539V271.832L62.8019 274.808C62.8819 274.792 63.0099 274.776 63.1059 274.776C64.5939 274.776 66.1939 275.864 66.1939 277.912C66.1939 279.672 64.8179 281.224 62.4819 281.224C60.1779 281.224 58.7539 279.72 58.6579 277.992L59.9699 277.688C60.0339 279.144 61.1379 280.04 62.4659 280.04C63.9379 280.04 64.8499 279.112 64.8499 277.928C64.8499 276.52 63.7299 275.864 62.5779 275.864C62.2419 275.864 61.9219 275.912 61.6339 276.008ZM73.3829 279.96C73.0149 280.744 72.0869 281.224 71.0789 281.224C69.2229 281.224 68.1989 279.848 68.1989 278.152V273.336H69.4789V277.944C69.4789 279.064 70.0069 280.072 71.3669 280.072C72.6309 280.072 73.3189 279.176 73.3189 277.96V273.336H74.5989V279.56C74.5989 280.152 74.6469 280.696 74.6949 281H73.4629C73.4149 280.824 73.3829 280.408 73.3829 280.024V279.96ZM78.0838 274.344L76.7718 274.184C76.7398 274.04 76.7238 273.864 76.7238 273.72C76.7238 271.944 78.0198 270.408 80.2438 270.408C82.3878 270.408 83.6678 271.832 83.6678 273.544C83.6678 274.904 82.8998 275.976 81.7158 276.728L79.5878 278.088C78.9638 278.488 78.3878 279.032 78.2598 279.784H83.7638V281H76.6278C76.6598 279.4 77.2998 278.12 78.9638 277.048L80.8198 275.848C81.8278 275.208 82.3238 274.472 82.3238 273.56C82.3238 272.536 81.5878 271.592 80.2118 271.592C78.8038 271.592 78.0358 272.568 78.0358 273.848C78.0358 274.024 78.0518 274.216 78.0838 274.344ZM89.1534 275.128C90.3694 275.128 91.2654 274.392 91.2654 273.32C91.2654 272.296 90.4334 271.528 89.1534 271.528C87.8574 271.528 87.0414 272.296 87.0414 273.32C87.0414 274.392 87.9214 275.128 89.1534 275.128ZM89.1534 280.072C90.6414 280.072 91.5054 279.224 91.5054 278.168C91.5054 277.112 90.6414 276.248 89.1534 276.248C87.6494 276.248 86.8014 277.112 86.8014 278.168C86.8014 279.224 87.6494 280.072 89.1534 280.072ZM89.1534 281.224C86.8174 281.224 85.4574 279.912 85.4574 278.28C85.4574 277 86.3374 276.056 87.4894 275.688C86.4974 275.352 85.7134 274.408 85.7134 273.24C85.7134 271.592 87.1694 270.408 89.1534 270.408C91.1374 270.408 92.5934 271.592 92.5934 273.24C92.5934 274.392 91.8094 275.352 90.8014 275.688C91.9534 276.04 92.8494 277 92.8494 278.28C92.8494 279.912 91.4894 281.224 89.1534 281.224ZM96.9031 284.04H95.4791L97.3351 280.088L94.0391 273.336H95.5111L98.0391 278.76L100.423 273.336H101.815L96.9031 284.04ZM107.438 273.288V274.648C107.23 274.584 106.99 274.568 106.766 274.568C105.486 274.568 104.606 275.304 104.606 277.032V281H103.326V273.336H104.574V274.712C105.07 273.592 106.046 273.224 106.894 273.224C107.102 273.224 107.326 273.256 107.438 273.288ZM110.231 276.424V281H108.951V269.432H110.231V274.36C110.727 273.56 111.607 273.112 112.599 273.112C114.439 273.112 115.335 274.424 115.335 276.088V281H114.055V276.28C114.055 275.16 113.543 274.264 112.151 274.264C110.935 274.264 110.231 275.24 110.231 276.424ZM120.196 276.008L119.54 274.904L122.756 271.848H117.54V270.632H124.516V271.832L121.364 274.808C121.444 274.792 121.572 274.776 121.668 274.776C123.156 274.776 124.756 275.864 124.756 277.912C124.756 279.672 123.38 281.224 121.044 281.224C118.74 281.224 117.316 279.72 117.22 277.992L118.532 277.688C118.596 279.144 119.7 280.04 121.028 280.04C122.5 280.04 123.412 279.112 123.412 277.928C123.412 276.52 122.292 275.864 121.14 275.864C120.804 275.864 120.484 275.912 120.196 276.008ZM126.601 280.6L127.049 279.48C127.529 279.784 128.329 280.04 129.033 280.04C131.561 280.04 132.697 278.36 132.761 275.832C132.377 276.712 131.353 277.432 129.913 277.432C128.121 277.432 126.361 276.184 126.361 273.944C126.361 271.848 128.121 270.408 130.105 270.408C132.233 270.408 134.089 271.976 134.089 275.176C134.089 278.84 132.505 281.224 129.033 281.224C128.201 281.224 127.145 280.968 126.601 280.6ZM132.521 273.928C132.521 272.472 131.353 271.56 130.105 271.56C128.857 271.56 127.705 272.472 127.705 273.928C127.705 275.4 128.841 276.28 130.105 276.28C131.369 276.28 132.521 275.384 132.521 273.928ZM139.482 275.128C140.698 275.128 141.594 274.392 141.594 273.32C141.594 272.296 140.762 271.528 139.482 271.528C138.186 271.528 137.37 272.296 137.37 273.32C137.37 274.392 138.25 275.128 139.482 275.128ZM139.482 280.072C140.97 280.072 141.834 279.224 141.834 278.168C141.834 277.112 140.97 276.248 139.482 276.248C137.978 276.248 137.13 277.112 137.13 278.168C137.13 279.224 137.978 280.072 139.482 280.072ZM139.482 281.224C137.146 281.224 135.786 279.912 135.786 278.28C135.786 277 136.666 276.056 137.818 275.688C136.826 275.352 136.042 274.408 136.042 273.24C136.042 271.592 137.498 270.408 139.482 270.408C141.466 270.408 142.922 271.592 142.922 273.24C142.922 274.392 142.138 275.352 141.13 275.688C142.282 276.04 143.178 277 143.178 278.28C143.178 279.912 141.818 281.224 139.482 281.224ZM146.271 274.344L144.959 274.184C144.927 274.04 144.911 273.864 144.911 273.72C144.911 271.944 146.207 270.408 148.431 270.408C150.575 270.408 151.855 271.832 151.855 273.544C151.855 274.904 151.087 275.976 149.903 276.728L147.775 278.088C147.151 278.488 146.575 279.032 146.447 279.784H151.951V281H144.815C144.847 279.4 145.487 278.12 147.151 277.048L149.007 275.848C150.015 275.208 150.511 274.472 150.511 273.56C150.511 272.536 149.775 271.592 148.399 271.592C146.991 271.592 146.223 272.568 146.223 273.848C146.223 274.024 146.239 274.216 146.271 274.344ZM159.133 279.96C158.765 280.744 157.837 281.224 156.829 281.224C154.973 281.224 153.949 279.848 153.949 278.152V273.336H155.229V277.944C155.229 279.064 155.757 280.072 157.117 280.072C158.381 280.072 159.069 279.176 159.069 277.96V273.336H160.349V279.56C160.349 280.152 160.397 280.696 160.445 281H159.213C159.165 280.824 159.133 280.408 159.133 280.024V279.96ZM166.954 273.288V274.648C166.746 274.584 166.506 274.568 166.282 274.568C165.002 274.568 164.122 275.304 164.122 277.032V281H162.842V273.336H164.09V274.712C164.586 273.592 165.562 273.224 166.41 273.224C166.618 273.224 166.842 273.256 166.954 273.288ZM170.419 284.04H168.995L170.851 280.088L167.555 273.336H169.027L171.555 278.76L173.939 273.336H175.331L170.419 284.04ZM178.122 276.424V281H176.842V269.432H178.122V274.36C178.618 273.56 179.498 273.112 180.49 273.112C182.33 273.112 183.226 274.424 183.226 276.088V281H181.946V276.28C181.946 275.16 181.434 274.264 180.042 274.264C178.826 274.264 178.122 275.24 178.122 276.424ZM191.175 279.896V279.688C190.823 280.44 189.991 281.224 188.663 281.224C186.455 281.224 185.111 279.432 185.111 277.16C185.111 274.936 186.519 273.112 188.663 273.112C190.135 273.112 190.887 273.928 191.143 274.568V269.432H192.423V279.56C192.423 280.328 192.471 280.84 192.503 281H191.255C191.223 280.824 191.175 280.392 191.175 279.896ZM188.775 280.072C190.215 280.072 191.175 278.856 191.175 277.16C191.175 275.464 190.231 274.264 188.775 274.264C187.319 274.264 186.391 275.464 186.391 277.16C186.391 278.856 187.335 280.072 188.775 280.072ZM194.664 280.6L195.112 279.48C195.592 279.784 196.392 280.04 197.096 280.04C199.624 280.04 200.76 278.36 200.824 275.832C200.44 276.712 199.416 277.432 197.976 277.432C196.184 277.432 194.424 276.184 194.424 273.944C194.424 271.848 196.184 270.408 198.168 270.408C200.296 270.408 202.152 271.976 202.152 275.176C202.152 278.84 200.568 281.224 197.096 281.224C196.264 281.224 195.208 280.968 194.664 280.6ZM200.584 273.928C200.584 272.472 199.416 271.56 198.168 271.56C196.92 271.56 195.768 272.472 195.768 273.928C195.768 275.4 196.904 276.28 198.168 276.28C199.432 276.28 200.584 275.384 200.584 273.928ZM207.544 275.128C208.76 275.128 209.656 274.392 209.656 273.32C209.656 272.296 208.824 271.528 207.544 271.528C206.248 271.528 205.432 272.296 205.432 273.32C205.432 274.392 206.312 275.128 207.544 275.128ZM207.544 280.072C209.032 280.072 209.896 279.224 209.896 278.168C209.896 277.112 209.032 276.248 207.544 276.248C206.04 276.248 205.192 277.112 205.192 278.168C205.192 279.224 206.04 280.072 207.544 280.072ZM207.544 281.224C205.208 281.224 203.848 279.912 203.848 278.28C203.848 277 204.728 276.056 205.88 275.688C204.888 275.352 204.104 274.408 204.104 273.24C204.104 271.592 205.56 270.408 207.544 270.408C209.528 270.408 210.984 271.592 210.984 273.24C210.984 274.392 210.2 275.352 209.192 275.688C210.344 276.04 211.24 277 211.24 278.28C211.24 279.912 209.88 281.224 207.544 281.224ZM215.806 276.008L215.15 274.904L218.366 271.848H213.15V270.632H220.126V271.832L216.974 274.808C217.054 274.792 217.182 274.776 217.278 274.776C218.766 274.776 220.366 275.864 220.366 277.912C220.366 279.672 218.99 281.224 216.654 281.224C214.35 281.224 212.926 279.72 212.83 277.992L214.142 277.688C214.206 279.144 215.31 280.04 216.638 280.04C218.11 280.04 219.022 279.112 219.022 277.928C219.022 276.52 217.902 275.864 216.75 275.864C216.414 275.864 216.094 275.912 215.806 276.008ZM226.579 273.288V274.648C226.371 274.584 226.131 274.568 225.907 274.568C224.627 274.568 223.747 275.304 223.747 277.032V281H222.467V273.336H223.715V274.712C224.211 273.592 225.187 273.224 226.035 273.224C226.243 273.224 226.467 273.256 226.579 273.288ZM231.388 275.128C232.604 275.128 233.5 274.392 233.5 273.32C233.5 272.296 232.668 271.528 231.388 271.528C230.092 271.528 229.276 272.296 229.276 273.32C229.276 274.392 230.156 275.128 231.388 275.128ZM231.388 280.072C232.876 280.072 233.74 279.224 233.74 278.168C233.74 277.112 232.876 276.248 231.388 276.248C229.884 276.248 229.036 277.112 229.036 278.168C229.036 279.224 229.884 280.072 231.388 280.072ZM231.388 281.224C229.052 281.224 227.692 279.912 227.692 278.28C227.692 277 228.572 276.056 229.724 275.688C228.732 275.352 227.948 274.408 227.948 273.24C227.948 271.592 229.404 270.408 231.388 270.408C233.372 270.408 234.828 271.592 234.828 273.24C234.828 274.392 234.044 275.352 233.036 275.688C234.188 276.04 235.084 277 235.084 278.28C235.084 279.912 233.724 281.224 231.388 281.224ZM237.186 281.896V273.336H238.466V281.944C238.466 283.336 237.666 284.264 236.37 284.264C235.905 284.264 235.665 284.2 235.505 284.136V283.016C235.633 283.08 235.825 283.112 236.05 283.112C236.866 283.112 237.186 282.696 237.186 281.896ZM236.866 270.312C236.866 269.784 237.298 269.352 237.826 269.352C238.354 269.352 238.786 269.784 238.786 270.312C238.786 270.84 238.354 271.272 237.826 271.272C237.298 271.272 236.866 270.84 236.866 270.312ZM240.711 280.6L241.159 279.48C241.639 279.784 242.439 280.04 243.143 280.04C245.671 280.04 246.807 278.36 246.871 275.832C246.487 276.712 245.463 277.432 244.023 277.432C242.231 277.432 240.471 276.184 240.471 273.944C240.471 271.848 242.231 270.408 244.215 270.408C246.343 270.408 248.199 271.976 248.199 275.176C248.199 278.84 246.615 281.224 243.143 281.224C242.311 281.224 241.255 280.968 240.711 280.6ZM246.631 273.928C246.631 272.472 245.463 271.56 244.215 271.56C242.967 271.56 241.815 272.472 241.815 273.928C241.815 275.4 242.951 276.28 244.215 276.28C245.479 276.28 246.631 275.384 246.631 273.928ZM249.671 278.984L250.823 278.584C250.935 279.464 251.591 280.136 252.743 280.136C253.655 280.136 254.231 279.624 254.231 278.968C254.231 278.392 253.767 278.008 253.063 277.848L251.815 277.56C250.647 277.288 249.911 276.536 249.911 275.432C249.911 274.152 251.127 273.112 252.583 273.112C254.567 273.112 255.255 274.376 255.431 275.16L254.295 275.576C254.199 275.048 253.799 274.2 252.583 274.2C251.783 274.2 251.159 274.712 251.159 275.352C251.159 275.896 251.495 276.232 252.167 276.392L253.415 276.68C254.759 276.984 255.495 277.768 255.495 278.904C255.495 280.008 254.551 281.224 252.727 281.224C250.711 281.224 249.799 279.944 249.671 278.984ZM261.579 273.288V274.648C261.371 274.584 261.131 274.568 260.907 274.568C259.627 274.568 258.747 275.304 258.747 277.032V281H257.467V273.336H258.715V274.712C259.211 273.592 260.187 273.224 261.035 273.224C261.243 273.224 261.467 273.256 261.579 273.288ZM262.454 281.432L263.686 281.128C263.814 282.248 264.662 283.112 265.91 283.112C267.702 283.112 268.358 282.056 268.358 280.472V279.24C268.006 279.976 267.174 280.664 265.926 280.664C263.894 280.664 262.47 279.048 262.47 276.904C262.47 274.76 263.878 273.112 265.958 273.112C267.158 273.112 267.99 273.672 268.374 274.424V273.336H269.638V280.424C269.638 282.312 268.774 284.264 265.91 284.264C264.022 284.264 262.646 283.048 262.454 281.432ZM268.422 276.888C268.422 275.304 267.478 274.264 266.086 274.264C264.694 274.264 263.75 275.304 263.75 276.888C263.75 278.472 264.694 279.512 266.086 279.512C267.478 279.512 268.422 278.472 268.422 276.888ZM273.419 276.424V281H272.139V269.432H273.419V274.36C273.915 273.56 274.795 273.112 275.787 273.112C277.627 273.112 278.523 274.424 278.523 276.088V281H277.243V276.28C277.243 275.16 276.731 274.264 275.339 274.264C274.123 274.264 273.419 275.24 273.419 276.424ZM284.216 275.128C285.432 275.128 286.328 274.392 286.328 273.32C286.328 272.296 285.496 271.528 284.216 271.528C282.92 271.528 282.104 272.296 282.104 273.32C282.104 274.392 282.984 275.128 284.216 275.128ZM284.216 280.072C285.704 280.072 286.568 279.224 286.568 278.168C286.568 277.112 285.704 276.248 284.216 276.248C282.712 276.248 281.864 277.112 281.864 278.168C281.864 279.224 282.712 280.072 284.216 280.072ZM284.216 281.224C281.88 281.224 280.52 279.912 280.52 278.28C280.52 277 281.4 276.056 282.552 275.688C281.56 275.352 280.776 274.408 280.776 273.24C280.776 271.592 282.232 270.408 284.216 270.408C286.2 270.408 287.656 271.592 287.656 273.24C287.656 274.392 286.872 275.352 285.864 275.688C287.016 276.04 287.912 277 287.912 278.28C287.912 279.912 286.552 281.224 284.216 281.224ZM289.262 278.584V277.048L293.838 270.632H295.678V277.368H297.486V278.584H295.678V281H294.366V278.584H289.262ZM294.366 277.368V271.928L290.494 277.368H294.366ZM300.24 274.344L298.928 274.184C298.896 274.04 298.88 273.864 298.88 273.72C298.88 271.944 300.176 270.408 302.4 270.408C304.544 270.408 305.824 271.832 305.824 273.544C305.824 274.904 305.056 275.976 303.872 276.728L301.744 278.088C301.12 278.488 300.544 279.032 300.416 279.784H305.92V281H298.784C298.816 279.4 299.456 278.12 301.12 277.048L302.976 275.848C303.984 275.208 304.48 274.472 304.48 273.56C304.48 272.536 303.744 271.592 302.368 271.592C300.96 271.592 300.192 272.568 300.192 273.848C300.192 274.024 300.208 274.216 300.24 274.344ZM309.294 281H308.014V273.336H309.294V281ZM307.694 270.312C307.694 269.784 308.126 269.352 308.654 269.352C309.182 269.352 309.614 269.784 309.614 270.312C309.614 270.84 309.182 271.272 308.654 271.272C308.126 271.272 307.694 270.84 307.694 270.312ZM313.043 281H311.795V269.432H313.075V274.584C313.427 273.864 314.323 273.112 315.699 273.112C317.971 273.112 319.187 274.92 319.187 277.16C319.187 279.448 317.891 281.224 315.667 281.224C314.387 281.224 313.491 280.568 313.043 279.736V281ZM315.475 280.072C316.947 280.072 317.907 278.856 317.907 277.16C317.907 275.464 316.963 274.264 315.475 274.264C313.987 274.264 313.043 275.464 313.043 277.16C313.043 278.856 314.003 280.072 315.475 280.072ZM325.282 273.288V274.648C325.074 274.584 324.834 274.568 324.61 274.568C323.33 274.568 322.45 275.304 322.45 277.032V281H321.17V273.336H322.418V274.712C322.914 273.592 323.89 273.224 324.738 273.224C324.946 273.224 325.17 273.256 325.282 273.288ZM326.171 278.984L327.323 278.584C327.435 279.464 328.091 280.136 329.243 280.136C330.155 280.136 330.731 279.624 330.731 278.968C330.731 278.392 330.267 278.008 329.563 277.848L328.315 277.56C327.147 277.288 326.411 276.536 326.411 275.432C326.411 274.152 327.627 273.112 329.083 273.112C331.067 273.112 331.755 274.376 331.931 275.16L330.795 275.576C330.699 275.048 330.299 274.2 329.083 274.2C328.283 274.2 327.659 274.712 327.659 275.352C327.659 275.896 327.995 276.232 328.667 276.392L329.915 276.68C331.259 276.984 331.995 277.768 331.995 278.904C331.995 280.008 331.051 281.224 329.227 281.224C327.211 281.224 326.299 279.944 326.171 278.984ZM335.247 276.424V281H333.967V269.432H335.247V274.36C335.743 273.56 336.623 273.112 337.615 273.112C339.455 273.112 340.351 274.424 340.351 276.088V281H339.071V276.28C339.071 275.16 338.559 274.264 337.167 274.264C335.951 274.264 335.247 275.24 335.247 276.424ZM344.481 284.04H343.057L344.913 280.088L341.617 273.336H343.089L345.617 278.76L348.001 273.336H349.393L344.481 284.04ZM350.173 281.432L351.405 281.128C351.533 282.248 352.381 283.112 353.629 283.112C355.421 283.112 356.077 282.056 356.077 280.472V279.24C355.725 279.976 354.893 280.664 353.645 280.664C351.613 280.664 350.189 279.048 350.189 276.904C350.189 274.76 351.597 273.112 353.677 273.112C354.877 273.112 355.709 273.672 356.093 274.424V273.336H357.357V280.424C357.357 282.312 356.493 284.264 353.629 284.264C351.741 284.264 350.365 283.048 350.173 281.432ZM356.141 276.888C356.141 275.304 355.197 274.264 353.805 274.264C352.413 274.264 351.469 275.304 351.469 276.888C351.469 278.472 352.413 279.512 353.805 279.512C355.197 279.512 356.141 278.472 356.141 276.888ZM359.105 278.584V277.048L363.681 270.632H365.521V277.368H367.329V278.584H365.521V281H364.209V278.584H359.105ZM364.209 277.368V271.928L360.337 277.368H364.209ZM372.388 275.128C373.604 275.128 374.5 274.392 374.5 273.32C374.5 272.296 373.668 271.528 372.388 271.528C371.092 271.528 370.276 272.296 370.276 273.32C370.276 274.392 371.156 275.128 372.388 275.128ZM372.388 280.072C373.876 280.072 374.74 279.224 374.74 278.168C374.74 277.112 373.876 276.248 372.388 276.248C370.884 276.248 370.036 277.112 370.036 278.168C370.036 279.224 370.884 280.072 372.388 280.072ZM372.388 281.224C370.052 281.224 368.692 279.912 368.692 278.28C368.692 277 369.572 276.056 370.724 275.688C369.732 275.352 368.948 274.408 368.948 273.24C368.948 271.592 370.404 270.408 372.388 270.408C374.372 270.408 375.828 271.592 375.828 273.24C375.828 274.392 375.044 275.352 374.036 275.688C375.188 276.04 376.084 277 376.084 278.28C376.084 279.912 374.724 281.224 372.388 281.224ZM380.65 276.008L379.994 274.904L383.21 271.848H377.993V270.632H384.97V271.832L381.818 274.808C381.898 274.792 382.026 274.776 382.122 274.776C383.61 274.776 385.21 275.864 385.21 277.912C385.21 279.672 383.834 281.224 381.498 281.224C379.194 281.224 377.77 279.72 377.674 277.992L378.986 277.688C379.049 279.144 380.154 280.04 381.482 280.04C382.954 280.04 383.866 279.112 383.866 277.928C383.866 276.52 382.746 275.864 381.594 275.864C381.258 275.864 380.938 275.912 380.65 276.008ZM390.335 281H389.023V273.432H386.479V272.664C387.919 272.6 388.895 271.752 389.151 270.632H390.335V281ZM392.779 281.896V273.336H394.059V281.944C394.059 283.336 393.259 284.264 391.963 284.264C391.499 284.264 391.259 284.2 391.099 284.136V283.016C391.227 283.08 391.419 283.112 391.643 283.112C392.459 283.112 392.779 282.696 392.779 281.896ZM392.459 270.312C392.459 269.784 392.891 269.352 393.419 269.352C393.947 269.352 394.379 269.784 394.379 270.312C394.379 270.84 393.947 271.272 393.419 271.272C392.891 271.272 392.459 270.84 392.459 270.312ZM396.305 280.6L396.753 279.48C397.233 279.784 398.033 280.04 398.737 280.04C401.265 280.04 402.401 278.36 402.465 275.832C402.081 276.712 401.057 277.432 399.617 277.432C397.825 277.432 396.065 276.184 396.065 273.944C396.065 271.848 397.825 270.408 399.809 270.408C401.937 270.408 403.793 271.976 403.793 275.176C403.793 278.84 402.209 281.224 398.737 281.224C397.905 281.224 396.849 280.968 396.305 280.6ZM402.225 273.928C402.225 272.472 401.057 271.56 399.809 271.56C398.561 271.56 397.409 272.472 397.409 273.928C397.409 275.4 398.545 276.28 399.809 276.28C401.073 276.28 402.225 275.384 402.225 273.928ZM407.841 284.04H406.417L408.273 280.088L404.977 273.336H406.449L408.977 278.76L411.361 273.336H412.753L407.841 284.04ZM32.72 305.432L33.952 305.128C34.08 306.248 34.928 307.112 36.176 307.112C37.968 307.112 38.624 306.056 38.624 304.472V303.24C38.272 303.976 37.44 304.664 36.192 304.664C34.16 304.664 32.736 303.048 32.736 300.904C32.736 298.76 34.144 297.112 36.224 297.112C37.424 297.112 38.256 297.672 38.64 298.424V297.336H39.904V304.424C39.904 306.312 39.04 308.264 36.176 308.264C34.288 308.264 32.912 307.048 32.72 305.432ZM38.688 300.888C38.688 299.304 37.744 298.264 36.352 298.264C34.96 298.264 34.016 299.304 34.016 300.888C34.016 302.472 34.96 303.512 36.352 303.512C37.744 303.512 38.688 302.472 38.688 300.888ZM43.3963 298.344L42.0843 298.184C42.0523 298.04 42.0363 297.864 42.0363 297.72C42.0363 295.944 43.3323 294.408 45.5563 294.408C47.7003 294.408 48.9803 295.832 48.9803 297.544C48.9803 298.904 48.2123 299.976 47.0283 300.728L44.9003 302.088C44.2763 302.488 43.7003 303.032 43.5723 303.784H49.0763V305H41.9403C41.9723 303.4 42.6123 302.12 44.2763 301.048L46.1323 299.848C47.1403 299.208 47.6363 298.472 47.6363 297.56C47.6363 296.536 46.9003 295.592 45.5243 295.592C44.1163 295.592 43.3483 296.568 43.3483 297.848C43.3483 298.024 43.3643 298.216 43.3963 298.344ZM50.9139 304.6L51.3619 303.48C51.8419 303.784 52.6419 304.04 53.3459 304.04C55.8739 304.04 57.0099 302.36 57.0739 299.832C56.6899 300.712 55.6659 301.432 54.2259 301.432C52.4339 301.432 50.6739 300.184 50.6739 297.944C50.6739 295.848 52.4339 294.408 54.4179 294.408C56.5459 294.408 58.4019 295.976 58.4019 299.176C58.4019 302.84 56.8179 305.224 53.3459 305.224C52.5139 305.224 51.4579 304.968 50.9139 304.6ZM56.8339 297.928C56.8339 296.472 55.6659 295.56 54.4179 295.56C53.1699 295.56 52.0179 296.472 52.0179 297.928C52.0179 299.4 53.1539 300.28 54.4179 300.28C55.6819 300.28 56.8339 299.384 56.8339 297.928ZM63.522 305H62.21V297.432H59.666V296.664C61.106 296.6 62.082 295.752 62.338 294.632H63.522V305ZM69.2628 299.128C70.4788 299.128 71.3748 298.392 71.3748 297.32C71.3748 296.296 70.5428 295.528 69.2628 295.528C67.9668 295.528 67.1508 296.296 67.1508 297.32C67.1508 298.392 68.0308 299.128 69.2628 299.128ZM69.2628 304.072C70.7508 304.072 71.6148 303.224 71.6148 302.168C71.6148 301.112 70.7508 300.248 69.2628 300.248C67.7588 300.248 66.9108 301.112 66.9108 302.168C66.9108 303.224 67.7588 304.072 69.2628 304.072ZM69.2628 305.224C66.9268 305.224 65.5668 303.912 65.5668 302.28C65.5668 301 66.4468 300.056 67.5988 299.688C66.6068 299.352 65.8228 298.408 65.8228 297.24C65.8228 295.592 67.2788 294.408 69.2628 294.408C71.2468 294.408 72.7028 295.592 72.7028 297.24C72.7028 298.392 71.9188 299.352 70.9108 299.688C72.0628 300.04 72.9588 301 72.9588 302.28C72.9588 303.912 71.5988 305.224 69.2628 305.224ZM78.7085 304.04C79.4765 304.04 80.0365 303.752 80.4525 303.304C81.1405 302.584 81.4285 301.384 81.4285 299.816C81.4285 298.248 81.1405 297.048 80.4525 296.328C80.0365 295.88 79.4765 295.592 78.7085 295.592C77.9405 295.592 77.3805 295.88 76.9645 296.328C76.2765 297.048 75.9885 298.248 75.9885 299.816C75.9885 301.384 76.2765 302.584 76.9645 303.304C77.3805 303.752 77.9405 304.04 78.7085 304.04ZM78.7085 305.224C77.3005 305.224 76.2925 304.6 75.6365 303.64C74.9165 302.6 74.6765 301.224 74.6765 299.816C74.6765 298.408 74.9165 297.032 75.6365 295.992C76.2925 295.032 77.3005 294.408 78.7085 294.408C80.1165 294.408 81.1245 295.032 81.7805 295.992C82.5005 297.032 82.7405 298.408 82.7405 299.816C82.7405 301.224 82.5005 302.6 81.7805 303.64C81.1245 304.6 80.1165 305.224 78.7085 305.224ZM87.3214 300.008L86.6654 298.904L89.8814 295.848H84.6654V294.632H91.6414V295.832L88.4894 298.808C88.5694 298.792 88.6974 298.776 88.7934 298.776C90.2814 298.776 91.8814 299.864 91.8814 301.912C91.8814 303.672 90.5054 305.224 88.1694 305.224C85.8654 305.224 84.4414 303.72 84.3454 301.992L85.6574 301.688C85.7214 303.144 86.8254 304.04 88.1534 304.04C89.6254 304.04 90.5374 303.112 90.5374 301.928C90.5374 300.52 89.4174 299.864 88.2654 299.864C87.9294 299.864 87.6094 299.912 87.3214 300.008ZM98.0944 297.288V298.648C97.8864 298.584 97.6464 298.568 97.4224 298.568C96.1424 298.568 95.2624 299.304 95.2624 301.032V305H93.9824V297.336H95.2304V298.712C95.7264 297.592 96.7024 297.224 97.5504 297.224C97.7584 297.224 97.9824 297.256 98.0944 297.288ZM105.207 305H99.0794V303.88L103.543 298.488H99.1274V297.336H105.127V298.456L100.663 303.848H105.207V305ZM109.106 308.04H107.682L109.538 304.088L106.242 297.336H107.714L110.242 302.76L112.626 297.336H114.018L109.106 308.04ZM116.809 300.488V305H115.529V297.336H116.777V298.488C117.273 297.592 118.169 297.112 119.177 297.112C121.017 297.112 121.913 298.424 121.913 300.088V305H120.633V300.28C120.633 299.16 120.121 298.264 118.729 298.264C117.497 298.264 116.809 299.288 116.809 300.488ZM125.591 300.424V305H124.311V293.432H125.591V298.36C126.087 297.56 126.967 297.112 127.959 297.112C129.799 297.112 130.695 298.424 130.695 300.088V305H129.415V300.28C129.415 299.16 128.903 298.264 127.511 298.264C126.295 298.264 125.591 299.24 125.591 300.424ZM138.692 305H132.564V303.88L137.028 298.488H132.612V297.336H138.612V298.456L134.148 303.848H138.692V305ZM142.495 294.904V297.336H144.303V298.488H142.495V302.728C142.495 303.528 142.847 303.928 143.663 303.928C143.887 303.928 144.175 303.88 144.303 303.848V304.936C144.159 304.984 143.791 305.08 143.295 305.08C142.031 305.08 141.215 304.296 141.215 302.904V298.488H139.679V297.336H140.175C140.959 297.336 141.295 296.888 141.295 296.168V294.904H142.495ZM147.053 298.344L145.741 298.184C145.709 298.04 145.693 297.864 145.693 297.72C145.693 295.944 146.989 294.408 149.213 294.408C151.357 294.408 152.637 295.832 152.637 297.544C152.637 298.904 151.869 299.976 150.685 300.728L148.557 302.088C147.933 302.488 147.357 303.032 147.229 303.784H152.733V305H145.597C145.629 303.4 146.269 302.12 147.933 301.048L149.789 299.848C150.797 299.208 151.293 298.472 151.293 297.56C151.293 296.536 150.557 295.592 149.181 295.592C147.773 295.592 147.005 296.568 147.005 297.848C147.005 298.024 147.021 298.216 147.053 298.344ZM154.074 302.584V301.048L158.65 294.632H160.49V301.368H162.298V302.584H160.49V305H159.178V302.584H154.074ZM159.178 301.368V295.928L155.306 301.368H159.178ZM169.661 305H163.533V303.88L167.997 298.488H163.581V297.336H169.581V298.456L165.117 303.848H169.661V305ZM174.903 299.128C176.119 299.128 177.015 298.392 177.015 297.32C177.015 296.296 176.183 295.528 174.903 295.528C173.607 295.528 172.791 296.296 172.791 297.32C172.791 298.392 173.671 299.128 174.903 299.128ZM174.903 304.072C176.391 304.072 177.255 303.224 177.255 302.168C177.255 301.112 176.391 300.248 174.903 300.248C173.399 300.248 172.551 301.112 172.551 302.168C172.551 303.224 173.399 304.072 174.903 304.072ZM174.903 305.224C172.567 305.224 171.207 303.912 171.207 302.28C171.207 301 172.087 300.056 173.239 299.688C172.247 299.352 171.463 298.408 171.463 297.24C171.463 295.592 172.919 294.408 174.903 294.408C176.887 294.408 178.343 295.592 178.343 297.24C178.343 298.392 177.559 299.352 176.551 299.688C177.703 300.04 178.599 301 178.599 302.28C178.599 303.912 177.239 305.224 174.903 305.224ZM181.693 298.344L180.381 298.184C180.349 298.04 180.333 297.864 180.333 297.72C180.333 295.944 181.629 294.408 183.853 294.408C185.997 294.408 187.277 295.832 187.277 297.544C187.277 298.904 186.509 299.976 185.325 300.728L183.197 302.088C182.573 302.488 181.997 303.032 181.869 303.784H187.373V305H180.237C180.269 303.4 180.909 302.12 182.573 301.048L184.429 299.848C185.437 299.208 185.933 298.472 185.933 297.56C185.933 296.536 185.197 295.592 183.821 295.592C182.413 295.592 181.645 296.568 181.645 297.848C181.645 298.024 181.661 298.216 181.693 298.344ZM189.211 304.6L189.659 303.48C190.139 303.784 190.939 304.04 191.643 304.04C194.171 304.04 195.307 302.36 195.371 299.832C194.987 300.712 193.963 301.432 192.523 301.432C190.731 301.432 188.971 300.184 188.971 297.944C188.971 295.848 190.731 294.408 192.715 294.408C194.843 294.408 196.699 295.976 196.699 299.176C196.699 302.84 195.115 305.224 191.643 305.224C190.811 305.224 189.755 304.968 189.211 304.6ZM195.131 297.928C195.131 296.472 193.963 295.56 192.715 295.56C191.467 295.56 190.315 296.472 190.315 297.928C190.315 299.4 191.451 300.28 192.715 300.28C193.979 300.28 195.131 299.384 195.131 297.928ZM205.547 294.632V295.912C204.187 297.112 201.547 299.768 201.035 305H199.659C200.155 299.304 203.451 296.392 204.043 295.848H198.043V294.632H205.547ZM209.044 308.04H207.62L209.476 304.088L206.18 297.336H207.652L210.18 302.76L212.564 297.336H213.956L209.044 308.04ZM217.323 294.904V297.336H219.131V298.488H217.323V302.728C217.323 303.528 217.675 303.928 218.491 303.928C218.715 303.928 219.003 303.88 219.131 303.848V304.936C218.987 304.984 218.619 305.08 218.123 305.08C216.859 305.08 216.043 304.296 216.043 302.904V298.488H214.507V297.336H215.003C215.787 297.336 216.123 296.888 216.123 296.168V294.904H217.323ZM227.641 294.632V295.912C226.281 297.112 223.641 299.768 223.129 305H221.753C222.249 299.304 225.545 296.392 226.137 295.848H220.137V294.632H227.641ZM230.466 300.488V305H229.186V297.336H230.434V298.488C230.93 297.592 231.826 297.112 232.834 297.112C234.674 297.112 235.57 298.424 235.57 300.088V305H234.29V300.28C234.29 299.16 233.778 298.264 232.386 298.264C231.154 298.264 230.466 299.288 230.466 300.488ZM237.215 302.584V301.048L241.791 294.632H243.631V301.368H245.439V302.584H243.631V305H242.319V302.584H237.215ZM242.319 301.368V295.928L238.447 301.368H242.319ZM246.945 304.6L247.393 303.48C247.873 303.784 248.673 304.04 249.377 304.04C251.905 304.04 253.041 302.36 253.105 299.832C252.721 300.712 251.697 301.432 250.257 301.432C248.465 301.432 246.705 300.184 246.705 297.944C246.705 295.848 248.465 294.408 250.449 294.408C252.577 294.408 254.433 295.976 254.433 299.176C254.433 302.84 252.849 305.224 249.377 305.224C248.545 305.224 247.489 304.968 246.945 304.6ZM252.865 297.928C252.865 296.472 251.697 295.56 250.449 295.56C249.201 295.56 248.049 296.472 248.049 297.928C248.049 299.4 249.185 300.28 250.449 300.28C251.713 300.28 252.865 299.384 252.865 297.928ZM257.521 298.344L256.209 298.184C256.177 298.04 256.161 297.864 256.161 297.72C256.161 295.944 257.457 294.408 259.681 294.408C261.825 294.408 263.105 295.832 263.105 297.544C263.105 298.904 262.337 299.976 261.153 300.728L259.025 302.088C258.401 302.488 257.825 303.032 257.697 303.784H263.201V305H256.065C256.097 303.4 256.737 302.12 258.401 301.048L260.257 299.848C261.265 299.208 261.761 298.472 261.761 297.56C261.761 296.536 261.025 295.592 259.649 295.592C258.241 295.592 257.473 296.568 257.473 297.848C257.473 298.024 257.489 298.216 257.521 298.344Z" fill="#4E4763"/><path d="M434.666 253.333H433C432.079 253.333 431.333 252.587 431.333 251.667V245C431.333 244.079 432.079 243.333 433 243.333H439.666C440.587 243.333 441.333 244.079 441.333 245V246.667M436.333 256.667H443C443.92 256.667 444.666 255.92 444.666 255V248.333C444.666 247.413 443.92 246.667 443 246.667H436.333C435.413 246.667 434.666 247.413 434.666 248.333V255C434.666 255.92 435.413 256.667 436.333 256.667Z" stroke="#6B6580" stroke-width="1.75" stroke-linecap="round" stroke-linejoin="round"/><path d="M37.656 347.21C34.884 347.21 32.574 345.208 32.574 342.044C32.574 338.88 34.968 336.864 37.628 336.864C40.372 336.864 41.786 338.544 42.178 340.154L40.358 340.728C40.12 339.776 39.35 338.726 37.628 338.726C36.144 338.726 34.576 339.79 34.576 342.044C34.576 344.158 36.06 345.32 37.656 345.32C39.35 345.32 40.176 344.214 40.442 343.29L42.248 343.836C41.87 345.362 40.442 347.21 37.656 347.21ZM45.396 342.954V347H43.534V336.864H45.396V340.686C45.844 340.154 46.6 339.93 47.258 339.93C49.008 339.93 49.82 341.148 49.82 342.66V347H47.958V342.982C47.958 342.212 47.58 341.61 46.684 341.61C45.9 341.61 45.438 342.198 45.396 342.954ZM51.2491 345.124C51.2491 343.892 52.1591 343.206 53.3071 343.038L55.0011 342.786C55.3931 342.73 55.5191 342.534 55.5191 342.296C55.5191 341.806 55.1411 341.4 54.3571 341.4C53.5451 341.4 53.0971 341.918 53.0411 342.52L51.3891 342.17C51.5011 341.092 52.4951 339.902 54.3431 339.902C56.5271 339.902 57.3391 341.134 57.3391 342.52V345.908C57.3391 346.272 57.3811 346.762 57.4231 347H55.7151C55.6731 346.818 55.6451 346.44 55.6451 346.174C55.2951 346.72 54.6371 347.196 53.6151 347.196C52.1451 347.196 51.2491 346.202 51.2491 345.124ZM54.0071 345.81C54.7911 345.81 55.5191 345.432 55.5191 344.214V343.906L53.9651 344.144C53.4891 344.214 53.1111 344.48 53.1111 345.012C53.1111 345.418 53.4051 345.81 54.0071 345.81ZM61.0503 347H59.1883V336.864H61.0503V347ZM64.8101 347H62.9481V336.864H64.8101V347ZM68.1779 342.772H71.2579C71.2299 342.086 70.7819 341.414 69.7179 341.414C68.7519 341.414 68.2199 342.142 68.1779 342.772ZM71.4399 344.564L72.9939 345.026C72.6439 346.216 71.5519 347.21 69.8579 347.21C67.9679 347.21 66.3019 345.852 66.3019 343.528C66.3019 341.33 67.9259 339.902 69.6899 339.902C71.8179 339.902 73.0919 341.26 73.0919 343.472C73.0919 343.738 73.0639 344.018 73.0639 344.046H68.1359C68.1779 344.956 68.9479 345.614 69.8719 345.614C70.7399 345.614 71.2159 345.18 71.4399 344.564ZM76.4585 343.038V347H74.5965V340.112H76.4025V340.966C76.8225 340.252 77.6485 339.93 78.3905 339.93C80.0985 339.93 80.8825 341.148 80.8825 342.66V347H79.0205V342.982C79.0205 342.212 78.6425 341.61 77.7465 341.61C76.9345 341.61 76.4585 342.24 76.4585 343.038ZM82.3116 347.378L83.9916 346.93C84.1176 347.686 84.7196 348.232 85.6016 348.232C86.7776 348.232 87.4356 347.644 87.4356 346.314V345.81C87.1556 346.258 86.5116 346.692 85.5176 346.692C83.6836 346.692 82.3116 345.278 82.3116 343.346C82.3116 341.526 83.6276 339.986 85.5176 339.986C86.6096 339.986 87.2396 340.462 87.4776 340.924V340.112H89.2696V346.258C89.2696 348.148 88.2476 349.87 85.6576 349.87C83.7676 349.87 82.5076 348.694 82.3116 347.378ZM85.8396 345.096C86.7916 345.096 87.4636 344.41 87.4636 343.346C87.4636 342.282 86.7356 341.61 85.8396 341.61C84.9156 341.61 84.1876 342.282 84.1876 343.346C84.1876 344.424 84.8736 345.096 85.8396 345.096ZM92.6368 342.772H95.7168C95.6888 342.086 95.2408 341.414 94.1768 341.414C93.2108 341.414 92.6788 342.142 92.6368 342.772ZM95.8988 344.564L97.4528 345.026C97.1028 346.216 96.0108 347.21 94.3168 347.21C92.4268 347.21 90.7608 345.852 90.7608 343.528C90.7608 341.33 92.3848 339.902 94.1488 339.902C96.2768 339.902 97.5508 341.26 97.5508 343.472C97.5508 343.738 97.5228 344.018 97.5228 344.046H92.5948C92.6368 344.956 93.4068 345.614 94.3308 345.614C95.1988 345.614 95.6748 345.18 95.8988 344.564ZM104.548 347H102.588V337.074H104.548V347ZM108.799 345.208H110.339C111.963 345.208 113.321 344.2 113.321 342.044C113.321 339.888 111.977 338.866 110.353 338.866H108.799V345.208ZM110.409 347H106.867V337.074H110.423C113.251 337.074 115.323 338.908 115.323 342.044C115.323 345.18 113.237 347 110.409 347Z" fill="#4E4763"/><path d="M123.314 337.074V338.852L124.938 338.306L125.4 339.678L123.748 340.21L124.784 341.61L123.622 342.464L122.558 341.05L121.522 342.464L120.36 341.596L121.382 340.21L119.73 339.678L120.178 338.306L121.816 338.852V337.074H123.314Z" fill="#BC0016"/><rect x="32" y="356" width="416" height="40" rx="6" fill="white"/><rect x="32" y="356" width="416" height="40" rx="6" fill="white"/><rect x="32.5" y="356.5" width="415" height="39" rx="5.5" stroke="#111827" stroke-opacity="0.3"/><g opacity="0.5"><rect x="32" y="420" width="416" height="40" rx="6" fill="#0073C3"/><path d="M212.432 445H205.328V433.656H212.432V435.736H207.536V438.328H211.968V440.296H207.536V442.92H212.432V445ZM223.538 433.656L219.826 439.336L223.554 445H220.882L218.434 441.08L215.97 445H213.378L217.106 439.32L213.394 433.656H216.05L218.482 437.576L220.962 433.656H223.538ZM232.104 445H225V433.656H232.104V435.736H227.208V438.328H231.64V440.296H227.208V442.92H232.104V445ZM239.245 445.24C236.077 445.24 233.437 442.952 233.437 439.336C233.437 435.72 236.173 433.416 239.213 433.416C242.349 433.416 243.965 435.336 244.413 437.176L242.333 437.832C242.061 436.744 241.181 435.544 239.213 435.544C237.517 435.544 235.725 436.76 235.725 439.336C235.725 441.752 237.421 443.08 239.245 443.08C241.181 443.08 242.125 441.816 242.429 440.76L244.493 441.384C244.061 443.128 242.429 445.24 239.245 445.24ZM250.459 445.256C248.043 445.256 246.107 443.768 246.107 440.984V433.656H248.315V440.824C248.315 442.312 249.147 443.096 250.459 443.096C251.803 443.096 252.619 442.312 252.619 440.824V433.656H254.827V440.984C254.827 443.768 252.891 445.256 250.459 445.256ZM265.711 435.752H262.127V445H259.903V435.752H256.319V433.656H265.711V435.752ZM274.401 445H267.297V433.656H274.401V435.736H269.505V438.328H273.937V440.296H269.505V442.92H274.401V445Z" fill="white"/></g></svg>