<svg width="482" height="498" viewBox="0 0 482 498" fill="none" xmlns="http://www.w3.org/2000/svg"><g clip-path="url(#clip0_3_583)"><rect x="1" y="1" width="480" height="496" rx="12" fill="white"/><rect width="480" height="72" transform="translate(1 1)" fill="white"/><path fill-rule="evenodd" clip-rule="evenodd" d="M38.1515 30.1515C38.6201 29.6829 39.3799 29.6829 39.8486 30.1515L45 35.303L50.1515 30.1515C50.6202 29.6829 51.3799 29.6829 51.8486 30.1515C52.3172 30.6201 52.3172 31.3799 51.8486 31.8486L46.6971 37L51.8486 42.1515C52.3172 42.6202 52.3172 43.3799 51.8486 43.8486C51.3799 44.3172 50.6202 44.3172 50.1515 43.8486L45 38.6971L39.8486 43.8486C39.3799 44.3172 38.6201 44.3172 38.1515 43.8486C37.6829 43.3799 37.6829 42.6202 38.1515 42.1515L43.303 37L38.1515 31.8486C37.6829 31.3799 37.6829 30.6201 38.1515 30.1515Z" fill="#6B6580"/><rect x="73" y="25" width="376" height="24" fill="white"/><circle cx="241" cy="103" r="30" fill="#1894E8"/><path d="M229.005 96.8253L241 102.823L252.995 96.8253C252.905 95.2497 251.598 94 250 94H232C230.402 94 229.095 95.2498 229.005 96.8253Z" fill="white"/><path d="M253 100.177L241 106.177L229 100.177V109C229 110.657 230.343 112 232 112H250C251.657 112 253 110.657 253 109V100.177Z" fill="white"/><path d="M91.5777 177H78.0777V155.73H91.5477V160.2H82.8177V164.25H90.7377V168.42H82.8177V172.5H91.5777V177ZM99.4429 168.45V177H94.8829V162.09H99.2929V163.8C100.103 162.39 101.933 161.7 103.463 161.7C107.213 161.7 108.893 164.37 108.893 167.64V177H104.333V168.42C104.333 166.95 103.553 165.84 101.903 165.84C100.403 165.84 99.4429 166.95 99.4429 168.45ZM118.428 157.74V162.09H121.338V166.08H118.428V171.66C118.428 172.89 119.088 173.22 120.078 173.22C120.558 173.22 121.008 173.13 121.278 173.07V176.85C121.098 176.94 120.348 177.27 118.908 177.27C115.818 177.27 113.928 175.44 113.928 172.47V166.08H111.288V162.09H112.038C113.598 162.09 114.348 161.04 114.348 159.66V157.74H118.428ZM127.958 167.76H133.928C133.868 166.62 133.088 165.24 130.928 165.24C129.008 165.24 128.048 166.65 127.958 167.76ZM134.258 171.63L138.068 172.71C137.348 175.29 134.978 177.45 131.198 177.45C127.088 177.45 123.428 174.51 123.428 169.5C123.428 164.7 126.998 161.64 130.868 161.64C135.488 161.64 138.338 164.49 138.338 169.29C138.338 169.92 138.278 170.61 138.248 170.7H127.868C127.958 172.38 129.488 173.58 131.258 173.58C132.908 173.58 133.838 172.8 134.258 171.63ZM150.857 162.09V166.59C150.347 166.47 149.867 166.44 149.417 166.44C147.587 166.44 145.937 167.52 145.937 170.49V177H141.377V162.09H145.787V164.1C146.567 162.42 148.457 161.94 149.657 161.94C150.107 161.94 150.557 162 150.857 162.09ZM167.567 170.7L172.637 155.73H177.677L169.907 177H165.017L157.217 155.73H162.437L167.567 170.7ZM181.454 167.76H187.424C187.364 166.62 186.584 165.24 184.424 165.24C182.504 165.24 181.544 166.65 181.454 167.76ZM187.754 171.63L191.564 172.71C190.844 175.29 188.474 177.45 184.694 177.45C180.584 177.45 176.924 174.51 176.924 169.5C176.924 164.7 180.494 161.64 184.364 161.64C188.984 161.64 191.834 164.49 191.834 169.29C191.834 169.92 191.774 170.61 191.744 170.7H181.364C181.454 172.38 182.984 173.58 184.754 173.58C186.404 173.58 187.334 172.8 187.754 171.63ZM204.353 162.09V166.59C203.843 166.47 203.363 166.44 202.913 166.44C201.083 166.44 199.433 167.52 199.433 170.49V177H194.873V162.09H199.283V164.1C200.063 162.42 201.953 161.94 203.153 161.94C203.603 161.94 204.053 162 204.353 162.09ZM211.474 177H206.914V162.09H211.474V177ZM206.524 157.53C206.524 156.06 207.724 154.86 209.164 154.86C210.664 154.86 211.864 156.06 211.864 157.53C211.864 159 210.664 160.2 209.164 160.2C207.724 160.2 206.524 159 206.524 157.53ZM226.752 165.93H221.262V177H216.702V165.93H214.332V162.09H216.702V160.8C216.702 157.38 218.772 155.04 222.402 155.04C223.152 155.04 224.082 155.16 224.502 155.37V159.09C224.292 159.03 223.872 158.94 223.212 158.94C222.432 158.94 221.262 159.3 221.262 160.8V162.09H231.312V177H226.752V165.93ZM226.362 157.53C226.362 156.03 227.562 154.86 229.002 154.86C230.502 154.86 231.702 156.03 231.702 157.53C231.702 159 230.502 160.2 229.002 160.2C227.562 160.2 226.362 159 226.362 157.53ZM242.266 165.84C240.376 165.84 238.846 167.16 238.846 169.56C238.846 171.93 240.436 173.25 242.326 173.25C244.096 173.25 245.086 172.14 245.416 171.03L249.436 172.26C248.776 174.87 246.316 177.45 242.326 177.45C237.886 177.45 234.316 174.18 234.316 169.56C234.316 164.91 237.796 161.64 242.176 161.64C246.286 161.64 248.686 164.16 249.346 166.83L245.266 168.06C244.936 166.92 244.036 165.84 242.266 165.84ZM251.368 172.89C251.368 170.25 253.318 168.75 255.778 168.39L259.288 167.85C260.098 167.73 260.368 167.34 260.368 166.83C260.368 165.96 259.618 165.21 258.178 165.21C256.588 165.21 255.718 166.29 255.628 167.4L251.668 166.59C251.848 164.46 253.828 161.64 258.208 161.64C263.038 161.64 264.808 164.34 264.808 167.4V174.69C264.808 175.86 264.958 176.85 264.988 177H260.878C260.848 176.88 260.728 176.34 260.728 175.32C259.948 176.58 258.508 177.42 256.528 177.42C253.258 177.42 251.368 175.26 251.368 172.89ZM257.638 174.12C258.988 174.12 260.368 173.46 260.368 171.15V170.49L257.548 170.94C256.588 171.09 255.868 171.54 255.868 172.59C255.868 173.37 256.378 174.12 257.638 174.12ZM274.345 157.74V162.09H277.255V166.08H274.345V171.66C274.345 172.89 275.005 173.22 275.995 173.22C276.475 173.22 276.925 173.13 277.195 173.07V176.85C277.015 176.94 276.265 177.27 274.825 177.27C271.735 177.27 269.845 175.44 269.845 172.47V166.08H267.205V162.09H267.955C269.515 162.09 270.265 161.04 270.265 159.66V157.74H274.345ZM284.892 177H280.332V162.09H284.892V177ZM279.942 157.53C279.942 156.06 281.142 154.86 282.582 154.86C284.082 154.86 285.282 156.06 285.282 157.53C285.282 159 284.082 160.2 282.582 160.2C281.142 160.2 279.942 159 279.942 157.53ZM295.82 173.25C297.56 173.25 299.18 172.05 299.18 169.53C299.18 167.01 297.56 165.84 295.82 165.84C294.11 165.84 292.46 167.01 292.46 169.53C292.46 172.02 294.11 173.25 295.82 173.25ZM295.82 161.64C300.29 161.64 303.74 164.91 303.74 169.53C303.74 174.15 300.29 177.45 295.82 177.45C291.38 177.45 287.9 174.15 287.9 169.53C287.9 164.91 291.38 161.64 295.82 161.64ZM311.289 168.45V177H306.729V162.09H311.139V163.8C311.949 162.39 313.779 161.7 315.309 161.7C319.059 161.7 320.739 164.37 320.739 167.64V177H316.179V168.42C316.179 166.95 315.399 165.84 313.749 165.84C312.249 165.84 311.289 166.95 311.289 168.45ZM341.716 177.45C335.596 177.45 330.676 173.04 330.676 166.41C330.676 159.78 335.716 155.28 341.656 155.28C348.046 155.28 350.866 159.39 351.556 162.45L347.086 163.86C346.756 162.39 345.406 159.9 341.656 159.9C338.806 159.9 335.596 161.94 335.596 166.41C335.596 170.4 338.536 172.71 341.716 172.71C345.406 172.71 346.876 170.25 347.296 168.72L351.826 170.01C351.136 172.95 348.316 177.45 341.716 177.45ZM361.445 173.25C363.185 173.25 364.805 172.05 364.805 169.53C364.805 167.01 363.185 165.84 361.445 165.84C359.735 165.84 358.085 167.01 358.085 169.53C358.085 172.02 359.735 173.25 361.445 173.25ZM361.445 161.64C365.915 161.64 369.365 164.91 369.365 169.53C369.365 174.15 365.915 177.45 361.445 177.45C357.005 177.45 353.525 174.15 353.525 169.53C353.525 164.91 357.005 161.64 361.445 161.64ZM387.264 155.28V174.33C387.264 175.68 387.354 176.67 387.384 177H383.004C382.974 176.82 382.884 176.16 382.884 175.56C382.194 176.58 380.694 177.33 378.894 177.33C374.694 177.33 371.514 174.09 371.514 169.5C371.514 165.06 374.514 161.73 378.744 161.73C381.294 161.73 382.404 162.69 382.764 163.26V155.28H387.264ZM376.104 169.53C376.104 171.99 377.694 173.25 379.464 173.25C381.234 173.25 382.824 171.99 382.824 169.53C382.824 167.04 381.234 165.84 379.464 165.84C377.694 165.84 376.104 167.04 376.104 169.53ZM394.823 167.76H400.793C400.733 166.62 399.953 165.24 397.793 165.24C395.873 165.24 394.913 166.65 394.823 167.76ZM401.123 171.63L404.933 172.71C404.213 175.29 401.843 177.45 398.063 177.45C393.953 177.45 390.293 174.51 390.293 169.5C390.293 164.7 393.863 161.64 397.733 161.64C402.353 161.64 405.203 164.49 405.203 169.29C405.203 169.92 405.143 170.61 405.113 170.7H394.733C394.823 172.38 396.353 173.58 398.123 173.58C399.773 173.58 400.703 172.8 401.123 171.63Z" fill="#29233B"/><path d="M107.15 207.888H103.262V218H101.934V207.888H98.0462V206.656H107.15V207.888ZM109.411 213.424V218H108.131V206.432H109.411V211.36C109.907 210.56 110.787 210.112 111.779 210.112C113.619 210.112 114.515 211.424 114.515 213.088V218H113.235V213.28C113.235 212.16 112.723 211.264 111.331 211.264C110.115 211.264 109.411 212.24 109.411 213.424ZM117.728 213.424H122.304C122.272 212.208 121.488 211.248 120.032 211.248C118.704 211.248 117.808 212.288 117.728 213.424ZM122.48 215.424L123.584 215.824C123.152 217.152 121.952 218.224 120.176 218.224C118.128 218.224 116.384 216.72 116.384 214.144C116.384 211.728 118.08 210.112 120.016 210.112C122.336 210.112 123.632 211.728 123.632 214.064C123.632 214.224 123.616 214.4 123.6 214.512H117.696V214.576C117.696 216.032 118.8 217.072 120.176 217.072C121.472 217.072 122.176 216.336 122.48 215.424ZM132.958 210.112C135.166 210.112 136.798 211.808 136.798 214.16C136.798 216.528 135.166 218.224 132.958 218.224C130.75 218.224 129.118 216.528 129.118 214.16C129.118 211.808 130.75 210.112 132.958 210.112ZM132.958 211.264C131.582 211.264 130.398 212.304 130.398 214.16C130.398 216.032 131.582 217.072 132.958 217.072C134.334 217.072 135.518 216.032 135.518 214.16C135.518 212.304 134.334 211.264 132.958 211.264ZM140.051 213.488V218H138.771V210.336H140.019V211.488C140.515 210.592 141.411 210.112 142.419 210.112C144.259 210.112 145.155 211.424 145.155 213.088V218H143.875V213.28C143.875 212.16 143.363 211.264 141.971 211.264C140.739 211.264 140.051 212.288 140.051 213.488ZM148.369 213.424H152.945C152.913 212.208 152.129 211.248 150.673 211.248C149.345 211.248 148.449 212.288 148.369 213.424ZM153.121 215.424L154.225 215.824C153.793 217.152 152.593 218.224 150.817 218.224C148.769 218.224 147.025 216.72 147.025 214.144C147.025 211.728 148.721 210.112 150.657 210.112C152.977 210.112 154.273 211.728 154.273 214.064C154.273 214.224 154.257 214.4 154.241 214.512H148.337V214.576C148.337 216.032 149.441 217.072 150.817 217.072C152.113 217.072 152.817 216.336 153.121 215.424ZM160.321 213.968H156.049V212.848H160.321V213.968ZM164.237 207.904V210.336H166.045V211.488H164.237V215.728C164.237 216.528 164.589 216.928 165.405 216.928C165.629 216.928 165.917 216.88 166.045 216.848V217.936C165.901 217.984 165.533 218.08 165.037 218.08C163.773 218.08 162.957 217.296 162.957 215.904V211.488H161.421V210.336H161.917C162.701 210.336 163.037 209.888 163.037 209.168V207.904H164.237ZM169.083 218H167.803V210.336H169.083V218ZM167.483 207.312C167.483 206.784 167.915 206.352 168.443 206.352C168.971 206.352 169.403 206.784 169.403 207.312C169.403 207.84 168.971 208.272 168.443 208.272C167.915 208.272 167.483 207.84 167.483 207.312ZM172.832 210.336V211.424C173.264 210.624 174.192 210.112 175.184 210.112C176.24 210.112 177.152 210.672 177.536 211.68C178.08 210.592 179.04 210.112 180.128 210.112C181.52 210.112 182.768 211.072 182.768 212.992V218H181.488V213.136C181.488 212.08 180.928 211.264 179.728 211.264C178.592 211.264 177.824 212.192 177.824 213.344V218H176.544V213.136C176.544 212.08 175.984 211.264 174.768 211.264C173.616 211.264 172.864 212.16 172.864 213.36V218H171.584V210.336H172.832ZM185.978 213.424H190.554C190.522 212.208 189.738 211.248 188.282 211.248C186.954 211.248 186.058 212.288 185.978 213.424ZM190.73 215.424L191.834 215.824C191.402 217.152 190.202 218.224 188.426 218.224C186.378 218.224 184.634 216.72 184.634 214.144C184.634 211.728 186.33 210.112 188.266 210.112C190.586 210.112 191.882 211.728 191.882 214.064C191.882 214.224 191.866 214.4 191.85 214.512H185.946V214.576C185.946 216.032 187.05 217.072 188.426 217.072C189.722 217.072 190.426 216.336 190.73 215.424ZM199.176 221.04H197.896V210.336H199.144V211.616C199.544 210.832 200.44 210.112 201.8 210.112C204.056 210.112 205.288 211.872 205.288 214.16C205.288 216.448 203.976 218.224 201.768 218.224C200.456 218.224 199.576 217.536 199.176 216.816V221.04ZM201.576 217.072C203.048 217.072 204.008 215.856 204.008 214.16C204.008 212.464 203.064 211.264 201.576 211.264C200.088 211.264 199.144 212.464 199.144 214.16C199.144 215.856 200.104 217.072 201.576 217.072ZM206.727 215.968C206.727 214.624 207.671 213.872 209.015 213.68L211.079 213.376C211.639 213.296 211.767 213.056 211.767 212.72C211.767 211.856 211.191 211.2 209.991 211.2C208.871 211.2 208.199 211.872 208.087 212.848L206.871 212.56C207.031 211.104 208.311 210.112 209.959 210.112C212.135 210.112 213.047 211.36 213.047 212.848V216.72C213.047 217.36 213.095 217.76 213.143 218H211.895C211.863 217.824 211.799 217.44 211.799 216.848C211.463 217.472 210.631 218.224 209.255 218.224C207.671 218.224 206.727 217.136 206.727 215.968ZM209.415 217.136C210.743 217.136 211.767 216.4 211.767 214.768V214.256L209.271 214.624C208.535 214.736 208.007 215.152 208.007 215.904C208.007 216.528 208.535 217.136 209.415 217.136ZM214.835 215.984L215.987 215.584C216.099 216.464 216.755 217.136 217.907 217.136C218.819 217.136 219.395 216.624 219.395 215.968C219.395 215.392 218.931 215.008 218.227 214.848L216.979 214.56C215.811 214.288 215.075 213.536 215.075 212.432C215.075 211.152 216.291 210.112 217.747 210.112C219.731 210.112 220.419 211.376 220.595 212.16L219.459 212.576C219.363 212.048 218.963 211.2 217.747 211.2C216.947 211.2 216.323 211.712 216.323 212.352C216.323 212.896 216.659 213.232 217.331 213.392L218.579 213.68C219.923 213.984 220.659 214.768 220.659 215.904C220.659 217.008 219.715 218.224 217.891 218.224C215.875 218.224 214.963 216.944 214.835 215.984ZM222.007 215.984L223.159 215.584C223.271 216.464 223.927 217.136 225.079 217.136C225.991 217.136 226.567 216.624 226.567 215.968C226.567 215.392 226.103 215.008 225.399 214.848L224.151 214.56C222.983 214.288 222.247 213.536 222.247 212.432C222.247 211.152 223.463 210.112 224.919 210.112C226.903 210.112 227.591 211.376 227.767 212.16L226.631 212.576C226.535 212.048 226.135 211.2 224.919 211.2C224.119 211.2 223.495 211.712 223.495 212.352C223.495 212.896 223.831 213.232 224.503 213.392L225.751 213.68C227.095 213.984 227.831 214.768 227.831 215.904C227.831 217.008 226.887 218.224 225.063 218.224C223.047 218.224 222.135 216.944 222.007 215.984ZM233.067 211.264C231.723 211.264 230.555 212.304 230.555 214.16C230.555 216 231.723 217.072 233.083 217.072C234.539 217.072 235.147 216.048 235.371 215.344L236.491 215.84C236.123 216.976 235.051 218.224 233.083 218.224C230.875 218.224 229.275 216.496 229.275 214.16C229.275 211.776 230.907 210.112 233.067 210.112C235.035 210.112 236.107 211.312 236.427 212.528L235.275 213.024C235.067 212.208 234.443 211.264 233.067 211.264ZM241.63 210.112C243.838 210.112 245.47 211.808 245.47 214.16C245.47 216.528 243.838 218.224 241.63 218.224C239.422 218.224 237.79 216.528 237.79 214.16C237.79 211.808 239.422 210.112 241.63 210.112ZM241.63 211.264C240.254 211.264 239.07 212.304 239.07 214.16C239.07 216.032 240.254 217.072 241.63 217.072C243.006 217.072 244.19 216.032 244.19 214.16C244.19 212.304 243.006 211.264 241.63 211.264ZM252.995 216.896V216.688C252.643 217.44 251.811 218.224 250.483 218.224C248.275 218.224 246.931 216.432 246.931 214.16C246.931 211.936 248.339 210.112 250.483 210.112C251.955 210.112 252.707 210.928 252.963 211.568V206.432H254.243V216.56C254.243 217.328 254.291 217.84 254.323 218H253.075C253.043 217.824 252.995 217.392 252.995 216.896ZM250.595 217.072C252.035 217.072 252.995 215.856 252.995 214.16C252.995 212.464 252.051 211.264 250.595 211.264C249.139 211.264 248.211 212.464 248.211 214.16C248.211 215.856 249.155 217.072 250.595 217.072ZM257.556 213.424H262.132C262.1 212.208 261.316 211.248 259.86 211.248C258.532 211.248 257.636 212.288 257.556 213.424ZM262.308 215.424L263.412 215.824C262.98 217.152 261.78 218.224 260.004 218.224C257.956 218.224 256.212 216.72 256.212 214.144C256.212 211.728 257.908 210.112 259.844 210.112C262.164 210.112 263.46 211.728 263.46 214.064C263.46 214.224 263.444 214.4 263.428 214.512H257.524V214.576C257.524 216.032 258.628 217.072 260.004 217.072C261.3 217.072 262.004 216.336 262.308 215.424ZM270.755 213.424V218H269.475V206.432H270.755V211.36C271.251 210.56 272.131 210.112 273.123 210.112C274.963 210.112 275.859 211.424 275.859 213.088V218H274.579V213.28C274.579 212.16 274.067 211.264 272.675 211.264C271.459 211.264 270.755 212.24 270.755 213.424ZM277.712 215.968C277.712 214.624 278.656 213.872 280 213.68L282.064 213.376C282.624 213.296 282.752 213.056 282.752 212.72C282.752 211.856 282.176 211.2 280.976 211.2C279.856 211.2 279.184 211.872 279.072 212.848L277.856 212.56C278.016 211.104 279.296 210.112 280.944 210.112C283.12 210.112 284.032 211.36 284.032 212.848V216.72C284.032 217.36 284.08 217.76 284.128 218H282.88C282.848 217.824 282.784 217.44 282.784 216.848C282.448 217.472 281.616 218.224 280.24 218.224C278.656 218.224 277.712 217.136 277.712 215.968ZM280.4 217.136C281.728 217.136 282.752 216.4 282.752 214.768V214.256L280.256 214.624C279.52 214.736 278.992 215.152 278.992 215.904C278.992 216.528 279.52 217.136 280.4 217.136ZM285.819 215.984L286.971 215.584C287.083 216.464 287.739 217.136 288.891 217.136C289.803 217.136 290.379 216.624 290.379 215.968C290.379 215.392 289.915 215.008 289.211 214.848L287.963 214.56C286.795 214.288 286.059 213.536 286.059 212.432C286.059 211.152 287.275 210.112 288.731 210.112C290.715 210.112 291.403 211.376 291.579 212.16L290.443 212.576C290.347 212.048 289.947 211.2 288.731 211.2C287.931 211.2 287.307 211.712 287.307 212.352C287.307 212.896 287.643 213.232 288.315 213.392L289.563 213.68C290.907 213.984 291.643 214.768 291.643 215.904C291.643 217.008 290.699 218.224 288.875 218.224C286.859 218.224 285.947 216.944 285.819 215.984ZM298.941 218H297.693V206.432H298.973V211.584C299.325 210.864 300.221 210.112 301.597 210.112C303.869 210.112 305.085 211.92 305.085 214.16C305.085 216.448 303.789 218.224 301.565 218.224C300.285 218.224 299.389 217.568 298.941 216.736V218ZM301.373 217.072C302.845 217.072 303.805 215.856 303.805 214.16C303.805 212.464 302.861 211.264 301.373 211.264C299.885 211.264 298.941 212.464 298.941 214.16C298.941 215.856 299.901 217.072 301.373 217.072ZM307.884 213.424H312.46C312.428 212.208 311.644 211.248 310.188 211.248C308.86 211.248 307.964 212.288 307.884 213.424ZM312.636 215.424L313.74 215.824C313.308 217.152 312.108 218.224 310.332 218.224C308.284 218.224 306.54 216.72 306.54 214.144C306.54 211.728 308.236 210.112 310.172 210.112C312.492 210.112 313.788 211.728 313.788 214.064C313.788 214.224 313.772 214.4 313.756 214.512H307.852V214.576C307.852 216.032 308.956 217.072 310.332 217.072C311.628 217.072 312.332 216.336 312.636 215.424ZM316.541 213.424H321.117C321.085 212.208 320.301 211.248 318.845 211.248C317.517 211.248 316.621 212.288 316.541 213.424ZM321.293 215.424L322.397 215.824C321.965 217.152 320.765 218.224 318.989 218.224C316.941 218.224 315.197 216.72 315.197 214.144C315.197 211.728 316.893 210.112 318.829 210.112C321.149 210.112 322.445 211.728 322.445 214.064C322.445 214.224 322.429 214.4 322.413 214.512H316.509V214.576C316.509 216.032 317.613 217.072 318.989 217.072C320.285 217.072 320.989 216.336 321.293 215.424ZM325.661 213.488V218H324.381V210.336H325.629V211.488C326.125 210.592 327.021 210.112 328.029 210.112C329.869 210.112 330.765 211.424 330.765 213.088V218H329.485V213.28C329.485 212.16 328.973 211.264 327.581 211.264C326.349 211.264 325.661 212.288 325.661 213.488ZM336.616 215.984L337.768 215.584C337.88 216.464 338.536 217.136 339.688 217.136C340.6 217.136 341.176 216.624 341.176 215.968C341.176 215.392 340.712 215.008 340.008 214.848L338.76 214.56C337.592 214.288 336.856 213.536 336.856 212.432C336.856 211.152 338.072 210.112 339.528 210.112C341.512 210.112 342.2 211.376 342.376 212.16L341.24 212.576C341.144 212.048 340.744 211.2 339.528 211.2C338.728 211.2 338.104 211.712 338.104 212.352C338.104 212.896 338.44 213.232 339.112 213.392L340.36 213.68C341.704 213.984 342.44 214.768 342.44 215.904C342.44 217.008 341.496 218.224 339.672 218.224C337.656 218.224 336.744 216.944 336.616 215.984ZM345.228 213.424H349.804C349.772 212.208 348.988 211.248 347.532 211.248C346.204 211.248 345.308 212.288 345.228 213.424ZM349.98 215.424L351.084 215.824C350.652 217.152 349.452 218.224 347.676 218.224C345.628 218.224 343.884 216.72 343.884 214.144C343.884 211.728 345.58 210.112 347.516 210.112C349.836 210.112 351.132 211.728 351.132 214.064C351.132 214.224 351.116 214.4 351.1 214.512H345.196V214.576C345.196 216.032 346.3 217.072 347.676 217.072C348.972 217.072 349.676 216.336 349.98 215.424ZM354.348 213.488V218H353.068V210.336H354.316V211.488C354.812 210.592 355.708 210.112 356.716 210.112C358.556 210.112 359.452 211.424 359.452 213.088V218H358.172V213.28C358.172 212.16 357.66 211.264 356.268 211.264C355.036 211.264 354.348 212.288 354.348 213.488ZM363.627 207.904V210.336H365.435V211.488H363.627V215.728C363.627 216.528 363.979 216.928 364.795 216.928C365.019 216.928 365.307 216.88 365.435 216.848V217.936C365.291 217.984 364.923 218.08 364.427 218.08C363.163 218.08 362.347 217.296 362.347 215.904V211.488H360.811V210.336H361.307C362.091 210.336 362.427 209.888 362.427 209.168V207.904H363.627ZM372.815 207.904V210.336H374.623V211.488H372.815V215.728C372.815 216.528 373.167 216.928 373.983 216.928C374.207 216.928 374.495 216.88 374.623 216.848V217.936C374.479 217.984 374.111 218.08 373.615 218.08C372.351 218.08 371.535 217.296 371.535 215.904V211.488H369.999V210.336H370.495C371.279 210.336 371.615 209.888 371.615 209.168V207.904H372.815ZM379.693 210.112C381.901 210.112 383.533 211.808 383.533 214.16C383.533 216.528 381.901 218.224 379.693 218.224C377.485 218.224 375.853 216.528 375.853 214.16C375.853 211.808 377.485 210.112 379.693 210.112ZM379.693 211.264C378.317 211.264 377.133 212.304 377.133 214.16C377.133 216.032 378.317 217.072 379.693 217.072C381.069 217.072 382.253 216.032 382.253 214.16C382.253 212.304 381.069 211.264 379.693 211.264ZM160.067 235.264C158.723 235.264 157.555 236.304 157.555 238.16C157.555 240 158.723 241.072 160.083 241.072C161.539 241.072 162.147 240.048 162.371 239.344L163.491 239.84C163.123 240.976 162.051 242.224 160.083 242.224C157.875 242.224 156.275 240.496 156.275 238.16C156.275 235.776 157.907 234.112 160.067 234.112C162.035 234.112 163.107 235.312 163.427 236.528L162.275 237.024C162.067 236.208 161.443 235.264 160.067 235.264ZM166.598 242H165.318V234.336H166.598V242ZM164.998 231.312C164.998 230.784 165.43 230.352 165.958 230.352C166.486 230.352 166.918 230.784 166.918 231.312C166.918 231.84 166.486 232.272 165.958 232.272C165.43 232.272 164.998 231.84 164.998 231.312ZM173.212 234.288V235.648C173.004 235.584 172.764 235.568 172.54 235.568C171.26 235.568 170.38 236.304 170.38 238.032V242H169.1V234.336H170.348V235.712C170.844 234.592 171.82 234.224 172.668 234.224C172.876 234.224 173.1 234.256 173.212 234.288ZM177.817 235.264C176.473 235.264 175.305 236.304 175.305 238.16C175.305 240 176.473 241.072 177.833 241.072C179.289 241.072 179.897 240.048 180.121 239.344L181.241 239.84C180.873 240.976 179.801 242.224 177.833 242.224C175.625 242.224 174.025 240.496 174.025 238.16C174.025 235.776 175.657 234.112 177.817 234.112C179.785 234.112 180.857 235.312 181.177 236.528L180.025 237.024C179.817 236.208 179.193 235.264 177.817 235.264ZM184.348 242H183.068V230.432H184.348V242ZM187.666 237.424H192.242C192.21 236.208 191.426 235.248 189.97 235.248C188.642 235.248 187.746 236.288 187.666 237.424ZM192.418 239.424L193.522 239.824C193.09 241.152 191.89 242.224 190.114 242.224C188.066 242.224 186.322 240.72 186.322 238.144C186.322 235.728 188.018 234.112 189.954 234.112C192.274 234.112 193.57 235.728 193.57 238.064C193.57 238.224 193.554 238.4 193.538 238.512H187.634V238.576C187.634 240.032 188.738 241.072 190.114 241.072C191.41 241.072 192.114 240.336 192.418 239.424ZM196.786 245.04H195.506V234.336H196.754V235.616C197.154 234.832 198.05 234.112 199.41 234.112C201.666 234.112 202.898 235.872 202.898 238.16C202.898 240.448 201.586 242.224 199.378 242.224C198.066 242.224 197.186 241.536 196.786 240.816V245.04ZM199.186 241.072C200.658 241.072 201.618 239.856 201.618 238.16C201.618 236.464 200.674 235.264 199.186 235.264C197.698 235.264 196.754 236.464 196.754 238.16C196.754 239.856 197.714 241.072 199.186 241.072ZM205.697 237.424H210.273C210.241 236.208 209.457 235.248 208.001 235.248C206.673 235.248 205.777 236.288 205.697 237.424ZM210.449 239.424L211.553 239.824C211.121 241.152 209.921 242.224 208.145 242.224C206.097 242.224 204.353 240.72 204.353 238.144C204.353 235.728 206.049 234.112 207.985 234.112C210.305 234.112 211.601 235.728 211.601 238.064C211.601 238.224 211.585 238.4 211.569 238.512H205.665V238.576C205.665 240.032 206.769 241.072 208.145 241.072C209.441 241.072 210.145 240.336 210.449 239.424ZM214.817 242H213.537V234.336H214.817V242ZM213.217 231.312C213.217 230.784 213.649 230.352 214.177 230.352C214.705 230.352 215.137 230.784 215.137 231.312C215.137 231.84 214.705 232.272 214.177 232.272C213.649 232.272 213.217 231.84 213.217 231.312ZM216.358 242L219.286 238.08L216.486 234.336H218.038L220.038 237.152L222.054 234.336H223.558L220.758 238.08L223.686 242H222.15L220.022 239.04L217.894 242H216.358ZM224.265 242L227.193 238.08L224.393 234.336H225.945L227.945 237.152L229.961 234.336H231.465L228.665 238.08L231.593 242H230.057L227.929 239.04L225.801 242H224.265ZM232.171 242L235.099 238.08L232.299 234.336H233.851L235.851 237.152L237.867 234.336H239.371L236.571 238.08L239.499 242H237.963L235.835 239.04L233.707 242H232.171ZM249.437 239.76C248.637 239.76 248.013 239.36 247.885 238.64C247.421 239.36 246.685 239.776 245.949 239.776C244.557 239.776 243.549 238.704 243.549 237.072C243.549 235.024 244.957 233.392 246.685 233.392C247.405 233.392 248.157 233.776 248.413 234.512L248.589 233.6H249.661L248.845 237.6C248.813 237.76 248.797 237.904 248.797 238.048C248.797 238.48 248.973 238.8 249.501 238.8C250.461 238.8 251.373 237.36 251.373 235.648C251.373 233.328 249.597 231.424 246.765 231.424C243.901 231.424 241.725 233.584 241.725 236.672C241.725 239.568 243.677 241.744 246.909 241.744C248.189 241.744 249.405 241.312 250.397 240.48L250.957 241.216C249.997 242.16 248.365 242.736 246.909 242.736C243.197 242.736 240.605 240.256 240.605 236.672C240.605 233.008 243.405 230.432 246.749 230.432C250.061 230.432 252.445 232.752 252.445 235.648C252.445 238.016 251.037 239.76 249.437 239.76ZM246.125 238.784C247.517 238.784 248.109 237.168 248.109 235.92C248.109 234.992 247.565 234.416 246.685 234.416C245.517 234.416 244.669 235.632 244.669 236.928C244.669 237.936 245.053 238.784 246.125 238.784ZM253.759 242.432L254.991 242.128C255.119 243.248 255.967 244.112 257.215 244.112C259.007 244.112 259.663 243.056 259.663 241.472V240.24C259.311 240.976 258.479 241.664 257.231 241.664C255.199 241.664 253.775 240.048 253.775 237.904C253.775 235.76 255.183 234.112 257.263 234.112C258.463 234.112 259.295 234.672 259.679 235.424V234.336H260.943V241.424C260.943 243.312 260.079 245.264 257.215 245.264C255.327 245.264 253.951 244.048 253.759 242.432ZM259.727 237.888C259.727 236.304 258.783 235.264 257.391 235.264C255.999 235.264 255.055 236.304 255.055 237.888C255.055 239.472 255.999 240.512 257.391 240.512C258.783 240.512 259.727 239.472 259.727 237.888ZM264.691 234.336V235.424C265.123 234.624 266.051 234.112 267.043 234.112C268.099 234.112 269.011 234.672 269.395 235.68C269.939 234.592 270.899 234.112 271.987 234.112C273.379 234.112 274.627 235.072 274.627 236.992V242H273.347V237.136C273.347 236.08 272.787 235.264 271.587 235.264C270.451 235.264 269.683 236.192 269.683 237.344V242H268.403V237.136C268.403 236.08 267.843 235.264 266.627 235.264C265.475 235.264 264.723 236.16 264.723 237.36V242H263.443V234.336H264.691ZM276.477 239.968C276.477 238.624 277.421 237.872 278.765 237.68L280.829 237.376C281.389 237.296 281.517 237.056 281.517 236.72C281.517 235.856 280.941 235.2 279.741 235.2C278.621 235.2 277.949 235.872 277.837 236.848L276.621 236.56C276.781 235.104 278.061 234.112 279.709 234.112C281.885 234.112 282.797 235.36 282.797 236.848V240.72C282.797 241.36 282.845 241.76 282.893 242H281.645C281.613 241.824 281.549 241.44 281.549 240.848C281.213 241.472 280.381 242.224 279.005 242.224C277.421 242.224 276.477 241.136 276.477 239.968ZM279.165 241.136C280.493 241.136 281.517 240.4 281.517 238.768V238.256L279.021 238.624C278.285 238.736 277.757 239.152 277.757 239.904C277.757 240.528 278.285 241.136 279.165 241.136ZM286.489 242H285.209V234.336H286.489V242ZM284.889 231.312C284.889 230.784 285.321 230.352 285.849 230.352C286.377 230.352 286.809 230.784 286.809 231.312C286.809 231.84 286.377 232.272 285.849 232.272C285.321 232.272 284.889 231.84 284.889 231.312ZM290.27 242H288.99V230.432H290.27V242ZM292.467 241.088C292.467 240.528 292.915 240.096 293.459 240.096C294.003 240.096 294.451 240.528 294.451 241.088C294.451 241.648 294.003 242.08 293.459 242.08C292.915 242.08 292.467 241.648 292.467 241.088ZM299.739 235.264C298.395 235.264 297.227 236.304 297.227 238.16C297.227 240 298.395 241.072 299.755 241.072C301.211 241.072 301.819 240.048 302.043 239.344L303.163 239.84C302.795 240.976 301.723 242.224 299.755 242.224C297.547 242.224 295.947 240.496 295.947 238.16C295.947 235.776 297.579 234.112 299.739 234.112C301.707 234.112 302.779 235.312 303.099 236.528L301.947 237.024C301.739 236.208 301.115 235.264 299.739 235.264ZM308.302 234.112C310.51 234.112 312.142 235.808 312.142 238.16C312.142 240.528 310.51 242.224 308.302 242.224C306.094 242.224 304.462 240.528 304.462 238.16C304.462 235.808 306.094 234.112 308.302 234.112ZM308.302 235.264C306.926 235.264 305.742 236.304 305.742 238.16C305.742 240.032 306.926 241.072 308.302 241.072C309.678 241.072 310.862 240.032 310.862 238.16C310.862 236.304 309.678 235.264 308.302 235.264ZM315.363 234.336V235.424C315.795 234.624 316.723 234.112 317.715 234.112C318.771 234.112 319.683 234.672 320.067 235.68C320.611 234.592 321.571 234.112 322.659 234.112C324.051 234.112 325.299 235.072 325.299 236.992V242H324.019V237.136C324.019 236.08 323.459 235.264 322.259 235.264C321.123 235.264 320.355 236.192 320.355 237.344V242H319.075V237.136C319.075 236.08 318.515 235.264 317.299 235.264C316.147 235.264 315.395 236.16 315.395 237.36V242H314.115V234.336H315.363Z" fill="#4E4763"/><path d="M111.96 332L110.62 328.44H104.62L103.3 332H100.76L106.28 317.82H109.06L114.58 332H111.96ZM107.62 320.42L105.46 326.22H109.78L107.62 320.42ZM116.616 317.82H121.496C124.216 317.82 125.816 319.42 125.816 321.64C125.816 323.14 124.936 324.26 123.716 324.7C125.216 325.1 126.256 326.4 126.256 328.08C126.256 330.36 124.496 332 121.856 332H116.616V317.82ZM118.996 323.82H121.176C122.576 323.82 123.416 323.02 123.416 321.84C123.416 320.64 122.576 319.86 121.116 319.86H118.996V323.82ZM118.996 329.96H121.436C122.876 329.96 123.816 329.18 123.816 327.92C123.816 326.7 122.996 325.84 121.516 325.84H118.996V329.96ZM135.259 332.3C131.439 332.3 128.099 329.54 128.099 324.92C128.099 320.3 131.559 317.52 135.239 317.52C138.839 317.52 140.979 319.64 141.619 322.12L139.359 322.88C138.939 321.16 137.619 319.78 135.239 319.78C132.899 319.78 130.559 321.48 130.559 324.92C130.559 328.24 132.839 330 135.259 330C137.639 330 138.999 328.48 139.479 326.88L141.679 327.6C141.039 330 138.879 332.3 135.259 332.3ZM154.002 327.18H148.362V325.12H154.002V327.18Z" fill="black"/><circle cx="179" cy="325" r="7" stroke="#1894E8"/><circle cx="218" cy="325" r="7" stroke="#6B6580"/><circle cx="257" cy="325" r="7" stroke="#6B6580"/><circle cx="296" cy="325" r="7" stroke="#6B6580"/><circle cx="335" cy="325" r="7" stroke="#6B6580"/><circle cx="374" cy="325" r="7" stroke="#6B6580"/><path d="M114.787 416.816H117.171C119.379 416.816 121.251 415.328 121.251 412.352C121.251 409.36 119.411 407.84 117.203 407.84H114.787V416.816ZM117.171 418H113.443V406.656H117.203C120.083 406.656 122.595 408.624 122.595 412.352C122.595 416.064 120.051 418 117.171 418ZM125.841 418H124.561V410.336H125.841V418ZM124.241 407.312C124.241 406.784 124.673 406.352 125.201 406.352C125.729 406.352 126.161 406.784 126.161 407.312C126.161 407.84 125.729 408.272 125.201 408.272C124.673 408.272 124.241 407.84 124.241 407.312ZM133.894 416.896V416.688C133.542 417.44 132.71 418.224 131.382 418.224C129.174 418.224 127.83 416.432 127.83 414.16C127.83 411.936 129.238 410.112 131.382 410.112C132.854 410.112 133.606 410.928 133.862 411.568V406.432H135.142V416.56C135.142 417.328 135.19 417.84 135.222 418H133.974C133.942 417.824 133.894 417.392 133.894 416.896ZM131.494 417.072C132.934 417.072 133.894 415.856 133.894 414.16C133.894 412.464 132.95 411.264 131.494 411.264C130.038 411.264 129.11 412.464 129.11 414.16C129.11 415.856 130.054 417.072 131.494 417.072ZM138.919 413.488V418H137.639V410.336H138.887V411.488C139.383 410.592 140.279 410.112 141.287 410.112C143.127 410.112 144.023 411.424 144.023 413.088V418H142.743V413.28C142.743 412.16 142.231 411.264 140.839 411.264C139.607 411.264 138.919 412.288 138.919 413.488ZM145.978 407.472C145.978 406.96 146.394 406.528 146.97 406.528C147.546 406.528 148.058 406.976 148.058 407.856C148.058 409.664 146.922 410.48 145.978 410.608V409.904C146.746 409.76 147.194 409.04 147.194 408.32C147.146 408.352 147.034 408.4 146.874 408.4C146.378 408.4 145.978 408.048 145.978 407.472ZM151.917 407.904V410.336H153.725V411.488H151.917V415.728C151.917 416.528 152.269 416.928 153.085 416.928C153.309 416.928 153.597 416.88 153.725 416.848V417.936C153.581 417.984 153.213 418.08 152.717 418.08C151.453 418.08 150.637 417.296 150.637 415.904V411.488H149.101V410.336H149.597C150.381 410.336 150.717 409.888 150.717 409.168V407.904H151.917ZM163.673 410.288V411.648C163.465 411.584 163.225 411.568 163.001 411.568C161.721 411.568 160.841 412.304 160.841 414.032V418H159.561V410.336H160.809V411.712C161.305 410.592 162.281 410.224 163.129 410.224C163.337 410.224 163.561 410.256 163.673 410.288ZM165.83 413.424H170.406C170.374 412.208 169.59 411.248 168.134 411.248C166.806 411.248 165.91 412.288 165.83 413.424ZM170.582 415.424L171.686 415.824C171.254 417.152 170.054 418.224 168.278 418.224C166.23 418.224 164.486 416.72 164.486 414.144C164.486 411.728 166.182 410.112 168.118 410.112C170.438 410.112 171.734 411.728 171.734 414.064C171.734 414.224 171.718 414.4 171.702 414.512H165.798V414.576C165.798 416.032 166.902 417.072 168.278 417.072C169.574 417.072 170.278 416.336 170.582 415.424ZM176.934 411.264C175.59 411.264 174.422 412.304 174.422 414.16C174.422 416 175.59 417.072 176.95 417.072C178.406 417.072 179.014 416.048 179.238 415.344L180.358 415.84C179.99 416.976 178.918 418.224 176.95 418.224C174.742 418.224 173.142 416.496 173.142 414.16C173.142 411.776 174.774 410.112 176.934 410.112C178.902 410.112 179.974 411.312 180.294 412.528L179.142 413.024C178.934 412.208 178.31 411.264 176.934 411.264ZM183.002 413.424H187.578C187.546 412.208 186.762 411.248 185.306 411.248C183.978 411.248 183.082 412.288 183.002 413.424ZM187.754 415.424L188.858 415.824C188.426 417.152 187.226 418.224 185.45 418.224C183.402 418.224 181.658 416.72 181.658 414.144C181.658 411.728 183.354 410.112 185.29 410.112C187.61 410.112 188.906 411.728 188.906 414.064C188.906 414.224 188.89 414.4 188.874 414.512H182.97V414.576C182.97 416.032 184.074 417.072 185.45 417.072C186.746 417.072 187.45 416.336 187.754 415.424ZM192.122 418H190.842V410.336H192.122V418ZM190.522 407.312C190.522 406.784 190.954 406.352 191.482 406.352C192.01 406.352 192.442 406.784 192.442 407.312C192.442 407.84 192.01 408.272 191.482 408.272C190.954 408.272 190.522 407.84 190.522 407.312ZM201.199 410.336L198.143 418H196.847L193.759 410.336H195.199L197.503 416.512L199.823 410.336H201.199ZM203.392 413.424H207.968C207.936 412.208 207.152 411.248 205.696 411.248C204.368 411.248 203.472 412.288 203.392 413.424ZM208.144 415.424L209.248 415.824C208.816 417.152 207.616 418.224 205.84 418.224C203.792 418.224 202.048 416.72 202.048 414.144C202.048 411.728 203.744 410.112 205.68 410.112C208 410.112 209.296 411.728 209.296 414.064C209.296 414.224 209.28 414.4 209.264 414.512H203.36V414.576C203.36 416.032 204.464 417.072 205.84 417.072C207.136 417.072 207.84 416.336 208.144 415.424ZM216.854 407.904V410.336H218.662V411.488H216.854V415.728C216.854 416.528 217.206 416.928 218.022 416.928C218.246 416.928 218.534 416.88 218.662 416.848V417.936C218.518 417.984 218.15 418.08 217.654 418.08C216.39 418.08 215.574 417.296 215.574 415.904V411.488H214.038V410.336H214.534C215.318 410.336 215.654 409.888 215.654 409.168V407.904H216.854ZM221.7 413.424V418H220.42V406.432H221.7V411.36C222.196 410.56 223.076 410.112 224.068 410.112C225.908 410.112 226.804 411.424 226.804 413.088V418H225.524V413.28C225.524 412.16 225.012 411.264 223.62 411.264C222.404 411.264 221.7 412.24 221.7 413.424ZM230.017 413.424H234.593C234.561 412.208 233.777 411.248 232.321 411.248C230.993 411.248 230.097 412.288 230.017 413.424ZM234.769 415.424L235.873 415.824C235.441 417.152 234.241 418.224 232.465 418.224C230.417 418.224 228.673 416.72 228.673 414.144C228.673 411.728 230.369 410.112 232.305 410.112C234.625 410.112 235.921 411.728 235.921 414.064C235.921 414.224 235.905 414.4 235.889 414.512H229.985V414.576C229.985 416.032 231.089 417.072 232.465 417.072C233.761 417.072 234.465 416.336 234.769 415.424ZM245.2 411.264C243.856 411.264 242.688 412.304 242.688 414.16C242.688 416 243.856 417.072 245.216 417.072C246.672 417.072 247.28 416.048 247.504 415.344L248.624 415.84C248.256 416.976 247.184 418.224 245.216 418.224C243.008 418.224 241.408 416.496 241.408 414.16C241.408 411.776 243.039 410.112 245.2 410.112C247.168 410.112 248.24 411.312 248.56 412.528L247.408 413.024C247.2 412.208 246.576 411.264 245.2 411.264ZM253.763 410.112C255.971 410.112 257.603 411.808 257.603 414.16C257.603 416.528 255.971 418.224 253.763 418.224C251.555 418.224 249.923 416.528 249.923 414.16C249.923 411.808 251.555 410.112 253.763 410.112ZM253.763 411.264C252.387 411.264 251.203 412.304 251.203 414.16C251.203 416.032 252.387 417.072 253.763 417.072C255.139 417.072 256.323 416.032 256.323 414.16C256.323 412.304 255.139 411.264 253.763 411.264ZM265.128 416.896V416.688C264.776 417.44 263.944 418.224 262.616 418.224C260.408 418.224 259.064 416.432 259.064 414.16C259.064 411.936 260.472 410.112 262.616 410.112C264.088 410.112 264.84 410.928 265.096 411.568V406.432H266.376V416.56C266.376 417.328 266.424 417.84 266.456 418H265.208C265.176 417.824 265.128 417.392 265.128 416.896ZM262.728 417.072C264.168 417.072 265.128 415.856 265.128 414.16C265.128 412.464 264.184 411.264 262.728 411.264C261.272 411.264 260.344 412.464 260.344 414.16C260.344 415.856 261.288 417.072 262.728 417.072ZM269.689 413.424H274.265C274.233 412.208 273.449 411.248 271.993 411.248C270.665 411.248 269.769 412.288 269.689 413.424ZM274.441 415.424L275.545 415.824C275.113 417.152 273.913 418.224 272.137 418.224C270.089 418.224 268.345 416.72 268.345 414.144C268.345 411.728 270.041 410.112 271.977 410.112C274.297 410.112 275.593 411.728 275.593 414.064C275.593 414.224 275.577 414.4 275.561 414.512H269.657V414.576C269.657 416.032 270.761 417.072 272.137 417.072C273.433 417.072 274.137 416.336 274.441 415.424ZM280.306 414.848H279.074C279.058 414.672 279.042 414.48 279.042 414.272C279.042 413.232 279.442 412.464 280.338 411.824L281.042 411.328C281.634 410.896 282.002 410.288 282.002 409.584C282.002 408.56 281.314 407.632 279.954 407.632C278.466 407.632 277.794 408.72 277.794 409.808C277.794 410.08 277.842 410.4 277.922 410.608L276.594 410.448C276.53 410.192 276.498 409.936 276.498 409.648C276.498 408.176 277.554 406.432 279.954 406.432C282.114 406.432 283.346 407.968 283.346 409.568C283.346 410.8 282.674 411.68 281.73 412.336L281.042 412.832C280.482 413.232 280.274 413.84 280.274 414.416C280.274 414.528 280.274 414.688 280.306 414.848ZM278.754 417.12C278.754 416.592 279.186 416.176 279.714 416.176C280.226 416.176 280.658 416.592 280.658 417.12C280.658 417.664 280.226 418.08 279.714 418.08C279.186 418.08 278.754 417.664 278.754 417.12Z" fill="#4E4763"/><path d="M296.976 409.36L294.992 409.968C294.88 409.344 294.368 408.368 292.928 408.368C291.856 408.368 291.152 409.056 291.152 409.808C291.152 410.432 291.552 410.928 292.384 411.088L293.968 411.392C296.032 411.792 297.136 413.136 297.136 414.736C297.136 416.48 295.68 418.24 293.04 418.24C290.032 418.24 288.704 416.304 288.528 414.688L290.576 414.144C290.672 415.264 291.456 416.272 293.056 416.272C294.24 416.272 294.896 415.68 294.896 414.88C294.896 414.224 294.4 413.712 293.52 413.536L291.936 413.216C290.128 412.848 288.96 411.68 288.96 409.968C288.96 407.952 290.768 406.416 292.912 406.416C295.664 406.416 296.72 408.08 296.976 409.36ZM300.549 413.168H304.069C304.037 412.384 303.525 411.616 302.309 411.616C301.205 411.616 300.597 412.448 300.549 413.168ZM304.277 415.216L306.053 415.744C305.653 417.104 304.405 418.24 302.469 418.24C300.309 418.24 298.405 416.688 298.405 414.032C298.405 411.52 300.261 409.888 302.277 409.888C304.709 409.888 306.165 411.44 306.165 413.968C306.165 414.272 306.133 414.592 306.133 414.624H300.501C300.549 415.664 301.429 416.416 302.485 416.416C303.477 416.416 304.021 415.92 304.277 415.216ZM310.013 413.472V418H307.885V410.128H309.949V411.104C310.429 410.288 311.373 409.92 312.221 409.92C314.173 409.92 315.069 411.312 315.069 413.04V418H312.941V413.408C312.941 412.528 312.509 411.84 311.485 411.84C310.557 411.84 310.013 412.56 310.013 413.472ZM324.782 406.416V416.576C324.782 417.104 324.814 417.68 324.846 418H322.814C322.782 417.84 322.734 417.456 322.734 417.088C322.382 417.712 321.582 418.192 320.526 418.192C318.286 418.192 316.686 416.432 316.686 414.048C316.686 411.744 318.238 409.936 320.462 409.936C321.822 409.936 322.462 410.496 322.686 410.912V406.416H324.782ZM318.83 414.048C318.83 415.456 319.662 416.288 320.782 416.288C321.87 416.288 322.718 415.456 322.718 414.032C322.718 412.624 321.87 411.84 320.782 411.84C319.694 411.84 318.83 412.64 318.83 414.048ZM330.296 415.856C330.296 414.448 331.336 413.664 332.648 413.472L334.584 413.184C335.032 413.12 335.176 412.896 335.176 412.624C335.176 412.064 334.744 411.6 333.848 411.6C332.92 411.6 332.408 412.192 332.344 412.88L330.456 412.48C330.584 411.248 331.72 409.888 333.832 409.888C336.328 409.888 337.256 411.296 337.256 412.88V416.752C337.256 417.168 337.304 417.728 337.352 418H335.4C335.352 417.792 335.32 417.36 335.32 417.056C334.92 417.68 334.168 418.224 333 418.224C331.32 418.224 330.296 417.088 330.296 415.856ZM333.448 416.64C334.344 416.64 335.176 416.208 335.176 414.816V414.464L333.4 414.736C332.856 414.816 332.424 415.12 332.424 415.728C332.424 416.192 332.76 416.64 333.448 416.64ZM338.905 418.432L340.825 417.92C340.969 418.784 341.657 419.408 342.665 419.408C344.009 419.408 344.761 418.736 344.761 417.216V416.64C344.441 417.152 343.705 417.648 342.569 417.648C340.473 417.648 338.905 416.032 338.905 413.824C338.905 411.744 340.409 409.984 342.569 409.984C343.817 409.984 344.537 410.528 344.809 411.056V410.128H346.857V417.152C346.857 419.312 345.689 421.28 342.729 421.28C340.569 421.28 339.129 419.936 338.905 418.432ZM342.937 415.824C344.025 415.824 344.793 415.04 344.793 413.824C344.793 412.608 343.961 411.84 342.937 411.84C341.881 411.84 341.049 412.608 341.049 413.824C341.049 415.056 341.833 415.824 342.937 415.824ZM348.562 415.856C348.562 414.448 349.602 413.664 350.914 413.472L352.85 413.184C353.298 413.12 353.442 412.896 353.442 412.624C353.442 412.064 353.01 411.6 352.114 411.6C351.186 411.6 350.674 412.192 350.61 412.88L348.722 412.48C348.85 411.248 349.986 409.888 352.098 409.888C354.594 409.888 355.522 411.296 355.522 412.88V416.752C355.522 417.168 355.57 417.728 355.618 418H353.666C353.618 417.792 353.586 417.36 353.586 417.056C353.186 417.68 352.434 418.224 351.266 418.224C349.586 418.224 348.562 417.088 348.562 415.856ZM351.714 416.64C352.61 416.64 353.442 416.208 353.442 414.816V414.464L351.666 414.736C351.122 414.816 350.69 415.12 350.69 415.728C350.69 416.192 351.026 416.64 351.714 416.64ZM359.763 418H357.635V410.128H359.763V418ZM357.379 407.552C357.379 406.816 357.971 406.224 358.691 406.224C359.427 406.224 360.003 406.816 360.003 407.552C360.003 408.256 359.427 408.848 358.691 408.848C357.971 408.848 357.379 408.256 357.379 407.552ZM364.06 413.472V418H361.932V410.128H363.996V411.104C364.476 410.288 365.42 409.92 366.268 409.92C368.22 409.92 369.116 411.312 369.116 413.04V418H366.988V413.408C366.988 412.528 366.556 411.84 365.532 411.84C364.604 411.84 364.06 412.56 364.06 413.472Z" fill="#0073C3"/></g><rect x="0.5" y="0.5" width="481" height="497" rx="12.5" stroke="#111827" stroke-opacity="0.1"/><defs><clipPath id="clip0_3_583"><rect x="1" y="1" width="480" height="496" rx="12" fill="white"/></clipPath></defs></svg>