<svg width="480" height="744" viewBox="0 0 480 744" fill="none" xmlns="http://www.w3.org/2000/svg"><rect width="480" height="744" rx="12" fill="white"/><path d="M89.1356 68.48C84.4556 68.48 80.7056 65.66 80.7056 60.32V46.73H85.4456V59.93C85.4456 62.51 86.8856 63.8 89.1356 63.8C91.3856 63.8 92.8256 62.51 92.8256 59.93V46.73H97.5656V60.32C97.5656 65.66 93.8156 68.48 89.1356 68.48ZM100.483 63.77L104.353 63.08C104.413 64.1 105.133 65.09 106.693 65.09C107.863 65.09 108.433 64.46 108.433 63.8C108.433 63.26 108.073 62.81 106.963 62.57L105.253 62.18C102.073 61.49 100.813 59.69 100.813 57.59C100.813 54.86 103.213 52.64 106.543 52.64C110.863 52.64 112.363 55.34 112.513 57.08L108.733 57.77C108.613 56.78 107.983 55.94 106.603 55.94C105.733 55.94 104.983 56.45 104.983 57.23C104.983 57.86 105.493 58.22 106.153 58.34L108.133 58.73C111.223 59.36 112.723 61.22 112.723 63.41C112.723 65.96 110.773 68.45 106.783 68.45C102.103 68.45 100.603 65.42 100.483 63.77ZM119.487 58.76H125.457C125.397 57.62 124.617 56.24 122.457 56.24C120.537 56.24 119.577 57.65 119.487 58.76ZM125.787 62.63L129.597 63.71C128.877 66.29 126.507 68.45 122.727 68.45C118.617 68.45 114.957 65.51 114.957 60.5C114.957 55.7 118.527 52.64 122.397 52.64C127.017 52.64 129.867 55.49 129.867 60.29C129.867 60.92 129.807 61.61 129.777 61.7H119.397C119.487 63.38 121.017 64.58 122.787 64.58C124.437 64.58 125.367 63.8 125.787 62.63ZM142.386 53.09V57.59C141.876 57.47 141.396 57.44 140.946 57.44C139.116 57.44 137.466 58.52 137.466 61.49V68H132.906V53.09H137.316V55.1C138.096 53.42 139.986 52.94 141.186 52.94C141.636 52.94 142.086 53 142.386 53.09ZM161.653 68.45C155.533 68.45 150.613 64.04 150.613 57.41C150.613 50.78 155.653 46.28 161.593 46.28C167.983 46.28 170.803 50.39 171.493 53.45L167.023 54.86C166.693 53.39 165.343 50.9 161.593 50.9C158.743 50.9 155.533 52.94 155.533 57.41C155.533 61.4 158.473 63.71 161.653 63.71C165.343 63.71 166.813 61.25 167.233 59.72L171.763 61.01C171.073 63.95 168.253 68.45 161.653 68.45ZM181.383 64.25C183.123 64.25 184.743 63.05 184.743 60.53C184.743 58.01 183.123 56.84 181.383 56.84C179.673 56.84 178.023 58.01 178.023 60.53C178.023 63.02 179.673 64.25 181.383 64.25ZM181.383 52.64C185.853 52.64 189.303 55.91 189.303 60.53C189.303 65.15 185.853 68.45 181.383 68.45C176.943 68.45 173.463 65.15 173.463 60.53C173.463 55.91 176.943 52.64 181.383 52.64ZM196.851 59.45V68H192.291V53.09H196.701V54.8C197.511 53.39 199.341 52.7 200.871 52.7C204.621 52.7 206.301 55.37 206.301 58.64V68H201.741V59.42C201.741 57.95 200.961 56.84 199.311 56.84C197.811 56.84 196.851 57.95 196.851 59.45ZM215.836 48.74V53.09H218.746V57.08H215.836V62.66C215.836 63.89 216.496 64.22 217.486 64.22C217.966 64.22 218.416 64.13 218.686 64.07V67.85C218.506 67.94 217.756 68.27 216.316 68.27C213.226 68.27 211.336 66.44 211.336 63.47V57.08H208.696V53.09H209.446C211.006 53.09 211.756 52.04 211.756 50.66V48.74H215.836ZM231.302 53.09V57.59C230.792 57.47 230.312 57.44 229.862 57.44C228.032 57.44 226.382 58.52 226.382 61.49V68H221.822V53.09H226.232V55.1C227.012 53.42 228.902 52.94 230.102 52.94C230.552 52.94 231.002 53 231.302 53.09ZM240.797 64.25C242.537 64.25 244.157 63.05 244.157 60.53C244.157 58.01 242.537 56.84 240.797 56.84C239.087 56.84 237.437 58.01 237.437 60.53C237.437 63.02 239.087 64.25 240.797 64.25ZM240.797 52.64C245.267 52.64 248.717 55.91 248.717 60.53C248.717 65.15 245.267 68.45 240.797 68.45C236.357 68.45 232.877 65.15 232.877 60.53C232.877 55.91 236.357 52.64 240.797 52.64ZM256.265 68H251.705V46.28H256.265V68ZM264.673 68H260.113V46.28H264.673V68ZM272.212 58.76H278.182C278.122 57.62 277.342 56.24 275.182 56.24C273.262 56.24 272.302 57.65 272.212 58.76ZM278.512 62.63L282.322 63.71C281.602 66.29 279.232 68.45 275.452 68.45C271.342 68.45 267.682 65.51 267.682 60.5C267.682 55.7 271.252 52.64 275.122 52.64C279.742 52.64 282.592 55.49 282.592 60.29C282.592 60.92 282.532 61.61 282.502 61.7H272.122C272.212 63.38 273.742 64.58 275.512 64.58C277.162 64.58 278.092 63.8 278.512 62.63ZM300.541 46.28V65.33C300.541 66.68 300.631 67.67 300.661 68H296.281C296.251 67.82 296.161 67.16 296.161 66.56C295.471 67.58 293.971 68.33 292.171 68.33C287.971 68.33 284.791 65.09 284.791 60.5C284.791 56.06 287.791 52.73 292.021 52.73C294.571 52.73 295.681 53.69 296.041 54.26V46.28H300.541ZM289.381 60.53C289.381 62.99 290.971 64.25 292.741 64.25C294.511 64.25 296.101 62.99 296.101 60.53C296.101 58.04 294.511 56.84 292.741 56.84C290.971 56.84 289.381 58.04 289.381 60.53ZM332.203 60.38L335.653 46.73H340.513L334.723 68H329.833L325.303 53.9L320.743 68H315.763L309.973 46.73H315.013L318.523 60.35L322.933 46.73H327.793L332.203 60.38ZM340.631 63.89C340.631 61.25 342.581 59.75 345.041 59.39L348.551 58.85C349.361 58.73 349.631 58.34 349.631 57.83C349.631 56.96 348.881 56.21 347.441 56.21C345.851 56.21 344.981 57.29 344.891 58.4L340.931 57.59C341.111 55.46 343.091 52.64 347.471 52.64C352.301 52.64 354.071 55.34 354.071 58.4V65.69C354.071 66.86 354.221 67.85 354.251 68H350.141C350.111 67.88 349.991 67.34 349.991 66.32C349.211 67.58 347.771 68.42 345.791 68.42C342.521 68.42 340.631 66.26 340.631 63.89ZM346.901 65.12C348.251 65.12 349.631 64.46 349.631 62.15V61.49L346.811 61.94C345.851 62.09 345.131 62.54 345.131 63.59C345.131 64.37 345.641 65.12 346.901 65.12ZM362.349 68H357.789V46.28H362.349V68ZM370.757 68H366.197V46.28H370.757V68ZM378.296 58.76H384.266C384.206 57.62 383.426 56.24 381.266 56.24C379.346 56.24 378.386 57.65 378.296 58.76ZM384.596 62.63L388.406 63.71C387.686 66.29 385.316 68.45 381.536 68.45C377.426 68.45 373.766 65.51 373.766 60.5C373.766 55.7 377.336 52.64 381.206 52.64C385.826 52.64 388.676 55.49 388.676 60.29C388.676 60.92 388.616 61.61 388.586 61.7H378.206C378.296 63.38 379.826 64.58 381.596 64.58C383.246 64.58 384.176 63.8 384.596 62.63ZM397.418 48.74V53.09H400.328V57.08H397.418V62.66C397.418 63.89 398.078 64.22 399.068 64.22C399.548 64.22 399.998 64.13 400.268 64.07V67.85C400.088 67.94 399.338 68.27 397.898 68.27C394.808 68.27 392.918 66.44 392.918 63.47V57.08H390.278V53.09H391.028C392.588 53.09 393.338 52.04 393.338 50.66V48.74H397.418ZM171.276 87.95L167.016 89.15C166.866 88.16 166.056 86.48 163.476 86.48C161.706 86.48 160.566 87.59 160.566 88.76C160.566 89.78 161.196 90.53 162.666 90.8L165.516 91.34C169.566 92.09 171.666 94.7 171.666 97.73C171.666 101.06 168.876 104.45 163.806 104.45C157.926 104.45 155.406 100.64 155.106 97.64L159.456 96.59C159.636 98.54 160.956 100.25 163.866 100.25C165.726 100.25 166.866 99.35 166.866 98.03C166.866 96.95 165.996 96.17 164.586 95.9L161.676 95.36C158.076 94.67 155.886 92.27 155.886 89.12C155.886 85.1 159.426 82.28 163.506 82.28C168.816 82.28 170.826 85.46 171.276 87.95ZM173.947 99.89C173.947 97.25 175.897 95.75 178.357 95.39L181.867 94.85C182.677 94.73 182.947 94.34 182.947 93.83C182.947 92.96 182.197 92.21 180.757 92.21C179.167 92.21 178.297 93.29 178.207 94.4L174.247 93.59C174.427 91.46 176.407 88.64 180.787 88.64C185.617 88.64 187.387 91.34 187.387 94.4V101.69C187.387 102.86 187.537 103.85 187.567 104H183.457C183.427 103.88 183.307 103.34 183.307 102.32C182.527 103.58 181.087 104.42 179.107 104.42C175.837 104.42 173.947 102.26 173.947 99.89ZM180.217 101.12C181.567 101.12 182.947 100.46 182.947 98.15V97.49L180.127 97.94C179.167 98.09 178.447 98.54 178.447 99.59C178.447 100.37 178.957 101.12 180.217 101.12ZM195.665 104H191.105V89.09H195.455V90.8C196.205 89.48 198.125 88.64 199.745 88.64C201.875 88.64 203.405 89.51 204.155 90.98C205.325 89.3 206.765 88.64 208.775 88.64C211.595 88.64 214.295 90.29 214.295 94.34V104H209.885V95.36C209.885 93.95 209.135 92.84 207.515 92.84C205.895 92.84 205.025 94.07 205.025 95.39V104H200.525V95.36C200.525 93.95 199.775 92.84 198.125 92.84C196.535 92.84 195.665 94.07 195.665 95.42V104ZM222.588 109.7H218.028V89.09H222.438V90.62C223.068 89.66 224.688 88.73 226.818 88.73C231.138 88.73 233.748 92.03 233.748 96.5C233.748 101.06 230.808 104.33 226.638 104.33C224.718 104.33 223.278 103.67 222.588 102.83V109.7ZM229.278 96.53C229.278 94.04 227.688 92.84 225.888 92.84C224.118 92.84 222.528 94.04 222.528 96.53C222.528 98.99 224.118 100.25 225.888 100.25C227.688 100.25 229.278 99.02 229.278 96.53ZM241.338 104H236.778V82.28H241.338V104ZM248.877 94.76H254.847C254.787 93.62 254.007 92.24 251.847 92.24C249.927 92.24 248.967 93.65 248.877 94.76ZM255.177 98.63L258.987 99.71C258.267 102.29 255.897 104.45 252.117 104.45C248.007 104.45 244.347 101.51 244.347 96.5C244.347 91.7 247.917 88.64 251.787 88.64C256.407 88.64 259.257 91.49 259.257 96.29C259.257 96.92 259.197 97.61 259.167 97.7H248.787C248.877 99.38 250.407 100.58 252.177 100.58C253.827 100.58 254.757 99.8 255.177 98.63ZM282.969 104L281.439 99.68H273.219L271.689 104H266.709L274.719 82.73H280.209L288.129 104H282.969ZM277.389 88.01L274.779 95.36H279.939L277.389 88.01ZM294.834 109.7H290.274V89.09H294.684V90.62C295.314 89.66 296.934 88.73 299.064 88.73C303.384 88.73 305.994 92.03 305.994 96.5C305.994 101.06 303.054 104.33 298.884 104.33C296.964 104.33 295.524 103.67 294.834 102.83V109.7ZM301.524 96.53C301.524 94.04 299.934 92.84 298.134 92.84C296.364 92.84 294.774 94.04 294.774 96.53C294.774 98.99 296.364 100.25 298.134 100.25C299.934 100.25 301.524 99.02 301.524 96.53ZM313.584 109.7H309.024V89.09H313.434V90.62C314.064 89.66 315.684 88.73 317.814 88.73C322.134 88.73 324.744 92.03 324.744 96.5C324.744 101.06 321.804 104.33 317.634 104.33C315.714 104.33 314.274 103.67 313.584 102.83V109.7ZM320.274 96.53C320.274 94.04 318.684 92.84 316.884 92.84C315.114 92.84 313.524 94.04 313.524 96.53C313.524 98.99 315.114 100.25 316.884 100.25C318.684 100.25 320.274 99.02 320.274 96.53Z" fill="#29233B"/><path d="M127.525 153.224C124.645 153.224 121.941 151.112 121.941 147.32C121.941 143.528 124.725 141.432 127.525 141.432C130.101 141.432 131.925 142.856 132.485 145.032L131.237 145.464C130.805 143.688 129.461 142.664 127.525 142.664C125.365 142.664 123.285 144.248 123.285 147.32C123.285 150.408 125.365 151.992 127.525 151.992C129.541 151.992 130.853 150.776 131.317 149.144L132.501 149.576C131.925 151.704 130.117 153.224 127.525 153.224ZM135.606 148.424V153H134.326V141.432H135.606V146.36C136.102 145.56 136.982 145.112 137.974 145.112C139.814 145.112 140.71 146.424 140.71 148.088V153H139.43V148.28C139.43 147.16 138.918 146.264 137.526 146.264C136.31 146.264 135.606 147.24 135.606 148.424ZM146.419 145.112C148.627 145.112 150.259 146.808 150.259 149.16C150.259 151.528 148.627 153.224 146.419 153.224C144.211 153.224 142.579 151.528 142.579 149.16C142.579 146.808 144.211 145.112 146.419 145.112ZM146.419 146.264C145.043 146.264 143.859 147.304 143.859 149.16C143.859 151.032 145.043 152.072 146.419 152.072C147.795 152.072 148.979 151.032 148.979 149.16C148.979 147.304 147.795 146.264 146.419 146.264ZM155.544 145.112C157.752 145.112 159.384 146.808 159.384 149.16C159.384 151.528 157.752 153.224 155.544 153.224C153.336 153.224 151.704 151.528 151.704 149.16C151.704 146.808 153.336 145.112 155.544 145.112ZM155.544 146.264C154.168 146.264 152.984 147.304 152.984 149.16C152.984 151.032 154.168 152.072 155.544 152.072C156.92 152.072 158.104 151.032 158.104 149.16C158.104 147.304 156.92 146.264 155.544 146.264ZM160.733 150.984L161.885 150.584C161.997 151.464 162.653 152.136 163.805 152.136C164.717 152.136 165.293 151.624 165.293 150.968C165.293 150.392 164.829 150.008 164.125 149.848L162.877 149.56C161.709 149.288 160.973 148.536 160.973 147.432C160.973 146.152 162.189 145.112 163.645 145.112C165.629 145.112 166.317 146.376 166.493 147.16L165.357 147.576C165.261 147.048 164.861 146.2 163.645 146.2C162.845 146.2 162.221 146.712 162.221 147.352C162.221 147.896 162.557 148.232 163.229 148.392L164.477 148.68C165.821 148.984 166.557 149.768 166.557 150.904C166.557 152.008 165.613 153.224 163.789 153.224C161.773 153.224 160.861 151.944 160.733 150.984ZM169.345 148.424H173.921C173.889 147.208 173.105 146.248 171.649 146.248C170.321 146.248 169.425 147.288 169.345 148.424ZM174.097 150.424L175.201 150.824C174.769 152.152 173.569 153.224 171.793 153.224C169.745 153.224 168.001 151.72 168.001 149.144C168.001 146.728 169.697 145.112 171.633 145.112C173.953 145.112 175.249 146.728 175.249 149.064C175.249 149.224 175.233 149.4 175.217 149.512H169.313V149.576C169.313 151.032 170.417 152.072 171.793 152.072C173.089 152.072 173.793 151.336 174.097 150.424ZM184.576 145.112C186.784 145.112 188.416 146.808 188.416 149.16C188.416 151.528 186.784 153.224 184.576 153.224C182.368 153.224 180.736 151.528 180.736 149.16C180.736 146.808 182.368 145.112 184.576 145.112ZM184.576 146.264C183.2 146.264 182.016 147.304 182.016 149.16C182.016 151.032 183.2 152.072 184.576 152.072C185.952 152.072 187.136 151.032 187.136 149.16C187.136 147.304 185.952 146.264 184.576 146.264ZM191.669 148.488V153H190.389V145.336H191.637V146.488C192.133 145.592 193.029 145.112 194.037 145.112C195.877 145.112 196.773 146.424 196.773 148.088V153H195.493V148.28C195.493 147.16 194.981 146.264 193.589 146.264C192.357 146.264 191.669 147.288 191.669 148.488ZM199.986 148.424H204.562C204.53 147.208 203.746 146.248 202.29 146.248C200.962 146.248 200.066 147.288 199.986 148.424ZM204.738 150.424L205.842 150.824C205.41 152.152 204.21 153.224 202.434 153.224C200.386 153.224 198.642 151.72 198.642 149.144C198.642 146.728 200.338 145.112 202.274 145.112C204.594 145.112 205.89 146.728 205.89 149.064C205.89 149.224 205.874 149.4 205.858 149.512H199.954V149.576C199.954 151.032 201.058 152.072 202.434 152.072C203.73 152.072 204.434 151.336 204.738 150.424ZM219.724 153L218.428 149.688H213.228L211.964 153H210.508L215.052 141.656H216.62L221.18 153H219.724ZM215.82 143.032L213.708 148.456H217.948L215.82 143.032ZM227.617 151.96C227.249 152.744 226.321 153.224 225.313 153.224C223.457 153.224 222.433 151.848 222.433 150.152V145.336H223.713V149.944C223.713 151.064 224.241 152.072 225.601 152.072C226.865 152.072 227.553 151.176 227.553 149.96V145.336H228.833V151.56C228.833 152.152 228.881 152.696 228.929 153H227.697C227.649 152.824 227.617 152.408 227.617 152.024V151.96ZM233.182 142.904V145.336H234.99V146.488H233.182V150.728C233.182 151.528 233.534 151.928 234.35 151.928C234.574 151.928 234.862 151.88 234.99 151.848V152.936C234.846 152.984 234.478 153.08 233.982 153.08C232.718 153.08 231.902 152.296 231.902 150.904V146.488H230.366V145.336H230.862C231.646 145.336 231.982 144.888 231.982 144.168V142.904H233.182ZM238.028 148.424V153H236.748V141.432H238.028V146.36C238.524 145.56 239.404 145.112 240.396 145.112C242.236 145.112 243.132 146.424 243.132 148.088V153H241.852V148.28C241.852 147.16 241.34 146.264 239.948 146.264C238.732 146.264 238.028 147.24 238.028 148.424ZM262.039 153H260.695V143.768L256.583 153H255.351L251.271 143.768V153H249.927V141.656H251.767L255.975 151.208L260.215 141.656H262.039V153ZM265.502 148.424H270.078C270.046 147.208 269.262 146.248 267.806 146.248C266.478 146.248 265.582 147.288 265.502 148.424ZM270.254 150.424L271.358 150.824C270.926 152.152 269.726 153.224 267.95 153.224C265.902 153.224 264.158 151.72 264.158 149.144C264.158 146.728 265.854 145.112 267.79 145.112C270.11 145.112 271.406 146.728 271.406 149.064C271.406 149.224 271.39 149.4 271.374 149.512H265.47V149.576C265.47 151.032 266.574 152.072 267.95 152.072C269.246 152.072 269.95 151.336 270.254 150.424ZM275.12 142.904V145.336H276.928V146.488H275.12V150.728C275.12 151.528 275.472 151.928 276.288 151.928C276.512 151.928 276.8 151.88 276.928 151.848V152.936C276.784 152.984 276.416 153.08 275.92 153.08C274.656 153.08 273.84 152.296 273.84 150.904V146.488H272.304V145.336H272.8C273.584 145.336 273.92 144.888 273.92 144.168V142.904H275.12ZM279.966 148.424V153H278.686V141.432H279.966V146.36C280.462 145.56 281.342 145.112 282.334 145.112C284.174 145.112 285.07 146.424 285.07 148.088V153H283.79V148.28C283.79 147.16 283.278 146.264 281.886 146.264C280.67 146.264 279.966 147.24 279.966 148.424ZM290.779 145.112C292.987 145.112 294.619 146.808 294.619 149.16C294.619 151.528 292.987 153.224 290.779 153.224C288.571 153.224 286.939 151.528 286.939 149.16C286.939 146.808 288.571 145.112 290.779 145.112ZM290.779 146.264C289.403 146.264 288.219 147.304 288.219 149.16C288.219 151.032 289.403 152.072 290.779 152.072C292.155 152.072 293.339 151.032 293.339 149.16C293.339 147.304 292.155 146.264 290.779 146.264ZM302.144 151.896V151.688C301.792 152.44 300.96 153.224 299.632 153.224C297.424 153.224 296.08 151.432 296.08 149.16C296.08 146.936 297.488 145.112 299.632 145.112C301.104 145.112 301.856 145.928 302.112 146.568V141.432H303.392V151.56C303.392 152.328 303.44 152.84 303.472 153H302.224C302.192 152.824 302.144 152.392 302.144 151.896ZM299.744 152.072C301.184 152.072 302.144 150.856 302.144 149.16C302.144 147.464 301.2 146.264 299.744 146.264C298.288 146.264 297.36 147.464 297.36 149.16C297.36 150.856 298.304 152.072 299.744 152.072ZM311.51 142.904V145.336H313.318V146.488H311.51V150.728C311.51 151.528 311.862 151.928 312.678 151.928C312.902 151.928 313.19 151.88 313.318 151.848V152.936C313.174 152.984 312.806 153.08 312.31 153.08C311.046 153.08 310.23 152.296 310.23 150.904V146.488H308.694V145.336H309.19C309.974 145.336 310.31 144.888 310.31 144.168V142.904H311.51ZM318.388 145.112C320.596 145.112 322.228 146.808 322.228 149.16C322.228 151.528 320.596 153.224 318.388 153.224C316.18 153.224 314.548 151.528 314.548 149.16C314.548 146.808 316.18 145.112 318.388 145.112ZM318.388 146.264C317.012 146.264 315.828 147.304 315.828 149.16C315.828 151.032 317.012 152.072 318.388 152.072C319.764 152.072 320.948 151.032 320.948 149.16C320.948 147.304 319.764 146.264 318.388 146.264ZM327.655 150.984L328.807 150.584C328.919 151.464 329.575 152.136 330.727 152.136C331.639 152.136 332.215 151.624 332.215 150.968C332.215 150.392 331.751 150.008 331.047 149.848L329.799 149.56C328.631 149.288 327.895 148.536 327.895 147.432C327.895 146.152 329.111 145.112 330.567 145.112C332.551 145.112 333.239 146.376 333.415 147.16L332.279 147.576C332.183 147.048 331.783 146.2 330.567 146.2C329.767 146.2 329.143 146.712 329.143 147.352C329.143 147.896 329.479 148.232 330.151 148.392L331.399 148.68C332.743 148.984 333.479 149.768 333.479 150.904C333.479 152.008 332.535 153.224 330.711 153.224C328.695 153.224 327.783 151.944 327.655 150.984ZM337.307 142.904V145.336H339.115V146.488H337.307V150.728C337.307 151.528 337.659 151.928 338.475 151.928C338.699 151.928 338.987 151.88 339.115 151.848V152.936C338.971 152.984 338.603 153.08 338.107 153.08C336.843 153.08 336.027 152.296 336.027 150.904V146.488H334.491V145.336H334.987C335.771 145.336 336.107 144.888 336.107 144.168V142.904H337.307ZM340.329 150.968C340.329 149.624 341.273 148.872 342.617 148.68L344.681 148.376C345.241 148.296 345.369 148.056 345.369 147.72C345.369 146.856 344.793 146.2 343.593 146.2C342.473 146.2 341.801 146.872 341.689 147.848L340.473 147.56C340.633 146.104 341.913 145.112 343.561 145.112C345.737 145.112 346.649 146.36 346.649 147.848V151.72C346.649 152.36 346.697 152.76 346.745 153H345.497C345.465 152.824 345.401 152.44 345.401 151.848C345.065 152.472 344.233 153.224 342.857 153.224C341.273 153.224 340.329 152.136 340.329 150.968ZM343.017 152.136C344.345 152.136 345.369 151.4 345.369 149.768V149.256L342.873 149.624C342.137 149.736 341.609 150.152 341.609 150.904C341.609 151.528 342.137 152.136 343.017 152.136ZM353.173 145.288V146.648C352.965 146.584 352.725 146.568 352.501 146.568C351.221 146.568 350.341 147.304 350.341 149.032V153H349.061V145.336H350.309V146.712C350.805 145.592 351.781 145.224 352.629 145.224C352.837 145.224 353.061 145.256 353.173 145.288ZM356.542 142.904V145.336H358.35V146.488H356.542V150.728C356.542 151.528 356.894 151.928 357.71 151.928C357.934 151.928 358.222 151.88 358.35 151.848V152.936C358.206 152.984 357.838 153.08 357.342 153.08C356.078 153.08 355.262 152.296 355.262 150.904V146.488H353.726V145.336H354.222C355.006 145.336 355.342 144.888 355.342 144.168V142.904H356.542Z" fill="#8A849C"/><mask id="path-4-inside-1_36_41269" fill="white"><path d="M32 184H448V224H32V184Z"/></mask><path d="M448 223H32V225H448V223Z" fill="#111827" fill-opacity="0.1" mask="url(#path-4-inside-1_36_41269)"/><mask id="path-6-inside-2_36_41269" fill="white"><path d="M32 184H168V224H32V184Z"/></mask><path d="M168 222H32V226H168V222Z" fill="#29233B" mask="url(#path-6-inside-2_36_41269)"/><path d="M86.3041 192.36L84.3201 192.968C84.2081 192.344 83.6961 191.368 82.2561 191.368C81.1841 191.368 80.4801 192.056 80.4801 192.808C80.4801 193.432 80.8801 193.928 81.7121 194.088L83.2961 194.392C85.3601 194.792 86.4641 196.136 86.4641 197.736C86.4641 199.48 85.0081 201.24 82.3681 201.24C79.3601 201.24 78.0321 199.304 77.8561 197.688L79.9041 197.144C80.0001 198.264 80.7841 199.272 82.3841 199.272C83.5681 199.272 84.2241 198.68 84.2241 197.88C84.2241 197.224 83.7281 196.712 82.8481 196.536L81.2641 196.216C79.4561 195.848 78.2881 194.68 78.2881 192.968C78.2881 190.952 80.0961 189.416 82.2401 189.416C84.9921 189.416 86.0481 191.08 86.3041 192.36ZM91.8454 199.304C92.8854 199.304 93.8454 198.552 93.8454 197.064C93.8454 195.576 92.8854 194.824 91.8454 194.824C90.8054 194.824 89.8454 195.576 89.8454 197.064C89.8454 198.536 90.8054 199.304 91.8454 199.304ZM91.8454 192.888C94.1974 192.888 95.9734 194.632 95.9734 197.064C95.9734 199.48 94.1974 201.24 91.8454 201.24C89.4934 201.24 87.7174 199.48 87.7174 197.064C87.7174 194.632 89.4934 192.888 91.8454 192.888ZM101.314 194.856C100.226 194.856 99.3141 195.64 99.3141 197.064C99.3141 198.488 100.242 199.288 101.33 199.288C102.418 199.288 102.962 198.568 103.138 197.96L105.01 198.584C104.658 199.896 103.426 201.24 101.33 201.24C99.0101 201.24 97.1861 199.48 97.1861 197.064C97.1861 194.632 98.9781 192.888 101.266 192.888C103.41 192.888 104.626 194.216 104.962 195.544L103.058 196.184C102.866 195.528 102.37 194.856 101.314 194.856ZM108.685 201H106.557V193.128H108.685V201ZM106.301 190.552C106.301 189.816 106.893 189.224 107.613 189.224C108.349 189.224 108.925 189.816 108.925 190.552C108.925 191.256 108.349 191.848 107.613 191.848C106.893 191.848 106.301 191.256 106.301 190.552ZM110.39 198.856C110.39 197.448 111.43 196.664 112.742 196.472L114.678 196.184C115.126 196.12 115.27 195.896 115.27 195.624C115.27 195.064 114.838 194.6 113.942 194.6C113.014 194.6 112.502 195.192 112.438 195.88L110.55 195.48C110.678 194.248 111.814 192.888 113.926 192.888C116.422 192.888 117.35 194.296 117.35 195.88V199.752C117.35 200.168 117.398 200.728 117.446 201H115.494C115.446 200.792 115.414 200.36 115.414 200.056C115.014 200.68 114.262 201.224 113.094 201.224C111.414 201.224 110.39 200.088 110.39 198.856ZM113.542 199.64C114.438 199.64 115.27 199.208 115.27 197.816V197.464L113.494 197.736C112.95 197.816 112.518 198.12 112.518 198.728C112.518 199.192 112.854 199.64 113.542 199.64ZM121.591 201H119.463V189.416H121.591V201Z" fill="#29233B"/><path d="M228.19 201H221.086V189.656H228.19V191.736H223.294V194.328H227.726V196.296H223.294V198.92H228.19V201ZM232.146 201H230.018V193.128H232.05V194.088C232.482 193.32 233.49 192.904 234.354 192.904C235.426 192.904 236.29 193.368 236.69 194.216C237.314 193.256 238.146 192.904 239.186 192.904C240.642 192.904 242.034 193.784 242.034 195.896V201H239.97V196.328C239.97 195.48 239.554 194.84 238.578 194.84C237.666 194.84 237.122 195.544 237.122 196.392V201H235.01V196.328C235.01 195.48 234.578 194.84 233.618 194.84C232.69 194.84 232.146 195.528 232.146 196.392V201ZM243.663 198.856C243.663 197.448 244.703 196.664 246.015 196.472L247.951 196.184C248.399 196.12 248.543 195.896 248.543 195.624C248.543 195.064 248.111 194.6 247.215 194.6C246.287 194.6 245.775 195.192 245.711 195.88L243.823 195.48C243.951 194.248 245.087 192.888 247.199 192.888C249.695 192.888 250.623 194.296 250.623 195.88V199.752C250.623 200.168 250.671 200.728 250.719 201H248.767C248.719 200.792 248.687 200.36 248.687 200.056C248.287 200.68 247.535 201.224 246.367 201.224C244.687 201.224 243.663 200.088 243.663 198.856ZM246.815 199.64C247.711 199.64 248.543 199.208 248.543 197.816V197.464L246.767 197.736C246.223 197.816 245.791 198.12 245.791 198.728C245.791 199.192 246.127 199.64 246.815 199.64ZM254.864 201H252.736V193.128H254.864V201ZM252.48 190.552C252.48 189.816 253.072 189.224 253.792 189.224C254.528 189.224 255.104 189.816 255.104 190.552C255.104 191.256 254.528 191.848 253.792 191.848C253.072 191.848 252.48 191.256 252.48 190.552ZM259.161 201H257.033V189.416H259.161V201Z" fill="#8A849C"/><path d="M370.091 194.824H371.835C372.939 194.824 373.611 194.184 373.611 193.208C373.611 192.2 372.939 191.576 371.835 191.576H370.091V194.824ZM372.107 196.728H370.075V201H367.867V189.656H372.107C374.347 189.656 375.835 191.144 375.835 193.192C375.835 195.256 374.347 196.728 372.107 196.728ZM379.795 201H377.555V189.656H379.795V201ZM392.125 201H389.805L384.653 192.952V201H382.445V189.656H385.197L389.917 197.16V189.656H392.125V201Z" fill="#8A849C"/><path d="M35.094 261.208H36.634C38.258 261.208 39.616 260.2 39.616 258.044C39.616 255.888 38.272 254.866 36.648 254.866H35.094V261.208ZM36.704 263H33.162V253.074H36.718C39.546 253.074 41.618 254.908 41.618 258.044C41.618 261.18 39.532 263 36.704 263ZM44.6486 258.772H47.7286C47.7006 258.086 47.2526 257.414 46.1886 257.414C45.2226 257.414 44.6906 258.142 44.6486 258.772ZM47.9106 260.564L49.4646 261.026C49.1146 262.216 48.0226 263.21 46.3286 263.21C44.4386 263.21 42.7726 261.852 42.7726 259.528C42.7726 257.33 44.3966 255.902 46.1606 255.902C48.2886 255.902 49.5626 257.26 49.5626 259.472C49.5626 259.738 49.5346 260.018 49.5346 260.046H44.6066C44.6486 260.956 45.4186 261.614 46.3426 261.614C47.2106 261.614 47.6866 261.18 47.9106 260.564ZM57.4008 256.112L54.7268 263H52.8648L50.0508 256.112H52.0948L53.8028 260.732L55.4408 256.112H57.4008ZM60.4488 263H58.5868V256.112H60.4488V263ZM58.3628 253.858C58.3628 253.214 58.8808 252.696 59.5108 252.696C60.1548 252.696 60.6588 253.214 60.6588 253.858C60.6588 254.474 60.1548 254.992 59.5108 254.992C58.8808 254.992 58.3628 254.474 58.3628 253.858ZM65.5385 257.624C64.5865 257.624 63.7885 258.31 63.7885 259.556C63.7885 260.802 64.6005 261.502 65.5525 261.502C66.5045 261.502 66.9805 260.872 67.1345 260.34L68.7725 260.886C68.4645 262.034 67.3865 263.21 65.5525 263.21C63.5225 263.21 61.9265 261.67 61.9265 259.556C61.9265 257.428 63.4945 255.902 65.4965 255.902C67.3725 255.902 68.4365 257.064 68.7305 258.226L67.0645 258.786C66.8965 258.212 66.4625 257.624 65.5385 257.624ZM71.5958 258.772H74.6758C74.6478 258.086 74.1998 257.414 73.1358 257.414C72.1698 257.414 71.6378 258.142 71.5958 258.772ZM74.8578 260.564L76.4118 261.026C76.0618 262.216 74.9698 263.21 73.2758 263.21C71.3858 263.21 69.7198 261.852 69.7198 259.528C69.7198 257.33 71.3438 255.902 73.1078 255.902C75.2358 255.902 76.5098 257.26 76.5098 259.472C76.5098 259.738 76.4818 260.018 76.4818 260.046H71.5538C71.5958 260.956 72.3658 261.614 73.2898 261.614C74.1578 261.614 74.6338 261.18 74.8578 260.564ZM83.5068 263H81.5468V253.074H83.5068V263ZM87.7581 261.208H89.2981C90.9221 261.208 92.2801 260.2 92.2801 258.044C92.2801 255.888 90.9361 254.866 89.3121 254.866H87.7581V261.208ZM89.3681 263H85.8261V253.074H89.3821C92.2101 253.074 94.2821 254.908 94.2821 258.044C94.2821 261.18 92.1961 263 89.3681 263Z" fill="#4E4763"/><path d="M32.704 294.968C32.704 293.624 33.648 292.872 34.992 292.68L37.056 292.376C37.616 292.296 37.744 292.056 37.744 291.72C37.744 290.856 37.168 290.2 35.968 290.2C34.848 290.2 34.176 290.872 34.064 291.848L32.848 291.56C33.008 290.104 34.288 289.112 35.936 289.112C38.112 289.112 39.024 290.36 39.024 291.848V295.72C39.024 296.36 39.072 296.76 39.12 297H37.872C37.84 296.824 37.776 296.44 37.776 295.848C37.44 296.472 36.608 297.224 35.232 297.224C33.648 297.224 32.704 296.136 32.704 294.968ZM35.392 296.136C36.72 296.136 37.744 295.4 37.744 293.768V293.256L35.248 293.624C34.512 293.736 33.984 294.152 33.984 294.904C33.984 295.528 34.512 296.136 35.392 296.136ZM44.4595 297H43.1475V289.432H40.6035V288.664C42.0435 288.6 43.0195 287.752 43.2755 286.632H44.4595V297ZM52.4563 295.896V295.688C52.1043 296.44 51.2723 297.224 49.9443 297.224C47.7363 297.224 46.3923 295.432 46.3923 293.16C46.3923 290.936 47.8003 289.112 49.9443 289.112C51.4163 289.112 52.1683 289.928 52.4243 290.568V285.432H53.7043V295.56C53.7043 296.328 53.7523 296.84 53.7843 297H52.5363C52.5043 296.824 52.4563 296.392 52.4563 295.896ZM50.0563 296.072C51.4963 296.072 52.4563 294.856 52.4563 293.16C52.4563 291.464 51.5123 290.264 50.0563 290.264C48.6003 290.264 47.6723 291.464 47.6723 293.16C47.6723 294.856 48.6163 296.072 50.0563 296.072ZM56.2011 297.896V289.336H57.4811V297.944C57.4811 299.336 56.6811 300.264 55.3851 300.264C54.9211 300.264 54.6811 300.2 54.5211 300.136V299.016C54.6491 299.08 54.8411 299.112 55.0651 299.112C55.8811 299.112 56.2011 298.696 56.2011 297.896ZM55.8811 286.312C55.8811 285.784 56.3131 285.352 56.8411 285.352C57.3691 285.352 57.8011 285.784 57.8011 286.312C57.8011 286.84 57.3691 287.272 56.8411 287.272C56.3131 287.272 55.8811 286.84 55.8811 286.312ZM61.2624 297H59.9824V289.336H61.2624V297ZM59.6624 286.312C59.6624 285.784 60.0944 285.352 60.6224 285.352C61.1504 285.352 61.5824 285.784 61.5824 286.312C61.5824 286.84 61.1504 287.272 60.6224 287.272C60.0944 287.272 59.6624 286.84 59.6624 286.312ZM64.5796 292.424H69.1556C69.1236 291.208 68.3396 290.248 66.8836 290.248C65.5556 290.248 64.6596 291.288 64.5796 292.424ZM69.3316 294.424L70.4356 294.824C70.0036 296.152 68.8036 297.224 67.0276 297.224C64.9796 297.224 63.2356 295.72 63.2356 293.144C63.2356 290.728 64.9316 289.112 66.8676 289.112C69.1876 289.112 70.4836 290.728 70.4836 293.064C70.4836 293.224 70.4676 293.4 70.4516 293.512H64.5476V293.576C64.5476 295.032 65.6516 296.072 67.0276 296.072C68.3236 296.072 69.0276 295.336 69.3316 294.424ZM76.7924 289.336H78.1204L80.2484 295.4L82.0724 289.336H83.4324L80.9364 297H79.5924L77.4484 290.888L75.3364 297H73.9764L71.4324 289.336H72.8084L74.6804 295.4L76.7924 289.336ZM89.11 292.968H84.838V291.848H89.11V292.968ZM95.0255 290.488H93.0415V297H91.7615V290.488H90.2575V289.336H91.7615V287.912C91.7615 286.232 92.8175 285.352 94.1775 285.352C94.6415 285.352 94.9455 285.448 95.0575 285.512V286.616C94.9455 286.568 94.7375 286.504 94.3695 286.504C93.7455 286.504 93.0415 286.84 93.0415 287.944V289.336H95.0255V290.488ZM97.2203 292.424H101.796C101.764 291.208 100.98 290.248 99.5243 290.248C98.1963 290.248 97.3003 291.288 97.2203 292.424ZM101.972 294.424L103.076 294.824C102.644 296.152 101.444 297.224 99.6683 297.224C97.6203 297.224 95.8763 295.72 95.8763 293.144C95.8763 290.728 97.5723 289.112 99.5083 289.112C101.828 289.112 103.124 290.728 103.124 293.064C103.124 293.224 103.108 293.4 103.092 293.512H97.1883V293.576C97.1883 295.032 98.2923 296.072 99.6683 296.072C100.964 296.072 101.668 295.336 101.972 294.424ZM110.613 295.896V295.688C110.261 296.44 109.429 297.224 108.101 297.224C105.893 297.224 104.549 295.432 104.549 293.16C104.549 290.936 105.957 289.112 108.101 289.112C109.573 289.112 110.325 289.928 110.581 290.568V285.432H111.861V295.56C111.861 296.328 111.909 296.84 111.941 297H110.693C110.661 296.824 110.613 296.392 110.613 295.896ZM108.213 296.072C109.653 296.072 110.613 294.856 110.613 293.16C110.613 291.464 109.669 290.264 108.213 290.264C106.757 290.264 105.829 291.464 105.829 293.16C105.829 294.856 106.773 296.072 108.213 296.072ZM118.197 290.488H116.213V297H114.933V290.488H113.429V289.336H114.933V287.912C114.933 286.232 115.989 285.352 117.349 285.352C117.813 285.352 118.117 285.448 118.229 285.512V286.616C118.117 286.568 117.909 286.504 117.541 286.504C116.917 286.504 116.213 286.84 116.213 287.944V289.336H118.197V290.488ZM121.044 292.424V297H119.764V285.432H121.044V290.36C121.54 289.56 122.42 289.112 123.412 289.112C125.252 289.112 126.148 290.424 126.148 292.088V297H124.868V292.28C124.868 291.16 124.356 290.264 122.964 290.264C121.748 290.264 121.044 291.24 121.044 292.424ZM129.361 292.424H133.937C133.905 291.208 133.121 290.248 131.665 290.248C130.337 290.248 129.441 291.288 129.361 292.424ZM134.113 294.424L135.217 294.824C134.785 296.152 133.585 297.224 131.809 297.224C129.761 297.224 128.017 295.72 128.017 293.144C128.017 290.728 129.713 289.112 131.649 289.112C133.969 289.112 135.265 290.728 135.265 293.064C135.265 293.224 135.249 293.4 135.233 293.512H129.329V293.576C129.329 295.032 130.433 296.072 131.809 296.072C133.105 296.072 133.809 295.336 134.113 294.424ZM138.193 290.344L136.881 290.184C136.849 290.04 136.833 289.864 136.833 289.72C136.833 287.944 138.129 286.408 140.353 286.408C142.497 286.408 143.777 287.832 143.777 289.544C143.777 290.904 143.009 291.976 141.825 292.728L139.697 294.088C139.073 294.488 138.497 295.032 138.369 295.784H143.873V297H136.737C136.769 295.4 137.409 294.12 139.073 293.048L140.929 291.848C141.937 291.208 142.433 290.472 142.433 289.56C142.433 288.536 141.697 287.592 140.321 287.592C138.913 287.592 138.145 288.568 138.145 289.848C138.145 290.024 138.161 290.216 138.193 290.344ZM151.055 295.96C150.687 296.744 149.759 297.224 148.751 297.224C146.895 297.224 145.871 295.848 145.871 294.152V289.336H147.151V293.944C147.151 295.064 147.679 296.072 149.039 296.072C150.303 296.072 150.991 295.176 150.991 293.96V289.336H152.271V295.56C152.271 296.152 152.319 296.696 152.367 297H151.135C151.087 296.824 151.055 296.408 151.055 296.024V295.96ZM158.604 290.488H156.62V297H155.34V290.488H153.836V289.336H155.34V287.912C155.34 286.232 156.396 285.352 157.756 285.352C158.22 285.352 158.524 285.448 158.636 285.512V286.616C158.524 286.568 158.316 286.504 157.948 286.504C157.324 286.504 156.62 286.84 156.62 287.944V289.336H158.604V290.488ZM161.45 292.424V297H160.17V285.432H161.45V290.36C161.946 289.56 162.826 289.112 163.818 289.112C165.658 289.112 166.554 290.424 166.554 292.088V297H165.274V292.28C165.274 291.16 164.762 290.264 163.37 290.264C162.154 290.264 161.45 291.24 161.45 292.424ZM173.063 292.968H168.791V291.848H173.063V292.968ZM179.516 289.288V290.648C179.308 290.584 179.068 290.568 178.844 290.568C177.564 290.568 176.684 291.304 176.684 293.032V297H175.404V289.336H176.652V290.712C177.148 289.592 178.124 289.224 178.972 289.224C179.18 289.224 179.404 289.256 179.516 289.288ZM181.029 297.896V289.336H182.309V297.944C182.309 299.336 181.509 300.264 180.213 300.264C179.749 300.264 179.509 300.2 179.349 300.136V299.016C179.477 299.08 179.669 299.112 179.893 299.112C180.709 299.112 181.029 298.696 181.029 297.896ZM180.709 286.312C180.709 285.784 181.141 285.352 181.669 285.352C182.197 285.352 182.629 285.784 182.629 286.312C182.629 286.84 182.197 287.272 181.669 287.272C181.141 287.272 180.709 286.84 180.709 286.312ZM188.651 290.488H186.667V297H185.387V290.488H183.883V289.336H185.387V287.912C185.387 286.232 186.443 285.352 187.803 285.352C188.266 285.352 188.571 285.448 188.683 285.512V286.616C188.571 286.568 188.363 286.504 187.995 286.504C187.371 286.504 186.667 286.84 186.667 287.944V289.336H188.651V290.488ZM190.845 292.424H195.421C195.389 291.208 194.605 290.248 193.149 290.248C191.821 290.248 190.925 291.288 190.845 292.424ZM195.597 294.424L196.701 294.824C196.269 296.152 195.069 297.224 193.293 297.224C191.245 297.224 189.501 295.72 189.501 293.144C189.501 290.728 191.197 289.112 193.133 289.112C195.453 289.112 196.749 290.728 196.749 293.064C196.749 293.224 196.733 293.4 196.717 293.512H190.813V293.576C190.813 295.032 191.917 296.072 193.293 296.072C194.589 296.072 195.293 295.336 195.597 294.424ZM205.534 300.04H204.254V295.8C203.854 296.568 202.99 297.224 201.742 297.224C199.566 297.224 198.174 295.4 198.174 293.16C198.174 290.936 199.502 289.112 201.71 289.112C203.134 289.112 203.966 289.928 204.286 290.616V289.336H205.534V300.04ZM201.854 296.072C203.31 296.072 204.27 294.856 204.27 293.16C204.27 291.464 203.326 290.264 201.854 290.264C200.382 290.264 199.454 291.464 199.454 293.16C199.454 294.856 200.398 296.072 201.854 296.072ZM209.309 292.488V297H208.029V289.336H209.277V290.488C209.773 289.592 210.669 289.112 211.677 289.112C213.517 289.112 214.413 290.424 214.413 292.088V297H213.133V292.28C213.133 291.16 212.621 290.264 211.229 290.264C209.997 290.264 209.309 291.288 209.309 292.488ZM222.363 295.896V295.688C222.011 296.44 221.179 297.224 219.851 297.224C217.643 297.224 216.299 295.432 216.299 293.16C216.299 290.936 217.707 289.112 219.851 289.112C221.323 289.112 222.075 289.928 222.331 290.568V285.432H223.611V295.56C223.611 296.328 223.659 296.84 223.691 297H222.443C222.411 296.824 222.363 296.392 222.363 295.896ZM219.963 296.072C221.403 296.072 222.363 294.856 222.363 293.16C222.363 291.464 221.419 290.264 219.963 290.264C218.507 290.264 217.579 291.464 217.579 293.16C217.579 294.856 218.523 296.072 219.963 296.072ZM226.923 292.424H231.499C231.467 291.208 230.683 290.248 229.227 290.248C227.899 290.248 227.003 291.288 226.923 292.424ZM231.675 294.424L232.779 294.824C232.347 296.152 231.147 297.224 229.371 297.224C227.323 297.224 225.579 295.72 225.579 293.144C225.579 290.728 227.275 289.112 229.211 289.112C231.531 289.112 232.827 290.728 232.827 293.064C232.827 293.224 232.811 293.4 232.795 293.512H226.891V293.576C226.891 295.032 227.995 296.072 229.371 296.072C230.667 296.072 231.371 295.336 231.675 294.424ZM239.852 295.96C239.484 296.744 238.556 297.224 237.548 297.224C235.692 297.224 234.668 295.848 234.668 294.152V289.336H235.948V293.944C235.948 295.064 236.476 296.072 237.836 296.072C239.1 296.072 239.788 295.176 239.788 293.96V289.336H241.068V295.56C241.068 296.152 241.116 296.696 241.164 297H239.932C239.884 296.824 239.852 296.408 239.852 296.024V295.96ZM244.841 297H243.561V289.336H244.841V297ZM243.241 286.312C243.241 285.784 243.673 285.352 244.201 285.352C244.729 285.352 245.161 285.784 245.161 286.312C245.161 286.84 244.729 287.272 244.201 287.272C243.673 287.272 243.241 286.84 243.241 286.312Z" fill="#4E4763"/><path d="M261.667 295.333H260C259.079 295.333 258.333 294.587 258.333 293.667V287C258.333 286.079 259.079 285.333 260 285.333H266.667C267.587 285.333 268.333 286.079 268.333 287V288.667M263.333 298.667H270C270.92 298.667 271.667 297.92 271.667 297V290.333C271.667 289.413 270.92 288.667 270 288.667H263.333C262.413 288.667 261.667 289.413 261.667 290.333V297C261.667 297.92 262.413 298.667 263.333 298.667Z" stroke="#6B6580" stroke-width="1.75" stroke-linecap="round" stroke-linejoin="round"/><path d="M39.854 339L39.028 336.732H34.996L34.17 339H32.126L35.934 329.074H38.174L41.954 339H39.854ZM37.012 331.216L35.64 334.968H38.384L37.012 331.216ZM44.9038 341.66H43.0418V332.112H44.8478V332.952C45.1558 332.42 45.9258 331.958 46.9618 331.958C48.9778 331.958 50.1398 333.498 50.1398 335.542C50.1398 337.628 48.8378 339.168 46.8918 339.168C45.9398 339.168 45.2398 338.79 44.9038 338.328V341.66ZM48.3058 335.556C48.3058 334.338 47.5498 333.624 46.5978 333.624C45.6458 333.624 44.8758 334.338 44.8758 335.556C44.8758 336.774 45.6458 337.502 46.5978 337.502C47.5498 337.502 48.3058 336.788 48.3058 335.556ZM53.5035 341.66H51.6415V332.112H53.4475V332.952C53.7555 332.42 54.5255 331.958 55.5615 331.958C57.5775 331.958 58.7395 333.498 58.7395 335.542C58.7395 337.628 57.4375 339.168 55.4915 339.168C54.5395 339.168 53.8395 338.79 53.5035 338.328V341.66ZM56.9055 335.556C56.9055 334.338 56.1495 333.624 55.1975 333.624C54.2455 333.624 53.4755 334.338 53.4755 335.556C53.4755 336.774 54.2455 337.502 55.1975 337.502C56.1495 337.502 56.9055 336.788 56.9055 335.556ZM65.7333 339H63.7733V329.074H65.7333V339ZM69.9846 337.208H71.5246C73.1486 337.208 74.5066 336.2 74.5066 334.044C74.5066 331.888 73.1626 330.866 71.5386 330.866H69.9846V337.208ZM71.5946 339H68.0526V329.074H71.6086C74.4366 329.074 76.5086 330.908 76.5086 334.044C76.5086 337.18 74.4226 339 71.5946 339Z" fill="#4E4763"/><path d="M84.4995 329.074V330.852L86.1235 330.306L86.5855 331.678L84.9335 332.21L85.9695 333.61L84.8075 334.464L83.7435 333.05L82.7075 334.464L81.5455 333.596L82.5675 332.21L80.9155 331.678L81.3635 330.306L83.0015 330.852V329.074H84.4995Z" fill="#BC0016"/><rect x="32" y="348" width="416" height="40" rx="6" fill="white"/><rect x="32" y="348" width="416" height="40" rx="6" fill="white"/><rect x="32.5" y="348.5" width="415" height="39" rx="5.5" stroke="#111827" stroke-opacity="0.3"/><path d="M44.704 370.968C44.704 369.624 45.648 368.872 46.992 368.68L49.056 368.376C49.616 368.296 49.744 368.056 49.744 367.72C49.744 366.856 49.168 366.2 47.968 366.2C46.848 366.2 46.176 366.872 46.064 367.848L44.848 367.56C45.008 366.104 46.288 365.112 47.936 365.112C50.112 365.112 51.024 366.36 51.024 367.848V371.72C51.024 372.36 51.072 372.76 51.12 373H49.872C49.84 372.824 49.776 372.44 49.776 371.848C49.44 372.472 48.608 373.224 47.232 373.224C45.648 373.224 44.704 372.136 44.704 370.968ZM47.392 372.136C48.72 372.136 49.744 371.4 49.744 369.768V369.256L47.248 369.624C46.512 369.736 45.984 370.152 45.984 370.904C45.984 371.528 46.512 372.136 47.392 372.136ZM56.4595 373H55.1475V365.432H52.6035V364.664C54.0435 364.6 55.0195 363.752 55.2755 362.632H56.4595V373ZM64.4563 371.896V371.688C64.1043 372.44 63.2723 373.224 61.9443 373.224C59.7363 373.224 58.3923 371.432 58.3923 369.16C58.3923 366.936 59.8003 365.112 61.9443 365.112C63.4163 365.112 64.1683 365.928 64.4243 366.568V361.432H65.7043V371.56C65.7043 372.328 65.7523 372.84 65.7843 373H64.5363C64.5043 372.824 64.4563 372.392 64.4563 371.896ZM62.0563 372.072C63.4963 372.072 64.4563 370.856 64.4563 369.16C64.4563 367.464 63.5123 366.264 62.0563 366.264C60.6003 366.264 59.6723 367.464 59.6723 369.16C59.6723 370.856 60.6163 372.072 62.0563 372.072ZM68.2011 373.896V365.336H69.4811V373.944C69.4811 375.336 68.6811 376.264 67.3851 376.264C66.9211 376.264 66.6811 376.2 66.5211 376.136V375.016C66.6491 375.08 66.8411 375.112 67.0651 375.112C67.8811 375.112 68.2011 374.696 68.2011 373.896ZM67.8811 362.312C67.8811 361.784 68.3131 361.352 68.8411 361.352C69.3691 361.352 69.8011 361.784 69.8011 362.312C69.8011 362.84 69.3691 363.272 68.8411 363.272C68.3131 363.272 67.8811 362.84 67.8811 362.312ZM73.2624 373H71.9824V365.336H73.2624V373ZM71.6624 362.312C71.6624 361.784 72.0944 361.352 72.6224 361.352C73.1504 361.352 73.5824 361.784 73.5824 362.312C73.5824 362.84 73.1504 363.272 72.6224 363.272C72.0944 363.272 71.6624 362.84 71.6624 362.312ZM76.5796 368.424H81.1556C81.1236 367.208 80.3396 366.248 78.8836 366.248C77.5556 366.248 76.6596 367.288 76.5796 368.424ZM81.3316 370.424L82.4356 370.824C82.0036 372.152 80.8036 373.224 79.0276 373.224C76.9796 373.224 75.2356 371.72 75.2356 369.144C75.2356 366.728 76.9316 365.112 78.8676 365.112C81.1876 365.112 82.4836 366.728 82.4836 369.064C82.4836 369.224 82.4676 369.4 82.4516 369.512H76.5476V369.576C76.5476 371.032 77.6516 372.072 79.0276 372.072C80.3236 372.072 81.0276 371.336 81.3316 370.424ZM88.7924 365.336H90.1204L92.2484 371.4L94.0724 365.336H95.4324L92.9364 373H91.5924L89.4484 366.888L87.3364 373H85.9764L83.4324 365.336H84.8084L86.6804 371.4L88.7924 365.336ZM101.11 368.968H96.838V367.848H101.11V368.968ZM107.026 366.488H105.042V373H103.762V366.488H102.258V365.336H103.762V363.912C103.762 362.232 104.818 361.352 106.178 361.352C106.641 361.352 106.946 361.448 107.058 361.512V362.616C106.946 362.568 106.738 362.504 106.37 362.504C105.746 362.504 105.042 362.84 105.042 363.944V365.336H107.026V366.488ZM109.22 368.424H113.796C113.764 367.208 112.98 366.248 111.524 366.248C110.196 366.248 109.3 367.288 109.22 368.424ZM113.972 370.424L115.076 370.824C114.644 372.152 113.444 373.224 111.668 373.224C109.62 373.224 107.876 371.72 107.876 369.144C107.876 366.728 109.572 365.112 111.508 365.112C113.828 365.112 115.124 366.728 115.124 369.064C115.124 369.224 115.108 369.4 115.092 369.512H109.188V369.576C109.188 371.032 110.292 372.072 111.668 372.072C112.964 372.072 113.668 371.336 113.972 370.424ZM122.613 371.896V371.688C122.261 372.44 121.429 373.224 120.101 373.224C117.893 373.224 116.549 371.432 116.549 369.16C116.549 366.936 117.957 365.112 120.101 365.112C121.573 365.112 122.325 365.928 122.581 366.568V361.432H123.861V371.56C123.861 372.328 123.909 372.84 123.941 373H122.693C122.661 372.824 122.613 372.392 122.613 371.896ZM120.213 372.072C121.653 372.072 122.613 370.856 122.613 369.16C122.613 367.464 121.669 366.264 120.213 366.264C118.757 366.264 117.829 367.464 117.829 369.16C117.829 370.856 118.773 372.072 120.213 372.072ZM130.197 366.488H128.213V373H126.933V366.488H125.429V365.336H126.933V363.912C126.933 362.232 127.989 361.352 129.349 361.352C129.813 361.352 130.117 361.448 130.229 361.512V362.616C130.117 362.568 129.909 362.504 129.541 362.504C128.917 362.504 128.213 362.84 128.213 363.944V365.336H130.197V366.488ZM133.044 368.424V373H131.764V361.432H133.044V366.36C133.54 365.56 134.42 365.112 135.412 365.112C137.252 365.112 138.148 366.424 138.148 368.088V373H136.868V368.28C136.868 367.16 136.356 366.264 134.964 366.264C133.748 366.264 133.044 367.24 133.044 368.424ZM141.361 368.424H145.937C145.905 367.208 145.121 366.248 143.665 366.248C142.337 366.248 141.441 367.288 141.361 368.424ZM146.113 370.424L147.217 370.824C146.785 372.152 145.585 373.224 143.809 373.224C141.761 373.224 140.017 371.72 140.017 369.144C140.017 366.728 141.713 365.112 143.649 365.112C145.969 365.112 147.265 366.728 147.265 369.064C147.265 369.224 147.249 369.4 147.233 369.512H141.329V369.576C141.329 371.032 142.433 372.072 143.809 372.072C145.105 372.072 145.809 371.336 146.113 370.424ZM150.193 366.344L148.881 366.184C148.849 366.04 148.833 365.864 148.833 365.72C148.833 363.944 150.129 362.408 152.353 362.408C154.497 362.408 155.777 363.832 155.777 365.544C155.777 366.904 155.009 367.976 153.825 368.728L151.697 370.088C151.073 370.488 150.497 371.032 150.369 371.784H155.873V373H148.737C148.769 371.4 149.409 370.12 151.073 369.048L152.929 367.848C153.937 367.208 154.433 366.472 154.433 365.56C154.433 364.536 153.697 363.592 152.321 363.592C150.913 363.592 150.145 364.568 150.145 365.848C150.145 366.024 150.161 366.216 150.193 366.344ZM163.055 371.96C162.687 372.744 161.759 373.224 160.751 373.224C158.895 373.224 157.871 371.848 157.871 370.152V365.336H159.151V369.944C159.151 371.064 159.679 372.072 161.039 372.072C162.303 372.072 162.991 371.176 162.991 369.96V365.336H164.271V371.56C164.271 372.152 164.319 372.696 164.367 373H163.135C163.087 372.824 163.055 372.408 163.055 372.024V371.96ZM170.604 366.488H168.62V373H167.34V366.488H165.836V365.336H167.34V363.912C167.34 362.232 168.396 361.352 169.756 361.352C170.22 361.352 170.524 361.448 170.636 361.512V362.616C170.524 362.568 170.316 362.504 169.948 362.504C169.324 362.504 168.62 362.84 168.62 363.944V365.336H170.604V366.488ZM173.45 368.424V373H172.17V361.432H173.45V366.36C173.946 365.56 174.826 365.112 175.818 365.112C177.658 365.112 178.554 366.424 178.554 368.088V373H177.274V368.28C177.274 367.16 176.762 366.264 175.37 366.264C174.154 366.264 173.45 367.24 173.45 368.424ZM185.063 368.968H180.791V367.848H185.063V368.968ZM191.516 365.288V366.648C191.308 366.584 191.068 366.568 190.844 366.568C189.564 366.568 188.684 367.304 188.684 369.032V373H187.404V365.336H188.652V366.712C189.148 365.592 190.124 365.224 190.972 365.224C191.18 365.224 191.404 365.256 191.516 365.288ZM193.029 373.896V365.336H194.309V373.944C194.309 375.336 193.509 376.264 192.213 376.264C191.749 376.264 191.509 376.2 191.349 376.136V375.016C191.477 375.08 191.669 375.112 191.893 375.112C192.709 375.112 193.029 374.696 193.029 373.896ZM192.709 362.312C192.709 361.784 193.141 361.352 193.669 361.352C194.197 361.352 194.629 361.784 194.629 362.312C194.629 362.84 194.197 363.272 193.669 363.272C193.141 363.272 192.709 362.84 192.709 362.312ZM200.651 366.488H198.667V373H197.387V366.488H195.883V365.336H197.387V363.912C197.387 362.232 198.443 361.352 199.803 361.352C200.266 361.352 200.571 361.448 200.683 361.512V362.616C200.571 362.568 200.363 362.504 199.995 362.504C199.371 362.504 198.667 362.84 198.667 363.944V365.336H200.651V366.488ZM202.845 368.424H207.421C207.389 367.208 206.605 366.248 205.149 366.248C203.821 366.248 202.925 367.288 202.845 368.424ZM207.597 370.424L208.701 370.824C208.269 372.152 207.069 373.224 205.293 373.224C203.245 373.224 201.501 371.72 201.501 369.144C201.501 366.728 203.197 365.112 205.133 365.112C207.453 365.112 208.749 366.728 208.749 369.064C208.749 369.224 208.733 369.4 208.717 369.512H202.813V369.576C202.813 371.032 203.917 372.072 205.293 372.072C206.589 372.072 207.293 371.336 207.597 370.424ZM217.534 376.04H216.254V371.8C215.854 372.568 214.99 373.224 213.742 373.224C211.566 373.224 210.174 371.4 210.174 369.16C210.174 366.936 211.502 365.112 213.71 365.112C215.134 365.112 215.966 365.928 216.286 366.616V365.336H217.534V376.04ZM213.854 372.072C215.31 372.072 216.27 370.856 216.27 369.16C216.27 367.464 215.326 366.264 213.854 366.264C212.382 366.264 211.454 367.464 211.454 369.16C211.454 370.856 212.398 372.072 213.854 372.072ZM221.309 368.488V373H220.029V365.336H221.277V366.488C221.773 365.592 222.669 365.112 223.677 365.112C225.517 365.112 226.413 366.424 226.413 368.088V373H225.133V368.28C225.133 367.16 224.621 366.264 223.229 366.264C221.997 366.264 221.309 367.288 221.309 368.488ZM234.363 371.896V371.688C234.011 372.44 233.179 373.224 231.851 373.224C229.643 373.224 228.299 371.432 228.299 369.16C228.299 366.936 229.707 365.112 231.851 365.112C233.323 365.112 234.075 365.928 234.331 366.568V361.432H235.611V371.56C235.611 372.328 235.659 372.84 235.691 373H234.443C234.411 372.824 234.363 372.392 234.363 371.896ZM231.963 372.072C233.403 372.072 234.363 370.856 234.363 369.16C234.363 367.464 233.419 366.264 231.963 366.264C230.507 366.264 229.579 367.464 229.579 369.16C229.579 370.856 230.523 372.072 231.963 372.072ZM238.923 368.424H243.499C243.467 367.208 242.683 366.248 241.227 366.248C239.899 366.248 239.003 367.288 238.923 368.424ZM243.675 370.424L244.779 370.824C244.347 372.152 243.147 373.224 241.371 373.224C239.323 373.224 237.579 371.72 237.579 369.144C237.579 366.728 239.275 365.112 241.211 365.112C243.531 365.112 244.827 366.728 244.827 369.064C244.827 369.224 244.811 369.4 244.795 369.512H238.891V369.576C238.891 371.032 239.995 372.072 241.371 372.072C242.667 372.072 243.371 371.336 243.675 370.424ZM251.852 371.96C251.484 372.744 250.556 373.224 249.548 373.224C247.692 373.224 246.668 371.848 246.668 370.152V365.336H247.948V369.944C247.948 371.064 248.476 372.072 249.836 372.072C251.1 372.072 251.788 371.176 251.788 369.96V365.336H253.068V371.56C253.068 372.152 253.116 372.696 253.164 373H251.932C251.884 372.824 251.852 372.408 251.852 372.024V371.96ZM256.841 373H255.561V365.336H256.841V373ZM255.241 362.312C255.241 361.784 255.673 361.352 256.201 361.352C256.729 361.352 257.161 361.784 257.161 362.312C257.161 362.84 256.729 363.272 256.201 363.272C255.673 363.272 255.241 362.84 255.241 362.312Z" fill="#29233B"/><path d="M35.094 413.208H36.634C38.258 413.208 39.616 412.2 39.616 410.044C39.616 407.888 38.272 406.866 36.648 406.866H35.094V413.208ZM36.704 415H33.162V405.074H36.718C39.546 405.074 41.618 406.908 41.618 410.044C41.618 413.18 39.532 415 36.704 415ZM44.6486 410.772H47.7286C47.7006 410.086 47.2526 409.414 46.1886 409.414C45.2226 409.414 44.6906 410.142 44.6486 410.772ZM47.9106 412.564L49.4646 413.026C49.1146 414.216 48.0226 415.21 46.3286 415.21C44.4386 415.21 42.7726 413.852 42.7726 411.528C42.7726 409.33 44.3966 407.902 46.1606 407.902C48.2886 407.902 49.5626 409.26 49.5626 411.472C49.5626 411.738 49.5346 412.018 49.5346 412.046H44.6066C44.6486 412.956 45.4186 413.614 46.3426 413.614C47.2106 413.614 47.6866 413.18 47.9106 412.564ZM57.4008 408.112L54.7268 415H52.8648L50.0508 408.112H52.0948L53.8028 412.732L55.4408 408.112H57.4008ZM60.4488 415H58.5868V408.112H60.4488V415ZM58.3628 405.858C58.3628 405.214 58.8808 404.696 59.5108 404.696C60.1548 404.696 60.6588 405.214 60.6588 405.858C60.6588 406.474 60.1548 406.992 59.5108 406.992C58.8808 406.992 58.3628 406.474 58.3628 405.858ZM65.5385 409.624C64.5865 409.624 63.7885 410.31 63.7885 411.556C63.7885 412.802 64.6005 413.502 65.5525 413.502C66.5045 413.502 66.9805 412.872 67.1345 412.34L68.7725 412.886C68.4645 414.034 67.3865 415.21 65.5525 415.21C63.5225 415.21 61.9265 413.67 61.9265 411.556C61.9265 409.428 63.4945 407.902 65.4965 407.902C67.3725 407.902 68.4365 409.064 68.7305 410.226L67.0645 410.786C66.8965 410.212 66.4625 409.624 65.5385 409.624ZM71.5958 410.772H74.6758C74.6478 410.086 74.1998 409.414 73.1358 409.414C72.1698 409.414 71.6378 410.142 71.5958 410.772ZM74.8578 412.564L76.4118 413.026C76.0618 414.216 74.9698 415.21 73.2758 415.21C71.3858 415.21 69.7198 413.852 69.7198 411.528C69.7198 409.33 71.3438 407.902 73.1078 407.902C75.2358 407.902 76.5098 409.26 76.5098 411.472C76.5098 411.738 76.4818 412.018 76.4818 412.046H71.5538C71.5958 412.956 72.3658 413.614 73.2898 413.614C74.1578 413.614 74.6338 413.18 74.8578 412.564ZM88.444 406.908H85.308V415H83.362V406.908H80.226V405.074H88.444V406.908ZM91.228 413.516C92.138 413.516 92.978 412.858 92.978 411.556C92.978 410.254 92.138 409.596 91.228 409.596C90.318 409.596 89.478 410.254 89.478 411.556C89.478 412.844 90.318 413.516 91.228 413.516ZM91.228 407.902C93.286 407.902 94.84 409.428 94.84 411.556C94.84 413.67 93.286 415.21 91.228 415.21C89.17 415.21 87.616 413.67 87.616 411.556C87.616 409.428 89.17 407.902 91.228 407.902ZM102.999 408.112L100.241 411.01L103.055 415H100.773L98.9531 412.368L98.1831 413.18V415H96.3211V404.864H98.1831V410.674L100.563 408.112H102.999ZM105.201 410.772H108.281C108.253 410.086 107.805 409.414 106.741 409.414C105.775 409.414 105.243 410.142 105.201 410.772ZM108.463 412.564L110.017 413.026C109.667 414.216 108.575 415.21 106.881 415.21C104.991 415.21 103.325 413.852 103.325 411.528C103.325 409.33 104.949 407.902 106.713 407.902C108.841 407.902 110.115 409.26 110.115 411.472C110.115 411.738 110.087 412.018 110.087 412.046H105.159C105.201 412.956 105.971 413.614 106.895 413.614C107.763 413.614 108.239 413.18 108.463 412.564ZM113.482 411.038V415H111.62V408.112H113.426V408.966C113.846 408.252 114.672 407.93 115.414 407.93C117.122 407.93 117.906 409.148 117.906 410.66V415H116.044V410.982C116.044 410.212 115.666 409.61 114.77 409.61C113.958 409.61 113.482 410.24 113.482 411.038Z" fill="#4E4763"/><path d="M126.171 405.074V406.852L127.795 406.306L128.257 407.678L126.605 408.21L127.641 409.61L126.479 410.464L125.415 409.05L124.379 410.464L123.217 409.596L124.239 408.21L122.587 407.678L123.035 406.306L124.673 406.852V405.074H126.171Z" fill="#BC0016"/><rect x="32" y="424" width="416" height="40" rx="6" fill="white"/><rect x="32" y="424" width="416" height="40" rx="6" fill="white"/><rect x="32.5" y="424.5" width="415" height="39" rx="5.5" stroke="#111827" stroke-opacity="0.3"/><path d="M54.8781 447.896V447.688C54.5261 448.44 53.6941 449.224 52.3661 449.224C50.1581 449.224 48.8141 447.432 48.8141 445.16C48.8141 442.936 50.2221 441.112 52.3661 441.112C53.8381 441.112 54.5901 441.928 54.8461 442.568V437.432H56.1261V447.56C56.1261 448.328 56.1741 448.84 56.2061 449H54.9581C54.9261 448.824 54.8781 448.392 54.8781 447.896ZM52.4781 448.072C53.9181 448.072 54.8781 446.856 54.8781 445.16C54.8781 443.464 53.9341 442.264 52.4781 442.264C51.0221 442.264 50.0941 443.464 50.0941 445.16C50.0941 446.856 51.0381 448.072 52.4781 448.072ZM59.903 444.424V449H58.623V437.432H59.903V442.36C60.399 441.56 61.279 441.112 62.271 441.112C64.111 441.112 65.007 442.424 65.007 444.088V449H63.727V444.28C63.727 443.16 63.215 442.264 61.823 442.264C60.607 442.264 59.903 443.24 59.903 444.424ZM68.3963 442.344L67.0843 442.184C67.0523 442.04 67.0363 441.864 67.0363 441.72C67.0363 439.944 68.3323 438.408 70.5563 438.408C72.7003 438.408 73.9803 439.832 73.9803 441.544C73.9803 442.904 73.2123 443.976 72.0283 444.728L69.9003 446.088C69.2763 446.488 68.7003 447.032 68.5723 447.784H74.0763V449H66.9403C66.9723 447.4 67.6123 446.12 69.2763 445.048L71.1323 443.848C72.1403 443.208 72.6363 442.472 72.6363 441.56C72.6363 440.536 71.9003 439.592 70.5243 439.592C69.1163 439.592 68.3483 440.568 68.3483 441.848C68.3483 442.024 68.3643 442.216 68.3963 442.344ZM81.2579 447.96C80.8899 448.744 79.9619 449.224 78.9539 449.224C77.0979 449.224 76.0739 447.848 76.0739 446.152V441.336H77.3539V445.944C77.3539 447.064 77.8819 448.072 79.2419 448.072C80.5059 448.072 81.1939 447.176 81.1939 445.96V441.336H82.4739V447.56C82.4739 448.152 82.5219 448.696 82.5699 449H81.3379C81.2899 448.824 81.2579 448.408 81.2579 448.024V447.96ZM87.4308 444.008L86.7748 442.904L89.9908 439.848H84.7747V438.632H91.7508V439.832L88.5988 442.808C88.6788 442.792 88.8068 442.776 88.9028 442.776C90.3908 442.776 91.9908 443.864 91.9908 445.912C91.9908 447.672 90.6148 449.224 88.2788 449.224C85.9748 449.224 84.5508 447.72 84.4548 445.992L85.7668 445.688C85.8307 447.144 86.9348 448.04 88.2628 448.04C89.7348 448.04 90.6468 447.112 90.6468 445.928C90.6468 444.52 89.5268 443.864 88.3748 443.864C88.0388 443.864 87.7188 443.912 87.4308 444.008ZM95.3718 444.424V449H94.0918V437.432H95.3718V442.36C95.8678 441.56 96.7478 441.112 97.7398 441.112C99.5798 441.112 100.476 442.424 100.476 444.088V449H99.1958V444.28C99.1958 443.16 98.6838 442.264 97.2918 442.264C96.0758 442.264 95.3718 443.24 95.3718 444.424ZM105.337 444.008L104.681 442.904L107.897 439.848H102.681V438.632H109.657V439.832L106.505 442.808C106.585 442.792 106.713 442.776 106.809 442.776C108.297 442.776 109.897 443.864 109.897 445.912C109.897 447.672 108.521 449.224 106.185 449.224C103.881 449.224 102.457 447.72 102.361 445.992L103.673 445.688C103.737 447.144 104.841 448.04 106.169 448.04C107.641 448.04 108.553 447.112 108.553 445.928C108.553 444.52 107.433 443.864 106.281 443.864C105.945 443.864 105.625 443.912 105.337 444.008ZM112.99 442.344L111.678 442.184C111.646 442.04 111.63 441.864 111.63 441.72C111.63 439.944 112.926 438.408 115.15 438.408C117.294 438.408 118.574 439.832 118.574 441.544C118.574 442.904 117.806 443.976 116.622 444.728L114.494 446.088C113.87 446.488 113.294 447.032 113.166 447.784H118.67V449H111.534C111.566 447.4 112.206 446.12 113.87 445.048L115.726 443.848C116.734 443.208 117.23 442.472 117.23 441.56C117.23 440.536 116.494 439.592 115.118 439.592C113.71 439.592 112.942 440.568 112.942 441.848C112.942 442.024 112.958 442.216 112.99 442.344ZM122.012 441.336V442.424C122.444 441.624 123.372 441.112 124.364 441.112C125.42 441.112 126.332 441.672 126.716 442.68C127.26 441.592 128.22 441.112 129.308 441.112C130.7 441.112 131.948 442.072 131.948 443.992V449H130.668V444.136C130.668 443.08 130.108 442.264 128.908 442.264C127.772 442.264 127.004 443.192 127.004 444.344V449H125.724V444.136C125.724 443.08 125.164 442.264 123.948 442.264C122.796 442.264 122.044 443.16 122.044 444.36V449H120.764V441.336H122.012ZM133.798 446.968C133.798 445.624 134.742 444.872 136.086 444.68L138.15 444.376C138.71 444.296 138.838 444.056 138.838 443.72C138.838 442.856 138.262 442.2 137.062 442.2C135.942 442.2 135.27 442.872 135.158 443.848L133.942 443.56C134.102 442.104 135.382 441.112 137.03 441.112C139.206 441.112 140.118 442.36 140.118 443.848V447.72C140.118 448.36 140.166 448.76 140.214 449H138.966C138.934 448.824 138.87 448.44 138.87 447.848C138.534 448.472 137.702 449.224 136.326 449.224C134.742 449.224 133.798 448.136 133.798 446.968ZM136.486 448.136C137.814 448.136 138.838 447.4 138.838 445.768V445.256L136.342 445.624C135.606 445.736 135.078 446.152 135.078 446.904C135.078 447.528 135.606 448.136 136.486 448.136ZM146.641 441.288V442.648C146.433 442.584 146.193 442.568 145.969 442.568C144.689 442.568 143.809 443.304 143.809 445.032V449H142.529V441.336H143.777V442.712C144.273 441.592 145.249 441.224 146.097 441.224C146.305 441.224 146.529 441.256 146.641 441.288ZM153.242 447.96C152.874 448.744 151.946 449.224 150.938 449.224C149.082 449.224 148.058 447.848 148.058 446.152V441.336H149.338V445.944C149.338 447.064 149.866 448.072 151.226 448.072C152.49 448.072 153.178 447.176 153.178 445.96V441.336H154.458V447.56C154.458 448.152 154.506 448.696 154.554 449H153.322C153.274 448.824 153.242 448.408 153.242 448.024V447.96ZM156.423 449.432L157.655 449.128C157.783 450.248 158.631 451.112 159.879 451.112C161.671 451.112 162.327 450.056 162.327 448.472V447.24C161.975 447.976 161.143 448.664 159.895 448.664C157.863 448.664 156.439 447.048 156.439 444.904C156.439 442.76 157.847 441.112 159.927 441.112C161.127 441.112 161.959 441.672 162.343 442.424V441.336H163.607V448.424C163.607 450.312 162.743 452.264 159.879 452.264C157.991 452.264 156.615 451.048 156.423 449.432ZM162.391 444.888C162.391 443.304 161.447 442.264 160.055 442.264C158.663 442.264 157.719 443.304 157.719 444.888C157.719 446.472 158.663 447.512 160.055 447.512C161.447 447.512 162.391 446.472 162.391 444.888ZM165.355 446.584V445.048L169.931 438.632H171.771V445.368H173.579V446.584H171.771V449H170.459V446.584H165.355ZM170.459 445.368V439.928L166.587 445.368H170.459ZM177.294 452.04H175.87L177.726 448.088L174.43 441.336H175.902L178.43 446.76L180.814 441.336H182.206L177.294 452.04ZM184.709 442.344L183.397 442.184C183.365 442.04 183.349 441.864 183.349 441.72C183.349 439.944 184.645 438.408 186.869 438.408C189.013 438.408 190.293 439.832 190.293 441.544C190.293 442.904 189.525 443.976 188.341 444.728L186.213 446.088C185.589 446.488 185.013 447.032 184.885 447.784H190.389V449H183.253C183.285 447.4 183.925 446.12 185.589 445.048L187.445 443.848C188.453 443.208 188.949 442.472 188.949 441.56C188.949 440.536 188.213 439.592 186.837 439.592C185.429 439.592 184.661 440.568 184.661 441.848C184.661 442.024 184.677 442.216 184.709 442.344ZM196.594 441.288V442.648C196.386 442.584 196.146 442.568 195.922 442.568C194.642 442.568 193.762 443.304 193.762 445.032V449H192.482V441.336H193.73V442.712C194.226 441.592 195.202 441.224 196.05 441.224C196.258 441.224 196.482 441.256 196.594 441.288ZM200.571 444.008L199.915 442.904L203.131 439.848H197.915V438.632H204.891V439.832L201.739 442.808C201.819 442.792 201.947 442.776 202.043 442.776C203.531 442.776 205.131 443.864 205.131 445.912C205.131 447.672 203.755 449.224 201.419 449.224C199.115 449.224 197.691 447.72 197.595 445.992L198.907 445.688C198.971 447.144 200.075 448.04 201.403 448.04C202.875 448.04 203.787 447.112 203.787 445.928C203.787 444.52 202.667 443.864 201.515 443.864C201.179 443.864 200.859 443.912 200.571 444.008ZM208.512 444.424V449H207.232V437.432H208.512V442.36C209.008 441.56 209.888 441.112 210.88 441.112C212.72 441.112 213.616 442.424 213.616 444.088V449H212.336V444.28C212.336 443.16 211.824 442.264 210.432 442.264C209.216 442.264 208.512 443.24 208.512 444.424ZM215.47 446.968C215.47 445.624 216.414 444.872 217.758 444.68L219.822 444.376C220.382 444.296 220.51 444.056 220.51 443.72C220.51 442.856 219.934 442.2 218.734 442.2C217.614 442.2 216.942 442.872 216.83 443.848L215.614 443.56C215.774 442.104 217.054 441.112 218.702 441.112C220.878 441.112 221.79 442.36 221.79 443.848V447.72C221.79 448.36 221.838 448.76 221.886 449H220.638C220.606 448.824 220.542 448.44 220.542 447.848C220.206 448.472 219.374 449.224 217.998 449.224C216.414 449.224 215.47 448.136 215.47 446.968ZM218.158 448.136C219.486 448.136 220.51 447.4 220.51 445.768V445.256L218.014 445.624C217.278 445.736 216.75 446.152 216.75 446.904C216.75 447.528 217.278 448.136 218.158 448.136ZM229.289 447.96C228.921 448.744 227.993 449.224 226.985 449.224C225.129 449.224 224.105 447.848 224.105 446.152V441.336H225.385V445.944C225.385 447.064 225.913 448.072 227.273 448.072C228.537 448.072 229.225 447.176 229.225 445.96V441.336H230.505V447.56C230.505 448.152 230.553 448.696 230.601 449H229.369C229.321 448.824 229.289 448.408 229.289 448.024V447.96ZM232.246 446.584V445.048L236.822 438.632H238.662V445.368H240.47V446.584H238.662V449H237.35V446.584H232.246ZM237.35 445.368V439.928L233.478 445.368H237.35ZM243.224 442.344L241.912 442.184C241.88 442.04 241.864 441.864 241.864 441.72C241.864 439.944 243.16 438.408 245.384 438.408C247.528 438.408 248.808 439.832 248.808 441.544C248.808 442.904 248.04 443.976 246.856 444.728L244.728 446.088C244.104 446.488 243.528 447.032 243.4 447.784H248.904V449H241.768C241.8 447.4 242.44 446.12 244.104 445.048L245.96 443.848C246.968 443.208 247.464 442.472 247.464 441.56C247.464 440.536 246.728 439.592 245.352 439.592C243.944 439.592 243.176 440.568 243.176 441.848C243.176 442.024 243.192 442.216 243.224 442.344ZM250.47 449.432L251.702 449.128C251.83 450.248 252.678 451.112 253.926 451.112C255.718 451.112 256.374 450.056 256.374 448.472V447.24C256.022 447.976 255.19 448.664 253.942 448.664C251.91 448.664 250.486 447.048 250.486 444.904C250.486 442.76 251.894 441.112 253.974 441.112C255.174 441.112 256.006 441.672 256.39 442.424V441.336H257.654V448.424C257.654 450.312 256.79 452.264 253.926 452.264C252.038 452.264 250.662 451.048 250.47 449.432ZM256.438 444.888C256.438 443.304 255.494 442.264 254.102 442.264C252.71 442.264 251.766 443.304 251.766 444.888C251.766 446.472 252.71 447.512 254.102 447.512C255.494 447.512 256.438 446.472 256.438 444.888ZM264.266 441.288V442.648C264.058 442.584 263.818 442.568 263.594 442.568C262.314 442.568 261.434 443.304 261.434 445.032V449H260.154V441.336H261.402V442.712C261.898 441.592 262.874 441.224 263.722 441.224C263.93 441.224 264.154 441.256 264.266 441.288ZM270.867 447.96C270.499 448.744 269.571 449.224 268.563 449.224C266.707 449.224 265.683 447.848 265.683 446.152V441.336H266.963V445.944C266.963 447.064 267.491 448.072 268.851 448.072C270.115 448.072 270.803 447.176 270.803 445.96V441.336H272.083V447.56C272.083 448.152 272.131 448.696 272.179 449H270.947C270.899 448.824 270.867 448.408 270.867 448.024V447.96ZM273.824 446.584V445.048L278.4 438.632H280.24V445.368H282.048V446.584H280.24V449H278.928V446.584H273.824ZM278.928 445.368V439.928L275.056 445.368H278.928ZM287.923 441.288V442.648C287.715 442.584 287.475 442.568 287.251 442.568C285.971 442.568 285.091 443.304 285.091 445.032V449H283.811V441.336H285.059V442.712C285.555 441.592 286.531 441.224 287.379 441.224C287.587 441.224 287.811 441.256 287.923 441.288ZM292.46 449H291.148V441.432H288.604V440.664C290.044 440.6 291.02 439.752 291.276 438.632H292.46V449Z" fill="#29233B"/><path d="M35.094 489.208H36.634C38.258 489.208 39.616 488.2 39.616 486.044C39.616 483.888 38.272 482.866 36.648 482.866H35.094V489.208ZM36.704 491H33.162V481.074H36.718C39.546 481.074 41.618 482.908 41.618 486.044C41.618 489.18 39.532 491 36.704 491ZM44.6486 486.772H47.7286C47.7006 486.086 47.2526 485.414 46.1886 485.414C45.2226 485.414 44.6906 486.142 44.6486 486.772ZM47.9106 488.564L49.4646 489.026C49.1146 490.216 48.0226 491.21 46.3286 491.21C44.4386 491.21 42.7726 489.852 42.7726 487.528C42.7726 485.33 44.3966 483.902 46.1606 483.902C48.2886 483.902 49.5626 485.26 49.5626 487.472C49.5626 487.738 49.5346 488.018 49.5346 488.046H44.6066C44.6486 488.956 45.4186 489.614 46.3426 489.614C47.2106 489.614 47.6866 489.18 47.9106 488.564ZM57.4008 484.112L54.7268 491H52.8648L50.0508 484.112H52.0948L53.8028 488.732L55.4408 484.112H57.4008ZM60.4488 491H58.5868V484.112H60.4488V491ZM58.3628 481.858C58.3628 481.214 58.8808 480.696 59.5108 480.696C60.1548 480.696 60.6588 481.214 60.6588 481.858C60.6588 482.474 60.1548 482.992 59.5108 482.992C58.8808 482.992 58.3628 482.474 58.3628 481.858ZM65.5385 485.624C64.5865 485.624 63.7885 486.31 63.7885 487.556C63.7885 488.802 64.6005 489.502 65.5525 489.502C66.5045 489.502 66.9805 488.872 67.1345 488.34L68.7725 488.886C68.4645 490.034 67.3865 491.21 65.5525 491.21C63.5225 491.21 61.9265 489.67 61.9265 487.556C61.9265 485.428 63.4945 483.902 65.4965 483.902C67.3725 483.902 68.4365 485.064 68.7305 486.226L67.0645 486.786C66.8965 486.212 66.4625 485.624 65.5385 485.624ZM71.5958 486.772H74.6758C74.6478 486.086 74.1998 485.414 73.1358 485.414C72.1698 485.414 71.6378 486.142 71.5958 486.772ZM74.8578 488.564L76.4118 489.026C76.0618 490.216 74.9698 491.21 73.2758 491.21C71.3858 491.21 69.7198 489.852 69.7198 487.528C69.7198 485.33 71.3438 483.902 73.1078 483.902C75.2358 483.902 76.5098 485.26 76.5098 487.472C76.5098 487.738 76.4818 488.018 76.4818 488.046H71.5538C71.5958 488.956 72.3658 489.614 73.2898 489.614C74.1578 489.614 74.6338 489.18 74.8578 488.564ZM87.7628 491H81.5468V481.074H87.7628V482.894H83.4788V485.162H87.3568V486.884H83.4788V489.18H87.7628V491ZM91.2242 487.038V491H89.3622V484.112H91.1682V484.966C91.5882 484.252 92.4142 483.93 93.1562 483.93C94.8642 483.93 95.6482 485.148 95.6482 486.66V491H93.7862V486.982C93.7862 486.212 93.4082 485.61 92.5122 485.61C91.7002 485.61 91.2242 486.24 91.2242 487.038ZM100.675 485.624C99.7233 485.624 98.9253 486.31 98.9253 487.556C98.9253 488.802 99.7373 489.502 100.689 489.502C101.641 489.502 102.117 488.872 102.271 488.34L103.909 488.886C103.601 490.034 102.523 491.21 100.689 491.21C98.6593 491.21 97.0633 489.67 97.0633 487.556C97.0633 485.428 98.6313 483.902 100.633 483.902C102.509 483.902 103.573 485.064 103.867 486.226L102.201 486.786C102.033 486.212 101.599 485.624 100.675 485.624ZM109.463 484.084V485.96C109.253 485.918 109.071 485.904 108.903 485.904C107.951 485.904 107.125 486.366 107.125 487.85V491H105.263V484.112H107.069V485.134C107.489 484.224 108.441 484.056 109.029 484.056C109.183 484.056 109.323 484.07 109.463 484.084ZM113.182 493.716H111.208L112.832 490.132L109.906 484.112H111.992L113.826 488.144L115.52 484.112H117.508L113.182 493.716ZM120.441 493.66H118.579V484.112H120.385V484.952C120.693 484.42 121.463 483.958 122.499 483.958C124.515 483.958 125.677 485.498 125.677 487.542C125.677 489.628 124.375 491.168 122.429 491.168C121.477 491.168 120.777 490.79 120.441 490.328V493.66ZM123.843 487.556C123.843 486.338 123.087 485.624 122.135 485.624C121.183 485.624 120.413 486.338 120.413 487.556C120.413 488.774 121.183 489.502 122.135 489.502C123.087 489.502 123.843 488.788 123.843 487.556ZM129.505 482.054V484.112H130.891V485.764H129.505V488.648C129.505 489.25 129.785 489.446 130.317 489.446C130.541 489.446 130.793 489.418 130.891 489.39V490.93C130.723 491 130.387 491.098 129.841 491.098C128.497 491.098 127.657 490.3 127.657 488.97V485.764H126.411V484.112H126.761C127.489 484.112 127.825 483.636 127.825 483.02V482.054H129.505ZM134.25 491H132.388V484.112H134.25V491ZM132.164 481.858C132.164 481.214 132.682 480.696 133.312 480.696C133.956 480.696 134.46 481.214 134.46 481.858C134.46 482.474 133.956 482.992 133.312 482.992C132.682 482.992 132.164 482.474 132.164 481.858ZM139.339 489.516C140.249 489.516 141.089 488.858 141.089 487.556C141.089 486.254 140.249 485.596 139.339 485.596C138.429 485.596 137.589 486.254 137.589 487.556C137.589 488.844 138.429 489.516 139.339 489.516ZM139.339 483.902C141.397 483.902 142.951 485.428 142.951 487.556C142.951 489.67 141.397 491.21 139.339 491.21C137.281 491.21 135.727 489.67 135.727 487.556C135.727 485.428 137.281 483.902 139.339 483.902ZM146.294 487.038V491H144.432V484.112H146.238V484.966C146.658 484.252 147.484 483.93 148.226 483.93C149.934 483.93 150.718 485.148 150.718 486.66V491H148.856V486.982C148.856 486.212 148.478 485.61 147.582 485.61C146.77 485.61 146.294 486.24 146.294 487.038ZM162.134 491L159.25 486.884L158.018 488.242V491H156.086V481.074H158.018V485.568L161.994 481.074H164.528L160.594 485.4L164.556 491H162.134ZM166.369 486.772H169.449C169.421 486.086 168.973 485.414 167.909 485.414C166.943 485.414 166.411 486.142 166.369 486.772ZM169.631 488.564L171.185 489.026C170.835 490.216 169.743 491.21 168.049 491.21C166.159 491.21 164.493 489.852 164.493 487.528C164.493 485.33 166.117 483.902 167.881 483.902C170.009 483.902 171.283 485.26 171.283 487.472C171.283 487.738 171.255 488.018 171.255 488.046H166.327C166.369 488.956 167.139 489.614 168.063 489.614C168.931 489.614 169.407 489.18 169.631 488.564ZM175.02 493.716H173.046L174.67 490.132L171.744 484.112H173.83L175.664 488.144L177.358 484.112H179.346L175.02 493.716Z" fill="#4E4763"/><path d="M186.492 481.074V482.852L188.116 482.306L188.578 483.678L186.926 484.21L187.962 485.61L186.8 486.464L185.736 485.05L184.7 486.464L183.538 485.596L184.56 484.21L182.908 483.678L183.356 482.306L184.994 482.852V481.074H186.492Z" fill="#BC0016"/><rect x="32" y="500" width="416" height="40" rx="6" fill="white"/><rect x="32" y="500" width="416" height="40" rx="6" fill="white"/><rect x="32.5" y="500.5" width="415" height="39" rx="5.5" stroke="#111827" stroke-opacity="0.3"/><path d="M49.088 518.488H47.104V525H45.824V518.488H44.32V517.336H45.824V515.912C45.824 514.232 46.88 513.352 48.24 513.352C48.704 513.352 49.008 513.448 49.12 513.512V514.616C49.008 514.568 48.8 514.504 48.432 514.504C47.808 514.504 47.104 514.84 47.104 515.944V517.336H49.088V518.488ZM51.2828 520.424H55.8588C55.8268 519.208 55.0428 518.248 53.5868 518.248C52.2588 518.248 51.3628 519.288 51.2828 520.424ZM56.0348 522.424L57.1388 522.824C56.7068 524.152 55.5068 525.224 53.7308 525.224C51.6828 525.224 49.9388 523.72 49.9388 521.144C49.9388 518.728 51.6348 517.112 53.5708 517.112C55.8908 517.112 57.1868 518.728 57.1868 521.064C57.1868 521.224 57.1708 521.4 57.1548 521.512H51.2508V521.576C51.2508 523.032 52.3548 524.072 53.7308 524.072C55.0268 524.072 55.7308 523.336 56.0348 522.424ZM63.4955 517.336H64.8235L66.9515 523.4L68.7755 517.336H70.1355L67.6395 525H66.2955L64.1515 518.888L62.0395 525H60.6795L58.1355 517.336H59.5115L61.3835 523.4L63.4955 517.336ZM75.6818 518.488H73.6978V525H72.4178V518.488H70.9138V517.336H72.4178V515.912C72.4178 514.232 73.4738 513.352 74.8338 513.352C75.2977 513.352 75.6018 513.448 75.7138 513.512V514.616C75.6018 514.568 75.3938 514.504 75.0258 514.504C74.4018 514.504 73.6978 514.84 73.6978 515.944V517.336H75.6818V518.488ZM77.248 525.896V517.336H78.528V525.944C78.528 527.336 77.728 528.264 76.432 528.264C75.968 528.264 75.728 528.2 75.568 528.136V527.016C75.696 527.08 75.888 527.112 76.112 527.112C76.928 527.112 77.248 526.696 77.248 525.896ZM76.928 514.312C76.928 513.784 77.36 513.352 77.888 513.352C78.416 513.352 78.848 513.784 78.848 514.312C78.848 514.84 78.416 515.272 77.888 515.272C77.36 515.272 76.928 514.84 76.928 514.312ZM82.3093 520.488V525H81.0293V517.336H82.2773V518.488C82.7733 517.592 83.6693 517.112 84.6773 517.112C86.5173 517.112 87.4133 518.424 87.4133 520.088V525H86.1333V520.28C86.1333 519.16 85.6213 518.264 84.2293 518.264C82.9973 518.264 82.3093 519.288 82.3093 520.488ZM94.8985 523.96C94.5305 524.744 93.6025 525.224 92.5945 525.224C90.7385 525.224 89.7145 523.848 89.7145 522.152V517.336H90.9945V521.944C90.9945 523.064 91.5225 524.072 92.8825 524.072C94.1465 524.072 94.8345 523.176 94.8345 521.96V517.336H96.1145V523.56C96.1145 524.152 96.1625 524.696 96.2105 525H94.9785C94.9305 524.824 94.8985 524.408 94.8985 524.024V523.96ZM105.455 528.04H104.175V523.8C103.775 524.568 102.911 525.224 101.663 525.224C99.4874 525.224 98.0954 523.4 98.0954 521.16C98.0954 518.936 99.4234 517.112 101.631 517.112C103.055 517.112 103.887 517.928 104.207 518.616V517.336H105.455V528.04ZM101.775 524.072C103.231 524.072 104.191 522.856 104.191 521.16C104.191 519.464 103.247 518.264 101.775 518.264C100.303 518.264 99.3754 519.464 99.3754 521.16C99.3754 522.856 100.319 524.072 101.775 524.072ZM116.783 518.488H114.799V525H113.519V518.488H109.807V525H108.527V518.488H107.023V517.336H108.527V515.912C108.527 514.232 109.583 513.352 110.943 513.352C111.407 513.352 111.711 513.448 111.823 513.512V514.616C111.711 514.568 111.503 514.504 111.135 514.504C110.511 514.504 109.807 514.84 109.807 515.944V517.336H113.519V515.912C113.519 514.232 114.575 513.352 115.935 513.352C116.399 513.352 116.703 513.448 116.815 513.512V514.616C116.703 514.568 116.495 514.504 116.127 514.504C115.503 514.504 114.799 514.84 114.799 515.944V517.336H116.783V518.488ZM123.445 523.96C123.077 524.744 122.149 525.224 121.141 525.224C119.285 525.224 118.261 523.848 118.261 522.152V517.336H119.541V521.944C119.541 523.064 120.069 524.072 121.429 524.072C122.693 524.072 123.381 523.176 123.381 521.96V517.336H124.661V523.56C124.661 524.152 124.709 524.696 124.757 525H123.525C123.477 524.824 123.445 524.408 123.445 524.024V523.96ZM129.618 520.008L128.962 518.904L132.178 515.848H126.962V514.632H133.938V515.832L130.786 518.808C130.866 518.792 130.994 518.776 131.09 518.776C132.578 518.776 134.178 519.864 134.178 521.912C134.178 523.672 132.802 525.224 130.466 525.224C128.162 525.224 126.738 523.72 126.642 521.992L127.954 521.688C128.018 523.144 129.122 524.04 130.45 524.04C131.922 524.04 132.834 523.112 132.834 521.928C132.834 520.52 131.714 519.864 130.562 519.864C130.226 519.864 129.906 519.912 129.618 520.008ZM135.527 522.584V521.048L140.103 514.632H141.943V521.368H143.751V522.584H141.943V525H140.631V522.584H135.527ZM140.631 521.368V515.928L136.759 521.368H140.631ZM144.554 525L147.482 521.08L144.682 517.336H146.234L148.234 520.152L150.25 517.336H151.754L148.954 521.08L151.882 525H150.346L148.218 522.04L146.09 525H144.554ZM156.716 519.128C157.932 519.128 158.828 518.392 158.828 517.32C158.828 516.296 157.996 515.528 156.716 515.528C155.42 515.528 154.604 516.296 154.604 517.32C154.604 518.392 155.484 519.128 156.716 519.128ZM156.716 524.072C158.204 524.072 159.068 523.224 159.068 522.168C159.068 521.112 158.204 520.248 156.716 520.248C155.212 520.248 154.364 521.112 154.364 522.168C154.364 523.224 155.212 524.072 156.716 524.072ZM156.716 525.224C154.38 525.224 153.02 523.912 153.02 522.28C153.02 521 153.9 520.056 155.052 519.688C154.06 519.352 153.276 518.408 153.276 517.24C153.276 515.592 154.732 514.408 156.716 514.408C158.7 514.408 160.156 515.592 160.156 517.24C160.156 518.392 159.372 519.352 158.364 519.688C159.516 520.04 160.412 521 160.412 522.28C160.412 523.912 159.052 525.224 156.716 525.224ZM162.514 525.896V517.336H163.794V525.944C163.794 527.336 162.994 528.264 161.698 528.264C161.234 528.264 160.994 528.2 160.834 528.136V527.016C160.962 527.08 161.154 527.112 161.378 527.112C162.194 527.112 162.514 526.696 162.514 525.896ZM162.194 514.312C162.194 513.784 162.626 513.352 163.154 513.352C163.682 513.352 164.114 513.784 164.114 514.312C164.114 514.84 163.682 515.272 163.154 515.272C162.626 515.272 162.194 514.84 162.194 514.312ZM165.335 525L168.263 521.08L165.463 517.336H167.015L169.015 520.152L171.031 517.336H172.535L169.735 521.08L172.663 525H171.127L168.999 522.04L166.871 525H165.335ZM176.153 528.04H174.729L176.585 524.088L173.289 517.336H174.761L177.289 522.76L179.673 517.336H181.065L176.153 528.04ZM189.2 517.336L185.936 520.584L189.28 525H187.664L185.04 521.464L183.856 522.68V525H182.576V513.432H183.856V520.984L187.44 517.336H189.2ZM194.604 518.488H192.62V525H191.34V518.488H189.836V517.336H191.34V515.912C191.34 514.232 192.396 513.352 193.756 513.352C194.22 513.352 194.524 513.448 194.636 513.512V514.616C194.524 514.568 194.316 514.504 193.948 514.504C193.324 514.504 192.62 514.84 192.62 515.944V517.336H194.604V518.488ZM201.258 523.96C200.89 524.744 199.962 525.224 198.954 525.224C197.098 525.224 196.074 523.848 196.074 522.152V517.336H197.354V521.944C197.354 523.064 197.882 524.072 199.242 524.072C200.506 524.072 201.194 523.176 201.194 521.96V517.336H202.474V523.56C202.474 524.152 202.522 524.696 202.57 525H201.338C201.29 524.824 201.258 524.408 201.258 524.024V523.96ZM204.423 522.968C204.423 521.624 205.367 520.872 206.711 520.68L208.775 520.376C209.335 520.296 209.463 520.056 209.463 519.72C209.463 518.856 208.887 518.2 207.687 518.2C206.567 518.2 205.895 518.872 205.783 519.848L204.567 519.56C204.727 518.104 206.007 517.112 207.655 517.112C209.831 517.112 210.743 518.36 210.743 519.848V523.72C210.743 524.36 210.791 524.76 210.839 525H209.591C209.559 524.824 209.495 524.44 209.495 523.848C209.159 524.472 208.327 525.224 206.951 525.224C205.367 525.224 204.423 524.136 204.423 522.968ZM207.111 524.136C208.439 524.136 209.463 523.4 209.463 521.768V521.256L206.967 521.624C206.231 521.736 205.703 522.152 205.703 522.904C205.703 523.528 206.231 524.136 207.111 524.136ZM213.154 525.896V517.336H214.434V525.944C214.434 527.336 213.634 528.264 212.338 528.264C211.874 528.264 211.634 528.2 211.474 528.136V527.016C211.602 527.08 211.794 527.112 212.018 527.112C212.834 527.112 213.154 526.696 213.154 525.896ZM212.834 514.312C212.834 513.784 213.266 513.352 213.794 513.352C214.322 513.352 214.754 513.784 214.754 514.312C214.754 514.84 214.322 515.272 213.794 515.272C213.266 515.272 212.834 514.84 212.834 514.312ZM219.4 520.008L218.744 518.904L221.96 515.848H216.743V514.632H223.72V515.832L220.568 518.808C220.648 518.792 220.776 518.776 220.872 518.776C222.36 518.776 223.96 519.864 223.96 521.912C223.96 523.672 222.584 525.224 220.248 525.224C217.944 525.224 216.52 523.72 216.424 521.992L217.736 521.688C217.799 523.144 218.904 524.04 220.232 524.04C221.704 524.04 222.616 523.112 222.616 521.928C222.616 520.52 221.496 519.864 220.344 519.864C220.008 519.864 219.688 519.912 219.4 520.008ZM231.149 523.96C230.781 524.744 229.853 525.224 228.845 525.224C226.989 525.224 225.965 523.848 225.965 522.152V517.336H227.245V521.944C227.245 523.064 227.773 524.072 229.133 524.072C230.397 524.072 231.085 523.176 231.085 521.96V517.336H232.365V523.56C232.365 524.152 232.413 524.696 232.461 525H231.229C231.181 524.824 231.149 524.408 231.149 524.024V523.96ZM241.481 517.336L238.217 520.584L241.561 525H239.945L237.321 521.464L236.137 522.68V525H234.857V513.432H236.137V520.984L239.721 517.336H241.481ZM244.325 520.424V525H243.045V513.432H244.325V518.36C244.821 517.56 245.701 517.112 246.693 517.112C248.533 517.112 249.429 518.424 249.429 520.088V525H248.149V520.28C248.149 519.16 247.637 518.264 246.245 518.264C245.029 518.264 244.325 519.24 244.325 520.424ZM255.666 518.488H253.682V525H252.402V518.488H250.898V517.336H252.402V515.912C252.402 514.232 253.458 513.352 254.818 513.352C255.282 513.352 255.586 513.448 255.698 513.512V514.616C255.586 514.568 255.378 514.504 255.01 514.504C254.386 514.504 253.682 514.84 253.682 515.944V517.336H255.666V518.488Z" fill="#29233B"/><line x1="32" y1="575.5" x2="124" y2="575.5" stroke="#111827" stroke-opacity="0.1"/><path d="M148.528 572.232L147.328 572.664C147.152 571.704 146.4 570.648 144.768 570.632C143.456 570.632 142.416 571.496 142.416 572.648C142.416 573.56 143.008 574.216 144.048 574.44L145.712 574.808C147.536 575.208 148.624 576.344 148.624 577.944C148.624 579.688 147.136 581.224 144.768 581.224C142.144 581.224 140.816 579.512 140.608 577.848L141.872 577.448C142 578.792 142.976 580.008 144.768 580.008C146.4 580.008 147.28 579.144 147.28 578.056C147.28 577.128 146.64 576.408 145.44 576.136L143.776 575.768C142.208 575.416 141.072 574.392 141.072 572.728C141.072 570.952 142.704 569.432 144.752 569.432C147.2 569.432 148.24 570.92 148.528 572.232ZM151.486 576.424H156.062C156.03 575.208 155.246 574.248 153.79 574.248C152.462 574.248 151.566 575.288 151.486 576.424ZM156.238 578.424L157.342 578.824C156.91 580.152 155.71 581.224 153.934 581.224C151.886 581.224 150.142 579.72 150.142 577.144C150.142 574.728 151.838 573.112 153.774 573.112C156.094 573.112 157.39 574.728 157.39 577.064C157.39 577.224 157.374 577.4 157.358 577.512H151.454V577.576C151.454 579.032 152.558 580.072 153.934 580.072C155.23 580.072 155.934 579.336 156.238 578.424ZM161.104 570.904V573.336H162.912V574.488H161.104V578.728C161.104 579.528 161.456 579.928 162.272 579.928C162.496 579.928 162.784 579.88 162.912 579.848V580.936C162.768 580.984 162.4 581.08 161.904 581.08C160.64 581.08 159.824 580.296 159.824 578.904V574.488H158.288V573.336H158.784C159.568 573.336 159.904 572.888 159.904 572.168V570.904H161.104ZM169.758 579.96C169.39 580.744 168.462 581.224 167.454 581.224C165.598 581.224 164.574 579.848 164.574 578.152V573.336H165.854V577.944C165.854 579.064 166.382 580.072 167.742 580.072C169.006 580.072 169.694 579.176 169.694 577.96V573.336H170.974V579.56C170.974 580.152 171.022 580.696 171.07 581H169.838C169.79 580.824 169.758 580.408 169.758 580.024V579.96ZM174.747 584.04H173.467V573.336H174.715V574.616C175.115 573.832 176.011 573.112 177.371 573.112C179.627 573.112 180.859 574.872 180.859 577.16C180.859 579.448 179.547 581.224 177.339 581.224C176.027 581.224 175.147 580.536 174.747 579.816V584.04ZM177.147 580.072C178.619 580.072 179.579 578.856 179.579 577.16C179.579 575.464 178.635 574.264 177.147 574.264C175.659 574.264 174.715 575.464 174.715 577.16C174.715 578.856 175.675 580.072 177.147 580.072ZM186.296 578.984L187.448 578.584C187.56 579.464 188.216 580.136 189.368 580.136C190.28 580.136 190.856 579.624 190.856 578.968C190.856 578.392 190.392 578.008 189.688 577.848L188.44 577.56C187.272 577.288 186.536 576.536 186.536 575.432C186.536 574.152 187.752 573.112 189.208 573.112C191.192 573.112 191.88 574.376 192.056 575.16L190.92 575.576C190.824 575.048 190.424 574.2 189.208 574.2C188.408 574.2 187.784 574.712 187.784 575.352C187.784 575.896 188.12 576.232 188.792 576.392L190.04 576.68C191.384 576.984 192.12 577.768 192.12 578.904C192.12 580.008 191.176 581.224 189.352 581.224C187.336 581.224 186.424 579.944 186.296 578.984ZM197.404 573.112C199.612 573.112 201.244 574.808 201.244 577.16C201.244 579.528 199.612 581.224 197.404 581.224C195.196 581.224 193.564 579.528 193.564 577.16C193.564 574.808 195.196 573.112 197.404 573.112ZM197.404 574.264C196.028 574.264 194.844 575.304 194.844 577.16C194.844 579.032 196.028 580.072 197.404 580.072C198.78 580.072 199.964 579.032 199.964 577.16C199.964 575.304 198.78 574.264 197.404 574.264ZM206.481 574.264C205.137 574.264 203.969 575.304 203.969 577.16C203.969 579 205.137 580.072 206.497 580.072C207.953 580.072 208.561 579.048 208.785 578.344L209.905 578.84C209.537 579.976 208.465 581.224 206.497 581.224C204.289 581.224 202.689 579.496 202.689 577.16C202.689 574.776 204.321 573.112 206.481 573.112C208.449 573.112 209.521 574.312 209.841 575.528L208.689 576.024C208.481 575.208 207.857 574.264 206.481 574.264ZM213.012 581H211.732V573.336H213.012V581ZM211.412 570.312C211.412 569.784 211.844 569.352 212.372 569.352C212.9 569.352 213.332 569.784 213.332 570.312C213.332 570.84 212.9 571.272 212.372 571.272C211.844 571.272 211.412 570.84 211.412 570.312ZM214.97 578.968C214.97 577.624 215.914 576.872 217.258 576.68L219.322 576.376C219.882 576.296 220.01 576.056 220.01 575.72C220.01 574.856 219.434 574.2 218.234 574.2C217.114 574.2 216.442 574.872 216.33 575.848L215.114 575.56C215.274 574.104 216.554 573.112 218.202 573.112C220.378 573.112 221.29 574.36 221.29 575.848V579.72C221.29 580.36 221.338 580.76 221.386 581H220.138C220.106 580.824 220.042 580.44 220.042 579.848C219.706 580.472 218.874 581.224 217.498 581.224C215.914 581.224 214.97 580.136 214.97 578.968ZM217.658 580.136C218.986 580.136 220.01 579.4 220.01 577.768V577.256L217.514 577.624C216.778 577.736 216.25 578.152 216.25 578.904C216.25 579.528 216.778 580.136 217.658 580.136ZM224.981 581H223.701V569.432H224.981V581ZM232.841 584.04H231.561V573.336H232.809V574.616C233.209 573.832 234.105 573.112 235.465 573.112C237.721 573.112 238.953 574.872 238.953 577.16C238.953 579.448 237.641 581.224 235.433 581.224C234.121 581.224 233.241 580.536 232.841 579.816V584.04ZM235.241 580.072C236.713 580.072 237.673 578.856 237.673 577.16C237.673 575.464 236.729 574.264 235.241 574.264C233.753 574.264 232.809 575.464 232.809 577.16C232.809 578.856 233.769 580.072 235.241 580.072ZM245.048 573.288V574.648C244.84 574.584 244.6 574.568 244.376 574.568C243.096 574.568 242.216 575.304 242.216 577.032V581H240.936V573.336H242.184V574.712C242.68 573.592 243.656 573.224 244.504 573.224C244.712 573.224 244.936 573.256 245.048 573.288ZM249.701 573.112C251.909 573.112 253.541 574.808 253.541 577.16C253.541 579.528 251.909 581.224 249.701 581.224C247.493 581.224 245.861 579.528 245.861 577.16C245.861 574.808 247.493 573.112 249.701 573.112ZM249.701 574.264C248.325 574.264 247.141 575.304 247.141 577.16C247.141 579.032 248.325 580.072 249.701 580.072C251.077 580.072 252.261 579.032 252.261 577.16C252.261 575.304 251.077 574.264 249.701 574.264ZM261.824 573.336L258.768 581H257.472L254.384 573.336H255.824L258.128 579.512L260.448 573.336H261.824ZM264.747 581H263.467V573.336H264.747V581ZM263.147 570.312C263.147 569.784 263.579 569.352 264.107 569.352C264.635 569.352 265.067 569.784 265.067 570.312C265.067 570.84 264.635 571.272 264.107 571.272C263.579 571.272 263.147 570.84 263.147 570.312ZM272.8 579.896V579.688C272.448 580.44 271.616 581.224 270.288 581.224C268.08 581.224 266.736 579.432 266.736 577.16C266.736 574.936 268.144 573.112 270.288 573.112C271.76 573.112 272.512 573.928 272.768 574.568V569.432H274.048V579.56C274.048 580.328 274.096 580.84 274.128 581H272.88C272.848 580.824 272.8 580.392 272.8 579.896ZM270.4 580.072C271.84 580.072 272.8 578.856 272.8 577.16C272.8 575.464 271.856 574.264 270.4 574.264C268.944 574.264 268.016 575.464 268.016 577.16C268.016 578.856 268.96 580.072 270.4 580.072ZM277.361 576.424H281.937C281.905 575.208 281.121 574.248 279.665 574.248C278.337 574.248 277.441 575.288 277.361 576.424ZM282.113 578.424L283.217 578.824C282.785 580.152 281.585 581.224 279.809 581.224C277.761 581.224 276.017 579.72 276.017 577.144C276.017 574.728 277.713 573.112 279.649 573.112C281.969 573.112 283.265 574.728 283.265 577.064C283.265 577.224 283.249 577.4 283.233 577.512H277.329V577.576C277.329 579.032 278.433 580.072 279.809 580.072C281.105 580.072 281.809 579.336 282.113 578.424ZM289.313 573.288V574.648C289.105 574.584 288.865 574.568 288.641 574.568C287.361 574.568 286.481 575.304 286.481 577.032V581H285.201V573.336H286.449V574.712C286.945 573.592 287.921 573.224 288.769 573.224C288.977 573.224 289.201 573.256 289.313 573.288ZM300.097 579.896V579.688C299.745 580.44 298.913 581.224 297.585 581.224C295.377 581.224 294.033 579.432 294.033 577.16C294.033 574.936 295.441 573.112 297.585 573.112C299.057 573.112 299.809 573.928 300.065 574.568V569.432H301.345V579.56C301.345 580.328 301.393 580.84 301.425 581H300.177C300.145 580.824 300.097 580.392 300.097 579.896ZM297.697 580.072C299.137 580.072 300.097 578.856 300.097 577.16C300.097 575.464 299.153 574.264 297.697 574.264C296.241 574.264 295.313 575.464 295.313 577.16C295.313 578.856 296.257 580.072 297.697 580.072ZM304.658 576.424H309.234C309.202 575.208 308.418 574.248 306.962 574.248C305.634 574.248 304.738 575.288 304.658 576.424ZM309.41 578.424L310.514 578.824C310.082 580.152 308.882 581.224 307.106 581.224C305.058 581.224 303.314 579.72 303.314 577.144C303.314 574.728 305.01 573.112 306.946 573.112C309.266 573.112 310.562 574.728 310.562 577.064C310.562 577.224 310.546 577.4 310.53 577.512H304.626V577.576C304.626 579.032 305.73 580.072 307.106 580.072C308.402 580.072 309.106 579.336 309.41 578.424ZM314.276 570.904V573.336H316.084V574.488H314.276V578.728C314.276 579.528 314.628 579.928 315.444 579.928C315.668 579.928 315.956 579.88 316.084 579.848V580.936C315.94 580.984 315.572 581.08 315.076 581.08C313.812 581.08 312.996 580.296 312.996 578.904V574.488H311.46V573.336H311.956C312.74 573.336 313.076 572.888 313.076 572.168V570.904H314.276ZM317.298 578.968C317.298 577.624 318.242 576.872 319.586 576.68L321.65 576.376C322.21 576.296 322.338 576.056 322.338 575.72C322.338 574.856 321.762 574.2 320.562 574.2C319.442 574.2 318.77 574.872 318.658 575.848L317.442 575.56C317.602 574.104 318.882 573.112 320.53 573.112C322.706 573.112 323.618 574.36 323.618 575.848V579.72C323.618 580.36 323.666 580.76 323.714 581H322.466C322.434 580.824 322.37 580.44 322.37 579.848C322.034 580.472 321.202 581.224 319.826 581.224C318.242 581.224 317.298 580.136 317.298 578.968ZM319.986 580.136C321.314 580.136 322.338 579.4 322.338 577.768V577.256L319.842 577.624C319.106 577.736 318.578 578.152 318.578 578.904C318.578 579.528 319.106 580.136 319.986 580.136ZM327.309 581H326.029V573.336H327.309V581ZM325.709 570.312C325.709 569.784 326.141 569.352 326.669 569.352C327.197 569.352 327.629 569.784 327.629 570.312C327.629 570.84 327.197 571.272 326.669 571.272C326.141 571.272 325.709 570.84 325.709 570.312ZM331.091 581H329.811V569.432H331.091V581ZM332.968 578.984L334.12 578.584C334.232 579.464 334.888 580.136 336.04 580.136C336.952 580.136 337.528 579.624 337.528 578.968C337.528 578.392 337.064 578.008 336.36 577.848L335.112 577.56C333.944 577.288 333.208 576.536 333.208 575.432C333.208 574.152 334.424 573.112 335.88 573.112C337.864 573.112 338.552 574.376 338.728 575.16L337.592 575.576C337.496 575.048 337.096 574.2 335.88 574.2C335.08 574.2 334.456 574.712 334.456 575.352C334.456 575.896 334.792 576.232 335.464 576.392L336.712 576.68C338.056 576.984 338.792 577.768 338.792 578.904C338.792 580.008 337.848 581.224 336.024 581.224C334.008 581.224 333.096 579.944 332.968 578.984Z" fill="#8A849C"/><line x1="356" y1="575.5" x2="448" y2="575.5" stroke="#111827" stroke-opacity="0.1"/><rect x="32" y="612" width="416" height="40" rx="6" fill="white"/><rect x="32.5" y="612.5" width="415" height="39" rx="5.5" stroke="#111827" stroke-opacity="0.3"/><path fill-rule="evenodd" clip-rule="evenodd" d="M218.342 632.257C218.342 631.456 218.27 630.686 218.137 629.947H207.5V634.315H213.578C213.316 635.727 212.52 636.923 211.324 637.724V640.558H214.974C217.11 638.592 218.342 635.696 218.342 632.257Z" fill="#4285F4"/><path fill-rule="evenodd" clip-rule="evenodd" d="M207.5 643.294C210.549 643.294 213.106 642.283 214.974 640.558L211.324 637.724C210.313 638.402 209.019 638.802 207.5 638.802C204.558 638.802 202.068 636.815 201.18 634.146H197.407V637.072C199.265 640.763 203.085 643.294 207.5 643.294Z" fill="#34A853"/><path fill-rule="evenodd" clip-rule="evenodd" d="M201.18 634.146C200.954 633.468 200.826 632.744 200.826 632C200.826 631.256 200.954 630.532 201.18 629.854V626.928H197.407C196.642 628.453 196.206 630.178 196.206 632C196.206 633.823 196.642 635.547 197.407 637.072L201.18 634.146Z" fill="#FBBC05"/><path fill-rule="evenodd" clip-rule="evenodd" d="M207.5 625.198C209.158 625.198 210.647 625.768 211.817 626.887L215.057 623.647C213.101 621.825 210.544 620.706 207.5 620.706C203.085 620.706 199.265 623.237 197.407 626.928L201.18 629.854C202.068 627.185 204.558 625.198 207.5 625.198Z" fill="#EA4335"/><path d="M241.397 637H239.605L239.461 635.704C238.949 636.472 237.829 637.24 236.117 637.24C233.061 637.24 230.453 635 230.453 631.336C230.453 627.672 233.189 625.416 236.261 625.416C239.237 625.416 240.885 627.16 241.445 628.904L239.333 629.656C239.045 628.648 238.101 627.48 236.261 627.48C234.549 627.48 232.693 628.648 232.693 631.336C232.693 633.896 234.373 635.224 236.277 635.224C238.373 635.224 239.189 633.816 239.317 633.016H235.733V631.096H241.397V637ZM247.033 635.304C248.073 635.304 249.033 634.552 249.033 633.064C249.033 631.576 248.073 630.824 247.033 630.824C245.993 630.824 245.033 631.576 245.033 633.064C245.033 634.536 245.993 635.304 247.033 635.304ZM247.033 628.888C249.385 628.888 251.161 630.632 251.161 633.064C251.161 635.48 249.385 637.24 247.033 637.24C244.681 637.24 242.905 635.48 242.905 633.064C242.905 630.632 244.681 628.888 247.033 628.888ZM256.502 635.304C257.542 635.304 258.502 634.552 258.502 633.064C258.502 631.576 257.542 630.824 256.502 630.824C255.462 630.824 254.502 631.576 254.502 633.064C254.502 634.536 255.462 635.304 256.502 635.304ZM256.502 628.888C258.854 628.888 260.63 630.632 260.63 633.064C260.63 635.48 258.854 637.24 256.502 637.24C254.15 637.24 252.374 635.48 252.374 633.064C252.374 630.632 254.15 628.888 256.502 628.888ZM261.858 637.432L263.778 636.92C263.922 637.784 264.61 638.408 265.618 638.408C266.962 638.408 267.714 637.736 267.714 636.216V635.64C267.394 636.152 266.658 636.648 265.522 636.648C263.426 636.648 261.858 635.032 261.858 632.824C261.858 630.744 263.362 628.984 265.522 628.984C266.77 628.984 267.49 629.528 267.762 630.056V629.128H269.81V636.152C269.81 638.312 268.642 640.28 265.682 640.28C263.522 640.28 262.082 638.936 261.858 637.432ZM265.89 634.824C266.978 634.824 267.746 634.04 267.746 632.824C267.746 631.608 266.914 630.84 265.89 630.84C264.834 630.84 264.002 631.608 264.002 632.824C264.002 634.056 264.786 634.824 265.89 634.824ZM274.107 637H271.979V625.416H274.107V637ZM277.956 632.168H281.476C281.444 631.384 280.932 630.616 279.716 630.616C278.612 630.616 278.004 631.448 277.956 632.168ZM281.684 634.216L283.46 634.744C283.06 636.104 281.812 637.24 279.876 637.24C277.716 637.24 275.812 635.688 275.812 633.032C275.812 630.52 277.668 628.888 279.684 628.888C282.116 628.888 283.572 630.44 283.572 632.968C283.572 633.272 283.54 633.592 283.54 633.624H277.908C277.956 634.664 278.836 635.416 279.891 635.416C280.884 635.416 281.428 634.92 281.684 634.216Z" fill="#29233B"/><rect x="32" y="664" width="416" height="40" rx="6" fill="white"/><rect x="32.5" y="664.5" width="415" height="39" rx="5.5" stroke="#111827" stroke-opacity="0.3"/><g clip-path="url(#clip0_36_41269)"><path d="M210.5 684C210.5 677.376 205.124 672 198.5 672C191.876 672 186.5 677.376 186.5 684C186.5 689.808 190.628 694.644 196.1 695.76V687.6H193.7V684H196.1V681C196.1 678.684 197.984 676.8 200.3 676.8H203.3V680.4H200.9C200.24 680.4 199.7 680.94 199.7 681.6V684H203.3V687.6H199.7V695.94C205.76 695.34 210.5 690.228 210.5 684Z" fill="#1877F2"/></g><path d="M224.146 689H221.922V677.656H229.09V679.752H224.13V682.552H228.546V684.584H224.146V689ZM229.827 686.856C229.827 685.448 230.867 684.664 232.179 684.472L234.115 684.184C234.563 684.12 234.707 683.896 234.707 683.624C234.707 683.064 234.275 682.6 233.379 682.6C232.451 682.6 231.939 683.192 231.875 683.88L229.987 683.48C230.115 682.248 231.251 680.888 233.363 680.888C235.859 680.888 236.787 682.296 236.787 683.88V687.752C236.787 688.168 236.835 688.728 236.883 689H234.931C234.883 688.792 234.851 688.36 234.851 688.056C234.451 688.68 233.699 689.224 232.531 689.224C230.851 689.224 229.827 688.088 229.827 686.856ZM232.979 687.64C233.875 687.64 234.707 687.208 234.707 685.816V685.464L232.931 685.736C232.387 685.816 231.955 686.12 231.955 686.728C231.955 687.192 232.291 687.64 232.979 687.64ZM242.549 682.856C241.461 682.856 240.549 683.64 240.549 685.064C240.549 686.488 241.477 687.288 242.565 687.288C243.653 687.288 244.197 686.568 244.373 685.96L246.245 686.584C245.892 687.896 244.661 689.24 242.565 689.24C240.245 689.24 238.421 687.48 238.421 685.064C238.421 682.632 240.213 680.888 242.501 680.888C244.645 680.888 245.861 682.216 246.197 683.544L244.293 684.184C244.101 683.528 243.605 682.856 242.549 682.856ZM249.471 684.168H252.991C252.959 683.384 252.447 682.616 251.231 682.616C250.127 682.616 249.519 683.448 249.471 684.168ZM253.199 686.216L254.975 686.744C254.575 688.104 253.327 689.24 251.391 689.24C249.231 689.24 247.327 687.688 247.327 685.032C247.327 682.52 249.183 680.888 251.199 680.888C253.631 680.888 255.087 682.44 255.087 684.968C255.087 685.272 255.055 685.592 255.055 685.624H249.423C249.471 686.664 250.351 687.416 251.407 687.416C252.399 687.416 252.943 686.92 253.199 686.216ZM258.871 689H256.807V677.416H258.903V681.992C259.255 681.432 260.119 680.92 261.287 680.92C263.591 680.92 264.919 682.696 264.919 685.032C264.919 687.416 263.447 689.192 261.207 689.192C260.119 689.192 259.287 688.712 258.871 688.04V689ZM262.791 685.048C262.791 683.608 261.927 682.824 260.839 682.824C259.767 682.824 258.871 683.608 258.871 685.048C258.871 686.472 259.767 687.288 260.839 687.288C261.927 687.288 262.791 686.488 262.791 685.048ZM270.283 687.304C271.323 687.304 272.283 686.552 272.283 685.064C272.283 683.576 271.323 682.824 270.283 682.824C269.243 682.824 268.283 683.576 268.283 685.064C268.283 686.536 269.243 687.304 270.283 687.304ZM270.283 680.888C272.635 680.888 274.411 682.632 274.411 685.064C274.411 687.48 272.635 689.24 270.283 689.24C267.931 689.24 266.155 687.48 266.155 685.064C266.155 682.632 267.931 680.888 270.283 680.888ZM279.752 687.304C280.792 687.304 281.752 686.552 281.752 685.064C281.752 683.576 280.792 682.824 279.752 682.824C278.712 682.824 277.752 683.576 277.752 685.064C277.752 686.536 278.712 687.304 279.752 687.304ZM279.752 680.888C282.104 680.888 283.88 682.632 283.88 685.064C283.88 687.48 282.104 689.24 279.752 689.24C277.4 689.24 275.624 687.48 275.624 685.064C275.624 682.632 277.4 680.888 279.752 680.888ZM293.204 681.128L290.052 684.44L293.268 689H290.66L288.58 685.992L287.7 686.92V689H285.572V677.416H287.7V684.056L290.42 681.128H293.204Z" fill="#29233B"/><defs><clipPath id="clip0_36_41269"><rect width="24" height="24" fill="white" transform="translate(186.5 672)"/></clipPath></defs></svg>