<svg width="482" height="642" viewBox="0 0 482 642" fill="none" xmlns="http://www.w3.org/2000/svg"><g clip-path="url(#clip0_2527_47830)"><rect x="1" y="1" width="480" height="640" rx="12" fill="white"/><path d="M108.293 101.45C102.173 101.45 97.253 97.04 97.253 90.41C97.253 83.78 102.293 79.28 108.233 79.28C114.623 79.28 117.443 83.39 118.133 86.45L113.663 87.86C113.333 86.39 111.983 83.9 108.233 83.9C105.383 83.9 102.173 85.94 102.173 90.41C102.173 94.4 105.113 96.71 108.293 96.71C111.983 96.71 113.453 94.25 113.873 92.72L118.403 94.01C117.713 96.95 114.893 101.45 108.293 101.45ZM128.022 97.25C129.762 97.25 131.382 96.05 131.382 93.53C131.382 91.01 129.762 89.84 128.022 89.84C126.312 89.84 124.662 91.01 124.662 93.53C124.662 96.02 126.312 97.25 128.022 97.25ZM128.022 85.64C132.492 85.64 135.942 88.91 135.942 93.53C135.942 98.15 132.492 101.45 128.022 101.45C123.582 101.45 120.102 98.15 120.102 93.53C120.102 88.91 123.582 85.64 128.022 85.64ZM143.491 92.45V101H138.931V86.09H143.341V87.8C144.151 86.39 145.981 85.7 147.511 85.7C151.261 85.7 152.941 88.37 152.941 91.64V101H148.381V92.42C148.381 90.95 147.601 89.84 145.951 89.84C144.451 89.84 143.491 90.95 143.491 92.45ZM167.88 89.93H162.39V101H157.83V89.93H155.46V86.09H157.83V84.8C157.83 81.38 159.9 79.04 163.53 79.04C164.28 79.04 165.21 79.16 165.63 79.37V83.09C165.42 83.03 165 82.94 164.34 82.94C163.56 82.94 162.39 83.3 162.39 84.8V86.09H172.44V101H167.88V89.93ZM167.49 81.53C167.49 80.03 168.69 78.86 170.13 78.86C171.63 78.86 172.83 80.03 172.83 81.53C172.83 83 171.63 84.2 170.13 84.2C168.69 84.2 167.49 83 167.49 81.53ZM185.764 86.09V90.59C185.254 90.47 184.774 90.44 184.324 90.44C182.494 90.44 180.844 91.52 180.844 94.49V101H176.284V86.09H180.694V88.1C181.474 86.42 183.364 85.94 184.564 85.94C185.014 85.94 185.464 86 185.764 86.09ZM192.885 101H188.325V86.09H192.675V87.8C193.425 86.48 195.345 85.64 196.965 85.64C199.095 85.64 200.625 86.51 201.375 87.98C202.545 86.3 203.985 85.64 205.995 85.64C208.815 85.64 211.515 87.29 211.515 91.34V101H207.105V92.36C207.105 90.95 206.355 89.84 204.735 89.84C203.115 89.84 202.245 91.07 202.245 92.39V101H197.745V92.36C197.745 90.95 196.995 89.84 195.345 89.84C193.755 89.84 192.885 91.07 192.885 92.42V101ZM237.871 84.26H231.301V101H226.561V84.26H220.021V79.73H237.871V84.26ZM247.61 86.09V90.59C247.1 90.47 246.62 90.44 246.17 90.44C244.34 90.44 242.69 91.52 242.69 94.49V101H238.13V86.09H242.54V88.1C243.32 86.42 245.21 85.94 246.41 85.94C246.86 85.94 247.31 86 247.61 86.09ZM249.244 96.89C249.244 94.25 251.194 92.75 253.654 92.39L257.164 91.85C257.974 91.73 258.244 91.34 258.244 90.83C258.244 89.96 257.494 89.21 256.054 89.21C254.464 89.21 253.594 90.29 253.504 91.4L249.544 90.59C249.724 88.46 251.704 85.64 256.084 85.64C260.914 85.64 262.684 88.34 262.684 91.4V98.69C262.684 99.86 262.834 100.85 262.864 101H258.754C258.724 100.88 258.604 100.34 258.604 99.32C257.824 100.58 256.384 101.42 254.404 101.42C251.134 101.42 249.244 99.26 249.244 96.89ZM255.514 98.12C256.864 98.12 258.244 97.46 258.244 95.15V94.49L255.424 94.94C254.464 95.09 253.744 95.54 253.744 96.59C253.744 97.37 254.254 98.12 255.514 98.12ZM270.961 92.45V101H266.401V86.09H270.811V87.8C271.621 86.39 273.451 85.7 274.981 85.7C278.731 85.7 280.411 88.37 280.411 91.64V101H275.851V92.42C275.851 90.95 275.071 89.84 273.421 89.84C271.921 89.84 270.961 90.95 270.961 92.45ZM283.226 96.77L287.096 96.08C287.156 97.1 287.876 98.09 289.436 98.09C290.606 98.09 291.176 97.46 291.176 96.8C291.176 96.26 290.816 95.81 289.706 95.57L287.996 95.18C284.816 94.49 283.556 92.69 283.556 90.59C283.556 87.86 285.956 85.64 289.286 85.64C293.606 85.64 295.106 88.34 295.256 90.08L291.476 90.77C291.356 89.78 290.726 88.94 289.346 88.94C288.476 88.94 287.726 89.45 287.726 90.23C287.726 90.86 288.236 91.22 288.896 91.34L290.876 91.73C293.966 92.36 295.466 94.22 295.466 96.41C295.466 98.96 293.516 101.45 289.526 101.45C284.846 101.45 283.346 98.42 283.226 96.77ZM297.73 96.89C297.73 94.25 299.68 92.75 302.14 92.39L305.65 91.85C306.46 91.73 306.73 91.34 306.73 90.83C306.73 89.96 305.98 89.21 304.54 89.21C302.95 89.21 302.08 90.29 301.99 91.4L298.03 90.59C298.21 88.46 300.19 85.64 304.57 85.64C309.4 85.64 311.17 88.34 311.17 91.4V98.69C311.17 99.86 311.32 100.85 311.35 101H307.24C307.21 100.88 307.09 100.34 307.09 99.32C306.31 100.58 304.87 101.42 302.89 101.42C299.62 101.42 297.73 99.26 297.73 96.89ZM304 98.12C305.35 98.12 306.73 97.46 306.73 95.15V94.49L303.91 94.94C302.95 95.09 302.23 95.54 302.23 96.59C302.23 97.37 302.74 98.12 304 98.12ZM321.998 89.84C320.108 89.84 318.578 91.16 318.578 93.56C318.578 95.93 320.168 97.25 322.058 97.25C323.828 97.25 324.818 96.14 325.148 95.03L329.168 96.26C328.508 98.87 326.048 101.45 322.058 101.45C317.618 101.45 314.048 98.18 314.048 93.56C314.048 88.91 317.528 85.64 321.908 85.64C326.018 85.64 328.418 88.16 329.078 90.83L324.998 92.06C324.668 90.92 323.768 89.84 321.998 89.84ZM337.729 81.74V86.09H340.639V90.08H337.729V95.66C337.729 96.89 338.389 97.22 339.379 97.22C339.859 97.22 340.309 97.13 340.579 97.07V100.85C340.399 100.94 339.649 101.27 338.209 101.27C335.119 101.27 333.229 99.44 333.229 96.47V90.08H330.589V86.09H331.339C332.899 86.09 333.649 85.04 333.649 83.66V81.74H337.729ZM348.276 101H343.716V86.09H348.276V101ZM343.326 81.53C343.326 80.06 344.526 78.86 345.966 78.86C347.466 78.86 348.666 80.06 348.666 81.53C348.666 83 347.466 84.2 345.966 84.2C344.526 84.2 343.326 83 343.326 81.53ZM359.204 97.25C360.944 97.25 362.564 96.05 362.564 93.53C362.564 91.01 360.944 89.84 359.204 89.84C357.494 89.84 355.844 91.01 355.844 93.53C355.844 96.02 357.494 97.25 359.204 97.25ZM359.204 85.64C363.674 85.64 367.124 88.91 367.124 93.53C367.124 98.15 363.674 101.45 359.204 101.45C354.764 101.45 351.284 98.15 351.284 93.53C351.284 88.91 354.764 85.64 359.204 85.64ZM374.672 92.45V101H370.112V86.09H374.522V87.8C375.332 86.39 377.162 85.7 378.692 85.7C382.442 85.7 384.122 88.37 384.122 91.64V101H379.562V92.42C379.562 90.95 378.782 89.84 377.132 89.84C375.632 89.84 374.672 90.95 374.672 92.45Z" fill="#29233B"/><path d="M58.3026 136.096H60.7026C62.1586 136.096 63.0546 135.248 63.0546 134C63.0546 132.704 62.1586 131.856 60.7026 131.856H58.3026V136.096ZM60.9106 137.296H58.3026V142H56.9586V130.656H60.9106C63.0066 130.656 64.3986 132.096 64.3986 133.984C64.3986 135.888 63.0066 137.296 60.9106 137.296ZM67.4186 142H66.1386V130.432H67.4186V142ZM70.7359 137.424H75.3119C75.2799 136.208 74.4959 135.248 73.0399 135.248C71.7119 135.248 70.8159 136.288 70.7359 137.424ZM75.4879 139.424L76.5919 139.824C76.1599 141.152 74.9599 142.224 73.1839 142.224C71.1359 142.224 69.3919 140.72 69.3919 138.144C69.3919 135.728 71.0879 134.112 73.0239 134.112C75.3439 134.112 76.6399 135.728 76.6399 138.064C76.6399 138.224 76.6239 138.4 76.6079 138.512H70.7039V138.576C70.7039 140.032 71.8079 141.072 73.1839 141.072C74.4799 141.072 75.1839 140.336 75.4879 139.424ZM78.0321 139.968C78.0321 138.624 78.9761 137.872 80.3201 137.68L82.3841 137.376C82.9441 137.296 83.0721 137.056 83.0721 136.72C83.0721 135.856 82.4961 135.2 81.2961 135.2C80.1761 135.2 79.5041 135.872 79.3921 136.848L78.1761 136.56C78.3361 135.104 79.6161 134.112 81.2641 134.112C83.4401 134.112 84.3521 135.36 84.3521 136.848V140.72C84.3521 141.36 84.4001 141.76 84.4481 142H83.2001C83.1681 141.824 83.1041 141.44 83.1041 140.848C82.7681 141.472 81.9361 142.224 80.5601 142.224C78.9761 142.224 78.0321 141.136 78.0321 139.968ZM80.7201 141.136C82.0481 141.136 83.0721 140.4 83.0721 138.768V138.256L80.5761 138.624C79.8401 138.736 79.3121 139.152 79.3121 139.904C79.3121 140.528 79.8401 141.136 80.7201 141.136ZM86.1396 139.984L87.2916 139.584C87.4036 140.464 88.0596 141.136 89.2116 141.136C90.1236 141.136 90.6996 140.624 90.6996 139.968C90.6996 139.392 90.2356 139.008 89.5316 138.848L88.2836 138.56C87.1156 138.288 86.3796 137.536 86.3796 136.432C86.3796 135.152 87.5956 134.112 89.0516 134.112C91.0356 134.112 91.7236 135.376 91.8996 136.16L90.7636 136.576C90.6676 136.048 90.2676 135.2 89.0516 135.2C88.2516 135.2 87.6276 135.712 87.6276 136.352C87.6276 136.896 87.9636 137.232 88.6356 137.392L89.8836 137.68C91.2276 137.984 91.9636 138.768 91.9636 139.904C91.9636 141.008 91.0196 142.224 89.1956 142.224C87.1796 142.224 86.2676 140.944 86.1396 139.984ZM94.7515 137.424H99.3275C99.2955 136.208 98.5115 135.248 97.0555 135.248C95.7275 135.248 94.8315 136.288 94.7515 137.424ZM99.5035 139.424L100.608 139.824C100.176 141.152 98.9755 142.224 97.1995 142.224C95.1515 142.224 93.4075 140.72 93.4075 138.144C93.4075 135.728 95.1035 134.112 97.0395 134.112C99.3595 134.112 100.656 135.728 100.656 138.064C100.656 138.224 100.64 138.4 100.624 138.512H94.7195V138.576C94.7195 140.032 95.8235 141.072 97.1995 141.072C98.4955 141.072 99.1995 140.336 99.5035 139.424ZM109.934 135.264C108.59 135.264 107.422 136.304 107.422 138.16C107.422 140 108.59 141.072 109.95 141.072C111.406 141.072 112.014 140.048 112.238 139.344L113.358 139.84C112.99 140.976 111.918 142.224 109.95 142.224C107.742 142.224 106.142 140.496 106.142 138.16C106.142 135.776 107.774 134.112 109.934 134.112C111.902 134.112 112.974 135.312 113.294 136.528L112.142 137.024C111.934 136.208 111.31 135.264 109.934 135.264ZM116.466 142H115.186V130.432H116.466V142ZM120.247 142H118.967V134.336H120.247V142ZM118.647 131.312C118.647 130.784 119.079 130.352 119.607 130.352C120.135 130.352 120.567 130.784 120.567 131.312C120.567 131.84 120.135 132.272 119.607 132.272C119.079 132.272 118.647 131.84 118.647 131.312ZM126.012 135.264C124.668 135.264 123.5 136.304 123.5 138.16C123.5 140 124.668 141.072 126.028 141.072C127.484 141.072 128.092 140.048 128.316 139.344L129.436 139.84C129.068 140.976 127.996 142.224 126.028 142.224C123.82 142.224 122.22 140.496 122.22 138.16C122.22 135.776 123.852 134.112 126.012 134.112C127.98 134.112 129.052 135.312 129.372 136.528L128.22 137.024C128.012 136.208 127.388 135.264 126.012 135.264ZM137.888 134.336L134.624 137.584L137.968 142H136.352L133.728 138.464L132.544 139.68V142H131.264V130.432H132.544V137.984L136.128 134.336H137.888ZM146.793 135.264C145.449 135.264 144.281 136.304 144.281 138.16C144.281 140 145.449 141.072 146.809 141.072C148.265 141.072 148.873 140.048 149.097 139.344L150.217 139.84C149.849 140.976 148.777 142.224 146.809 142.224C144.601 142.224 143.001 140.496 143.001 138.16C143.001 135.776 144.633 134.112 146.793 134.112C148.761 134.112 149.833 135.312 150.153 136.528L149.001 137.024C148.793 136.208 148.169 135.264 146.793 135.264ZM155.357 134.112C157.565 134.112 159.197 135.808 159.197 138.16C159.197 140.528 157.565 142.224 155.357 142.224C153.149 142.224 151.517 140.528 151.517 138.16C151.517 135.808 153.149 134.112 155.357 134.112ZM155.357 135.264C153.981 135.264 152.797 136.304 152.797 138.16C152.797 140.032 153.981 141.072 155.357 141.072C156.733 141.072 157.917 140.032 157.917 138.16C157.917 136.304 156.733 135.264 155.357 135.264ZM162.45 137.488V142H161.17V134.336H162.418V135.488C162.914 134.592 163.81 134.112 164.818 134.112C166.658 134.112 167.554 135.424 167.554 137.088V142H166.274V137.28C166.274 136.16 165.762 135.264 164.37 135.264C163.138 135.264 162.45 136.288 162.45 137.488ZM176.799 142H175.519V135.488H171.807V142H170.527V135.488H169.023V134.336H170.527V132.912C170.527 131.232 171.583 130.352 172.943 130.352C173.407 130.352 173.711 130.448 173.823 130.512V131.616C173.711 131.568 173.503 131.504 173.135 131.504C172.511 131.504 171.807 131.84 171.807 132.944V134.336H176.799V142ZM175.199 131.312C175.199 130.784 175.631 130.352 176.159 130.352C176.687 130.352 177.119 130.784 177.119 131.312C177.119 131.84 176.687 132.272 176.159 132.272C175.631 132.272 175.199 131.84 175.199 131.312ZM183.407 134.288V135.648C183.199 135.584 182.959 135.568 182.735 135.568C181.455 135.568 180.575 136.304 180.575 138.032V142H179.295V134.336H180.543V135.712C181.039 134.592 182.015 134.224 182.863 134.224C183.071 134.224 183.295 134.256 183.407 134.288ZM186.168 134.336V135.424C186.6 134.624 187.528 134.112 188.52 134.112C189.576 134.112 190.488 134.672 190.872 135.68C191.416 134.592 192.376 134.112 193.464 134.112C194.856 134.112 196.104 135.072 196.104 136.992V142H194.824V137.136C194.824 136.08 194.264 135.264 193.064 135.264C191.928 135.264 191.16 136.192 191.16 137.344V142H189.88V137.136C189.88 136.08 189.32 135.264 188.104 135.264C186.952 135.264 186.2 136.16 186.2 137.36V142H184.92V134.336H186.168ZM204.12 131.904V134.336H205.928V135.488H204.12V139.728C204.12 140.528 204.472 140.928 205.288 140.928C205.512 140.928 205.8 140.88 205.928 140.848V141.936C205.784 141.984 205.416 142.08 204.92 142.08C203.656 142.08 202.84 141.296 202.84 139.904V135.488H201.304V134.336H201.8C202.584 134.336 202.92 133.888 202.92 133.168V131.904H204.12ZM210.998 134.112C213.206 134.112 214.838 135.808 214.838 138.16C214.838 140.528 213.206 142.224 210.998 142.224C208.789 142.224 207.158 140.528 207.158 138.16C207.158 135.808 208.789 134.112 210.998 134.112ZM210.998 135.264C209.622 135.264 208.438 136.304 208.438 138.16C208.438 140.032 209.622 141.072 210.998 141.072C212.374 141.072 213.558 140.032 213.558 138.16C213.558 136.304 212.374 135.264 210.998 135.264ZM222.169 145.04H220.889V134.336H222.137V135.616C222.537 134.832 223.433 134.112 224.793 134.112C227.049 134.112 228.281 135.872 228.281 138.16C228.281 140.448 226.969 142.224 224.761 142.224C223.449 142.224 222.569 141.536 222.169 140.816V145.04ZM224.569 141.072C226.041 141.072 227.001 139.856 227.001 138.16C227.001 136.464 226.057 135.264 224.569 135.264C223.081 135.264 222.137 136.464 222.137 138.16C222.137 139.856 223.097 141.072 224.569 141.072ZM234.376 134.288V135.648C234.168 135.584 233.928 135.568 233.704 135.568C232.424 135.568 231.544 136.304 231.544 138.032V142H230.264V134.336H231.512V135.712C232.008 134.592 232.984 134.224 233.832 134.224C234.04 134.224 234.264 134.256 234.376 134.288ZM239.029 134.112C241.237 134.112 242.869 135.808 242.869 138.16C242.869 140.528 241.237 142.224 239.029 142.224C236.821 142.224 235.189 140.528 235.189 138.16C235.189 135.808 236.821 134.112 239.029 134.112ZM239.029 135.264C237.653 135.264 236.469 136.304 236.469 138.16C236.469 140.032 237.653 141.072 239.029 141.072C240.405 141.072 241.589 140.032 241.589 138.16C241.589 136.304 240.405 135.264 239.029 135.264ZM248.106 135.264C246.762 135.264 245.594 136.304 245.594 138.16C245.594 140 246.762 141.072 248.122 141.072C249.578 141.072 250.186 140.048 250.41 139.344L251.53 139.84C251.162 140.976 250.09 142.224 248.122 142.224C245.914 142.224 244.314 140.496 244.314 138.16C244.314 135.776 245.946 134.112 248.106 134.112C250.074 134.112 251.146 135.312 251.466 136.528L250.314 137.024C250.106 136.208 249.482 135.264 248.106 135.264ZM254.173 137.424H258.749C258.717 136.208 257.933 135.248 256.477 135.248C255.149 135.248 254.253 136.288 254.173 137.424ZM258.925 139.424L260.029 139.824C259.597 141.152 258.397 142.224 256.621 142.224C254.573 142.224 252.829 140.72 252.829 138.144C252.829 135.728 254.525 134.112 256.461 134.112C258.781 134.112 260.077 135.728 260.077 138.064C260.077 138.224 260.061 138.4 260.045 138.512H254.141V138.576C254.141 140.032 255.245 141.072 256.621 141.072C257.917 141.072 258.621 140.336 258.925 139.424ZM262.83 137.424H267.406C267.374 136.208 266.59 135.248 265.134 135.248C263.806 135.248 262.91 136.288 262.83 137.424ZM267.582 139.424L268.686 139.824C268.254 141.152 267.054 142.224 265.278 142.224C263.23 142.224 261.486 140.72 261.486 138.144C261.486 135.728 263.182 134.112 265.118 134.112C267.438 134.112 268.734 135.728 268.734 138.064C268.734 138.224 268.718 138.4 268.702 138.512H262.798V138.576C262.798 140.032 263.902 141.072 265.278 141.072C266.574 141.072 267.278 140.336 267.582 139.424ZM276.222 140.896V140.688C275.87 141.44 275.038 142.224 273.71 142.224C271.502 142.224 270.158 140.432 270.158 138.16C270.158 135.936 271.566 134.112 273.71 134.112C275.182 134.112 275.934 134.928 276.19 135.568V130.432H277.47V140.56C277.47 141.328 277.518 141.84 277.55 142H276.302C276.27 141.824 276.222 141.392 276.222 140.896ZM273.822 141.072C275.262 141.072 276.222 139.856 276.222 138.16C276.222 136.464 275.278 135.264 273.822 135.264C272.366 135.264 271.438 136.464 271.438 138.16C271.438 139.856 272.382 141.072 273.822 141.072ZM288.261 134.336H289.589L291.717 140.4L293.541 134.336H294.901L292.405 142H291.061L288.917 135.888L286.805 142H285.445L282.901 134.336H284.277L286.149 140.4L288.261 134.336ZM297.887 142H296.607V134.336H297.887V142ZM296.287 131.312C296.287 130.784 296.719 130.352 297.247 130.352C297.775 130.352 298.207 130.784 298.207 131.312C298.207 131.84 297.775 132.272 297.247 132.272C296.719 132.272 296.287 131.84 296.287 131.312ZM302.245 131.904V134.336H304.053V135.488H302.245V139.728C302.245 140.528 302.597 140.928 303.413 140.928C303.637 140.928 303.925 140.88 304.053 140.848V141.936C303.909 141.984 303.541 142.08 303.045 142.08C301.781 142.08 300.965 141.296 300.965 139.904V135.488H299.429V134.336H299.925C300.709 134.336 301.045 133.888 301.045 133.168V131.904H302.245ZM307.091 137.424V142H305.811V130.432H307.091V135.36C307.587 134.56 308.467 134.112 309.459 134.112C311.299 134.112 312.195 135.424 312.195 137.088V142H310.915V137.28C310.915 136.16 310.403 135.264 309.011 135.264C307.795 135.264 307.091 136.24 307.091 137.424ZM320.213 131.904V134.336H322.021V135.488H320.213V139.728C320.213 140.528 320.565 140.928 321.381 140.928C321.605 140.928 321.893 140.88 322.021 140.848V141.936C321.877 141.984 321.509 142.08 321.013 142.08C319.749 142.08 318.933 141.296 318.933 139.904V135.488H317.397V134.336H317.893C318.677 134.336 319.013 133.888 319.013 133.168V131.904H320.213ZM325.059 137.424V142H323.779V130.432H325.059V135.36C325.555 134.56 326.435 134.112 327.427 134.112C329.267 134.112 330.163 135.424 330.163 137.088V142H328.883V137.28C328.883 136.16 328.371 135.264 326.979 135.264C325.763 135.264 325.059 136.24 325.059 137.424ZM333.377 137.424H337.953C337.921 136.208 337.137 135.248 335.681 135.248C334.353 135.248 333.457 136.288 333.377 137.424ZM338.129 139.424L339.233 139.824C338.801 141.152 337.601 142.224 335.825 142.224C333.777 142.224 332.033 140.72 332.033 138.144C332.033 135.728 333.729 134.112 335.665 134.112C337.985 134.112 339.281 135.728 339.281 138.064C339.281 138.224 339.265 138.4 339.249 138.512H333.345V138.576C333.345 140.032 334.449 141.072 335.825 141.072C337.121 141.072 337.825 140.336 338.129 139.424ZM346.838 131.904V134.336H348.646V135.488H346.838V139.728C346.838 140.528 347.19 140.928 348.006 140.928C348.23 140.928 348.518 140.88 348.646 140.848V141.936C348.502 141.984 348.134 142.08 347.638 142.08C346.374 142.08 345.558 141.296 345.558 139.904V135.488H344.022V134.336H344.518C345.302 134.336 345.638 133.888 345.638 133.168V131.904H346.838ZM354.516 134.288V135.648C354.308 135.584 354.068 135.568 353.844 135.568C352.564 135.568 351.684 136.304 351.684 138.032V142H350.404V134.336H351.652V135.712C352.148 134.592 353.124 134.224 353.972 134.224C354.18 134.224 354.404 134.256 354.516 134.288ZM355.485 139.968C355.485 138.624 356.429 137.872 357.773 137.68L359.837 137.376C360.397 137.296 360.525 137.056 360.525 136.72C360.525 135.856 359.949 135.2 358.749 135.2C357.629 135.2 356.957 135.872 356.845 136.848L355.629 136.56C355.789 135.104 357.069 134.112 358.717 134.112C360.893 134.112 361.805 135.36 361.805 136.848V140.72C361.805 141.36 361.853 141.76 361.901 142H360.653C360.621 141.824 360.557 141.44 360.557 140.848C360.221 141.472 359.389 142.224 358.013 142.224C356.429 142.224 355.485 141.136 355.485 139.968ZM358.173 141.136C359.501 141.136 360.525 140.4 360.525 138.768V138.256L358.029 138.624C357.293 138.736 356.765 139.152 356.765 139.904C356.765 140.528 357.293 141.136 358.173 141.136ZM365.497 137.488V142H364.217V134.336H365.465V135.488C365.961 134.592 366.857 134.112 367.865 134.112C369.705 134.112 370.601 135.424 370.601 137.088V142H369.321V137.28C369.321 136.16 368.809 135.264 367.417 135.264C366.185 135.264 365.497 136.288 365.497 137.488ZM372.374 139.984L373.526 139.584C373.638 140.464 374.294 141.136 375.446 141.136C376.358 141.136 376.934 140.624 376.934 139.968C376.934 139.392 376.47 139.008 375.766 138.848L374.518 138.56C373.35 138.288 372.614 137.536 372.614 136.432C372.614 135.152 373.83 134.112 375.286 134.112C377.27 134.112 377.958 135.376 378.134 136.16L376.998 136.576C376.902 136.048 376.502 135.2 375.286 135.2C374.486 135.2 373.862 135.712 373.862 136.352C373.862 136.896 374.198 137.232 374.87 137.392L376.118 137.68C377.462 137.984 378.198 138.768 378.198 139.904C378.198 141.008 377.254 142.224 375.43 142.224C373.414 142.224 372.502 140.944 372.374 139.984ZM379.626 139.968C379.626 138.624 380.57 137.872 381.914 137.68L383.978 137.376C384.538 137.296 384.666 137.056 384.666 136.72C384.666 135.856 384.09 135.2 382.89 135.2C381.77 135.2 381.098 135.872 380.986 136.848L379.77 136.56C379.93 135.104 381.21 134.112 382.858 134.112C385.034 134.112 385.946 135.36 385.946 136.848V140.72C385.946 141.36 385.994 141.76 386.042 142H384.794C384.762 141.824 384.698 141.44 384.698 140.848C384.362 141.472 383.53 142.224 382.154 142.224C380.57 142.224 379.626 141.136 379.626 139.968ZM382.314 141.136C383.642 141.136 384.666 140.4 384.666 138.768V138.256L382.17 138.624C381.434 138.736 380.906 139.152 380.906 139.904C380.906 140.528 381.434 141.136 382.314 141.136ZM391.621 135.264C390.277 135.264 389.109 136.304 389.109 138.16C389.109 140 390.277 141.072 391.637 141.072C393.093 141.072 393.701 140.048 393.925 139.344L395.045 139.84C394.677 140.976 393.605 142.224 391.637 142.224C389.429 142.224 387.829 140.496 387.829 138.16C387.829 135.776 389.461 134.112 391.621 134.112C393.589 134.112 394.661 135.312 394.981 136.528L393.829 137.024C393.621 136.208 392.997 135.264 391.621 135.264ZM398.729 131.904V134.336H400.537V135.488H398.729V139.728C398.729 140.528 399.081 140.928 399.897 140.928C400.121 140.928 400.409 140.88 400.537 140.848V141.936C400.393 141.984 400.025 142.08 399.529 142.08C398.265 142.08 397.449 141.296 397.449 139.904V135.488H395.913V134.336H396.409C397.193 134.336 397.529 133.888 397.529 133.168V131.904H398.729ZM403.575 142H402.295V134.336H403.575V142ZM401.975 131.312C401.975 130.784 402.407 130.352 402.935 130.352C403.463 130.352 403.895 130.784 403.895 131.312C403.895 131.84 403.463 132.272 402.935 132.272C402.407 132.272 401.975 131.84 401.975 131.312ZM409.388 134.112C411.596 134.112 413.228 135.808 413.228 138.16C413.228 140.528 411.596 142.224 409.388 142.224C407.18 142.224 405.548 140.528 405.548 138.16C405.548 135.808 407.18 134.112 409.388 134.112ZM409.388 135.264C408.012 135.264 406.828 136.304 406.828 138.16C406.828 140.032 408.012 141.072 409.388 141.072C410.764 141.072 411.948 140.032 411.948 138.16C411.948 136.304 410.764 135.264 409.388 135.264ZM416.481 137.488V142H415.201V134.336H416.449V135.488C416.945 134.592 417.841 134.112 418.849 134.112C420.689 134.112 421.585 135.424 421.585 137.088V142H420.305V137.28C420.305 136.16 419.793 135.264 418.401 135.264C417.169 135.264 416.481 136.288 416.481 137.488ZM423.678 141.088C423.678 140.528 424.126 140.096 424.67 140.096C425.214 140.096 425.662 140.528 425.662 141.088C425.662 141.648 425.214 142.08 424.67 142.08C424.126 142.08 423.678 141.648 423.678 141.088Z" fill="#4E4763"/><circle cx="151" cy="207" r="18" fill="#2775CA"/><path fill-rule="evenodd" clip-rule="evenodd" d="M147.625 219.516C147.625 219.938 147.288 220.177 146.894 220.05C141.438 218.306 137.5 213.216 137.5 207.183C137.5 201.164 141.438 196.059 146.894 194.316C147.302 194.189 147.625 194.428 147.625 194.85V195.905C147.625 196.186 147.414 196.509 147.147 196.608C142.83 198.197 139.75 202.345 139.75 207.183C139.75 212.034 142.83 216.169 147.147 217.744C147.414 217.842 147.625 218.166 147.625 218.447V219.516Z" fill="white"/><path fill-rule="evenodd" clip-rule="evenodd" d="M152.125 215.62C152.125 215.93 151.872 216.183 151.562 216.183H150.437C150.128 216.183 149.875 215.93 149.875 215.62V213.848C147.414 213.511 146.219 212.147 145.895 210.262C145.839 209.939 146.092 209.658 146.416 209.658H147.695C147.962 209.658 148.187 209.855 148.244 210.108C148.483 211.219 149.13 212.077 151.098 212.077C152.547 212.077 153.587 211.261 153.587 210.052C153.587 208.842 152.983 208.378 150.845 208.027C147.695 207.605 146.205 206.648 146.205 204.187C146.205 202.289 147.653 200.798 149.875 200.489V198.745C149.875 198.436 150.128 198.183 150.437 198.183H151.562C151.872 198.183 152.125 198.436 152.125 198.745V200.531C153.939 200.855 155.092 201.881 155.472 203.597C155.542 203.92 155.289 204.216 154.952 204.216H153.77C153.517 204.216 153.306 204.047 153.236 203.808C152.912 202.725 152.139 202.247 150.789 202.247C149.298 202.247 148.525 202.964 148.525 203.977C148.525 205.045 148.961 205.58 151.253 205.903C154.347 206.325 155.95 207.211 155.95 209.841C155.95 211.837 154.459 213.455 152.139 213.82V215.62H152.125Z" fill="white"/><path fill-rule="evenodd" clip-rule="evenodd" d="M155.106 220.05C154.698 220.177 154.375 219.937 154.375 219.516V218.461C154.375 218.152 154.558 217.856 154.853 217.758C159.156 216.183 162.25 212.034 162.25 207.197C162.25 202.345 159.17 198.211 154.853 196.636C154.586 196.537 154.375 196.214 154.375 195.933V194.878C154.375 194.456 154.712 194.217 155.106 194.344C160.562 196.059 164.5 201.164 164.5 207.183C164.5 213.216 160.562 218.306 155.106 220.05Z" fill="white"/><path d="M185.373 205.44L179.453 205.4C179.333 205.08 179.213 204.04 179.213 203.24C179.213 198.6 182.693 194.44 188.933 194.44C194.893 194.44 198.573 198.32 198.573 202.96C198.573 206.32 196.773 209.08 193.453 211.04L188.533 213.96C187.773 214.44 187.133 214.96 186.773 215.72H198.773V221H179.053C179.053 216.24 180.413 212.32 185.173 209.56L189.413 207.08C191.453 205.88 192.253 204.8 192.253 203.08C192.253 201.44 191.093 200 188.773 200C186.333 200 185.133 201.68 185.133 203.84C185.133 204.36 185.213 204.92 185.373 205.44ZM208.5 208.04C208.5 210.12 208.74 212.16 209.46 213.68C210.18 215.12 211.34 216.08 213.26 216.08C215.22 216.08 216.34 215.12 217.06 213.68C217.82 212.16 218.06 210.12 218.06 208.04C218.06 205.96 217.82 203.92 217.06 202.4C216.34 200.96 215.22 200 213.26 200C211.34 200 210.18 200.96 209.46 202.4C208.74 203.92 208.5 205.96 208.5 208.04ZM202.18 208.04C202.18 204.84 202.66 201.6 204.46 198.88C206.18 196.28 209.06 194.44 213.26 194.44C217.5 194.44 220.38 196.28 222.1 198.88C223.9 201.6 224.38 204.84 224.38 208.04C224.38 211.24 223.9 214.48 222.1 217.2C220.38 219.76 217.5 221.64 213.26 221.64C209.06 221.64 206.18 219.76 204.46 217.2C202.66 214.48 202.18 211.24 202.18 208.04ZM249.504 221.64C243.264 221.64 238.264 217.88 238.264 210.76V192.64H244.584V210.24C244.584 213.68 246.504 215.4 249.504 215.4C252.504 215.4 254.424 213.68 254.424 210.24V192.64H260.744V210.76C260.744 217.88 255.744 221.64 249.504 221.64ZM286.504 199.6L280.824 201.2C280.624 199.88 279.544 197.64 276.104 197.64C273.744 197.64 272.224 199.12 272.224 200.68C272.224 202.04 273.064 203.04 275.024 203.4L278.824 204.12C284.224 205.12 287.024 208.6 287.024 212.64C287.024 217.08 283.304 221.6 276.544 221.6C268.704 221.6 265.344 216.52 264.944 212.52L270.744 211.12C270.984 213.72 272.744 216 276.624 216C279.104 216 280.624 214.8 280.624 213.04C280.624 211.6 279.464 210.56 277.584 210.2L273.704 209.48C268.904 208.56 265.984 205.36 265.984 201.16C265.984 195.8 270.704 192.04 276.144 192.04C283.224 192.04 285.904 196.28 286.504 199.6ZM298.106 215.04H301.786C306.146 215.04 309.706 212.52 309.706 206.84C309.706 201.16 306.146 198.6 301.786 198.6H298.106V215.04ZM302.026 221H291.786V192.64H302.066C310.586 192.64 316.306 198.08 316.306 206.84C316.306 215.6 310.586 221 302.026 221ZM334.241 221.6C326.081 221.6 319.521 215.72 319.521 206.88C319.521 198.04 326.241 192.04 334.161 192.04C342.681 192.04 346.441 197.52 347.361 201.6L341.401 203.48C340.961 201.52 339.161 198.2 334.161 198.2C330.361 198.2 326.081 200.92 326.081 206.88C326.081 212.2 330.001 215.28 334.241 215.28C339.161 215.28 341.121 212 341.681 209.96L347.721 211.68C346.801 215.6 343.041 221.6 334.241 221.6Z" fill="black"/><path d="M243.93 248.196C241.914 248.196 240.416 246.95 240.416 244.64V238.074H241.592V244.612C241.592 246.208 242.432 247.118 243.93 247.118C245.428 247.118 246.268 246.208 246.268 244.612V238.074H247.444V244.64C247.444 246.95 245.946 248.196 243.93 248.196ZM256.161 240.328L255.111 240.706C254.957 239.866 254.299 238.942 252.871 238.928C251.723 238.928 250.813 239.684 250.813 240.692C250.813 241.49 251.331 242.064 252.241 242.26L253.697 242.582C255.293 242.932 256.245 243.926 256.245 245.326C256.245 246.852 254.943 248.196 252.871 248.196C250.575 248.196 249.413 246.698 249.231 245.242L250.337 244.892C250.449 246.068 251.303 247.132 252.871 247.132C254.299 247.132 255.069 246.376 255.069 245.424C255.069 244.612 254.509 243.982 253.459 243.744L252.003 243.422C250.631 243.114 249.637 242.218 249.637 240.762C249.637 239.208 251.065 237.878 252.857 237.878C254.999 237.878 255.909 239.18 256.161 240.328ZM259.491 246.964H261.577C263.509 246.964 265.147 245.662 265.147 243.058C265.147 240.44 263.537 239.11 261.605 239.11H259.491V246.964ZM261.577 248H258.315V238.074H261.605C264.125 238.074 266.323 239.796 266.323 243.058C266.323 246.306 264.097 248 261.577 248ZM272.562 242.176L271.414 242.036C271.386 241.91 271.372 241.756 271.372 241.63C271.372 240.076 272.506 238.732 274.452 238.732C276.328 238.732 277.448 239.978 277.448 241.476C277.448 242.666 276.776 243.604 275.74 244.262L273.878 245.452C273.332 245.802 272.828 246.278 272.716 246.936H277.532V248H271.288C271.316 246.6 271.876 245.48 273.332 244.542L274.956 243.492C275.838 242.932 276.272 242.288 276.272 241.49C276.272 240.594 275.628 239.768 274.424 239.768C273.192 239.768 272.52 240.622 272.52 241.742C272.52 241.896 272.534 242.064 272.562 242.176ZM282.555 247.16C283.227 247.16 283.717 246.908 284.081 246.516C284.683 245.886 284.935 244.836 284.935 243.464C284.935 242.092 284.683 241.042 284.081 240.412C283.717 240.02 283.227 239.768 282.555 239.768C281.883 239.768 281.393 240.02 281.029 240.412C280.427 241.042 280.175 242.092 280.175 243.464C280.175 244.836 280.427 245.886 281.029 246.516C281.393 246.908 281.883 247.16 282.555 247.16ZM282.555 248.196C281.323 248.196 280.441 247.65 279.867 246.81C279.237 245.9 279.027 244.696 279.027 243.464C279.027 242.232 279.237 241.028 279.867 240.118C280.441 239.278 281.323 238.732 282.555 238.732C283.787 238.732 284.669 239.278 285.243 240.118C285.873 241.028 286.083 242.232 286.083 243.464C286.083 244.696 285.873 245.9 285.243 246.81C284.669 247.65 283.787 248.196 282.555 248.196Z" fill="#8A849C"/><path d="M35.912 310H34.568V298.656H41.384V299.888H35.912V303.872H40.888V305.104H35.912V310ZM46.9381 302.288V303.648C46.7301 303.584 46.4901 303.568 46.2661 303.568C44.9861 303.568 44.1061 304.304 44.1061 306.032V310H42.8261V302.336H44.0741V303.712C44.5701 302.592 45.5461 302.224 46.3941 302.224C46.6021 302.224 46.8261 302.256 46.9381 302.288ZM51.5913 302.112C53.7993 302.112 55.4313 303.808 55.4313 306.16C55.4313 308.528 53.7993 310.224 51.5913 310.224C49.3832 310.224 47.7513 308.528 47.7513 306.16C47.7513 303.808 49.3832 302.112 51.5913 302.112ZM51.5913 303.264C50.2153 303.264 49.0312 304.304 49.0312 306.16C49.0312 308.032 50.2153 309.072 51.5913 309.072C52.9673 309.072 54.1513 308.032 54.1513 306.16C54.1513 304.304 52.9673 303.264 51.5913 303.264ZM58.6523 302.336V303.424C59.0843 302.624 60.0123 302.112 61.0043 302.112C62.0603 302.112 62.9723 302.672 63.3563 303.68C63.9003 302.592 64.8603 302.112 65.9483 302.112C67.3403 302.112 68.5883 303.072 68.5883 304.992V310H67.3083V305.136C67.3083 304.08 66.7483 303.264 65.5483 303.264C64.4123 303.264 63.6443 304.192 63.6443 305.344V310H62.3643V305.136C62.3643 304.08 61.8043 303.264 60.5883 303.264C59.4363 303.264 58.6843 304.16 58.6843 305.36V310H57.4043V302.336H58.6523Z" fill="black"/><path d="M351.366 304.816C351.366 305.904 351.526 306.832 351.926 307.456C352.246 307.968 352.742 308.304 353.494 308.304C354.262 308.304 354.726 307.968 355.046 307.456C355.462 306.832 355.622 305.904 355.622 304.816C355.622 303.728 355.462 302.8 355.046 302.176C354.726 301.664 354.262 301.328 353.494 301.328C352.742 301.328 352.246 301.664 351.926 302.176C351.526 302.8 351.366 303.728 351.366 304.816ZM349.158 304.816C349.158 303.488 349.366 302.192 350.07 301.12C350.758 300.096 351.878 299.376 353.494 299.376C355.11 299.376 356.23 300.096 356.902 301.12C357.606 302.192 357.83 303.488 357.83 304.816C357.83 306.144 357.606 307.44 356.902 308.512C356.23 309.536 355.11 310.256 353.494 310.256C351.878 310.256 350.758 309.536 350.07 308.512C349.366 307.44 349.158 306.144 349.158 304.816ZM358.755 310L361.555 306.048L358.755 302.128H361.283C361.555 302.56 362.579 304.032 362.851 304.464L364.403 302.128H366.819L364.067 305.984L366.915 310H364.419L362.771 307.584C362.483 308.016 361.427 309.568 361.155 310H358.755ZM370.79 305.392L369.814 303.856L372.534 301.52H367.99V299.616H375.334V301.392L372.646 303.632C374.214 303.696 375.654 304.896 375.654 306.8C375.654 308.592 374.182 310.24 371.67 310.24C369.254 310.24 367.782 308.672 367.654 306.928L369.782 306.512C369.83 307.568 370.582 308.336 371.67 308.336C372.774 308.336 373.43 307.632 373.43 306.768C373.43 305.792 372.726 305.232 371.734 305.232C371.286 305.232 371.014 305.312 370.79 305.392ZM377.255 309.664L377.799 307.888C378.167 308.096 378.919 308.336 379.639 308.336C381.527 308.336 382.791 307.296 382.935 305.392C382.503 306.048 381.623 306.512 380.535 306.512C378.599 306.512 376.951 305.168 376.951 303.024C376.951 300.896 378.631 299.376 380.935 299.376C383.191 299.376 385.079 300.976 385.079 304.288C385.079 308.032 383.207 310.24 379.655 310.24C378.775 310.24 377.799 310 377.255 309.664ZM382.647 302.96C382.647 301.936 381.831 301.248 380.855 301.248C379.895 301.248 379.079 301.936 379.079 302.96C379.079 304 379.879 304.672 380.855 304.672C381.831 304.672 382.647 303.984 382.647 302.96ZM390.821 310H388.629V303.056H386.133V301.568C387.653 301.552 388.709 300.704 388.917 299.616H390.821V310ZM392.595 308.656C392.595 307.856 393.251 307.2 394.051 307.2C394.867 307.2 395.523 307.856 395.523 308.656C395.523 309.456 394.867 310.112 394.051 310.112C393.251 310.112 392.595 309.456 392.595 308.656ZM397.002 308.656C397.002 307.856 397.658 307.2 398.458 307.2C399.274 307.2 399.93 307.856 399.93 308.656C399.93 309.456 399.274 310.112 398.458 310.112C397.658 310.112 397.002 309.456 397.002 308.656ZM401.408 308.656C401.408 307.856 402.064 307.2 402.864 307.2C403.68 307.2 404.336 307.856 404.336 308.656C404.336 309.456 403.68 310.112 402.864 310.112C402.064 310.112 401.408 309.456 401.408 308.656ZM407.846 305.168H411.366C411.334 304.384 410.822 303.616 409.606 303.616C408.502 303.616 407.894 304.448 407.846 305.168ZM411.574 307.216L413.35 307.744C412.95 309.104 411.702 310.24 409.766 310.24C407.606 310.24 405.702 308.688 405.702 306.032C405.702 303.52 407.558 301.888 409.574 301.888C412.006 301.888 413.462 303.44 413.462 305.968C413.462 306.272 413.43 306.592 413.43 306.624H407.798C407.846 307.664 408.726 308.416 409.782 308.416C410.774 308.416 411.318 307.92 411.574 307.216ZM414.558 307.776V305.472L418.926 299.616H421.646V305.888H423.358V307.776H421.646V310H419.47V307.776H414.558ZM419.47 305.888V301.92L416.51 305.888H419.47ZM429.701 302.096V304.24C429.461 304.192 429.253 304.176 429.061 304.176C427.973 304.176 427.029 304.704 427.029 306.4V310H424.901V302.128H426.965V303.296C427.445 302.256 428.533 302.064 429.205 302.064C429.381 302.064 429.541 302.08 429.701 302.096ZM430.48 307.776V305.472L434.848 299.616H437.568V305.888H439.28V307.776H437.568V310H435.392V307.776H430.48ZM435.392 305.888V301.92L432.432 305.888H435.392ZM443.43 305.392L442.454 303.856L445.174 301.52H440.63V299.616H447.974V301.392L445.286 303.632C446.854 303.696 448.294 304.896 448.294 306.8C448.294 308.592 446.822 310.24 444.31 310.24C441.894 310.24 440.422 308.672 440.294 306.928L442.422 306.512C442.47 307.568 443.222 308.336 444.31 308.336C445.414 308.336 446.07 307.632 446.07 306.768C446.07 305.792 445.366 305.232 444.374 305.232C443.926 305.232 443.654 305.312 443.43 305.392Z" fill="black"/><path d="M42.408 339.888H38.52V350H37.192V339.888H33.304V338.656H42.408V339.888ZM45.4038 342.112C47.6118 342.112 49.2438 343.808 49.2438 346.16C49.2438 348.528 47.6118 350.224 45.4038 350.224C43.1957 350.224 41.5638 348.528 41.5638 346.16C41.5638 343.808 43.1957 342.112 45.4038 342.112ZM45.4038 343.264C44.0278 343.264 42.8438 344.304 42.8438 346.16C42.8438 348.032 44.0278 349.072 45.4038 349.072C46.7798 349.072 47.9638 348.032 47.9638 346.16C47.9638 344.304 46.7798 343.264 45.4038 343.264Z" fill="black"/><path d="M352.569 344.816C352.569 345.904 352.729 346.832 353.129 347.456C353.449 347.968 353.945 348.304 354.697 348.304C355.465 348.304 355.929 347.968 356.249 347.456C356.665 346.832 356.825 345.904 356.825 344.816C356.825 343.728 356.665 342.8 356.249 342.176C355.929 341.664 355.465 341.328 354.697 341.328C353.945 341.328 353.449 341.664 353.129 342.176C352.729 342.8 352.569 343.728 352.569 344.816ZM350.361 344.816C350.361 343.488 350.569 342.192 351.273 341.12C351.961 340.096 353.081 339.376 354.697 339.376C356.313 339.376 357.433 340.096 358.105 341.12C358.809 342.192 359.033 343.488 359.033 344.816C359.033 346.144 358.809 347.44 358.105 348.512C357.433 349.536 356.313 350.256 354.697 350.256C353.081 350.256 351.961 349.536 351.273 348.512C350.569 347.44 350.361 346.144 350.361 344.816ZM359.958 350L362.758 346.048L359.958 342.128H362.486C362.758 342.56 363.782 344.032 364.054 344.464L365.606 342.128H368.022L365.27 345.984L368.118 350H365.622L363.974 347.584C363.686 348.016 362.63 349.568 362.358 350H359.958ZM371.993 345.392L371.017 343.856L373.737 341.52H369.193V339.616H376.537V341.392L373.849 343.632C375.417 343.696 376.857 344.896 376.857 346.8C376.857 348.592 375.385 350.24 372.873 350.24C370.457 350.24 368.985 348.672 368.857 346.928L370.985 346.512C371.033 347.568 371.785 348.336 372.873 348.336C373.977 348.336 374.633 347.632 374.633 346.768C374.633 345.792 373.929 345.232 372.937 345.232C372.489 345.232 372.217 345.312 371.993 345.392ZM378.459 349.664L379.003 347.888C379.371 348.096 380.123 348.336 380.843 348.336C382.731 348.336 383.995 347.296 384.139 345.392C383.707 346.048 382.827 346.512 381.739 346.512C379.803 346.512 378.155 345.168 378.155 343.024C378.155 340.896 379.835 339.376 382.139 339.376C384.395 339.376 386.283 340.976 386.283 344.288C386.283 348.032 384.411 350.24 380.859 350.24C379.979 350.24 379.003 350 378.459 349.664ZM383.851 342.96C383.851 341.936 383.035 341.248 382.059 341.248C381.099 341.248 380.283 341.936 380.283 342.96C380.283 344 381.083 344.672 382.059 344.672C383.035 344.672 383.851 343.984 383.851 342.96ZM392.024 350H389.832V343.056H387.336V341.568C388.856 341.552 389.912 340.704 390.12 339.616H392.024V350ZM393.799 348.656C393.799 347.856 394.455 347.2 395.255 347.2C396.071 347.2 396.727 347.856 396.727 348.656C396.727 349.456 396.071 350.112 395.255 350.112C394.455 350.112 393.799 349.456 393.799 348.656ZM398.205 348.656C398.205 347.856 398.861 347.2 399.661 347.2C400.477 347.2 401.133 347.856 401.133 348.656C401.133 349.456 400.477 350.112 399.661 350.112C398.861 350.112 398.205 349.456 398.205 348.656ZM402.611 348.656C402.611 347.856 403.267 347.2 404.067 347.2C404.883 347.2 405.539 347.856 405.539 348.656C405.539 349.456 404.883 350.112 404.067 350.112C403.267 350.112 402.611 349.456 402.611 348.656ZM409.022 344.816C409.022 345.904 409.182 346.832 409.582 347.456C409.902 347.968 410.398 348.304 411.15 348.304C411.918 348.304 412.382 347.968 412.702 347.456C413.118 346.832 413.278 345.904 413.278 344.816C413.278 343.728 413.118 342.8 412.702 342.176C412.382 341.664 411.918 341.328 411.15 341.328C410.398 341.328 409.902 341.664 409.582 342.176C409.182 342.8 409.022 343.728 409.022 344.816ZM406.814 344.816C406.814 343.488 407.022 342.192 407.726 341.12C408.414 340.096 409.534 339.376 411.15 339.376C412.766 339.376 413.886 340.096 414.558 341.12C415.262 342.192 415.486 343.488 415.486 344.816C415.486 346.144 415.262 347.44 414.558 348.512C413.886 349.536 412.766 350.256 411.15 350.256C409.534 350.256 408.414 349.536 407.726 348.512C407.022 347.44 406.814 346.144 406.814 344.816ZM419.1 343.632L417.004 343.568C416.972 343.424 416.924 343.104 416.924 342.848C416.924 341.024 418.299 339.376 420.716 339.376C423.036 339.376 424.46 340.912 424.46 342.72C424.46 344.064 423.724 345.152 422.444 345.936L420.444 347.152C420.044 347.408 419.708 347.696 419.548 348.096H424.524V350H416.844C416.86 348.176 417.436 346.688 419.292 345.568L421.004 344.544C421.884 344.016 422.236 343.472 422.236 342.752C422.236 342 421.708 341.328 420.668 341.328C419.564 341.328 419.02 342.08 419.02 343.056C419.02 343.248 419.052 343.456 419.1 343.632ZM425.73 347.776V345.472L430.098 339.616H432.818V345.888H434.53V347.776H432.818V350H430.642V347.776H425.73ZM430.642 345.888V341.92L427.682 345.888H430.642ZM435.448 347.776V345.472L439.816 339.616H442.536V345.888H444.248V347.776H442.536V350H440.36V347.776H435.448ZM440.36 345.888V341.92L437.4 345.888H440.36ZM447.919 350H445.791V342.128H447.919V350ZM445.535 339.552C445.535 338.816 446.127 338.224 446.847 338.224C447.583 338.224 448.159 338.816 448.159 339.552C448.159 340.256 447.583 340.848 446.847 340.848C446.127 340.848 445.535 340.256 445.535 339.552Z" fill="black"/><path d="M43.752 390H42.344L35.912 380.4V390H34.568V378.656H36.328L42.408 387.744V378.656H43.752V390ZM47.2046 385.424H51.7806C51.7486 384.208 50.9646 383.248 49.5086 383.248C48.1806 383.248 47.2846 384.288 47.2046 385.424ZM51.9566 387.424L53.0606 387.824C52.6286 389.152 51.4286 390.224 49.6526 390.224C47.6046 390.224 45.8606 388.72 45.8606 386.144C45.8606 383.728 47.5566 382.112 49.4926 382.112C51.8126 382.112 53.1086 383.728 53.1086 386.064C53.1086 386.224 53.0926 386.4 53.0766 386.512H47.1726V386.576C47.1726 388.032 48.2766 389.072 49.6526 389.072C50.9486 389.072 51.6526 388.336 51.9566 387.424ZM56.8228 379.904V382.336H58.6308V383.488H56.8228V387.728C56.8228 388.528 57.1748 388.928 57.9908 388.928C58.2148 388.928 58.5028 388.88 58.6308 388.848V389.936C58.4868 389.984 58.1188 390.08 57.6228 390.08C56.3588 390.08 55.5428 389.296 55.5428 387.904V383.488H54.0068V382.336H54.5028C55.2868 382.336 55.6228 381.888 55.6228 381.168V379.904H56.8228ZM64.9486 382.336H66.2766L68.4046 388.4L70.2286 382.336H71.5886L69.0926 390H67.7486L65.6046 383.888L63.4926 390H62.1326L59.5886 382.336H60.9646L62.8366 388.4L64.9486 382.336ZM76.435 382.112C78.643 382.112 80.275 383.808 80.275 386.16C80.275 388.528 78.643 390.224 76.435 390.224C74.227 390.224 72.595 388.528 72.595 386.16C72.595 383.808 74.227 382.112 76.435 382.112ZM76.435 383.264C75.059 383.264 73.875 384.304 73.875 386.16C73.875 388.032 75.059 389.072 76.435 389.072C77.811 389.072 78.995 388.032 78.995 386.16C78.995 384.304 77.811 383.264 76.435 383.264ZM86.36 382.288V383.648C86.152 383.584 85.912 383.568 85.688 383.568C84.408 383.568 83.528 384.304 83.528 386.032V390H82.248V382.336H83.496V383.712C83.992 382.592 84.968 382.224 85.816 382.224C86.024 382.224 86.248 382.256 86.36 382.288ZM94.497 382.336L91.233 385.584L94.577 390H92.961L90.337 386.464L89.153 387.68V390H87.873V378.432H89.153V385.984L92.737 382.336H94.497ZM103.744 383.488H101.76V390H100.48V383.488H98.9763V382.336H100.48V380.912C100.48 379.232 101.536 378.352 102.896 378.352C103.36 378.352 103.664 378.448 103.776 378.512V379.616C103.664 379.568 103.456 379.504 103.088 379.504C102.464 379.504 101.76 379.84 101.76 380.944V382.336H103.744V383.488ZM105.939 385.424H110.515C110.483 384.208 109.699 383.248 108.243 383.248C106.915 383.248 106.019 384.288 105.939 385.424ZM110.691 387.424L111.795 387.824C111.363 389.152 110.163 390.224 108.387 390.224C106.339 390.224 104.595 388.72 104.595 386.144C104.595 383.728 106.291 382.112 108.227 382.112C110.547 382.112 111.843 383.728 111.843 386.064C111.843 386.224 111.827 386.4 111.811 386.512H105.907V386.576C105.907 388.032 107.011 389.072 108.387 389.072C109.683 389.072 110.387 388.336 110.691 387.424ZM114.595 385.424H119.171C119.139 384.208 118.355 383.248 116.899 383.248C115.571 383.248 114.675 384.288 114.595 385.424ZM119.347 387.424L120.451 387.824C120.019 389.152 118.819 390.224 117.043 390.224C114.995 390.224 113.251 388.72 113.251 386.144C113.251 383.728 114.947 382.112 116.883 382.112C119.203 382.112 120.499 383.728 120.499 386.064C120.499 386.224 120.483 386.4 120.467 386.512H114.563V386.576C114.563 388.032 115.667 389.072 117.043 389.072C118.339 389.072 119.043 388.336 119.347 387.424Z" fill="black"/><path d="M138 377C133.584 377 130 380.584 130 385C130 389.416 133.584 393 138 393C142.416 393 146 389.416 146 385C146 380.584 142.416 377 138 377ZM138.8 389H137.2V387.4H138.8V389ZM138.8 385.8H137.2V381H138.8V385.8Z" fill="#6B6580"/><path d="M363.459 384.816C363.459 385.904 363.619 386.832 364.019 387.456C364.339 387.968 364.835 388.304 365.587 388.304C366.355 388.304 366.819 387.968 367.139 387.456C367.555 386.832 367.715 385.904 367.715 384.816C367.715 383.728 367.555 382.8 367.139 382.176C366.819 381.664 366.355 381.328 365.587 381.328C364.835 381.328 364.339 381.664 364.019 382.176C363.619 382.8 363.459 383.728 363.459 384.816ZM361.251 384.816C361.251 383.488 361.459 382.192 362.163 381.12C362.851 380.096 363.971 379.376 365.587 379.376C367.203 379.376 368.323 380.096 368.995 381.12C369.699 382.192 369.923 383.488 369.923 384.816C369.923 386.144 369.699 387.44 368.995 388.512C368.323 389.536 367.203 390.256 365.587 390.256C363.971 390.256 362.851 389.536 362.163 388.512C361.459 387.44 361.251 386.144 361.251 384.816ZM371.158 388.656C371.158 387.856 371.814 387.2 372.614 387.2C373.43 387.2 374.086 387.856 374.086 388.656C374.086 389.456 373.43 390.112 372.614 390.112C371.814 390.112 371.158 389.456 371.158 388.656ZM377.569 384.816C377.569 385.904 377.729 386.832 378.129 387.456C378.449 387.968 378.945 388.304 379.697 388.304C380.465 388.304 380.929 387.968 381.249 387.456C381.665 386.832 381.825 385.904 381.825 384.816C381.825 383.728 381.665 382.8 381.249 382.176C380.929 381.664 380.465 381.328 379.697 381.328C378.945 381.328 378.449 381.664 378.129 382.176C377.729 382.8 377.569 383.728 377.569 384.816ZM375.361 384.816C375.361 383.488 375.569 382.192 376.273 381.12C376.961 380.096 378.081 379.376 379.697 379.376C381.313 379.376 382.433 380.096 383.105 381.12C383.809 382.192 384.033 383.488 384.033 384.816C384.033 386.144 383.809 387.44 383.105 388.512C382.433 389.536 381.313 390.256 379.697 390.256C378.081 390.256 376.961 389.536 376.273 388.512C375.569 387.44 375.361 386.144 375.361 384.816ZM387.662 384.816C387.662 385.904 387.822 386.832 388.222 387.456C388.542 387.968 389.038 388.304 389.79 388.304C390.558 388.304 391.022 387.968 391.342 387.456C391.758 386.832 391.918 385.904 391.918 384.816C391.918 383.728 391.758 382.8 391.342 382.176C391.022 381.664 390.558 381.328 389.79 381.328C389.038 381.328 388.542 381.664 388.222 382.176C387.822 382.8 387.662 383.728 387.662 384.816ZM385.454 384.816C385.454 383.488 385.662 382.192 386.366 381.12C387.054 380.096 388.174 379.376 389.79 379.376C391.406 379.376 392.526 380.096 393.198 381.12C393.902 382.192 394.126 383.488 394.126 384.816C394.126 386.144 393.902 387.44 393.198 388.512C392.526 389.536 391.406 390.256 389.79 390.256C388.174 390.256 387.054 389.536 386.366 388.512C385.662 387.44 385.454 386.144 385.454 384.816ZM397.756 384.816C397.756 385.904 397.916 386.832 398.316 387.456C398.636 387.968 399.132 388.304 399.884 388.304C400.652 388.304 401.116 387.968 401.436 387.456C401.852 386.832 402.012 385.904 402.012 384.816C402.012 383.728 401.852 382.8 401.436 382.176C401.116 381.664 400.652 381.328 399.884 381.328C399.132 381.328 398.636 381.664 398.316 382.176C397.916 382.8 397.756 383.728 397.756 384.816ZM395.548 384.816C395.548 383.488 395.756 382.192 396.46 381.12C397.148 380.096 398.268 379.376 399.884 379.376C401.5 379.376 402.62 380.096 403.292 381.12C403.996 382.192 404.22 383.488 404.22 384.816C404.22 386.144 403.996 387.44 403.292 388.512C402.62 389.536 401.5 390.256 399.884 390.256C398.268 390.256 397.148 389.536 396.46 388.512C395.756 387.44 395.548 386.144 395.548 384.816ZM407.834 383.632L405.738 383.568C405.706 383.424 405.658 383.104 405.658 382.848C405.658 381.024 407.034 379.376 409.45 379.376C411.77 379.376 413.194 380.912 413.194 382.72C413.194 384.064 412.458 385.152 411.178 385.936L409.178 387.152C408.778 387.408 408.442 387.696 408.282 388.096H413.258V390H405.578C405.594 388.176 406.17 386.688 408.026 385.568L409.738 384.544C410.618 384.016 410.97 383.472 410.97 382.752C410.97 382 410.442 381.328 409.402 381.328C408.298 381.328 407.754 382.08 407.754 383.056C407.754 383.248 407.786 383.456 407.834 383.632ZM426.229 390H419.125V378.656H426.229V380.736H421.333V383.328H425.765V385.296H421.333V387.92H426.229V390ZM436.711 380.752H433.127V390H430.903V380.752H427.319V378.656H436.711V380.752ZM447.673 390H445.449V385.296H440.505V390H438.297V378.656H440.505V383.216H445.449V378.656H447.673V390Z" fill="black"/><path d="M398.663 412.196C396.647 412.196 395.149 410.95 395.149 408.64V402.074H396.325V408.612C396.325 410.208 397.165 411.118 398.663 411.118C400.161 411.118 401.001 410.208 401.001 408.612V402.074H402.177V408.64C402.177 410.95 400.679 412.196 398.663 412.196ZM410.894 404.328L409.844 404.706C409.69 403.866 409.032 402.942 407.604 402.928C406.456 402.928 405.546 403.684 405.546 404.692C405.546 405.49 406.064 406.064 406.974 406.26L408.43 406.582C410.026 406.932 410.978 407.926 410.978 409.326C410.978 410.852 409.676 412.196 407.604 412.196C405.308 412.196 404.146 410.698 403.964 409.242L405.07 408.892C405.182 410.068 406.036 411.132 407.604 411.132C409.032 411.132 409.802 410.376 409.802 409.424C409.802 408.612 409.242 407.982 408.192 407.744L406.736 407.422C405.364 407.114 404.37 406.218 404.37 404.762C404.37 403.208 405.798 401.878 407.59 401.878C409.732 401.878 410.642 403.18 410.894 404.328ZM414.224 410.964H416.31C418.242 410.964 419.88 409.662 419.88 407.058C419.88 404.44 418.27 403.11 416.338 403.11H414.224V410.964ZM416.31 412H413.048V402.074H416.338C418.858 402.074 421.056 403.796 421.056 407.058C421.056 410.306 418.83 412 416.31 412ZM429.31 406.862C430.374 406.862 431.158 406.218 431.158 405.28C431.158 404.384 430.43 403.712 429.31 403.712C428.176 403.712 427.462 404.384 427.462 405.28C427.462 406.218 428.232 406.862 429.31 406.862ZM429.31 411.188C430.612 411.188 431.368 410.446 431.368 409.522C431.368 408.598 430.612 407.842 429.31 407.842C427.994 407.842 427.252 408.598 427.252 409.522C427.252 410.446 427.994 411.188 429.31 411.188ZM429.31 412.196C427.266 412.196 426.076 411.048 426.076 409.62C426.076 408.5 426.846 407.674 427.854 407.352C426.986 407.058 426.3 406.232 426.3 405.21C426.3 403.768 427.574 402.732 429.31 402.732C431.046 402.732 432.32 403.768 432.32 405.21C432.32 406.218 431.634 407.058 430.752 407.352C431.76 407.66 432.544 408.5 432.544 409.62C432.544 411.048 431.354 412.196 429.31 412.196ZM434.117 411.202C434.117 410.712 434.509 410.334 434.985 410.334C435.461 410.334 435.853 410.712 435.853 411.202C435.853 411.692 435.461 412.07 434.985 412.07C434.509 412.07 434.117 411.692 434.117 411.202ZM439.763 412H438.615V405.378H436.389V404.706C437.649 404.65 438.503 403.908 438.727 402.928H439.763V412ZM448.091 403.236L447.727 404.188C447.377 403.978 446.775 403.768 446.061 403.768C443.975 403.768 442.799 405.406 442.715 407.45C443.051 406.708 443.961 406.022 445.235 406.022C446.999 406.022 448.329 407.17 448.329 409.116C448.329 411.02 446.789 412.196 445.025 412.196C443.205 412.196 441.539 410.866 441.539 407.982C441.539 404.58 443.583 402.732 446.131 402.732C446.957 402.732 447.657 402.942 448.091 403.236ZM442.925 409.116C442.925 410.376 443.947 411.16 445.039 411.16C446.187 411.16 447.153 410.39 447.153 409.116C447.153 407.828 446.173 407.03 445.039 407.03C443.905 407.03 442.925 407.828 442.925 409.116Z" fill="#8A849C"/><line x1="33" y1="432.5" x2="449" y2="432.5" stroke="#111827" stroke-opacity="0.1"/><path d="M42.408 455.888H38.52V466H37.192V455.888H33.304V454.656H42.408V455.888ZM45.4038 458.112C47.6118 458.112 49.2438 459.808 49.2438 462.16C49.2438 464.528 47.6118 466.224 45.4038 466.224C43.1957 466.224 41.5638 464.528 41.5638 462.16C41.5638 459.808 43.1957 458.112 45.4038 458.112ZM45.4038 459.264C44.0278 459.264 42.8438 460.304 42.8438 462.16C42.8438 464.032 44.0278 465.072 45.4038 465.072C46.7798 465.072 47.9638 464.032 47.9638 462.16C47.9638 460.304 46.7798 459.264 45.4038 459.264ZM52.9478 455.904V458.336H54.7558V459.488H52.9478V463.728C52.9478 464.528 53.2998 464.928 54.1158 464.928C54.3398 464.928 54.6278 464.88 54.7558 464.848V465.936C54.6118 465.984 54.2438 466.08 53.7478 466.08C52.4838 466.08 51.6678 465.296 51.6678 463.904V459.488H50.1318V458.336H50.6278C51.4118 458.336 51.7478 457.888 51.7478 457.168V455.904H52.9478ZM55.9696 463.968C55.9696 462.624 56.9136 461.872 58.2576 461.68L60.3216 461.376C60.8816 461.296 61.0096 461.056 61.0096 460.72C61.0096 459.856 60.4336 459.2 59.2336 459.2C58.1136 459.2 57.4416 459.872 57.3296 460.848L56.1136 460.56C56.2736 459.104 57.5536 458.112 59.2016 458.112C61.3776 458.112 62.2896 459.36 62.2896 460.848V464.72C62.2896 465.36 62.3376 465.76 62.3856 466H61.1376C61.1056 465.824 61.0416 465.44 61.0416 464.848C60.7056 465.472 59.8736 466.224 58.4976 466.224C56.9136 466.224 55.9696 465.136 55.9696 463.968ZM58.6576 465.136C59.9856 465.136 61.0096 464.4 61.0096 462.768V462.256L58.5136 462.624C57.7776 462.736 57.2496 463.152 57.2496 463.904C57.2496 464.528 57.7776 465.136 58.6576 465.136ZM65.9811 466H64.7011V454.432H65.9811V466Z" fill="black"/><path d="M279.256 459.632L277.16 459.568C277.128 459.424 277.08 459.104 277.08 458.848C277.08 457.024 278.456 455.376 280.872 455.376C283.192 455.376 284.616 456.912 284.616 458.72C284.616 460.064 283.88 461.152 282.6 461.936L280.6 463.152C280.2 463.408 279.864 463.696 279.704 464.096H284.68V466H277C277.016 464.176 277.592 462.688 279.448 461.568L281.16 460.544C282.04 460.016 282.392 459.472 282.392 458.752C282.392 458 281.864 457.328 280.824 457.328C279.72 457.328 279.176 458.08 279.176 459.056C279.176 459.248 279.208 459.456 279.256 459.632ZM288.35 460.816C288.35 461.904 288.51 462.832 288.91 463.456C289.23 463.968 289.726 464.304 290.478 464.304C291.246 464.304 291.71 463.968 292.03 463.456C292.446 462.832 292.606 461.904 292.606 460.816C292.606 459.728 292.446 458.8 292.03 458.176C291.71 457.664 291.246 457.328 290.478 457.328C289.726 457.328 289.23 457.664 288.91 458.176C288.51 458.8 288.35 459.728 288.35 460.816ZM286.142 460.816C286.142 459.488 286.35 458.192 287.054 457.12C287.742 456.096 288.862 455.376 290.478 455.376C292.094 455.376 293.214 456.096 293.886 457.12C294.59 458.192 294.814 459.488 294.814 460.816C294.814 462.144 294.59 463.44 293.886 464.512C293.214 465.536 292.094 466.256 290.478 466.256C288.862 466.256 287.742 465.536 287.054 464.512C286.35 463.44 286.142 462.144 286.142 460.816ZM304.897 466.256C302.481 466.256 300.545 464.768 300.545 461.984V454.656H302.753V461.824C302.753 463.312 303.585 464.096 304.897 464.096C306.241 464.096 307.057 463.312 307.057 461.824V454.656H309.265V461.984C309.265 464.768 307.329 466.256 304.897 466.256ZM319.476 457.36L317.492 457.968C317.38 457.344 316.868 456.368 315.428 456.368C314.356 456.368 313.652 457.056 313.652 457.808C313.652 458.432 314.052 458.928 314.884 459.088L316.468 459.392C318.532 459.792 319.636 461.136 319.636 462.736C319.636 464.48 318.18 466.24 315.54 466.24C312.532 466.24 311.204 464.304 311.028 462.688L313.076 462.144C313.172 463.264 313.956 464.272 315.556 464.272C316.74 464.272 317.396 463.68 317.396 462.88C317.396 462.224 316.9 461.712 316.02 461.536L314.436 461.216C312.628 460.848 311.46 459.68 311.46 457.968C311.46 455.952 313.268 454.416 315.412 454.416C318.164 454.416 319.22 456.08 319.476 457.36ZM323.817 463.952H325.577C327.433 463.952 328.985 462.8 328.985 460.336C328.985 457.872 327.449 456.704 325.593 456.704H323.817V463.952ZM325.657 466H321.609V454.656H325.673C328.905 454.656 331.273 456.752 331.273 460.336C331.273 463.92 328.889 466 325.657 466ZM338.433 466.24C335.265 466.24 332.625 463.952 332.625 460.336C332.625 456.72 335.361 454.416 338.401 454.416C341.537 454.416 343.153 456.336 343.601 458.176L341.521 458.832C341.249 457.744 340.369 456.544 338.401 456.544C336.705 456.544 334.913 457.76 334.913 460.336C334.913 462.752 336.609 464.08 338.433 464.08C340.369 464.08 341.313 462.816 341.617 461.76L343.681 462.384C343.249 464.128 341.617 466.24 338.433 466.24ZM348.371 460.416H351.395V457.296H353.187V460.416H356.227V462.16H353.187V465.296H351.395V462.16H348.371V460.416ZM363.459 460.816C363.459 461.904 363.619 462.832 364.019 463.456C364.339 463.968 364.835 464.304 365.587 464.304C366.355 464.304 366.819 463.968 367.139 463.456C367.555 462.832 367.715 461.904 367.715 460.816C367.715 459.728 367.555 458.8 367.139 458.176C366.819 457.664 366.355 457.328 365.587 457.328C364.835 457.328 364.339 457.664 364.019 458.176C363.619 458.8 363.459 459.728 363.459 460.816ZM361.251 460.816C361.251 459.488 361.459 458.192 362.163 457.12C362.851 456.096 363.971 455.376 365.587 455.376C367.203 455.376 368.323 456.096 368.995 457.12C369.699 458.192 369.923 459.488 369.923 460.816C369.923 462.144 369.699 463.44 368.995 464.512C368.323 465.536 367.203 466.256 365.587 466.256C363.971 466.256 362.851 465.536 362.163 464.512C361.459 463.44 361.251 462.144 361.251 460.816ZM371.158 464.656C371.158 463.856 371.814 463.2 372.614 463.2C373.43 463.2 374.086 463.856 374.086 464.656C374.086 465.456 373.43 466.112 372.614 466.112C371.814 466.112 371.158 465.456 371.158 464.656ZM377.569 460.816C377.569 461.904 377.729 462.832 378.129 463.456C378.449 463.968 378.945 464.304 379.697 464.304C380.465 464.304 380.929 463.968 381.249 463.456C381.665 462.832 381.825 461.904 381.825 460.816C381.825 459.728 381.665 458.8 381.249 458.176C380.929 457.664 380.465 457.328 379.697 457.328C378.945 457.328 378.449 457.664 378.129 458.176C377.729 458.8 377.569 459.728 377.569 460.816ZM375.361 460.816C375.361 459.488 375.569 458.192 376.273 457.12C376.961 456.096 378.081 455.376 379.697 455.376C381.313 455.376 382.433 456.096 383.105 457.12C383.809 458.192 384.033 459.488 384.033 460.816C384.033 462.144 383.809 463.44 383.105 464.512C382.433 465.536 381.313 466.256 379.697 466.256C378.081 466.256 376.961 465.536 376.273 464.512C375.569 463.44 375.361 462.144 375.361 460.816ZM387.662 460.816C387.662 461.904 387.822 462.832 388.222 463.456C388.542 463.968 389.038 464.304 389.79 464.304C390.558 464.304 391.022 463.968 391.342 463.456C391.758 462.832 391.918 461.904 391.918 460.816C391.918 459.728 391.758 458.8 391.342 458.176C391.022 457.664 390.558 457.328 389.79 457.328C389.038 457.328 388.542 457.664 388.222 458.176C387.822 458.8 387.662 459.728 387.662 460.816ZM385.454 460.816C385.454 459.488 385.662 458.192 386.366 457.12C387.054 456.096 388.174 455.376 389.79 455.376C391.406 455.376 392.526 456.096 393.198 457.12C393.902 458.192 394.126 459.488 394.126 460.816C394.126 462.144 393.902 463.44 393.198 464.512C392.526 465.536 391.406 466.256 389.79 466.256C388.174 466.256 387.054 465.536 386.366 464.512C385.662 463.44 385.454 462.144 385.454 460.816ZM397.756 460.816C397.756 461.904 397.916 462.832 398.316 463.456C398.636 463.968 399.132 464.304 399.884 464.304C400.652 464.304 401.116 463.968 401.436 463.456C401.852 462.832 402.012 461.904 402.012 460.816C402.012 459.728 401.852 458.8 401.436 458.176C401.116 457.664 400.652 457.328 399.884 457.328C399.132 457.328 398.636 457.664 398.316 458.176C397.916 458.8 397.756 459.728 397.756 460.816ZM395.548 460.816C395.548 459.488 395.756 458.192 396.46 457.12C397.148 456.096 398.268 455.376 399.884 455.376C401.5 455.376 402.62 456.096 403.292 457.12C403.996 458.192 404.22 459.488 404.22 460.816C404.22 462.144 403.996 463.44 403.292 464.512C402.62 465.536 401.5 466.256 399.884 466.256C398.268 466.256 397.148 465.536 396.46 464.512C395.756 463.44 395.548 462.144 395.548 460.816ZM407.834 459.632L405.738 459.568C405.706 459.424 405.658 459.104 405.658 458.848C405.658 457.024 407.034 455.376 409.45 455.376C411.77 455.376 413.194 456.912 413.194 458.72C413.194 460.064 412.458 461.152 411.178 461.936L409.178 463.152C408.778 463.408 408.442 463.696 408.282 464.096H413.258V466H405.578C405.594 464.176 406.17 462.688 408.026 461.568L409.738 460.544C410.618 460.016 410.97 459.472 410.97 458.752C410.97 458 410.442 457.328 409.402 457.328C408.298 457.328 407.754 458.08 407.754 459.056C407.754 459.248 407.786 459.456 407.834 459.632ZM426.229 466H419.125V454.656H426.229V456.736H421.333V459.328H425.765V461.296H421.333V463.92H426.229V466ZM436.711 456.752H433.127V466H430.903V456.752H427.319V454.656H436.711V456.752ZM447.673 466H445.449V461.296H440.505V466H438.297V454.656H440.505V459.216H445.449V454.656H447.673V466Z" fill="black"/><path d="M390.993 488.196C388.977 488.196 387.479 486.95 387.479 484.64V478.074H388.655V484.612C388.655 486.208 389.495 487.118 390.993 487.118C392.491 487.118 393.331 486.208 393.331 484.612V478.074H394.507V484.64C394.507 486.95 393.009 488.196 390.993 488.196ZM403.224 480.328L402.174 480.706C402.02 479.866 401.362 478.942 399.934 478.928C398.786 478.928 397.876 479.684 397.876 480.692C397.876 481.49 398.394 482.064 399.304 482.26L400.76 482.582C402.356 482.932 403.308 483.926 403.308 485.326C403.308 486.852 402.006 488.196 399.934 488.196C397.638 488.196 396.476 486.698 396.294 485.242L397.4 484.892C397.512 486.068 398.366 487.132 399.934 487.132C401.362 487.132 402.132 486.376 402.132 485.424C402.132 484.612 401.572 483.982 400.522 483.744L399.066 483.422C397.694 483.114 396.7 482.218 396.7 480.762C396.7 479.208 398.128 477.878 399.92 477.878C402.062 477.878 402.972 479.18 403.224 480.328ZM406.554 486.964H408.64C410.572 486.964 412.21 485.662 412.21 483.058C412.21 480.44 410.6 479.11 408.668 479.11H406.554V486.964ZM408.64 488H405.378V478.074H408.668C411.188 478.074 413.386 479.796 413.386 483.058C413.386 486.306 411.16 488 408.64 488ZM419.624 482.176L418.476 482.036C418.448 481.91 418.434 481.756 418.434 481.63C418.434 480.076 419.568 478.732 421.514 478.732C423.39 478.732 424.51 479.978 424.51 481.476C424.51 482.666 423.838 483.604 422.802 484.262L420.94 485.452C420.394 485.802 419.89 486.278 419.778 486.936H424.594V488H418.35C418.378 486.6 418.938 485.48 420.394 484.542L422.018 483.492C422.9 482.932 423.334 482.288 423.334 481.49C423.334 480.594 422.69 479.768 421.486 479.768C420.254 479.768 419.582 480.622 419.582 481.742C419.582 481.896 419.596 482.064 419.624 482.176ZM429.31 482.862C430.374 482.862 431.158 482.218 431.158 481.28C431.158 480.384 430.43 479.712 429.31 479.712C428.176 479.712 427.462 480.384 427.462 481.28C427.462 482.218 428.232 482.862 429.31 482.862ZM429.31 487.188C430.612 487.188 431.368 486.446 431.368 485.522C431.368 484.598 430.612 483.842 429.31 483.842C427.994 483.842 427.252 484.598 427.252 485.522C427.252 486.446 427.994 487.188 429.31 487.188ZM429.31 488.196C427.266 488.196 426.076 487.048 426.076 485.62C426.076 484.5 426.846 483.674 427.854 483.352C426.986 483.058 426.3 482.232 426.3 481.21C426.3 479.768 427.574 478.732 429.31 478.732C431.046 478.732 432.32 479.768 432.32 481.21C432.32 482.218 431.634 483.058 430.752 483.352C431.76 483.66 432.544 484.5 432.544 485.62C432.544 487.048 431.354 488.196 429.31 488.196ZM434.117 487.202C434.117 486.712 434.509 486.334 434.985 486.334C435.461 486.334 435.853 486.712 435.853 487.202C435.853 487.692 435.461 488.07 434.985 488.07C434.509 488.07 434.117 487.692 434.117 487.202ZM439.763 488H438.615V481.378H436.389V480.706C437.649 480.65 438.503 479.908 438.727 478.928H439.763V488ZM448.091 479.236L447.727 480.188C447.377 479.978 446.775 479.768 446.061 479.768C443.975 479.768 442.799 481.406 442.715 483.45C443.051 482.708 443.961 482.022 445.235 482.022C446.999 482.022 448.329 483.17 448.329 485.116C448.329 487.02 446.789 488.196 445.025 488.196C443.205 488.196 441.539 486.866 441.539 483.982C441.539 480.58 443.583 478.732 446.131 478.732C446.957 478.732 447.657 478.942 448.091 479.236ZM442.925 485.116C442.925 486.376 443.947 487.16 445.039 487.16C446.187 487.16 447.153 486.39 447.153 485.116C447.153 483.828 446.173 483.03 445.039 483.03C443.905 483.03 442.925 483.828 442.925 485.116Z" fill="#8A849C"/><rect width="480" height="72" transform="translate(1 1)" fill="white"/><path fill-rule="evenodd" clip-rule="evenodd" d="M38.1515 30.1515C38.6201 29.6828 39.3799 29.6828 39.8485 30.1515L45 35.3029L50.1515 30.1515C50.6201 29.6828 51.3799 29.6828 51.8485 30.1515C52.3171 30.6201 52.3171 31.3799 51.8485 31.8485L46.697 37L51.8485 42.1515C52.3171 42.6201 52.3171 43.3799 51.8485 43.8485C51.3799 44.3172 50.6201 44.3172 50.1515 43.8485L45 38.6971L39.8485 43.8485C39.3799 44.3172 38.6201 44.3172 38.1515 43.8485C37.6828 43.3799 37.6828 42.6201 38.1515 42.1515L43.3029 37L38.1515 31.8485C37.6828 31.3799 37.6828 30.6201 38.1515 30.1515Z" fill="#6B6580"/><rect x="73" y="25" width="376" height="24" fill="white"/><rect width="480" height="88" transform="translate(1 553)" fill="white"/><rect x="33" y="577" width="416" height="40" rx="6" fill="#0073C3"/><path d="M210.656 602.21C207.884 602.21 205.574 600.208 205.574 597.044C205.574 593.88 207.968 591.864 210.628 591.864C213.372 591.864 214.786 593.544 215.178 595.154L213.358 595.728C213.12 594.776 212.35 593.726 210.628 593.726C209.144 593.726 207.576 594.79 207.576 597.044C207.576 599.158 209.06 600.32 210.656 600.32C212.35 600.32 213.176 599.214 213.442 598.29L215.248 598.836C214.87 600.362 213.442 602.21 210.656 602.21ZM218.858 597.03C218.858 599.27 220.426 600.334 221.952 600.334C223.492 600.334 225.06 599.27 225.06 597.03C225.06 594.79 223.492 593.726 221.952 593.726C220.426 593.726 218.858 594.79 218.858 597.03ZM216.856 597.044C216.856 593.838 219.264 591.864 221.952 591.864C224.654 591.864 227.062 593.838 227.062 597.044C227.062 600.236 224.654 602.21 221.952 602.21C219.264 602.21 216.856 600.236 216.856 597.044ZM237.962 602H235.932L231.424 594.958V602H229.492V592.074H231.9L236.03 598.64V592.074H237.962V602ZM242.938 602H240.992V592.074H247.264V593.908H242.924V596.358H246.788V598.136H242.938V602ZM251.623 602H249.663V592.074H251.623V602ZM259.542 602L257.596 598.178H256.588V602H254.642V592.074H258.52C260.452 592.074 261.684 593.404 261.684 595.126C261.684 596.512 260.872 597.562 259.57 597.94L261.698 602H259.542ZM256.588 596.512H258.156C259.136 596.512 259.71 595.952 259.71 595.14C259.71 594.3 259.136 593.754 258.156 593.754H256.588V596.512ZM275.235 602H273.331V595.042L270.475 602H268.865L266.009 595.098V602H264.161V592.074H266.709L269.691 599.242L272.603 592.074H275.235V602Z" fill="white"/></g><rect x="0.5" y="0.5" width="481" height="641" rx="12.5" stroke="#111827" stroke-opacity="0.1"/><defs><clipPath id="clip0_2527_47830"><rect x="1" y="1" width="480" height="640" rx="12" fill="white"/></clipPath></defs></svg>