<svg xmlns="http://www.w3.org/2000/svg" width="128" height="128" viewBox="0 0 128 128" fill="none">
<path d="M21.005 43.003C16.952 43.001 13.667 46.294 13.666 50.344L13.671 81.08C13.6704 82.0444 13.8598 82.9995 14.2285 83.8906C14.5973 84.7817 15.138 85.5914 15.8199 86.2734C16.5018 86.9554 17.3114 87.4963 18.2025 87.8651C19.0936 88.2339 20.0486 88.4235 21.013 88.423C21.9773 88.424 22.9323 88.2348 23.8233 87.8662C24.7143 87.4975 25.5239 86.9567 26.2055 86.2747C26.8872 85.5927 27.4276 84.7828 27.7957 83.8916C28.1639 83.0004 28.3526 82.0453 28.351 81.081V50.34C28.3489 48.3932 27.574 46.5269 26.1965 45.1511C24.8191 43.7754 22.9518 43.0027 21.005 43.003ZM80.198 15.401L85.321 6.046C85.4515 5.80868 85.4826 5.5293 85.4074 5.26911C85.3323 5.00892 85.157 4.78915 84.92 4.658C84.6826 4.52959 84.404 4.50032 84.1451 4.57657C83.8862 4.65283 83.6679 4.82841 83.538 5.065L78.363 14.518C74.009 12.58 69.136 11.494 63.98 11.499C58.838 11.494 53.967 12.577 49.631 14.504L44.45 5.075C44.3868 4.9573 44.3008 4.85333 44.1971 4.76909C44.0934 4.68486 43.974 4.62204 43.8458 4.58428C43.7176 4.54651 43.5832 4.53456 43.4504 4.5491C43.3176 4.56365 43.189 4.6044 43.072 4.669C42.9539 4.73211 42.8496 4.81814 42.7652 4.92206C42.6807 5.02597 42.6179 5.14567 42.5803 5.27417C42.5426 5.40267 42.531 5.53738 42.5461 5.67042C42.5612 5.80347 42.6026 5.93217 42.668 6.049L47.793 15.398C37.723 20.591 30.919 30.481 30.925 41.836L97.043 41.828C97.045 30.477 90.253 20.607 80.198 15.401ZM48.942 29.858C48.2067 29.8576 47.5017 29.5651 46.982 29.0449C46.4623 28.5247 46.1706 27.8193 46.171 27.084C46.1714 26.3487 46.4639 25.6436 46.9841 25.124C47.5043 24.6043 48.2097 24.3126 48.945 24.313C49.6804 24.3143 50.3853 24.607 50.9054 25.1269C51.4255 25.6468 51.7184 26.3516 51.72 27.087C51.7187 27.8227 51.4254 28.5278 50.9045 29.0474C50.3836 29.567 49.6777 29.8585 48.942 29.858ZM79.048 29.853C78.684 29.8533 78.3235 29.7818 77.9871 29.6426C77.6508 29.5035 77.3451 29.2994 77.0877 29.042C76.8302 28.7847 76.626 28.4791 76.4868 28.1428C76.3475 27.8065 76.2759 27.446 76.276 27.082C76.2799 26.3473 76.5732 25.6437 77.0922 25.1238C77.6113 24.6038 78.3143 24.3093 79.049 24.304C79.7831 24.31 80.4852 24.6052 81.0031 25.1254C81.5211 25.6455 81.8131 26.3489 81.816 27.083C81.8164 27.4467 81.7451 27.8069 81.6062 28.143C81.4672 28.4792 81.2634 28.7846 81.0063 29.0419C80.7492 29.2991 80.4439 29.5032 80.1079 29.6424C79.7719 29.7816 79.4117 29.8531 79.048 29.853ZM31.195 44.39L31.206 92.025C31.2048 93.0538 31.4066 94.0727 31.7998 95.0234C32.193 95.9741 32.7699 96.8379 33.4974 97.5653C34.2249 98.2928 35.0888 98.8695 36.0395 99.2626C36.9903 99.6557 38.0092 99.8573 39.038 99.856L44.371 99.858L44.377 116.122C44.376 120.172 47.668 123.464 51.712 123.464C55.768 123.464 59.054 120.169 59.055 116.117L59.051 99.857L68.96 99.854L68.964 116.117C68.964 120.164 72.257 123.463 76.302 123.455C80.358 123.458 83.646 120.163 83.645 116.111L83.64 99.852L88.992 99.848C90.0209 99.8481 91.0398 99.6456 91.9904 99.252C92.9411 98.8584 93.8049 98.2813 94.5325 97.5539C95.2601 96.8264 95.8374 95.9628 96.2312 95.0122C96.6251 94.0617 96.8279 93.0429 96.828 92.014L96.819 44.379L31.195 44.39ZM114.329 50.333C114.329 49.369 114.139 48.4145 113.77 47.5239C113.402 46.6333 112.861 45.8241 112.179 45.1425C111.497 44.461 110.688 43.9205 109.797 43.5518C108.907 43.1832 107.952 42.9936 106.988 42.994C102.935 42.99 99.651 46.281 99.651 50.336L99.657 81.074C99.6564 82.038 99.8457 82.9926 100.214 83.8833C100.583 84.774 101.123 85.5833 101.805 86.2649C102.487 86.9465 103.296 87.4871 104.187 87.8557C105.077 88.2243 106.032 88.4137 106.996 88.413C107.96 88.4131 108.915 88.2233 109.805 87.8542C110.696 87.4852 111.505 86.9442 112.187 86.2623C112.868 85.5803 113.409 84.7707 113.777 83.8798C114.146 82.9889 114.335 82.0341 114.334 81.07L114.329 50.333Z" fill="#6b6580"/>
</svg>
