<svg xmlns="http://www.w3.org/2000/svg" width="20" height="20" viewBox="0 0 20 20" fill="none">
<path fill-rule="evenodd" clip-rule="evenodd" d="M10.1423 2C5.63982 2 2 5.66665 2 10.2028C2 13.8288 4.33216 16.8981 7.56748 17.9844C7.97198 18.0661 8.12014 17.8079 8.12014 17.5908C8.12014 17.4006 8.10681 16.7488 8.10681 16.0696C5.84182 16.5586 5.37015 15.0918 5.37015 15.0918C5.00615 14.1411 4.46682 13.8968 4.46682 13.8968C3.72549 13.3943 4.52082 13.3943 4.52082 13.3943C5.34315 13.4486 5.77465 14.2363 5.77465 14.2363C6.50248 15.4856 7.67531 15.1326 8.14714 14.9153C8.21447 14.3856 8.43031 14.0189 8.65947 13.8153C6.85298 13.6251 4.95232 12.919 4.95232 9.76813C4.95232 8.8718 5.27565 8.13847 5.78798 7.56814C5.70715 7.36448 5.42399 6.52231 5.86898 5.39515C5.86898 5.39515 6.55648 5.17782 8.10664 6.23715C8.77032 6.05759 9.45476 5.96625 10.1423 5.96548C10.8298 5.96548 11.5306 6.06065 12.1778 6.23715C13.7281 5.17782 14.4156 5.39515 14.4156 5.39515C14.8606 6.52231 14.5773 7.36448 14.4964 7.56814C15.0223 8.13847 15.3323 8.8718 15.3323 9.76813C15.3323 12.919 13.4316 13.6115 11.6116 13.8153C11.9083 14.0733 12.1643 14.5621 12.1643 15.3363C12.1643 16.4363 12.151 17.3191 12.151 17.5906C12.151 17.8079 12.2993 18.0661 12.7036 17.9846C15.9389 16.8979 18.2711 13.8288 18.2711 10.2028C18.2844 5.66665 14.6313 2 10.1423 2Z" fill="#0073C3"/>
</svg>
