<svg xmlns="http://www.w3.org/2000/svg" width="128" height="128" viewBox="0 0 128 128" fill="none">
<path d="M97.9049 67.885C98.0789 86.685 114.399 92.942 114.579 93.022C114.441 93.462 111.972 101.938 105.982 110.691C100.804 118.259 95.4289 125.799 86.9639 125.957C78.6459 126.109 75.9709 121.023 66.4599 121.023C56.9519 121.023 53.9809 125.799 46.1059 126.109C37.9339 126.419 31.7109 117.924 26.4899 110.385C15.8219 94.961 7.66891 66.8 18.6159 47.791C24.0539 38.351 33.7739 32.374 44.3229 32.22C52.3469 32.067 59.9209 37.618 64.8259 37.618C69.7279 37.618 78.9319 30.942 88.6079 31.922C92.6589 32.091 104.029 33.558 111.33 44.246C110.743 44.611 97.7639 52.167 97.9049 67.885ZM82.2719 21.719C86.6099 16.468 89.5299 9.156 88.7339 1.883C82.4799 2.134 74.9179 6.04999 70.4329 11.299C66.4129 15.946 62.8929 23.386 63.8419 30.515C70.8129 31.055 77.9329 26.973 82.2719 21.719Z" fill="#6b6580"/>
</svg>
